<svg xmlns="http://www.w3.org/2000/svg" viewBox="0 0 73 73"><circle fill="#54B3E1" cx="36.5" cy="36.4" r="36"/><path fill="#FFF" d="M42.1 13.938l-18.5 1.3c-.2 0-.4.2-.4.4l-.9 28.5v.1l2.2 15.8c0 .2.2.4.4.3.1 0 .1 0 .2-.1l.9-.6c.1 0 .1-.1.1-.1l1.7-3.2 1.1 2.8v1.5c0 .2.2.4.4.4h.1l2.6-.7c.2 0 .3-.2.3-.4l.2-3.3c0-.1 0-.2-.1-.3l-2-2 .3-1.4 19.5-2.2c.2 0 .4-.2.3-.4 0-.1 0-.1-.1-.2l-.8-1.1v-2.6l-.1-3.1.9-4.5c0-.2 0-.3-.2-.4l-.6-.4v-.6c0-.1 0-.2-.1-.2l-1.7-2.2-3.9-13.7-1.5-4.2-.1-2.8c.2-.2 0-.4-.2-.4z"/></svg>