<svg xmlns="http://www.w3.org/2000/svg" viewBox="0 0 73 73"><circle fill="#54B3E1" cx="36.5" cy="36.5" r="36"/><path fill="#FFF" stroke="#FFF" stroke-miterlimit="10" d="M14.9 28.7h-.1l-1.9.5c-.1 0-.2.1-.2.3l.4 1.5c0 .2.3.4.5.4l4.5.7c.7.1 1.2.8 1.1 1.5l-.1.5c-.1.7-.7 1.2-1.3 1.3l-2.8.4c-.3 0-.6.3-.8.5L12.4 39c-.1.2-.2.7-.1.9l1 3.1c.1.2.3.4.5.5l1.3.2c.7.1 1.2.7 1.2 1.4v2.1c0 .1.1.2.2.2h4.8c.4 0 .7.2.9.5.2.3.2.7.1 1l-.7 1.9c-.2.5-.7 1.1-1.2 1.4l-3 1.8-1.4.7-2.7 1.4 7.6-2.9c.3-.1.8-.4 1.1-.7l4.5-4.2.1-.1s0-.1-.1-.1l-.2-.2c-.3-.2-.4-.6-.4-.9 0-.4.1-.7.4-.9l4-3.9c.1-.1.4-.3.7-.3.2 0 .4.1.5.3.2.3.1.7.1.8l-.9 2.9 2.2-1.5c.2-.1.4-.5.4-.8V43c0-.6.5-1.1 1.1-1.1.1 0 .2 0 .4.1L49 46.4h.3c.2 0 .5-.1.7-.1l.9-.5c.2-.1.5-.2.8-.2.4 0 .8.1 1.1.3l3.8 3c.3.3.9.7 1.2.9l2.8 2.2-.1-2.6c0-.1-.1-.2-.2-.2h-.9c-.5 0-1.3-.3-1.7-.6l-6.5-5.1c-.1-.1-.4-.1-.5 0L49 44.9c-.2.2-.6.3-.9.3-.4 0-.7-.1-1-.4l-1.6-1.6c-.1-.1-.4-.2-.6-.2h-.1l-.9.2h-.3c-.6 0-1.1-.4-1.2-1l-4.6-22.1c0-.2-.3-.4-.5-.5l-12.2-2.8h-.2c-.3 0-.6.1-.8.2l-8 5c-.1.1-.2.3-.1.4l1.1 2.5c.1.3.5.6.7.7l.7.3c.5.3 1 .9 1.1 1.5l.2 1c.1.4 0 .7-.3 1-.2.3-.5.4-.9.5l-1 .1c-.6 0-1.3-.3-1.7-.7l-.3-.4c-.2-.1-.5-.2-.7-.2z"/></svg>