<svg xmlns="http://www.w3.org/2000/svg" viewBox="0 0 73 73"><circle fill="#54B3E1" cx="36.5" cy="36.5" r="36"/><path fill="#FFF" d="M52.7 17.9c0-.7-.6-1.3-1.3-1.3l-25.7.1c-.4 0-.7.1-.9.4-.2.3-.3.6-.3 1l.4 4.2c0 .2-.1.4-.3.5l-.4.3c-.1.1-.3 0-.4-.1l-.1-.2c-.3-.3-.8-.5-1.2-.5-.2 0-.4 0-.6.1h-.1c-.6.2-1 .9-1 1.6l.4 7.6c0 .5.3 1.2.6 1.6l1.7 2.1c.1.1 0 .2 0 .3L22 37.1c-.4.4-.7 1.1-.8 1.6l-.1 1.4c0 .3-.2.8-.4 1-.3.4-.5 1.1-.5 1.6v.5c0 .7.5 1.3 1.1 1.4.1 0 .2.2.2.3v.3c0 .1-.1.1-.1.1h-.6c-.7 0-1.3.5-1.4 1.2-.1.6.4 1.3 1 1.5l20.1 7.9c.4.2 1.1.3 1.6.3l10.4-.2c.3 0 .7-.1.9-.4.2-.3.4-.6.4-.9l-1.1-36.8z"/></svg>