<svg xmlns="http://www.w3.org/2000/svg" viewBox="0 0 73 73"><circle fill="#54B3E1" cx="36.5" cy="36.5" r="36"/><path fill="#FFF" d="M54.7 26c.2-.3.2-.7.1-.9-.2-.3-.5-.4-.8-.4h-3.1l1.1-1.4c.3-.4.5-1 .5-1.5v-.5c0-.3-.1-.6-.3-.8-.2-.2-.5-.4-.8-.4L19.2 20c-.3 0-.6.1-.8.4-.2.2-.3.6-.2.9l1.9 7.8c.1.3.1.8.1 1.1l-1.4 16.6c0 .3.1.6.3.9.2.2.5.4.8.4l1.7.1c.1 0 .1.1.1.1l-.1 3.5c0 .3.1.6.3.8.2.2.5.3.8.4h20.7c.3 0 .6-.1.8-.4.2-.2.3-.5.3-.8l-.2-4.8c0-.3.1-.7.2-1l2.2-4.7c.1-.2.4-.6.6-.7l1.3-.9c.4-.3.8-.9.8-1.4l.1-2c0-.1.2-.4.3-.4l1-.4c.5-.2 1-.7 1.1-1.2l.4-1.2c.1-.5.1-1.1 0-1.6l-.3-.7c-.1-.2 0-.5.1-.7l2.6-4.1z"/></svg>