<svg xmlns="http://www.w3.org/2000/svg" viewBox="0 0 73 73"><circle fill="#54B3E1" cx="36.5" cy="36.5" r="36"/><path fill="#FFF" d="M38.3 16c-1 4.3-2 8.8-3 13.1 3.9 6 8.4 12.3 12.6 18.5.6.9 1.5 1.9 1.8 2.7.2.7 0 1.6.1 2.2.1.5.5.7.8 1.2-.1 1.5-1.6 1.6-1.7 3.2-.3 0-.3.4-.6.5.2.6 0 .7-.3 1.1 0 .7.7.7.7 1.4-.3.4-1.1.3-1.3.8-2.8-.3-5.6-.5-8.4-.8.1-.8-.5-.9-.6-1.6 1.5-1.5-.5-2.9-1.3-3.9-.3-.2-.8 0-1.1-.2-.1-.5.3-.4.3-.9-.7-1-1.4-.6-2.3-1.2-.8-.6-1.3-1.9-2.1-2.3-.2-.1-.4 0-.7-.1-.9-.3-1.7-.9-2.5-1.4-.3-1.1.4-3-.6-3.5.5-1.8-1.7-2.2-1.3-3.9-.5-.8-1.2-1.5-1.1-2.9.3-.3.5.1.8.1.5-1.2-.4-1.7-1.2-1.9-.2-1-.8-2.9.1-3.5.7.1.5 1.1 1 1.3.1-.3-.1-1 0-1.6.2-.3.5.2.6-.1 0-.6-1.2-.1-1.2-.8-.7 1.1-1.5-.3-2.1-.7 0-.5.6-.3.7-.7-.2-.9-.8-1.4-1.1-2.2.4-.8-.4-1.2-.5-1.8-.2-1.2.8-2.1.3-3.3 1.1-1.3-1.1-1.6-.6-3.3.7-.7 1.2-1.5 1.8-2.3 0-.3.1-.5.1-.8 1-.6.8-2.5 1.2-3.8 4.4.9 8.6 2.1 12.7 3.4z"/></svg>