<svg xmlns="http://www.w3.org/2000/svg" viewBox="0 0 73 73"><circle fill="#54B3E1" cx="36.5" cy="36.5" r="36"/><path fill="#FFF" d="M14 18h14.3c.4 0 .7.3.9.6l.3.8c.2.4.5.6.9.6H45c.5 0 .9.4.9.9 0 .7.2 1.4.7 1.4.9.1 1.3-.3 1.2-1.4-.1-1.1-.1-1.9.8-1.6.9.3 1 .9 1.8.5s3 7.9 3.4 9.2c.1.1.1.3.2.3.6.7 3.1 4 2.9 4.8-.3.9-.1 3.7 1.7 6.1 1.8 2.4 1.5 7.2 1.2 8.7-.3 1.3-.9 2.3-1.1 2.7-.1.1-.1.2-.1.2l-.4 1.3c-.1.2-.1.4.1.6.2.4.3 1.2-1.3 1.2-2.4.1-2.9.1-3.4-1.1s-3.1-3.6-3.7-3.6-1.2-3.4-2.1-3.6c-.9-.3-1.2-.2-1-1.1.2-.8-1.4-1.9-1.8-2.2-.1-.1-.1-.1-.2-.1-.5-.5-3.3-3.5-2.7-6.3.8-3 1.7-6.9.1-7.5s-2-.7-3.5-2.5c-1.5-1.7-2.6-3.2-4.4-3-1.7.3-3.3 1.3-3.3 1.3s-4 2.6-4.5 1.1c-.6-1.6-1.6-3.2-3.2-3.6-1.3-.3-6.8-.5-8.9-.6-.5 0-.8-.4-.9-.8-.1-.6-.2-1.5-.5-2.3-.1-.4.3-1 1-1z"/></svg>