<svg xmlns="http://www.w3.org/2000/svg" viewBox="0 0 73 73"><circle fill="#54B3E1" cx="36.5" cy="36.5" r="36"/><path fill="#FFF" d="M54 41.5l-.7-.5c-.2-.1-.4-.5-.4-.7V39c0-.6-.5-1.3-1.1-1.5l-1-.5c-.2-.1-.4-.3-.4-.5l-.4-3.2c-.1-.5-.4-1.2-.8-1.6l-6.4-5.9c-.2-.2-.6-.7-.8-1l-2.2-4c-.3-.5-.9-1-1.5-1.1l-.8-.2c-.2 0-.6-.3-.8-.5l-.2-.2c-.1-.1-.1-.4 0-.6l.8-1.5c.2-.4.2-.7 0-1-.2-.3-.5-.5-.9-.5l-16.8.1c-.4 0-.7.2-.9.4-.2.3-.3.6-.3 1l3.1 19.6c.1.5.4 1.2.8 1.6l1.1 1.2c.1.1.1.4.1.5L21.8 43c-.3.5-.3 1.3 0 1.8l.5 1c.1.2.1.6.1.9l-.8 2.3c-.2.5-.1 1.3.1 1.8l1.4 2.8c.3.5.9 1 1.5 1L43 55.7c.2 0 .4.2.4.3l.2.5c.2.6.9 1.1 1.5 1.1h.1c.4 0 .7-.2.9-.4.2-.3.3-.6.3-1l-.3-2.4c0-.1.1-.3.2-.4l.2-.1c.1 0 .2-.1.4-.1s.4 0 .5.1l1.6.8c.2.1.4.1.6.1.5 0 1-.4 1.1-.9l2-7.4c.1-.3.3-.8.5-1.1l1.1-1.6c.5-.5.3-1.3-.3-1.7z"/></svg>