<svg xmlns="http://www.w3.org/2000/svg" viewBox="0 0 73 73"><circle fill="#54B3E1" cx="36.5" cy="36.5" r="36"/><g fill="#FFF"><path d="M31.6 27.2c0-.1-.1-.2-.1-.2-.2-.1-.3-.3-.1-.5l.1-.1c-.2 0-.3-.1-.5-.1l-.1.1c-.2 0-.6-.2-.6-.5.1-.1.1-.2.1-.3-.1-.1-.2-.2-.3-.4 0 0-.6-.5-.5-.9-.2-.2-.3-.4-.5-.6-.1-.1-.2-.1-.3-.1-.2.1-.4.2-.5.3-.3.2-.4.6-.7.8-.2.2-.4.2-.6.2h-1s-.1 0-.2.1l.1.1c.3.2.4.4.4.7 0 .1.1.3.2.4.1.2.3.3.3.5.1.2.3.3.4.5 0 .1 0 .2.1.2 0 .1.1.3.1.4 0 .1.2.2.2.1.3 0 .6-.1.9-.2 0 0 .2-.1.3-.1h.2c.1.2.3.1.4.1.2.1.6.3.7.4.2.2.3.2.5.1.3-.2.4-.2.7 0h.1c.2-.2.4-.3.6-.5-.1.1-.5 0-.4-.5zM20.2 21.5c.1-.2.1-.4.1-.6 0-.1-.1-.3-.2-.4-.1-.2-.2-.5-.6-.5-.1 0-.1-.1-.2-.1s-.1-.1-.2-.1c-.3.2-.5 0-.8 0-.1 0-.1.1-.2.2v.1c-.1 0-.2-.1-.4-.1-.1 0-.3 0-.4.1-.3.2-.6.5-1 .5-.1 0-.4.2-.4.3-.1.3-.2.5-.5.7-.1.1 0 .7 0 .7 0-.3 0 0 0 0s.2.4.6.5c.2 0 .6.1.7.3.2.3.5.5.9.5.1 0 .3.1.4.1.3-.1.5 0 .7.1h.2c.2-.1.4-.3.6-.5.1-.1.4-.1.4-.4.2 0 .2-.1.1-.3v-.7l.2-.4zM10.9 23.7c.2-.3.4-.5.8-.7.2-.1.3-.2.4-.4.1-.3.4-.4.6-.2.1.1.1.1 0 .3-.2.2-.3.4-.2.7 0 .1 0 .2-.1.3h-.1c-.7.1-.8.6-1 1.1-.5-.1-.6-.6-.4-.9v-.2c.1.1 0 .1 0 0zM48.9 33.3c-.4-.1-.6-.4-1-.3h-.1c-.1-.2-.2-.3-.5-.4-.2-.1-.4-.3-.6-.5-.1-.2-.3-.2-.4-.2h-.2c-.2 0-.4-.1-.5 0-.4.1-.7.3-1.1.5-.2.1-.4.1-.5-.1-.1-.1-.1-.2-.2-.3-.1-.1-.2-.3-.3-.4-.2-.2-.4-.3-.6-.5h-.2c-.1 0-.2 0-.3.1 0 0 0 .1-.1.1-.2 0-.2.2-.3.4-.1.2-.2.4-.2.7 0 .3.2.6.5.9l.3.3c.3.1.6.2.8.3l-.6-.3.6.3c.1.1.2 0 .3-.1.1 0 .2-.1.3 0 .1 0 .2.1.2.2.1.4.1.7.2 1.1v.5c.1.3.3.3.4.4.5.1 1.1 0 1.6-.3.2-.1.4-.3.8-.2.2.1.5.1.6-.2h.1c.4 0 .7-.3.9-.6.1-.1.1-.4.2-.6.2-.5.1-.8-.1-.8zM41.1 29.3c-.4 0-.8.2-1.2.1-.3-.1-.4 0-.6-.3 0-.1-.1-.1-.2-.2 0 .1-.1.1-.1.2 0 .2-.1.2-.2.1-.2 0-.4 0-.5-.1-.3 0-.6-.1-.9-.1h-.3c-.2-.2-.5 0-.7-.2 0 0-.1 0-.1.1 0 0 .1 0 .1.1.1 0 0 0 0 0 0 .1 0 .3-.1.4-.3.2-.4.5-.5.8.1 0 .2.1.3.1h.7c.6.1 1.2-.2 1.8-.1l.5.2c.2.1.3.1.5.2s.4.2.6.2c.5-.1 1-.3 1.4-.7.2-.2.3-.4.4-.6-.5-.1-.7-.2-.9-.2zM40.5 32.7s0-.1 0 0l-.6-.5c-.4 0-.8-.1-1.2-.1-.1 0-.3.1-.4.3-.1.2 0 .4.3.5.3.1.4.3.4.5 0 .3 0 .6.3.8.4-.1.8 0 1.1-.3.2-.1.3-.3.4-.5.1-.2 0-.6-.3-.7zM43.5 36v-.2c.1-.1.1-.2 0-.3-.2-.3-.3-.2-.6-.1-.2.1-.5.3-.7.4-.1.2-.2.3-.2.4-.1.1.2.4.3.4.3 0 .9-.1.9-.1s.2-.1.2 0c.1.1.2 0 .3-.1-.1-.2-.2-.3-.2-.4zm-.5.3c.1 0 .1.1.2.1-.1 0-.2-.1-.2-.1zM62.2 46.2c-.1-.1-.3-.1-.4-.2-.4-.1-.7-.3-.9-.7 0 0 0-.1-.1-.1-.3 0-.3-.2-.3-.5v-.2c0-.3-.2-.5-.5-.5-.2 0-.4.1-.6.1V44v-1-.3c-.2-.2-.3-.4-.6-.6-.5-.4-1.1-.9-1.7-1.2-.4-.2-.8-.4-1.3-.6-.4-.2-.8-.3-1.1-.4H54.1c-.3-.2-.6-.4-.8-.5-.2-.1-.4-.2-.5-.3-.1-.1-.1-.2-.3-.3l-.9-.3c-.2-.1-.4 0-.5.2-.3.5-.1 1 .1 1.5.1.3.4.5.6.8.1.1 0 .5 0 .6-.2.1-.3.3-.4.4-.2.2-.3.5-.4.8l-.1.1c-.3 0-.5.2-.6.4-.2.3-.6.5-.6 1v.2c.1.2.2.4.2.6 0 .2.1.2.2.2.3.1.3.3.4.5l.3 1.2H51c.1.3.1.7.3.9.2.3.2.7.2 1 0 .6-.2 1.2-.3 1.7 0 .1.1.2.1.3.1.1.1.2.2.4.1.3.2.5.4.5.2.1.5.1.7.2.1.1.3.2.4.3.2.1.4.2.5.4.1.1.1.1.1.2-.1-.3-.1-.3 0 0 0 0 .1 0 .2-.1.3-.1.3-.5.6-.6 0 0 0-.1.1-.2 0-.1 0-.2.1-.3.2-.2.4-.4.2-.7.3-.2.4-.7.9-.7.1 0 .1-.1.2-.1.2-.2.4-.4.7-.5.1 0 .2-.1.3-.2.2-.2.4-.3.6-.5.1-.1.3-.1.4-.1.2.1.5.2.7 0 .1-.1 1.2-.5 1.5-.7l.6-.3c.4-.3.7-.6 1-.9.3-.2.6-.5.6-.9 0 .2-.1.1-.1.1z"/></g></svg>