<svg xmlns="http://www.w3.org/2000/svg" viewBox="0 0 73 73"><circle fill="#54B3E1" cx="36.5" cy="36.5" r="36"/><path fill="#FFF" d="M50.8 43.8l-.2-.2-.1-.1-.1-.1h-.2v-.2l-.2-.3v-.1l-.2-.1h-.1l-.1.1H49.3V43.1h.1-.2l-.1-.1h-.7l-.2.1H47.9V43h-.5l-.4.1h-.5l-.1-.1H46v.2l-1.1.8h-.5l-.6-.1H43.5l-.1.1h-.1l-.3.3.1.1H43l-.1-.2-.2-.1-.1-.1h-.1v-.4h-.1v-.1l-.1-.1v-.1l-.1-.1v-.1l-.1-.1-.1-.1-.1-.1-.9-1-.1-.1h-.2l-.1.1h-.1v-.1h-.1l-.2-.1h-.1v-.2l-.1-.2V41h.1V40.7l-.1-.2v-.1l-.1-.2V40h-.2v-.4l-.7-.5-.1-.1-.1-.1-.1-.1v-.1l-.1-.1v-.5l-.1-.1V37.7l-.4-.7V36.7l-.2-.1h-.1v-.1l-.3-.5-.2-.1H37v.1l-.1.1-.2.1-.1.1h-.1v.1l-.1.1H36.1l-.2-.1-.9.4h-.4l.1-.1v-.1l.1-.1.1-.1v-.2l-.1-.1V35.8l.1-.1v-.1h.2l.1-.1v-.1l-.1-.2v-.1h-.2V35l.1-.1-.2-.2h.2v-.5l.1-.1v-.4l.1-.2-.1-.1.1-.1v-.4l-.3.1.1-3.6h-.7l-.1-.1h-.1l.1-.1v-.1l-.2-.4-.1.1-.2.2v-.2h-.2l-.1-.1h-.1l-.1-.1v-.4l-.1-.1-.1-.2h-.2v-.1l-.4-.5-.1-.2-.8-1.1-.1-.1V25.6l-.1-.1-.9-.5H30.1v-.2l-.1-.1-.2-.2-.4-.2-.3-.3H29h.2-.1v-.2l-.1-.6.1-.1V22.8l-.1-.2v-.4l-.2-.2v-.1l-.1-.1-.1-.3v-.1l-.1-.1-.1-.1v-.1h-.1V21l-.1-.2-.1-.1-.1-.2-.1-.1v-.1-7h-4.7c0 6 0 11.9.1 17.9l-.1.2v.2l.2.3.2.3.1.1.1.3.1.2v.2h-.6l-.1.2v.1l.2.3c0 .1.1.2.1.3v.2l.1.4.3.3v.2l.3.1.1.1.3.2h.2l.1.1.1.1.1.1.1.3.2.3V36.6l-.1.1-.1.2-.1.2v.2l-.2.3-.1.2-.2.2-.1.1v.5l-.1.1-.1.4-.1.3-.5.8v.5l-.1.3v.1l-.1.2-.3.4-.1.1.1.2-.3.2-.1.1-.1.1-.1.3v.3l-.1.1v.4l-.1.1-.1.1h-.2v.4l-.1.3V44.7l.1.1v.5l.1.1.2.1v-.2h.2v.2h.5v.4l.1.1.1.1.1.1v.5H23.1v.2l.1.2v.7l-.1.2v.2-.2l-.1.1-.1.1-.1.1v11.6h28.1V43.8h-.1z"/></svg>