<svg xmlns="http://www.w3.org/2000/svg" viewBox="0 0 73 73"><circle fill="#54B3E1" cx="36.5" cy="36.5" r="36"/><path fill="#FFF" d="M49.6 43.9l-.7-1.9c-.1-.2-.1-.7 0-1l.3-.7c.2-.5.4-1.3.4-1.9L49.1 21c0-.6-.3-1.4-.5-1.9l-1.8-3c-.1-.2-.2-.7-.1-1l.3-1c.1-.4 0-.8-.2-1.2-.2-.3-.6-.5-1.1-.5l-16.2.4c-.5 0-.9.2-1 .6-.2.4-.1.8.1 1.2l2.3 3.3c.1.1 0 .2 0 .3l-4.5 3.5c-.5.4-.9 1.2-.9 1.9l.2 2.6c0 .3-.1.7-.3.9-.1.1-3.3 3.5-1.4 8.9 1.6 4.5 6.6 8.2 6.8 8.4.1.1.2.4.2.5l-1.1 3.5c-.2.7.1 1.6.6 2.1l4.6 3.5c.2.2.5.6.6.9l1.1 4.8c.1.6.6 1 1.1 1 .3 0 .6-.1.8-.3l1-.9c.1-.1.3-.2.6-.2h.2l1.9.6c.5.2 1 0 1.3-.3.2-.3.4-.6.3-1l-.1-1.3c0-.1.1-.3.2-.3l1.5-.4c.7-.2 1.3-.8 1.5-1.5l2.7-9.1c.1-.7.1-1.6-.2-2.1z"/></svg>