<svg xmlns="http://www.w3.org/2000/svg" viewBox="0 0 73 73"><circle fill="#54B3E1" cx="36.5" cy="36.5" r="36"/><path fill="#FFF" d="M50.2 45.9c-.1 0-.1-.1 0 0v-.2l.4-.3c.5-.4.9-1.2.9-1.9l-.6-28.9c0-.8-.7-1.5-1.5-1.5l-14.9.2c-.5 0-1.3.2-1.8.4l-2.4 1.1c-.1 0-.3.1-.5.1s-.3 0-.4-.1l-1.5-.6c-.5-.2-1-.1-1.3.2-.2.2-.3.6-.3.9l.4 32.5c0 .3-.2.8-.3 1.1l-3.3 4.7c-.3.4-.6 1.2-.7 1.7l-.6 3c-.1.4 0 .7.2 1 .2.2.5.4.8.4.1 0 .3 0 .4-.1l3.9-1.3c.2-.1.8-.1 1 .1l1.6.7c.2.1.5.2.7.2.5 0 1-.2 1.3-.5l.9-.8c.1-.1.4-.2.7-.2h.1l1.3.2h.3c.7 0 1.3-.4 1.6-1l.4-.9c0-.1.2-.1.2-.1l2.8.9c.2 0 .3.1.5.1.6 0 1.2-.3 1.5-.9l.4-.8c.2-.3.6-.8.9-1.1l2.2-2.1c.5-.5.8-1.3.6-2l-.1-.5h.1c.3.1.7.1.9.1.4 0 .7 0 1-.1l2.7-.8c.4-.1.7-.4.8-.8.1-.4 0-.8-.3-1.1l-1-1z"/></svg>