<svg xmlns="http://www.w3.org/2000/svg" viewBox="0 0 73 73"><circle fill="#54B3E1" cx="36.5" cy="36.5" r="36"/><path fill="#FFF" d="M58.5 35.3V35h-.2l-.2-.2-.1-.1-.6-.4h-.2l-.1-.3-.2-.1-.1-.2v-.5.1l-.1-.3-.2-.2-.6-.4-.2-.2-.1-.2-.1-.1-.2-.1-.1-.1.1-.2.1-.2v-.1l-.1-.2-.2-.3-.1-.1v-.4l-.1-.1-.2-.1h-.2l-.3-.1-1.2-.2-.3-.1-.2-.1-.1-.1-.2-.5v-.8l-.1-.1-.2-.2-.1-.2v-1.1l-.1-.3v-.7l.1-.3.4-.5.1-.3v-.3l-.2-.2-.6-.2-.1-.1-.1-.1V23l-.1-.2v-.4H14.7V23.3l.1.1.1.1.1.1v.8h-.1v.1l.1.1h.1l-.1.1v.2h.6v.1l.1.4v.4l-.1.4v.2l-.2.2v.8l-.4.1V28.3h-.1v.1l-.1.2-.4.4v.4l.1.2.1.1.1.1.4.3-.1-.1.1.1-.1.2.1.1v1l.3.1.2.1.1.1.1.4.2.3v.4l.2.3v.1l.1.1.1.1V34l-.1.2v.2l.1.2.1.1.2.2.1.1.1.2V35.8l.2.3.3.2.2.2.1.4v.1l-.1.2v.2l.1.2v.1l.4.4.1.2v.2l-.1.2v.4l-.1-.3v.8l.1.2.1.1v.5l.1.1h.1l.1-.1h.2l.1.1.1.1v.4l.1.1V41h.1v.1l-.1.4v.7l.1.1.3.1h.1l.1.1-.1.2-.1.2h-.1l-.1.4v.1l.1.1.3.1.1.1-.2.1v.5l-.1.3v.5l.1.1.1.1v.5l.1.2v.4l-.1.2V46.9l.1.1v.1l-.1.2-.1.1v.6l.1.1.4.2.1.1.1.2V48.9c9.2-.1 18.4-.1 27.6-.2l.1.1.1.1v.5h.2l.2.1v.2h.1v.1h.1l.1.1h.1v.4l.1.1.2.3.1.1.2.1.1.1.4-.1.1-.1v-1l-.1-.1.1-.4v-.2l.1-.1v-.1l.1-.2.3-.2.3-.1.2-.1h.3l.3-.1.2-.2.2-.3.1-.4V46.6l.1-.1.1-.2.7-.8.1-.3v-.8l-.1-.2-.2-.3-.3-.3h-.1l-.1-.1-.1-.2v-.4l.1-.4.1-.4.1-.4.2-.3.3-.2 2-.2.3-.1.1-.1.3-.3.1-.1.7-.1.3-.1.1-.1.1-.1.1-.1.3-.2.1-.1v-.5l.1-.2v-.2l.1-.2.1-.2.1-.1.1-.1V38h.1l.1-.1.1-.2.1-.4.1-.6.1-.3v-.5l-.2-.4.1-.2z"/></svg>