<svg xmlns="http://www.w3.org/2000/svg" viewBox="0 0 73 73"><circle fill="#54B3E1" cx="36.5" cy="36.5" r="36"/><path fill="#FFF" d="M45.1 22.938H45l-3.6.9c-.2 0-.3.2-.3.4v1.9l-2.4 1.2c-.1 0-.2.1-.2.2l-1 2.1-2.6 1.8-.2.2-.6 1.9-2.2.2c-.1 0-.1 0-.2.1l-1.9 1.2-1.9-.2c-.1 0-.2 0-.3.1l-1 .9-2.6-.7h-.3l-3.7 1.6c-.1 0-.1.1-.2.2l-.9 1.3c-.1.1-.1.3-.1.4l.5 1.3-2 1c-.2.1-.3.3-.3.5l.2 2-.4.2-2.8-.7c-.2 0-.3 0-.5.2l-1.2 1.5c-.1.1-.1.2-.1.3l.2 2.6-1.7 1.7c-.2.2-.2.5 0 .6.1.1.2.1.3.1l9.3.1c.2 0 .4-.1.4-.4l.5-2.5 31.1-2.2c.1 0 .1 0 .2-.1l4.6-2.6c.1 0 .1-.1.2-.1l1.5-2.2 3.3-3.6c.1-.1.1-.2.1-.3l.1-1.2c0-.1 0-.3-.1-.4l-3.6-3.4-1.6-3.1v-.1l-2.1-2.6c-.1-.2-.4-.2-.6-.1l-1.7 1-1.9-.3h-.1l-1.9.2-.4-.6c-.1-.1-.2-.2-.4-.2h-1.7l-.7-2.1s-.2-.2-.4-.2z"/></svg>