<svg xmlns="http://www.w3.org/2000/svg" viewBox="0 0 73 73"><circle fill="#54B3E1" cx="36.5" cy="36.5" r="36"/><path fill="#FFF" d="M37.2 18.338l-11 .2-9.5.2h-.1l-.7.3c-.1.1-.2.2-.2.3l.4 7.6v.1l1.1 2.3.9 3v.1l1.3 2.3.6 3.7-1.5 2.6c0 .1-.1.2 0 .3l.4 1.6-1 4.5v.1l.2 1.7c0 .2.2.3.4.3l4.6-.7 4.6 1.9h.1l3.3.1 1.9.6h.3l2-.9c.2-.1.2-.3.2-.5 0-.1-.1-.2-.2-.2l-2.2-.5-.3-.7h3.1l1 2.2c.1.1.2.2.3.2l1.4.1-.4 1c-.1.2 0 .4.2.5l4.7 2.1c.1.1.3 0 .4-.1l1.4-1.2 1.4-.7.1 1.1c0 .2.2.3.4.3.1 0 .2 0 .2-.1l1.9-1.7c.1-.1.1-.2.1-.3v-1.1h.7l.6 1.1c.1.1.2.2.3.2H52l1.9 1.4c.1 0 .1.1.2.1h1.3c.1 0 .1 0 .2-.1l1.7-1.2c.2-.1.2-.3.1-.5l-1.7-1.7c-.1-.1-.1-.1-.2-.1l-3.1-.4-.4-1.1 1.1-.7c.1 0 .1-.1.1-.1l.8-1.8v-.3l-.7-2.1c-.1-.2-.3-.3-.4-.2-.1 0-.1.1-.2.1l-1.2 1.8-.8-.3 1.3-1.2c.1-.1.1-.3.1-.4l-1.9-3.7v-3.9c0-.2-.2-.3-.3-.3h-.1l-3.9.6-10.1-.2.2-3.5 3.1-6.2v-.1l.5-1.7c0-.1 0-.2-.1-.3l-1-1.3-.8-2.2v-2.2c-.1.1-.3-.1-.5-.1z"/></svg>