<svg xmlns="http://www.w3.org/2000/svg" viewBox="0 0 73 73"><circle fill="#54B3E1" cx="36.5" cy="36.5" r="36"/><path fill="#FFF" d="M52.7 39.9l-.9-2c-.3-.7-1-1.1-1.7-1.1 0 0-.1-.1-.1-.2l-.6-3.2c-.1-.8-.8-1.4-1.6-1.5l-1-.2c-.1 0-.3-.2-.3-.3L46 17.6c0-.7-.4-1.5-1-1.9l-2.6-2c-.3-.3-.8-.4-1.3-.4-.3 0-.7.1-.9.2l-2 1.1c-.2.1-.6.2-.8.2h-.2c-.1 0-.4-.3-.4-.5l-.2-.6c-.2-.7-1-1.3-1.8-1.3h-.3c-.7 0-1.5.4-1.9 1L28 20.5c-.3.5-.6 1.4-.5 2l.1 1.8c0 .4-.1 1-.2 1.4l-1 3.4c-.1.3-.4.9-.6 1.2L20.6 36c-.4.5-.7 1.3-.7 2l.7 18c0 .6.3 1.4.7 1.9l.1.1c.2.3.4.8.5 1 .1.7.7 1.3 1.4 1.5l.2.1c.2 0 .3.1.5.1.7 0 1.3-.4 1.6-.9l3.5-6.7c0-.1.2-.2.3-.1l.5.2c.2.1.5.1.9.1.5 0 .9-.1 1.3-.3l3.7-2c.6-.3 1.1-1 1.3-1.7l.6-2.8c0-.2.3-.5.5-.5h.1c.2 0 .4.1.5.2l1.9 2.1c.3.4.8.6 1.3.6.3 0 .7-.1.9-.3l9.6-6.6c.3-.4.6-1.3.2-2.1z"/></svg>