<svg xmlns="http://www.w3.org/2000/svg" viewBox="0 0 73 73"><circle fill="#54B3E1" cx="36.5" cy="36.5" r="36"/><path fill="#FFF" d="M61.5 41.6c-.2-.3-.6-.5-1.1-.5h-5.5c-.1 0-.2-.1-.2-.2l-1.1-16.2c-.1-.8-.8-1.5-1.6-1.5l-38.8-.3c-.8 0-1.6.7-1.6 1.5l-.3 5.6c0 .5.1.8.3.9.2.2.4.3.7.3.3 0 .6-.1.8-.4l2.9-2.7c.1-.1.3-.2.5-.2h.2l.2.1c.2.1.4.1.7.1.6 0 1.1-.2 1.5-.6l1.1-1.1c.1-.1.3-.2.5-.2h.2l1.9.7c.4.1.7.2 1 .2.4 0 .8-.1 1.1-.2l.9-.3h.3c.2 0 .4.1.5.1l3.6 2.6c.4.3 1.2.7 1.7.9l.9.3c.1 0 .2.2.2.3l-.1.4c-.1.8.3 1.6 1 2l5.4 2.8-3.3 4.4c-.4.6-.6 1.5-.3 2.1.2.6.8 1 1.4 1 .2 0 .3 0 .5-.1l.9-.3h.2c.2 0 .5.1.6.2l2.2 2.1c.4.4 1.1.8 1.6 1.1l2.9 1.4c.5.3 1.1.2 1.4-.2.1-.2.3-.5.1-1l-2.2-7.9c-.1-.4-.1-1-.1-1.4l.7-5c0-.3.3-.8.5-1.1l1.5-1.5-.4.7c-.3.5-.6 1.3-.7 1.9l-.6 5.1c-.1.6 0 1.4.2 1.9l1.4 4.8c.2.7.9 1.2 1.6 1.2h.3l.4-.1c.1 0 .1 0 .1.1l.6 3.6c.1.7.7 1.3 1.5 1.3h.3l5.8-1.3c.7-.2 1.4-.8 1.6-1.4l1.6-4.5c.2-.7.1-1.2-.1-1.5z"/></svg>