<svg xmlns="http://www.w3.org/2000/svg" viewBox="0 0 73 73"><circle fill="#54B3E1" cx="36.5" cy="36.5" r="36"/><g fill="#FFF"><path d="M61.7 41.6l-.2-1.7c-.1-.5-.3-1.3-.7-1.8l-.6-1.1c-.3-.5-1-1-1.5-1.2l-.3-.1c-.2-.1-.5-.1-.7-.1-.6 0-.8.4-.8.5-.1.3 0 .5.1.7.1.1.2.2.4.2.1 0 .4.1.8.3.3.1.5.5.6.8l.1.6c.1.9.5 1 .7 1v.1l.1.5c0 .3-.2.6-.4.7l-1.1.4c-.4.2-1 .5-1.3.7-.1 0-.1.1-.2.1-.3-.2-.9-.4-1.2-.4l-.9-.2c-.4-.1-.9-.4-1-.6-.1-.2-.2-.4-.2-.5.1-.4-.2-1.2-.3-1.4V39c-.3-.7-.6-1-1-1-.1 0-.3-.2-.6-.4l-.1-.1c-.2-.2-.2-.5-.1-.7l.1-.1c.4-.6.3-1.4-.1-1.9l-1.8-2c-.4-.5-1.1-.8-1.7-.8-.4 0-.7-.2-.8-.3-.1-.1-.1-.3 0-.5.2-.3.3-.9.2-1.3 0-.1.1-.3.4-.5l.8-.6c.3-.3.6-.6.6-1v-.4s.1-.1.2-.1l1.6-.6c.6-.2 1.1-.8 1.2-1.4 0-.3 0-.6-.2-.8-.2-.2-.5-.3-.8-.2h-.2c-.2 0-.4-.1-.5-.1-.2-.1-.4-.5-.5-.9l-.5-1.3c-.1-.7-.8-1.2-1.5-1.2h-.7c-.6 0-1.3.4-1.7.7-.2.2-.6.4-.9.4-.6 0-1.2.5-1.2 1 0 .1-.1.2-.1.2-.4 0-.9.2-1.1.6-.1.1-.4.2-.7.2h-.1l-25.5-1.1c-.7 0-1.4.5-1.5 1.1l-3 11.3c-.1.4 0 .7.2 1 .2.3.5.4.9.5l7.8.4c.2 0 .3 0 .4.1.1.4.4.7.8.8h.2c.4 0 .8-.3.8-.7.1 0 .2-.1.4-.1l17.4.4c.2 0 .4.2.4.4v.6c0 .7.3 1.2.7 1.3 0 .1.1.2.1.4v.3c0 .7.4 1.4.9 1.6.3.1.6.5.7.8.1.5.5 1 .9 1.1 0 .1.1.2.2.5l.1 1.2c.1.6.6 1.1 1.2 1.1h.3l1-.2c.7-.2 1.2-.6 1.1-1.1 0-.1 0-.3.1-.4 0-.1.3-.2.6-.2.5 0 1.2-.5 1.5-1l.3-.5c.2-.3.4-.4.5-.4.1 0 .2.2.2.5v1.3c0 .4-.3.9-.5 1.1l-.5.4c-.3.3-.9.7-1.3.9l-.8.4c-.3.1-.6.3-.5.7 0 .2.2.4.5.4.1 0 .2 0 .4-.1l.7-.2c.5-.1 1.2-.5 1.7-.8l1-.7c.3-.2.9-.4 1.3-.5h.2c.6 0 1.4-.4 1.8-.8l.4-.4c.3-.3.8-.6 1.2-.6l3.4-.5h.5c0 .1 0 .4-.1.6-.3 1-.2 1.3 0 1.4l.1.1h.2c.3 0 .5-.2.8-1l.1-.2c.2-.5.4-1.2.4-1.7-.2-.5-.2-1.3-.3-1.8z"/><path d="M54 48.9c-.1 0-.1 0-.2.1s-.3.3-.3.4c-.1 0-.2-.1-.3-.2 0 0-.2-.2-.2-.5-.1-.3-.4-.7-.6-.8-.1 0-.2-.1-.3-.1-.3 0-.7.2-1 .4l-.1.2c-.4.3-.9.9-1.2 1.3-.2.3-.4.5-.5.5-.1 0-.3-.1-.4 0-.1 0-.2.1-.2.2-.1.2 0 .4.1.5.1.2.4.4.6.5h.2c.2 0 .4-.1.5-.2.1-.1.4-.2.9-.3.5-.1 1.2-.2 1.7-.2h.8c.6 0 1.1-.4 1.1-.9-.2-.6-.4-.9-.6-.9zM60.5 49.9c-.3-.5-.4-.5-.6-.5-.1 0-.1 0-.2.1s-.1.2-.1.3c0 .2 0 .5-.1.7 0 .1-.4.3-.9.4h-.7c-.3 0-.5 0-.7-.1H57c-.2 0-.3.1-.3.2-.1.2.1.4.3.5.4.3 1 .5 1.4.6.4.1 1.1.1 1.5.1.5 0 1-.2 1.1-.5.1-.3-.2-.9-.4-1.3l-.1-.5zm-.4 2.1z"/></g></svg>