<svg xmlns="http://www.w3.org/2000/svg" viewBox="0 0 73 73"><circle fill="#54B3E1" cx="36.5" cy="36.5" r="36"/><g fill="#FFF"><path d="M59.2 47.3c-.3-.6-1.8-3.7-2.1-5.2-.3-1.6-1.8-2.6-2.4-2.4-.6.2-2.4 3.2-3.6 3.3-1.2.1-2.4-1-2.3-2.3.1-1 1.3-1.4 1.9-1.6.2-.1.3-.2.3-.4.1-.5.2-1.5.6-1.8.6-.5.8-2.1.1-3.2-.8-1.1.3-2.1.3-2.1s.9-1.2-1.2-1.8c-2.1-.6-4.3-1.7-4.9-2.4-.5-.8-2.2 0-2.2 0s-1.9.7-1.5 1.4 1.5 2.3.3 2c-1-.2-1.4 1.2-1.5 1.7v.2c.1.5.4 2.6-.4 2.8-.7.2-1.8-.5-2.2-2-.1-.4-.7-.5-.9-.1-.9 2.2-1 3.4-.9 3.7 0 .1 0 .2-.1.3-.4.6-1.7 2.8-1.6 3.8.2 1.2-.6 2.9.1 4 .7 1 4.1 8 .2 12.7-.3.3 0 .8.4.8l9.9-.4c.3 0 .5.2.5.5s.2.5.5.5h6.7c.2 0 .4-.2.4-.3l1.2-5c.3-1.1 1.1-4.4 2.3-4.1 1.2.3 1.2 1.5 1.6 1 .4-.4.4-2.6.4-3.1.2-.4.1-.5.1-.5zM38.5 25.4c1.7-.1 1.2-1.2 2.7-1.1 1.5.1 1.7 1.5 2.9.9 1.2-.5 1.9-.8 3.8-.5 1.8.3.7-2.1.5-2.3v-.1l-.5-1.3c-.1-.3-.4-.4-.6-.3-.9.3-2.6.9-3.2-.2-.8-1.5-2-3-2.7-2.2s-.7 2.1-2.4 2.1c-1.8-.1-2.8 0-3.5.8-.7.8-2.1 1.1-3 .7-.9-.4-.9 1.2-2.3-.9s-1.6-2.6-2.7-2.5c-1 .1-3.3-.5-1.6-1.7 1.8-1.2 4.3-2.9 2.3-2.7-2 .2-4.9 1.1-5.6 2.4s-2.3 2.4-4.6 2.8c-2.2.4-7.1 2.7-2.3 4.3 4.2 1.4 6.8 2.2 7.3 2.3h.2c.8-.2 5.1-1.1 4.3 1.1-.9 2.4-2.1 3.5-.8 3.6 1.2.2.5 2.7 2.2 1.6.1-.1.2-.2.2-.3.3-.9 1.6-5.1 2.8-4.7 1.5.5 2 .8 3-.3 1.1-1.1 1.9-1.4 3.6-1.5z"/></g></svg>