<svg xmlns="http://www.w3.org/2000/svg" viewBox="0 0 73 73"><circle fill="#54B3E1" cx="36.5" cy="36.5" r="36"/><path fill="#FFF" d="M53.7 25.9c0-.2-.1-.5-.8-.6l-5.7-.9h-.4c-.4 0-.9.1-1.2.2l-.8.3c-.1 0-.2.1-.4.1s-.4 0-.4-.1L37.3 22c-.3-.1-.6-.2-1-.2-.2 0-.5 0-.7.1l-.6.2h-.4c-.2 0-.4 0-.5-.1l-2.4-.9c-.2-.1-.4-.3-.4-.5l-.5-2.4c-.1-.6-.6-1.1-1.1-1.3h-.2c-.6 0-1 .4-1.1 1l-.1 1c0 .1-.1.2-.2.2l-7.5-.3c-.4 0-.7.1-.9.4-.2.2-.3.6-.3.9l2 19.4c0 .2-.1.6-.2.7l-.3.4c-.4.4-.6 1.1-.5 1.6.1.5.4 1.1.8 1.4l.5.3c.2.1.3.4.3.6l-.3 10.3c0 .3.1.6.3.9.2.2.5.4.9.4l23.5-.1c.4 0 .7-.2.9-.4.2-.3.2-.6.1-1l-.9-2.1c-.2-.4-.6-1-1-1.3l-5.2-3.9c-.2-.1-.3-.4-.3-.6l.1-4c0-.3.1-.7.3-1l1.2-2c.2-.4.4-1.1.4-1.6l-.2-2.3c0-.2.1-.6.3-.7l6.1-6c.2-.2.7-.5.9-.6l4.1-1.9c.5-.1.5-.5.5-.7z"/></svg>