<svg xmlns="http://www.w3.org/2000/svg" viewBox="0 0 73 73"><circle fill="#54B3E1" cx="36.5" cy="36.5" r="36"/><path fill="#FFF" d="M39.1 18.838l-22 1.1c-.2 0-.3.2-.3.4l.2 1.6c0 .1 0 .1.1.2l2.4 2.9.1.1 1.3.8-.5 2v.3l2 2.9.3 8.1v11.5c0 .2.1.3.3.3l26.6-1.2.2 1.9-.8 1.1-.1.1-.2 1.1c0 .2.1.4.3.4h.1l3.5-.3c.1 0 .3-.1.3-.3l.9-3.9 2.3-1.3c.1-.1.2-.2.2-.3v-2c0-.1-.1-.2-.1-.3l-2.2-1.5-.4-1.7-.6-2.8c0-.1-.1-.2-.2-.2l-4.1-1.5-.9-1.8 1.6-4.5c.1-.2 0-.4-.2-.4h-.1l-3.4-.1.2-1.3c0-.1 0-.2-.1-.3l-3.7-3.1-1.2-3v-2.1-.2l-1.3-2.2c-.2-.5-.3-.5-.5-.5z"/></svg>