<svg xmlns="http://www.w3.org/2000/svg" viewBox="0 0 73 73"><circle fill="#54B3E1" cx="36.5" cy="36.5" r="36"/><path fill="#FFF" d="M50.6 15c0-.4-.1-.8-.4-1.1-.3-.3-.6-.4-1-.4H34.4c-.7 0-1.4.5-1.7 1.2l-1.8 4.6c-.1.4-.5 1-.7 1.3l-4.3 6.7c-.3.5-.5 1.3-.4 1.9l1.6 9.7c0 .3-.1.7-.2 1l-2.4 3.5c-.3.4-.6 1.1-.7 1.6l-1.4 5c-.1.4 0 .8.2 1.1.2.3.6.5 1 .5l13.1.8-.3.9c-.2.6-.2 1.4.1 2l1.7 3.4c.2.5.8.8 1.4.8.2 0 .4 0 .6-.1l2.9-1.3c.3-.1.9-.2 1.2-.2l3.3.2h.1c.4 0 .7-.2 1-.4.3-.3.4-.6.4-1l-.7-12.9v-1.5L50.6 15z"/></svg>