<svg xmlns="http://www.w3.org/2000/svg" viewBox="0 0 73 73"><circle fill="#54B3E1" cx="36.5" cy="36.5" r="36"/><path fill="#FFF" d="M51.5 49c-1.3-2.6-1.1-6.6-1.8-9.9-.3-1.7-.6-3.5-.8-5.2-.5-.2-.9-.5-1.4-.7-.1.3-.1.3-.3.5-.1-.1-.2-.1-.4-.2 0-.2-.1-.4-.1-.6.2-.2.4-.3.6-.5-.6-2.5-.1-4.6-.5-7.4.2-.2.5-.4.7-.6-.2-.4-.4-.8-.4-1.5-.3 0-.3 0-.6.2-.1-.7-.5-1.7-.1-2.4.2-.2.2-.2.6-.2 0-.2-.1-.5-.1-.7-1.4-.4-2.7.3-3.7.4-3.3.2-6.7.1-8.5 1.9-1.2 1.2-2.1 2.7-3.5 3.7v.7c.7 0 .8.1 1.1.5.2.2.1 0 .2.4-.5.1-.9.2-1.4.3v.1c.9 1.1 1 1.6.9 3.6-.3.3-.4.5-.8.6-.2 0-.4-.1-.6-.1-.9 0-1.7.9-1.9 1.7-.6-.1-.7-.4-1.2-.4-1.3.2-2.6.3-3.9.5-2.8-1.1-6.8-1.2-9.7 0-.2 1.5.9 2.8.5 4.8-.3 1.6-4.4 3.7-5.8 4.3.1.6.2 1.1.3 1.7 9.7.1 19.5.2 29.2.4l2.1 1.8v.9l1.4 2.2c2.2 1.5 5.9 1.8 7.9 3.5.1 0 .2.1.3.1.4-1.4.9-2.7.4-3.7.5-.3.9-.5 1.3-.7zm8.8 1.2c0-.1-.1-.1-.1-.2 1-.2 1.5-.7 2.2-1 .1-.1.1-.2.2-.3 0-.1-.1-.1-.1-.2-.2 0-.3-.1-.5-.1-2.1 1.7-5.3 1.1-8 1.8-.3.3-.7.6-1 .8l-2.4.9c0 .2-.1.4-.1.6.3.4.5.5 1 .7 1.1 0 1.2-.5 1.9-.8h.6c-.2.2-.3.5-.5.7 2.9.3 8-3 10.7-3.7 0-.1.1-.1.1-.2-1.8.2-2.3.9-4 1z"/></svg>