<svg xmlns="http://www.w3.org/2000/svg" viewBox="0 0 73 73"><circle fill="#54B3E1" cx="36.5" cy="36.5" r="36"/><path fill="#FFF" d="M46.7 52.2c2.5.7 2.6.9 1.4 3.2-.2.4-.3 1-.5 1.5-2.3-.9-3.9.6-5.5 1.8-.5.4-1.1.9-1.7.9-4.4 0-8.8-.3-13.2-.2-3.1 0-3.6-2.7-2.5-5.1.4-.8.3-1.8.6-2.6 1-3.7.3-7.9 3-11.1.3-.4.4-1 .6-1.6.4-1.1 1-2.1 1.3-3.3.3-1.1.2-2.2.5-3.3.2-.7.7-1.6 1.3-2 1.1-.7 2.4-1 3.6-1.5 1.1-.5 2.1-3 1.4-3.9-1-1.2-.1-2.2 0-3.3.1-.7.2-1.3.4-2 .2-.9.5-1.8.9-2.6.4-.9.8-1.8 1.4-3 .6-.3 1.5-1.3 2.8-.3.3.2 1-.1 1.6-.3.1 1.3.2 2.6.2 4 .5 9.5.9 19 1.4 28.5.1 1 .7 2.1 1.4 3 1.1 1.5 1.1 2.3-.4 3.2z"/></svg>