<svg xmlns="http://www.w3.org/2000/svg" viewBox="0 0 73 73"><circle fill="#54B3E1" cx="36.5" cy="36.5" r="36"/><path fill="#FFF" d="M44.5 27.4c0-.2.3-.3.4-.3h.1c.7 0 1.5-.6 1.8-1.3l2.2-5c.3-.8 0-1.7-.7-2.2l-10.2-6.4c-.3-.2-.7-.3-1.1-.3-.4 0-.8.1-1.2.3l-1.5 1c-.5.4-1.1 1.1-1.2 1.8l-.1.5c-.1.3-.4.8-.6 1l-2.1 1.8c-.6.5-.8 1.5-.4 2.2l.7 1.3c.1.1 0 .4-.1.5l-1.1 1.1c-.5.5-.8 1.4-.8 2l.3 3c.1.7.6 1.5 1.2 1.9l1.3.7c.3.2.8.6 1.1.9l3 3.9v.2L27 41.5c-.5.3-1.1 1-1.3 1.6L24 47.9c-.3.7-.1 1.6.4 2.2l4 4.6c.4.5 1.2.9 1.9 1l2.8.4-1 2.8c-.3.8.1 1.7.9 2 .2.1.4.1.6.1.6 0 1.2-.3 1.5-.7l6-7.3c.3-.4.8-1.1 1.1-1.5l3.9-6.5c.3-.5.6-1.3.7-1.9l1.6-10.9c.1-.8-.4-1.7-1.2-1.9l-2.8-.9c-.1 0-.2-.1-.1-.2l.2-1.8z"/></svg>