<svg xmlns="http://www.w3.org/2000/svg" viewBox="0 0 73 73"><circle fill="#54B3E1" cx="36.5" cy="36.5" r="36"/><path fill="#FFF" d="M9.5 37c-.1.6.4 1.1 1 1.1H17c.1 0 .3 0 .4-.1.8-.3 4.5-1.7 6.2-1.7 1.6 0 4.4.2 5.3.3.2 0 .4.1.5.2.5.4 1.7 1.3 2.1 2.2.1.3.4.6.8.6 1.9.1 4.6 0 5.7 0 .3 0 .5.1.7.3l6.4 6.6c.3.3.6.4 1 .3.4-.1 1-.3 1.7-.1.3.1.6.1.8.1.5.1 1-.2 1.1-.7.4-1.3 1.2-3.7 2.7-4.4 2.2-1 6.2-1.1 6.7-2 .5-.9 1.4-1.8 0-1.7-1.4.2-3.3.1-2-1 1.3-1.1.3-2.4 2-2.2s2.4-.3 2.9-.9c.5-.6 2.7-3.1 1.3-3.2-1.5-.1-7.1 1.8-6.8.3.3-1.5.3-2.2 2-2 1.6.1 3.9.3 3.9-.5.1-.5-.2-1.3-.4-1.8-.1-.4-.5-.6-1-.6l-33.7.6c-.5 0-.9.4-1 .9-.1.3-.1.5-.4.8-.8.6-1.6.8-1.7 1.4-.1.6-.3 1.1-.8.8-.6-.4-1.8 1.3-2.2.7-.2-.3-.4-.4-.6-.6-.3-.2-.6-.2-.9-.1l-.6.3c-.3.2-.6.5-.6.9v.2c0 .4-.3.8-.6.9l-2.3 1c-.2.1-.3.1-.5.1-.4-.1-1.5-.2-2 .2-.5.3-1.1 1.2-1.4 1.7-.1.2-.3.4-.6.4l-.8.2c-.5-.2-.8.2-.8.5z"/></svg>