<svg xmlns="http://www.w3.org/2000/svg" viewBox="0 0 73 73"><circle fill="#54B3E1" cx="36.5" cy="36.5" r="36"/><path fill="#FFF" d="M54.7 17.8c0-.6-.4-1.1-1-1.1-.2 0-.3 0-.5.1l-4.5 1.9c-.4.2-1 .5-1.3.7l-3.2 2.2c-.1.1-.3.1-.5.1h-.2l-.7-.2c-.2-.1-.4-.1-.7-.1-.4 0-.8.1-1.1.2l-2.5 1.3h-.2c-.1 0-.3-.1-.3-.1l-1-.8c-.4-.4-1.1-.6-1.5-.5h-.1c-.2 0-.5-.1-.7-.2l-3.4-1.6c-.4-.2-1.1-.4-1.6-.4l-9.6.2c-.7 0-1.3.6-1.3 1.3L18 46.9c0 .7.5 1.3 1.1 1.4l1.9.4c.2.1.6.3.7.5l1 1.7c.3.5.9.9 1.4 1.1l6.3 1.9c.3.1.6.1.7.1.4 0 .7-.1 1-.2l2.5-.9h.1c.1 0 .2.1.3.1l1.6 2.3c.3.5.9.8 1.5.8h.2l.9-.1c.6-.1 1.2-.5 1.4-1.1l.6-1.7c.1-.3.4-.9.6-1.2l.9-1.5c.2.3.5.5.8.5.3 0 .5-.1.7-.4.2-.3.5-.9.6-1.3L45 48c.1-.2.3-.6.5-.7l6-4.1c.4-.3.9-.9 1-1.4l2.3-9.3c.1-.4.2-1.1.2-1.5l-.3-13.2z"/></svg>