<svg xmlns="http://www.w3.org/2000/svg" viewBox="0 0 73 73"><circle fill="#54B3E1" cx="36.5" cy="36.5" r="36"/><path fill="#FFF" d="M60.7 36.1c0-.4-.1-.9-.1-1.3l-1.3-6.1c-.1-.3-.1-.8-.1-1l.2-1.7c0-.3-.1-.6-.3-.8-.2-.2-.5-.3-.8-.3l-21.2.5h-1.2l-22.7-.9c-.3 0-.6.1-.8.3-.2.2-.3.5-.3.8v2.1c0 .6.5 1.1 1.1 1.1l15.4.7c.1 0 .1.1.1.1l-.2 12.1c0 .6.4 1.1.9 1.3l8.3 2.6c.3.1.9.2 1.2.3l10.5 2.5c.2.1.5.1.8.1.2 0 .4 0 .6-.1l4.4-.9h.3c.2 0 .5 0 .6.1l3.8 1.2c.1 0 .2.1.3.1.2 0 .5-.1.6-.3.2-.2.3-.4.3-.7l-.4-11.8z"/></svg>