<svg xmlns="http://www.w3.org/2000/svg" viewBox="0 0 73 73"><circle fill="#54B3E1" cx="36.5" cy="36.5" r="36"/><path fill="#FFF" d="M57.5 26.9c.2-.6 0-1.4-.4-1.9l-1.6-1.8c-.4-.4-1.1-.8-1.7-.8l-9.2.2c-.5 0-1.2.1-1.6.2l-8.5 2.4c-.3.1-.9.2-1.3.1l-2.7-.1c-.5 0-1.2.1-1.7.2l-.5.2c-.2.1-.7.1-1 0l-.7-.3c-.2-.1-.5-.4-.6-.6l-.7-2c-.2-.6-.9-1.1-1.5-1.2h-.1c-.3 0-.5-.2-.6-.2-.2-.3-.7-.5-1.2-.5-.2 0-.3 0-.5.1l-1.1.3c-.6.2-1.2.8-1.2 1.5l-1.6 15.2c0 .4-.2 1-.3 1.3l-1.8 5.5c-.2.5-.1 1.3.1 1.8l.1.2c.1.3.3.9.3 1.2l.2 2.6c.1.7.7 1.3 1.4 1.3l36.9.4c.7 0 1.4-.6 1.4-1.3l.3-13.9c0-.6-.4-1.4-1-1.7l-.4-.2c-.1 0-.2-.2-.1-.3l2.9-7.9z"/></svg>