<svg xmlns="http://www.w3.org/2000/svg" viewBox="0 0 60 60"><path fill="#67aee7" d="M30 0C13.4 0 0 13.4 0 30s13.4 30 30 30 30-13.4 30-30S46.6 0 30 0zm18.8 37.1c-.1.1-.1 0-.2.1h-.2c-.1.1-.1.2-.2.3-.1.1-.3.1-.5.2s-.3.3-.5.4c-.1 0-.1.1-.2.1l-.2.2c-.1.1-.3.1-.4.3-.1.1 0 .2 0 .4s-.1.2-.3.3l-.6.3c-.2 0-.3 0-.5.1-.1.1-.2.2-.4.3-.1.1-.2 0-.3-.1-.1 0-.1-.1-.2-.1-.5-.2-1-.1-1.4.2l-.3.3c0 .1-.1.1-.1.2-.1.2-.1.2-.3.2-1.3.1-2.6.1-3.9.1-2.4 0-4.8.1-7.1.1h-7.1c-2.5-.1-5.1 0-7.6-.1-1.3 0-2.6-.1-3.8-.1h-1.4c-.1-.1 0-.5 0-.6 0-.6 0-1.3.1-1.9.1-2.4.1-4.8.2-7.2.1-2.2.1-4.4.2-6.7 0-.6 0-1.3.1-1.9V22v-.5c.1-.2.7-.3.9-.4.2-.1.4-.2.7-.3.2-.1.5-.2.7-.4.1-.1.1-.4.3-.5.2-.1.3 0 .3.1.1.2.7-.3.8-.4l1.2-.6v2.1c0 .2 0 .2.2.2h.8c1.2 0 2.3 0 3.5.1 2.3.1 4.6.1 7 .1 2.3 0 4.6 0 7-.1h3.2c1.2 0 2.3-.1 3.5-.1h2.6c.1 0 .3-.1.4 0 .1.1 0 .1.1.2l.2.2h.1c.1 0 .2.3.2.4v.2c0-.1.1.2 0 .1.1.1.1 0 .1 0h.1c.1 0 .1-.2.3 0 0 0 0-.1.1-.1s0 .1.1.1c.1.1.1 0 .1 0h.2v.1c0 .1.1.1.1.1.1 0 .1-.1.1 0 .1.1-.1.1-.1.2-.2.3.2.1.3.3V23.4s-.1.1-.1 0v.1s.1.1.1.2c0 0-.1 0 0 .1V24.4s-.1 0-.1.1c-.2 0 .2.3.2.4.1.2 0 .2.1.3 0 .1.2.1.1.2.2-.1.1.1.1.1.1.1.1.1.2.1h.2v.1s.1 0 .1.1c0 0-.1.1 0 .1h.2c.1 0 .2.1.3.1 0 0 0-.1.1-.1s.1 0 .1.1c.1.1 0 .1.2.1.1 0 .2-.1.2 0 0 0-.1.1 0 .2 0 .1.1 0 .1.1.1.1.3.3.1.4h-.2s0 .1-.1.1c0 0-.1.1-.2.1v.1c0 .1-.1.1-.2.1-.3.1-.3.2-.3.3-.1.1-.1.2-.1.3v.1s0 .1-.1.1c0 .1 0 .1-.1.2-.1.2-.2.3-.4.5-.1.1-.3.2-.3.3 0 0 .2-.1.1 0s-.2.1-.3.2c-.1.1-.1.2-.1.2-.1.1-.3.1-.4.2-.1 0-.2.1-.2.2-.1.1 0 .1.1.2.1.2.2.3.3.5v.1c0 .1.1.1.1.1 0 .1.1.2-.1.2 0 0-.1-.1-.2 0s0 .1 0 .1.1.1 0 .1l-.1.1-.2.2s0 .1-.1.1-.1-.1-.2 0l-.2.2c0 .1.1.1.1.2s-.1.2-.1.3c0 .1.1.1.2.1 0 .1-.1.1-.1.2s.2.3 0 .3c0 .1.1.1.1.2v.1c.1.2.2.1.3 0 .2 0 .3 0 .5.2.1.2.1.4.1.6 0 .2 0 .4.1.5.1.1.3 0 .4 0 .2 0 .3.2.3.4.1.3.1.3.4.4.2.1.2.3.3.5.1.2.3.2.5.3.1.1.1.1.1.2l.2.2c.3.6 0 .7-.1.7z"/></svg>