<svg xmlns="http://www.w3.org/2000/svg" viewBox="0 0 73 73"><circle fill="#54B3E1" cx="36.5" cy="36.5" r="36"/><path fill="#FFF" d="M59 43.7l-2.9-3.1c-.1-.1-.3-.5-.2-.7l.2-2.7c0-.2.2-.7.3-.9l2.2-2.9c.4-.5.3-1.2-.2-1.7L57 30.4c-.2-.2-.4-.5-.5-.8l-.4-1.5c-.1-.5-.6-1-1.1-1.1-.1 0-.4-.2-.5-.4-.2-.5-.8-.9-1.4-.9L21 25.5c-.1 0-.1-.1-.1-.1v-1.1c0-.5-.4-.9-.9-.9-.2 0-.3 0-.5.1l-4.4 2.3c-.5.3-.8.9-.9 1.4l-.7 21.1c0 .3.1.6.3.8.2.2.5.4.8.4l35.4.2c.5 0 1.1-.3 1.5-.6l.2-.2c.2-.2.6-.4.9-.5l2.6-.9c.4-.1.9-.4 1.3-.6l2.1-1.5c.3-.2.4-.5.5-.8.2-.4.1-.7-.1-.9z"/></svg>