<svg xmlns="http://www.w3.org/2000/svg" viewBox="0 0 73 73"><circle fill="#54B3E1" cx="36.5" cy="36.5" r="36"/><path fill="#FFF" d="M33.3 14.638h-.1l-14.9 4.1c-.2.1-.3.3-.3.5l4.2 15.4 2.1 11.2 1.2 12.3c0 .2.2.4.4.3h.1l7.9-2.6s.1 0 .1-.1l6.9-5.2.1-.1 2.7-4.4h4l7.2-3.6c.2-.1.3-.3.2-.5l-7.2-11.9s-2.3-2.9-4.7-5.9c-1.2-1.5-2.3-3-3.2-4.1-.4-.6-.8-1.1-1.1-1.4-.1-.2-.2-.3-.3-.4l-.1-.1s0-.1 0 0c0-.2-.1-.2-.2-.3l-.2-.2c-.1-.1-.3-.3-.6-.4-.4-.3-1-.7-1.6-1.1-1.2-.7-2.3-1.4-2.3-1.4-.2-.1-.3-.1-.3-.1z"/></svg>