<svg xmlns="http://www.w3.org/2000/svg" viewBox="0 0 73 73"><circle fill="#54B3E1" cx="36.5" cy="36.5" r="36"/><path fill="#FFF" d="M57.5 32.9l-8.9-8.8c-.4-.4-1.1-.7-1.7-.7l-8.1.1v-.1c.2-.6 0-1.4-.4-1.9l-.7-.8c-.3-.3-.7-.5-1.1-.5-.3 0-.6.1-.8.3l-.2.1-.2-.3c-.3-.6-1-1-1.7-1h-8.1c-.5 0-1.2.1-1.6.2l-5.6 1.1c-.6.1-1.2.6-1.5 1.1L15.4 24c-.4.6-.2 1.5.3 1.9l2.3 1.9c.3.2.7.4 1.1.4.3 0 .6-.1.8-.2l.3-.2c.1 0 .2 0 .2.1l7.2 11.6c.3.4.7 1 1.1 1.3l2.4 2c.2.2.4.6.4.8l.3 2.7c.1.5.3 1.2.5 1.6l2 3.9c.3.5.9 1 1.4 1.2l1 .3c.2.1.4.1.6.1.5 0 1-.2 1.3-.5l3-2.6c.3-.2.4-.6.5-1 0-.4-.1-.7-.4-1l10-7c.4-.3.9-.9 1.1-1.3l1.5-3c.1-.3.5-.7.7-.9l2.3-1.6c.3-.2.5-.6.5-.9.1 0-.1-.4-.3-.7z"/></svg>