<svg xmlns="http://www.w3.org/2000/svg" viewBox="0 0 73 73"><circle fill="#54B3E1" cx="36.5" cy="36.5" r="36"/><path fill="#FFF" d="M58.5 49.4l-.6-1.2c-.1-.2-.1-.5 0-.7l.5-1.6c.1-.4.1-1 0-1.4l-.7-1.9c.2 0 .3-.1.4-.2.2-.2.3-.5.3-.8l-.5-13.3c0-.5-.4-1-.9-1.1l-.3-.1c-.2-.1-.4-.3-.5-.4l-.4-.7c-.1-.1-.1-.4 0-.5l.8-1.2c.2-.3.2-.6.1-.8-.1-.2-.4-.4-.7-.4l-39.5-.5c-.5 0-1 .4-1 1l-1.1 21.7c0 .3.1.5.3.7.2.2.4.3.7.3l30.6.5c.2 0 .6.1.8.2l1.2 1c.3.2.8.3 1.2.3h.2l3.7-.4c.2 0 .6.1.8.2l1.1.6c.3.1.7.4 1 .5l1.7 1c.2.1.3.1.4.1.2 0 .4-.1.5-.3.1-.1.1-.3-.1-.6z"/></svg>