<svg xmlns="http://www.w3.org/2000/svg" viewBox="0 0 73 73"><circle fill="#54B3E1" cx="36.5" cy="36.5" r="36"/><path fill="#FFF" d="M59.2 36.1l-1.5-2.3c-.2-.3-.3-.8-.3-1.1v-4c0-.7-.5-1.4-1.2-1.7l-2.5-1c-.5-.2-1.3-.3-1.8-.3l-6.4.2h-.1c-.4 0-1-.1-1.3-.2l-6.5-2c-.1 0-.3-.3-.3-.4v-7.1c0-.8-.6-1.5-1.4-1.5l-8.6-.2c-.8 0-1.4.6-1.5 1.4l-.6 16.4c0 .1-.1.2-.2.2H14.5c-.7 0-.9.4-1 .6-.1.2-.2.6.3 1.1l4.5 4.5c.2.2.6.8.7 1.1l1.1 2.8c.2.6.8 1.2 1.3 1.4l3.1 1.6c.2.1.4.2.7.2.5 0 1-.3 1.3-.8l.8-1.4c.1-.2.4-.4.6-.4l1.5-.1c.3 0 .8.1 1 .3l2.2 1.4c.3.2.7.6.8.9l5.4 10.1c.3.5 1 1.1 1.6 1.2l5.2 1.3h.3c.3 0 .7-.1.9-.4.2-.3.3-.6.2-1l-.7-3c-.1-.3 0-.8.1-1l1.8-3.6c.1-.3.5-.7.8-.8l8.8-5.2c.5-.3 1-1 1.2-1.6l.7-3.8c0-.5-.2-1.3-.5-1.8z"/></svg>