<svg xmlns="http://www.w3.org/2000/svg" viewBox="0 0 73 73"><circle fill="#54B3E1" cx="36.5" cy="36.5" r="36"/><g fill="#FFF"><path d="M59.2 43.1c-.2-.5-.7-.9-1.2-1l-.9-.1c-.1 0-.3-.1-.3-.2l-.5-2.2c0-.1 0-.1.1-.1h.1c.6-.1 1-.7.9-1.3l-.1-2.8c0-.5-.3-1.1-.7-1.4l-3.1-2.6c-.3-.3-.9-.5-1.4-.5H51l1-2.6c.2-.5 0-1.2-.3-1.5l-3-2.9c-.2-.2-.4-.3-.7-.3-.3 0-.7.2-.8.5l-.2.4h-.1l-2-1.6c-.2-.2-.4-.2-.7-.2-.4 0-.7.2-.9.5l-2.4 3.7c-.2.1-.3.1-.3.1-.1-.1-.3-.1-.5-.1-.4 0-.8.2-1 .6L37.9 30c0 .1-.2.1-.2.1l-1.3-.5c-.1 0-.2-.1-.4-.1-.5 0-.9.3-1.1.7l-3.5 7c-.1.2-.3.4-.5.4L25 39.1h-.3c-.2 0-.4 0-.6-.1l-2.9-1.2c-.2-.1-.4-.1-.6-.1-.3 0-.7.1-.9.2l-9.2 5.7c-.5.4-.5.7-.4.9 0 .1.2.5.7.5l24 1.3h1.1l23-.2c.3 0 .6-.1.8-.4.2-.2.2-.6.1-.9l-.6-1.7z"/><path d="M62.8 33.9c-.1-.2-.4-.4-.7-.4H62l-.9.1c-.5.1-1 .5-1.2 1l-1.8 4.9c-.1.3-.1.6.1.9.2.2.4.4.7.4h.2c.5 0 1-.3 1.3-.8l2.4-5.4c.2-.2.2-.5 0-.7z"/></g></svg>