<svg xmlns="http://www.w3.org/2000/svg" viewBox="0 0 73 73"><circle fill="#54B3E1" cx="36.5" cy="36.5" r="36"/><path fill="#FFF" d="M58.3 22.3c0-.8-.7-1.4-1.5-1.4l-30.6.4c-.4 0-.8.2-1 .5-.2.3-.3.7-.3 1.1L27.4 36l-.7-.2c-.2-.1-.4-.3-.5-.5l-1.1-4.8c-.1-.7-.8-1.3-1.4-1.5l-8.1-2.4c-.1 0-.3-.1-.4-.1-.7 0-1.2.5-1.4 1.2l-.3 1.5c-.1.6 0 1.4.3 1.9l.5.9c.2.3.4.9.4 1.3l1.6 11c.1.7.7 1.4 1.5 1.5l4.7.8c.2 0 .4.3.5.4l.8 3c.2.6.7 1.3 1.4 1.5.9.3 1.9.7 2.2.8h.2c.1 0 .5 0 2.3-1 .1-.1.4-.1.6-.2.2-.1.5-.1.6-.1l6.5.1c.5 0 1.3-.1 1.7-.3l7.6-2.3c.4-.1 1-.2 1.4-.2l9.6-.3c.4 0 .8-.2 1-.5.3-.3.4-.7.4-1.1l-1-24.1z"/></svg>