<svg xmlns="http://www.w3.org/2000/svg" viewBox="0 0 73 73"><circle fill="#54B3E1" cx="36.5" cy="36.5" r="36"/><path fill="#FFF" d="M59.9 29.1L57 26.6c-.3-.3-.8-.4-1.2-.4-.4 0-.8.1-1.1.4l-1.1.8c-.1.1-.5.2-.8.2h-.2l-1.7-.4c-.2 0-.3-.1-.5-.1-.6 0-1.2.2-1.7.5l-4.6 3.6.1-3.9c0-.4-.2-.8-.5-1.2-.3-.3-.7-.5-1.1-.5l-8.1-.1h-.1v-.1l.1-9.2c0-.3 0-.7-.3-.9-.1-.1-.3-.2-.6-.2-.6 0-.8.6-.9.8l-3.3 10c-.1.4-.5.9-.7 1.1l-2.3 2.2c-.2.2-.7.4-1 .4h-.2c-.8 0-1.6.4-2 1.1l-1.9 3.4c-.1.1-.2.2-.4.2h-.1l-.7-.3c-.1 0-.3-.1-.5-.1-.7 0-1.4.5-1.6 1.2l-.9 3.1c-.1.4-.4 1-.7 1.3l-3.6 4.2c-.5.6-.6 1.6-.1 2.3l8.4 11.2c.3.5.9.7 1.6.7.2 0 .4 0 .7-.1l11.8-4.6c.6-.2 1.3-.9 1.6-1.4l5.6-10.3 1.4 1c.3.2.6.3.9.3.6 0 1.1-.3 1.3-.8l2.2-3.8c.3.2.6.3.9.3.5 0 1-.2 1.3-.6l2.8-3.1c.4-.4.8-1.2 1-1.8l.6-1.9 3.1 2.5c.3.2.6.3.9.3.6 0 1.1-.4 1.2-1l.4-1.4c.3-.9 0-1.9-.5-2.4z"/></svg>