<svg xmlns="http://www.w3.org/2000/svg" viewBox="0 0 73 73"><circle fill="#54B3E1" cx="36.5" cy="36.5" r="36"/><path fill="#FFF" d="M55.2 30.2c-.2-.2-.4-.2-.7-.2-.5 0-.9.2-1.2.6l-4.9 7c0 .1-.1.1-.2.1h-.1l-.2-.1 1.8-2.6c.3-.4.5-1.2.5-1.7l-.1-1.5c0-.6-.5-1.3-1.1-1.5-.1-.1-.4-.3-.4-.5l-.4-1.9c-.1-.6-.6-1.2-1.2-1.5L44.4 25c-.4-.2-1-.4-1.5-.5l-7-2c-.3-.1-.7-.4-.8-.6l-.4-.5c-.3-.4-.9-.9-1.4-1.1l-2-.9c-.1-.1-.3-.3-.3-.5v-.7c0-.6-.2-1.3-.8-1.5-.2-.1-.4-.2-.7-.2-.3 0-.6.1-.9.2l-3.5 1.4c-.3.1-.9.3-1.3.3l-2 .2c-.7.1-1.3.7-1.3 1.4l-.1 3.7c0 .3-.2.7-.4.9l-2.5 2.5c-.5.5-.6 1.3-.2 1.9l.3.5c.1.2.2.7.2.9l-.8 4.8c-.1.6.2 1.4.7 1.8l7.5 6.2c.2.2.4.6.5.8l1.4 8c.1.6.5 1.2 1 1.6l.7.5c.3.2.6.6.8.9l.3.4c.3.5 1 .9 1.6.9h16.8c.4 0 .7-.2 1-.4.2-.3.3-.6.3-1L49 50v-1.3l.8-4.7c.1-.3.2-.9.4-1.2L55.7 32c.4-.7.1-1.5-.5-1.8z"/></svg>