<svg data-name="Layer 1" xmlns="http://www.w3.org/2000/svg" viewBox="0 0 284.5 106.5789"><title>NACAC_conf_logo</title><path d="M1.737 103.601l.869-.992a3.689 3.689 0 0 0 2.481.992c.869 0 1.365-.372 1.365-.992 0-.496-.248-.869-1.737-1.24-1.613-.373-2.606-.87-2.606-2.358a2.33 2.33 0 0 1 2.606-2.234 4.684 4.684 0 0 1 2.853.993l-.744.993a3.64 3.64 0 0 0-2.11-.745 1.057 1.057 0 0 0-1.24.869c0 .62.372.868 1.861 1.24 1.613.373 2.482.993 2.482 2.234 0 1.489-1.117 2.357-2.73 2.357a3.986 3.986 0 0 1-3.35-1.117zM8.81 101.864a2.947 2.947 0 0 1 2.853-3.102 2.867 2.867 0 0 1 2.854 3.102v.372h-4.343a1.64 1.64 0 0 0 1.737 1.49 2.184 2.184 0 0 0 1.613-.745l.744.744a3.071 3.071 0 0 1-2.357 1.117 2.9 2.9 0 0 1-3.102-2.978zm4.342-.496a1.489 1.489 0 0 0-2.978 0h2.978zM15.757 98.886h1.365v.993a2.195 2.195 0 0 1 1.985-1.117 2.816 2.816 0 0 1 2.73 2.978 2.741 2.741 0 0 1-2.73 2.978 2.386 2.386 0 0 1-1.985-.993v2.73h-1.365v-7.568zm4.715 2.978a1.71 1.71 0 0 0-1.613-1.86 1.804 1.804 0 0 0-1.737 1.86 1.73 1.73 0 0 0 1.737 1.861 1.71 1.71 0 0 0 1.613-1.86zM23.45 103.105v-3.102h-.745v-1.117h.745v-1.612h1.365v1.612h1.613v1.117h-1.613v2.854a.658.658 0 0 0 .744.744 2.3 2.3 0 0 0 .869-.248v1.117a2.04 2.04 0 0 1-1.241.248 1.387 1.387 0 0 1-1.737-1.613zM27.668 103.229h1.49v1.489h-1.49v-1.489zM33.748 103.725l2.605-2.233c1.117-.869 1.49-1.365 1.49-2.11a1.172 1.172 0 0 0-1.241-1.24 2.004 2.004 0 0 0-1.737 1.116l-.993-.744a3.282 3.282 0 0 1 2.854-1.613 2.35 2.35 0 0 1 2.605 2.357c0 1.24-.62 1.861-1.985 2.978l-1.613 1.365h3.722v1.24h-5.583l-.124-1.116zM40.572 103.725l2.606-2.233c1.116-.869 1.488-1.365 1.488-2.11a1.172 1.172 0 0 0-1.24-1.24 2.004 2.004 0 0 0-1.737 1.116l-.993-.744a3.282 3.282 0 0 1 2.854-1.612 2.35 2.35 0 0 1 2.606 2.357c0 1.24-.62 1.861-1.986 2.978l-1.613 1.365h3.722v1.24h-5.583v-1.117h-.124zM47.396 100.747h4.59v1.241h-4.59v-1.24zM53.103 103.725l2.606-2.233c1.117-.869 1.489-1.365 1.489-2.11a1.172 1.172 0 0 0-1.241-1.24 2.004 2.004 0 0 0-1.737 1.116l-.993-.744a3.282 3.282 0 0 1 2.854-1.613 2.35 2.35 0 0 1 2.606 2.357c0 1.24-.62 1.861-1.986 2.978l-1.613 1.365h3.723v1.24h-5.584v-1.116h-.124zM63.774 102.98h-3.847l-.248-.992 4.343-5.087h1.117v4.963h1.116v1.117h-1.117v1.737h-1.364v-1.737zm0-1.116v-3.102l-2.482 3.102h2.482zM67.124 105.834a1.061 1.061 0 0 0 .992-.992h-.62v-1.489h1.49v1.24a1.665 1.665 0 0 1-1.738 1.862zM73.575 103.725l2.606-2.234c1.117-.868 1.489-1.364 1.489-2.109a1.172 1.172 0 0 0-1.24-1.24 2.004 2.004 0 0 0-1.738 1.116l-.992-.744a3.282 3.282 0 0 1 2.854-1.613 2.35 2.35 0 0 1 2.605 2.358c0 1.24-.62 1.86-1.985 2.977l-1.613 1.365h3.722v1.24H73.7l-.124-1.116zM80.4 100.871c0-2.233 1.364-3.97 3.35-3.97s3.35 1.738 3.35 3.97c0 2.234-1.365 3.97-3.35 3.97s-3.35-1.736-3.35-3.97zm5.335 0c0-1.488-.745-2.853-1.985-2.853s-1.986 1.24-1.986 2.73c0 1.489.745 2.73 1.985 2.73 1.241.123 1.986-1.118 1.986-2.606zM89.705 98.266l-1.365.372-.248-1.117 1.985-.62h.993v7.817h-1.365v-6.452zM93.675 104.097a3.704 3.704 0 0 1-.992-2.977c0-2.358 1.116-4.219 3.35-4.219a3.642 3.642 0 0 1 2.357.869l-.744.992a2.69 2.69 0 0 0-1.737-.62c-1.365 0-1.861 1.365-1.861 2.482a2.34 2.34 0 0 1 1.86-.745 2.478 2.478 0 0 1 2.73 2.482 2.684 2.684 0 0 1-2.853 2.605 3.646 3.646 0 0 1-2.11-.868zm3.722-1.86a1.635 1.635 0 0 0-3.225 0 1.449 1.449 0 0 0 1.613 1.364 1.382 1.382 0 0 0 1.612-1.365z"/><path d="M107.323 95.909h1.117v10.298h-1.117V95.909z" fill="#004868"/><path d="M117.001 100.871a3.846 3.846 0 0 1 3.97-3.97 3.905 3.905 0 0 1 2.978 1.241l-.869.993a2.84 2.84 0 0 0-2.109-.993 2.65 2.65 0 0 0-2.605 2.73 2.65 2.65 0 0 0 2.605 2.73 2.905 2.905 0 0 0 2.233-.992l.869.868a4.032 4.032 0 0 1-3.102 1.365 3.846 3.846 0 0 1-3.97-3.972zM124.818 101.864a3.103 3.103 0 0 1 6.203-.124 3.047 3.047 0 0 1-3.101 2.978 2.872 2.872 0 0 1-3.102-2.854zm4.963 0a1.803 1.803 0 0 0-1.737-1.86 1.726 1.726 0 0 0-1.737 1.86 1.741 1.741 0 1 0 3.474 0zM132.51 96.653h1.365v8.065h-1.365v-8.065zM135.612 102.609v-3.723h1.365v3.35a1.21 1.21 0 0 0 1.24 1.365 1.338 1.338 0 0 0 1.365-1.489v-3.35h1.365v5.832h-1.365v-.869a2.147 2.147 0 0 1-1.86.993 1.848 1.848 0 0 1-2.11-2.11zM142.436 98.886h1.365v.869a2.089 2.089 0 0 1 1.737-.993 1.725 1.725 0 0 1 1.737.993 2.41 2.41 0 0 1 1.985-.993 1.964 1.964 0 0 1 1.985 2.234v3.722h-1.365v-3.35a1.261 1.261 0 1 0-2.482 0v3.35h-1.364v-3.35a1.21 1.21 0 0 0-1.241-1.365 1.255 1.255 0 0 0-1.24 1.489v3.35h-1.366l.249-5.956zM154.347 103.85v.868h-1.365v-8.065h1.365v3.226a2.195 2.195 0 0 1 1.985-1.117 2.816 2.816 0 0 1 2.73 2.978 2.741 2.741 0 0 1-2.73 2.978 2.049 2.049 0 0 1-1.985-.869zm3.35-1.986a1.71 1.71 0 0 0-1.613-1.86 1.804 1.804 0 0 0-1.737 1.86 1.73 1.73 0 0 0 1.737 1.861 1.71 1.71 0 0 0 1.613-1.86zM160.303 102.609v-3.723h1.364v3.35a1.21 1.21 0 0 0 1.241 1.365 1.338 1.338 0 0 0 1.365-1.489v-3.35h1.365v5.832h-1.365v-.869a2.147 2.147 0 0 1-1.861.993 1.848 1.848 0 0 1-2.11-2.11zM166.755 103.973l.62-.868a3.268 3.268 0 0 0 1.86.744c.62 0 .87-.248.87-.62 0-.496-.62-.62-1.366-.868-.868-.248-1.86-.62-1.86-1.737s.868-1.737 2.108-1.737a4.183 4.183 0 0 1 2.11.62l-.497.992a3.004 3.004 0 0 0-1.613-.496.745.745 0 0 0-.868.62c0 .372.62.62 1.365.869.868.248 1.86.62 1.86 1.737a1.893 1.893 0 0 1-2.109 1.86 6.395 6.395 0 0 1-2.48-1.116zM172.338 105.834a1.061 1.061 0 0 0 .992-.992h-.62v-1.489h1.49v1.24a1.665 1.665 0 0 1-1.738 1.862zM178.914 100.871a3.95 3.95 0 0 1 4.094-3.97 4.026 4.026 0 0 1 4.094 3.97 4.096 4.096 0 0 1-8.188 0zm6.7 0a2.608 2.608 0 1 0-5.212 0 2.608 2.608 0 1 0 5.212 0zM188.591 97.025h1.365v3.226h3.722v-3.226h1.365v7.693h-1.365v-3.227h-3.722v3.226h-1.365v-7.692z"/><path d="M203.976 95.909h1.117v10.298h-1.117V95.909z" fill="#004868"/><path d="M213.778 98.886h1.365v.869a2.147 2.147 0 0 1 1.861-.993 1.992 1.992 0 0 1 2.11 2.234v3.722h-1.366v-3.35a1.317 1.317 0 0 0-1.24-1.49 1.338 1.338 0 0 0-1.365 1.49v3.35h-1.365v-5.832zM220.354 103.105c0-1.24.993-1.861 2.357-1.861a6.286 6.286 0 0 1 1.613.248v-.124c0-.869-.496-1.24-1.488-1.24a3.434 3.434 0 0 0-1.613.371l-.373-.992a5.408 5.408 0 0 1 2.234-.497 3.157 3.157 0 0 1 1.985.62 2.568 2.568 0 0 1 .62 1.862v3.474h-1.365v-.745a2.24 2.24 0 0 1-1.861.869c-1.24-.249-2.109-.869-2.109-1.985zm3.97-.496v-.373a3.83 3.83 0 0 0-1.365-.248c-.868 0-1.365.372-1.365.993a.928.928 0 0 0 1.117.868 1.436 1.436 0 0 0 1.613-1.24zM226.806 101.864a3.072 3.072 0 0 1 5.335-2.109l-.868.869a2.163 2.163 0 0 0-1.49-.745 1.803 1.803 0 0 0-1.736 1.861 1.803 1.803 0 0 0 1.737 1.861 1.769 1.769 0 0 0 1.489-.744l.744.744a3.071 3.071 0 0 1-2.357 1.117 2.806 2.806 0 0 1-2.854-2.854zM233.134 103.105c0-1.24.992-1.861 2.357-1.861a6.286 6.286 0 0 1 1.613.248v-.124c0-.869-.496-1.24-1.489-1.24a3.434 3.434 0 0 0-1.613.371l-.372-.992a5.408 5.408 0 0 1 2.233-.497 3.157 3.157 0 0 1 1.986.62 2.568 2.568 0 0 1 .62 1.862v3.474h-1.365v-.745a2.24 2.24 0 0 1-1.861.869c-1.117-.249-2.11-.869-2.11-1.985zm3.97-.496v-.373a3.83 3.83 0 0 0-1.365-.248c-.869 0-1.365.372-1.365.993a.928.928 0 0 0 1.117.868 1.367 1.367 0 0 0 1.613-1.24zM239.71 101.864a3.072 3.072 0 0 1 5.335-2.109l-.868.869a2.163 2.163 0 0 0-1.49-.745 1.803 1.803 0 0 0-1.736 1.861 1.803 1.803 0 0 0 1.737 1.861 1.769 1.769 0 0 0 1.489-.744l.744.744a3.071 3.071 0 0 1-2.357 1.117 2.736 2.736 0 0 1-2.854-2.854zM246.285 98.886h1.365v.869a2.147 2.147 0 0 1 1.861-.993 1.992 1.992 0 0 1 2.11 2.234v3.722h-1.366v-3.35a1.317 1.317 0 0 0-1.24-1.49 1.338 1.338 0 0 0-1.365 1.49v3.35h-1.365v-5.832zM252.861 101.864a2.947 2.947 0 0 1 2.854-3.102 2.867 2.867 0 0 1 2.854 3.102v.372h-4.343a1.64 1.64 0 0 0 1.737 1.49 2.184 2.184 0 0 0 1.613-.745l.744.744a3.071 3.071 0 0 1-2.357 1.117 2.9 2.9 0 0 1-3.102-2.978zm4.343-.496a1.489 1.489 0 0 0-2.978 0h2.978zM260.058 103.105v-3.102h-.745v-1.117h.745v-1.612h1.364v1.612h1.613v1.117h-1.613v2.854a.658.658 0 0 0 .745.744 2.3 2.3 0 0 0 .868-.248v1.117a2.04 2.04 0 0 1-1.24.248 1.387 1.387 0 0 1-1.737-1.613zM264.276 103.229h1.489v1.489h-1.489v-1.489zM266.757 101.864a3.103 3.103 0 0 1 6.204-.124 3.047 3.047 0 0 1-3.102 2.978 2.872 2.872 0 0 1-3.101-2.854zm4.963 0a1.803 1.803 0 0 0-1.737-1.86 1.726 1.726 0 0 0-1.737 1.86 1.741 1.741 0 1 0 3.474 0zM274.45 98.886h1.365v1.365a1.931 1.931 0 0 1 2.109-1.364v1.364h-.124c-1.117 0-1.985.745-1.985 2.358v2.233h-1.365v-5.956zM278.793 105.834l.496-.992a3.845 3.845 0 0 0 2.11.62 1.61 1.61 0 0 0 1.86-1.737v-.496a2.589 2.589 0 0 1-4.715-1.613 2.575 2.575 0 0 1 2.606-2.73 2.386 2.386 0 0 1 1.985.992v-.868h1.365v4.591a3.033 3.033 0 0 1-.744 2.234 3.359 3.359 0 0 1-2.358.744 4.587 4.587 0 0 1-2.605-.745zm4.466-4.342a1.598 1.598 0 0 0-1.737-1.613 1.564 1.564 0 0 0-1.613 1.613 1.564 1.564 0 0 0 1.613 1.613 1.668 1.668 0 0 0 1.737-1.614z"/><path d="M105.835 49.382V28.165h2.977l6.824 10.67a49.71 49.71 0 0 1 3.847 6.948h.124a95.442 95.442 0 0 1-.372-8.685v-8.933h2.605V49.38h-2.73l-6.7-10.794a82.99 82.99 0 0 1-3.97-7.072h-.124c.124 2.73.248 5.211.248 8.685v9.057l-2.73.124zM134.868 49.382l-.248-1.862h-.125a5.591 5.591 0 0 1-4.714 2.234 4.409 4.409 0 0 1-4.715-4.343c0-3.722 3.226-5.707 9.181-5.707v-.373a3.13 3.13 0 0 0-3.474-3.474 8.658 8.658 0 0 0-3.97 1.117l-.62-1.861a8.978 8.978 0 0 1 4.963-1.365c4.715 0 5.831 3.226 5.831 6.204v5.707a28.89 28.89 0 0 0 .249 3.598l-2.358.124zm-.373-7.693c-2.977-.124-6.451.496-6.451 3.474a2.47 2.47 0 0 0 2.605 2.606 3.845 3.845 0 0 0 3.722-2.606 2.111 2.111 0 0 0 .124-.868v-2.606zM144.918 29.778v4.342h3.97v2.11h-3.97v8.188c0 1.861.496 2.978 2.109 2.978a4.861 4.861 0 0 0 1.613-.248l.124 2.11a6.102 6.102 0 0 1-2.482.371 3.837 3.837 0 0 1-2.977-1.116 6.061 6.061 0 0 1-1.117-3.97v-8.314h-2.358V34.12h2.358v-3.598zM154.968 29.902a1.628 1.628 0 0 1-1.737 1.737 1.598 1.598 0 0 1-1.613-1.737 1.696 1.696 0 0 1 1.737-1.738 1.598 1.598 0 0 1 1.613 1.738zm-2.978 19.48V34.244h2.73v15.261h-2.73v-.123zM173.082 41.689c0 5.583-3.846 8.065-7.568 8.065-4.095 0-7.32-2.978-7.32-7.817 0-5.087 3.35-8.065 7.568-8.065 4.342 0 7.32 3.102 7.32 7.817zm-12.035.124c0 3.35 1.861 5.831 4.59 5.831 2.606 0 4.591-2.481 4.591-5.955 0-2.606-1.24-5.832-4.59-5.832-3.226.125-4.59 3.102-4.59 5.956zM176.556 38.339c0-1.613 0-2.854-.124-4.095h2.482l.124 2.482h.124a5.49 5.49 0 0 1 5.087-2.854c2.109 0 5.335 1.24 5.335 6.452v9.058h-2.73v-8.81c0-2.481-.869-4.467-3.474-4.467a3.87 3.87 0 0 0-3.722 2.854 4.408 4.408 0 0 0-.248 1.24v9.183h-2.73l-.124-11.043zM202.488 49.382l-.249-1.862h-.124a5.591 5.591 0 0 1-4.714 2.234 4.409 4.409 0 0 1-4.715-4.343c0-3.722 3.226-5.707 9.181-5.707v-.373a3.13 3.13 0 0 0-3.474-3.474 8.658 8.658 0 0 0-3.97 1.117l-.62-1.861a8.978 8.978 0 0 1 4.963-1.365c4.715 0 5.831 3.226 5.831 6.204v5.707a28.89 28.89 0 0 0 .248 3.598l-2.357.124zm-.373-7.693c-2.977-.124-6.451.496-6.451 3.474a2.47 2.47 0 0 0 2.605 2.606 3.845 3.845 0 0 0 3.722-2.606 2.111 2.111 0 0 0 .124-.868v-2.606zM209.188 27.048h2.73v22.334h-2.73V27.048zM120.723 78.042a13.512 13.512 0 0 1-5.583.993c-5.955 0-10.422-3.723-10.422-10.67 0-6.7 4.466-11.167 11.042-11.167a11.76 11.76 0 0 1 5.087.993l-.62 2.233a9.724 9.724 0 0 0-4.218-.869c-4.963 0-8.313 3.226-8.313 8.81 0 5.21 2.978 8.56 8.189 8.56a11.921 11.921 0 0 0 4.466-.868zM137.473 71.094c0 5.583-3.846 8.065-7.568 8.065-4.095 0-7.32-2.978-7.32-7.817 0-5.087 3.35-8.065 7.568-8.065 4.342-.124 7.32 3.102 7.32 7.817zm-12.035.124c0 3.35 1.861 5.831 4.59 5.831 2.606 0 4.591-2.481 4.591-5.955 0-2.606-1.24-5.831-4.59-5.831-3.226 0-4.59 3.101-4.59 5.955zM140.947 67.62c0-1.613 0-2.854-.124-4.094h2.482l.124 2.481h.124a5.49 5.49 0 0 1 5.087-2.854c2.109 0 5.335 1.241 5.335 6.452v9.057h-2.73v-8.809c0-2.481-.868-4.466-3.474-4.466a3.87 3.87 0 0 0-3.722 2.853 4.408 4.408 0 0 0-.248 1.241v9.181h-2.854V67.62zM158.69 78.787V65.635h-2.11v-2.11h2.11v-.744a7.492 7.492 0 0 1 1.737-5.335 5.339 5.339 0 0 1 3.722-1.365 5.57 5.57 0 0 1 2.358.497l-.373 2.109a3.286 3.286 0 0 0-1.737-.372c-2.357 0-2.977 2.109-2.977 4.466v.869h3.722v2.11h-3.722v13.15a20.104 20.104 0 0 0-2.73-.123zM168.74 71.714c.124 3.723 2.482 5.336 5.211 5.336a11.164 11.164 0 0 0 4.219-.745l.496 1.985a11.298 11.298 0 0 1-5.087.993c-4.715 0-7.445-3.102-7.445-7.692s2.73-8.19 7.197-8.19c4.963 0 6.328 4.343 6.328 7.197 0 .62-.125.993-.125 1.24l-10.794-.124zm8.065-1.985c0-1.737-.745-4.466-3.847-4.466-2.853 0-3.97 2.605-4.218 4.466h8.065zM183.008 68.364c0-1.737 0-3.35-.124-4.714h2.482l.124 2.977h.124a4.714 4.714 0 0 1 4.218-3.35 1.343 1.343 0 0 1 .745.124v2.482a2.419 2.419 0 0 0-.993-.124c-1.985 0-3.35 1.489-3.722 3.598a4.22 4.22 0 0 0-.124 1.24v8.066h-2.73V68.363zM194.547 71.714c.124 3.723 2.481 5.336 5.211 5.336a11.164 11.164 0 0 0 4.218-.745l.497 1.985a11.298 11.298 0 0 1-5.087.993c-4.715 0-7.445-3.102-7.445-7.692s2.73-8.19 7.197-8.19c4.963 0 6.327 4.343 6.327 7.197 0 .62-.124.993-.124 1.24l-10.794-.123zm8.065-1.985c0-1.737-.745-4.466-3.847-4.466-2.853 0-3.97 2.605-4.218 4.466h8.065zM208.691 67.62c0-1.613 0-2.854-.124-4.094h2.482l.124 2.481h.124a5.49 5.49 0 0 1 5.087-2.854c2.109 0 5.335 1.241 5.335 6.452v9.057h-2.73v-8.809c0-2.481-.869-4.466-3.474-4.466a3.87 3.87 0 0 0-3.722 2.853 4.408 4.408 0 0 0-.248 1.241v9.181h-2.73l-.124-11.042zM236.98 78.166a10.466 10.466 0 0 1-4.343.869c-4.59 0-7.568-3.102-7.568-7.817s3.226-8.065 8.189-8.065a9.532 9.532 0 0 1 3.846.745l-.62 2.109a6.463 6.463 0 0 0-3.226-.745c-3.474 0-5.335 2.606-5.335 5.708 0 3.474 2.233 5.707 5.335 5.707a7.024 7.024 0 0 0 3.35-.744zM241.695 71.714c.124 3.723 2.481 5.336 5.21 5.336a11.164 11.164 0 0 0 4.22-.745l.496 1.985a11.298 11.298 0 0 1-5.087.993c-4.715 0-7.445-3.102-7.445-7.692s2.73-8.19 7.197-8.19c4.962 0 6.327 4.343 6.327 7.197 0 .62-.124.993-.124 1.24l-10.794-.123zm8.065-1.985c0-1.737-.745-4.466-3.847-4.466-2.854 0-3.97 2.605-4.218 4.466h8.064z" fill="#0081c6"/><path fill="#004868" d="M.124 27.544h95.04v51.614H.124z"/><path d="M.248 79.035C33.624 41.192 80.4 30.025 95.04 27.545H.124zM0 19.852V.495h3.226l10.05 14.02c.248.248.372.62.62.869l.372.744V.496h2.73v19.356h-3.102L3.722 5.583a2.712 2.712 0 0 0-.372-.62l-.372-.744v15.633H0zM57.446 19.852L65.386.495h3.227l7.94 19.356h-3.102l-1.488-3.846h-10.05l-1.49 3.846h-2.977zm5.583-6.328h8.065L67.124 3.35zM92.31 12.655h2.854a7.18 7.18 0 0 1-2.73 5.584 9.836 9.836 0 0 1-6.452 2.109 9.165 9.165 0 0 1-7.072-2.73 10.901 10.901 0 0 1-2.605-7.692 9.446 9.446 0 0 1 2.73-7.197A9.856 9.856 0 0 1 86.23.124a9.702 9.702 0 0 1 5.956 1.738 6.843 6.843 0 0 1 2.73 4.59h-2.855a4.464 4.464 0 0 0-1.985-2.978 6.525 6.525 0 0 0-3.97-.992A6.452 6.452 0 0 0 81.02 4.59c-1.24 1.365-1.737 3.35-1.737 5.831a8.54 8.54 0 0 0 1.861 5.708 5.985 5.985 0 0 0 4.963 2.109 6.364 6.364 0 0 0 4.343-1.49 6.288 6.288 0 0 0 1.86-4.093zM56.33 3.846a9.883 9.883 0 0 0-1.862-2.109A9.702 9.702 0 0 0 48.513 0a13.453 13.453 0 0 0-5.211.993A63.245 63.245 0 0 0 32.135 6.08L29.778.496h-3.226L18.61 19.851h2.978c.868-1.736 4.715-8.436 14.64-13.4a17.36 17.36 0 0 0-4.839 13.4h2.358c-.744-12.158 11.29-16.873 11.29-16.873a7.822 7.822 0 0 1 3.227-.62 7.513 7.513 0 0 1 3.97.992 4.755 4.755 0 0 1 1.985 2.978h2.854a4.192 4.192 0 0 0-.745-2.482zm-31.391 7.817l3.226-8.437 1.613 4.218a58.932 58.932 0 0 0-4.84 4.219z" fill="#0081c6"/><path d="M54.468 12.655a5.12 5.12 0 0 1-1.737 3.847 7.044 7.044 0 0 1-4.342 1.489 6.366 6.366 0 0 1-4.963-2.11 8.54 8.54 0 0 1-1.861-5.707 12.038 12.038 0 0 1 .124-2.11 6.81 6.81 0 0 0-2.854 4.716 9.833 9.833 0 0 0 2.233 4.715 9.165 9.165 0 0 0 7.072 2.73 10.076 10.076 0 0 0 6.452-2.11 7.478 7.478 0 0 0 2.606-5.583 19.21 19.21 0 0 1-2.73.124z" fill="#0081c6"/></svg>