<?xml version="1.0" encoding="utf-8"?>
<!-- Generator: Adobe Illustrator 19.2.0, SVG Export Plug-In . SVG Version: 6.00 Build 0)  -->
<svg version="1.1" id="Layer_1" xmlns="http://www.w3.org/2000/svg" xmlns:xlink="http://www.w3.org/1999/xlink" x="0px" y="0px"
	 viewBox="0 0 400 120" style="enable-background:new 0 0 400 120;" xml:space="preserve">
<style type="text/css">
	.st0{opacity:0.8;fill:#FFFFFF;enable-background:new    ;}
</style>
<path class="st0" d="M570.5-55v239h-715V-55H570.5z M118.4,12.8H111v41.9c-0.3-0.7-0.7-1.3-1-2c-0.5-0.7-0.9-1.5-1.6-2.3L81.6,12.8
	H73v51.6h7.4V22.6c0.3,0.7,0.7,1.4,0.9,2c0.4,0.7,0.7,1.2,1.1,1.9l27.5,38.2h8.5V12.8z M256.7,12.8h-8.6l-21.2,51.7h8l4-10.1h26.8
	l4,10.1h8.5L256.7,12.8z M263,47.6l-10.6-27.5l-10.9,27.5H263z M327.7,45.4h-7.5c-0.3,4.4-1.9,7.8-4.9,10.4c-2.9,2.7-6.8,4-11.5,4
	c-5.5,0-9.9-2-13.3-5.8c-3.3-3.8-5-8.8-5-15.2c0-6.7,1.6-11.8,4.7-15.5c3.2-3.6,7.7-5.5,13.5-5.5c4.4,0,7.9,0.9,10.6,2.7
	c2.7,1.9,4.5,4.4,5.2,7.9h7.6c-0.7-5.2-3-9.4-7.2-12.4s-9.5-4.5-15.9-4.5c-8.2,0-14.7,2.4-19.4,7.2c-4.7,4.7-7.2,11.2-7.2,19.3
	c0,8.7,2.3,15.6,6.9,20.6c4.6,4.9,11,7.4,19,7.4c7,0,12.7-1.9,17.1-5.6C324.9,56.7,327.3,51.6,327.7,45.4z M226.1,28.4
	c-0.4-2.7-1-4.9-2.3-7c-1.2-2.1-2.8-4-4.9-5.5c-4.2-3-9.5-4.5-15.9-4.5c-5.1,0-10.1,1.1-14.1,2.6c-12.1,4.5-21.7,8.7-29.9,13.7
	l-6.2-14.9h-8.6l-21.3,51.7h4.7h3.3c2.4-4.7,12.7-22.5,39.4-35.9c-7.5,8.1-13.9,19.8-13.1,36h6.2c-1.9-32.6,30.4-45.1,30.4-45.1
	c2.8-1.2,6.1-1.8,8.7-1.7c4.4,0.1,7.9,0.9,10.6,2.7c2.7,1.9,4.4,4.4,5.2,7.9C218.4,28.4,226.1,28.4,226.1,28.4z M152.8,31.7
	l-4.4-11.4l-8.7,22.4C143.2,39.1,147.6,35.4,152.8,31.7z M226.5,45.4h-7.7c-0.2,4.4-1.8,7.8-4.7,10.4c-3,2.7-6.8,4-11.5,4
	c-5.5,0-9.9-2-13.3-5.8c-3.3-3.8-5-8.8-5-15.2c0-2,0.2-3.8,0.5-5.5c-4.3,2.9-7.1,7.8-7.6,12.6c0.9,5,3,9.3,6.1,12.7
	c4.6,4.9,10.9,7.4,19,7.4c7,0,12.7-1.9,17.1-5.6C223.8,56.7,226.2,51.6,226.5,45.4z M117.2,81.6h-1.3v10h1v-9l7,9h1.3v-10h-0.9v9
	L117.2,81.6z M133.2,87.6c-0.2,0.1-0.5,0.2-0.8,0.3c-0.4,0.1-0.9,0.2-1.8,0.4c-1,0.2-1.8,0.4-2,0.6c-0.3,0.2-0.5,0.5-0.5,0.9
	s0.2,0.7,0.6,0.9c0.4,0.3,0.8,0.4,1.4,0.4c0.9,0,1.7-0.2,2.2-0.7c0.6-0.5,0.9-0.9,0.9-1.7v-0.1L133.2,87.6L133.2,87.6z M134.2,91.7
	c0.1,0,0.2,0,0.4,0s0.3,0,0.5-0.1v-0.9c-0.1,0-0.2,0.1-0.2,0.1s-0.1,0-0.2,0c-0.2,0-0.3,0-0.4-0.1c-0.1-0.1-0.1-0.3-0.1-0.7v-2.9
	v-0.5c0-0.6,0-0.9-0.1-1.1s-0.2-0.5-0.4-0.7c-0.3-0.4-0.7-0.7-1-0.7c-0.5-0.1-0.9-0.2-1.7-0.2c-1.1,0-2,0.2-2.6,0.7
	c-0.7,0.5-0.9,1-0.9,2h0.9c0-0.7,0.3-1,0.7-1.3c0.5-0.3,1-0.5,2-0.5c0.7,0,1.1,0.2,1.5,0.4c0.4,0.2,0.6,0.5,0.6,0.9
	c0,0.6-0.6,0.9-1.8,1c-0.4,0-0.7,0.1-0.8,0.1c-0.8,0.2-1.4,0.3-1.8,0.4c-0.4,0.1-0.7,0.2-0.8,0.4c-0.3,0.2-0.6,0.5-0.7,0.7
	c-0.1,0.3-0.2,0.6-0.2,0.9c0,0.7,0.2,1.3,0.7,1.7c0.5,0.5,1.1,0.7,2,0.7c0.7,0,1.3-0.1,2-0.4c0.5-0.2,0.9-0.6,1.3-0.9
	c0,0.5,0.1,0.7,0.3,0.9C133.8,91.6,134,91.7,134.2,91.7z M139.5,84.1h-1.7v-2.2h-0.9v2.2h-1.2v0.8h1.2v4.7c0,0.7,0.2,1.2,0.4,1.5
	c0.3,0.3,0.7,0.5,1.1,0.5c0.2,0,0.4,0,0.6,0c0.2,0,0.4,0,0.7-0.1v-0.8c-0.2,0.1-0.4,0.1-0.5,0.1s-0.3,0-0.4,0
	c-0.4,0-0.7-0.1-0.7-0.2c-0.1-0.1-0.2-0.5-0.2-0.9V85h1.7L139.5,84.1L139.5,84.1z M140.8,84.3v7.4h0.9v-7.4H140.8z M141.8,81.6h-0.9
	v1.1h0.9V81.6z M145.1,85.7c-0.6,0.6-0.8,1.2-0.8,2.2c0,0.9,0.3,1.7,0.8,2.2c0.6,0.6,1.2,0.8,2.1,0.8c0.9,0,1.6-0.3,2.1-0.8
	c0.6-0.6,0.8-1.2,0.8-2.2c0-0.9-0.3-1.7-0.8-2.2s-1.1-0.8-2-0.8S145.7,85.3,145.1,85.7z M143.3,88c0,1.1,0.4,2.1,1,2.9
	c0.7,0.7,1.7,1,2.8,1s2.1-0.4,2.8-1c0.7-0.8,1-1.8,1-2.9s-0.4-2.1-1-2.8c-0.7-0.7-1.7-1-2.8-1s-2.1,0.4-2.8,1
	C143.7,85.8,143.3,86.9,143.3,88z M158.9,87.5v4.2h0.9V87c0-0.9-0.3-1.7-0.7-2.1c-0.5-0.5-1.1-0.7-2.1-0.7c-0.7,0-1.2,0.1-1.8,0.4
	s-0.9,0.7-1.3,1.1v-1.3H153v7.4v0.1h0.9v-4.3c0-0.7,0.3-1.3,0.8-1.8c0.7-0.5,1.2-0.7,2.1-0.7c0.7,0,1.3,0.2,1.6,0.6
	C158.7,85.9,158.9,86.6,158.9,87.5z M167.6,90.6c0,0.5,0.1,0.7,0.3,0.9c0.2,0.2,0.4,0.3,0.7,0.3c0.1,0,0.2,0,0.4,0s0.3,0,0.5-0.1
	v-0.9c-0.1,0-0.1,0.1-0.1,0.1s-0.1,0-0.2,0c-0.2,0-0.3,0-0.4-0.1c-0.1-0.1-0.1-0.3-0.1-0.7v-2.9v-0.5c0-0.6,0-0.9-0.1-1.1
	s-0.2-0.5-0.4-0.7c-0.3-0.4-0.7-0.7-1-0.7c-0.5-0.1-0.9-0.2-1.7-0.2c-1.1,0-2,0.2-2.6,0.7c-0.7,0.5-0.9,1-0.9,2h0.9
	c0-0.7,0.3-1,0.7-1.3s1-0.5,2-0.5c0.7,0,1.1,0.2,1.5,0.4s0.6,0.5,0.6,0.9c0,0.6-0.6,0.9-1.8,1c-0.4,0-0.7,0.1-0.8,0.1
	c-0.8,0.2-1.4,0.3-1.8,0.4c-0.4,0.1-0.7,0.2-0.8,0.4c-0.3,0.2-0.6,0.5-0.7,0.7c-0.1,0.3-0.2,0.6-0.2,0.9c0,0.7,0.3,1.2,0.7,1.7
	c0.5,0.5,1.1,0.7,2,0.7c0.7,0,1.3-0.2,1.9-0.4C166.7,91.3,167.2,91,167.6,90.6z M164.5,91c0.9,0,1.7-0.2,2.2-0.7
	c0.6-0.5,0.9-0.9,0.9-1.7v-0.1v-0.9c-0.2,0.1-0.5,0.2-0.8,0.3c-0.4,0.1-0.9,0.2-1.8,0.4c-1,0.2-1.8,0.4-2,0.6s-0.5,0.5-0.5,0.9
	s0.2,0.7,0.6,0.9C163.5,90.9,163.9,91,164.5,91z M171.9,81.6H171v10h0.9V81.6z M180.6,87.5h4.6l-2.3-5.1L180.6,87.5z M185.7,88.6
	l1.4,3.1h1l-4.6-10h-1.1l-4.7,10h1l1.4-3.1H185.7z M194.8,91.2c0.7-0.4,0.9-0.9,0.9-1.8c0-0.6-0.2-0.9-0.6-1.3
	c-0.4-0.3-0.9-0.6-1.8-0.7l-2-0.3c-0.7-0.2-1-0.3-1.3-0.5s-0.4-0.4-0.4-0.7c0-0.4,0.2-0.7,0.6-0.9c0.4-0.3,0.9-0.4,1.6-0.4
	c0.8,0,1.3,0.1,1.8,0.4c0.4,0.3,0.7,0.7,0.7,1.1h0.9c0-0.8-0.3-1.3-0.9-1.8c-0.7-0.5-1.4-0.7-2.5-0.7c-0.9,0-1.8,0.3-2.4,0.7
	c-0.7,0.4-0.9,0.9-0.9,1.6c0,0.6,0.2,0.9,0.6,1.3c0.5,0.3,0.9,0.6,1.9,0.7l2.1,0.4c0.6,0.1,0.9,0.2,1,0.4c0.3,0.2,0.4,0.4,0.4,0.7
	c0,0.6-0.2,0.8-0.7,1s-1.1,0.4-2,0.4c-0.8,0-1.5-0.2-1.9-0.5s-0.7-0.7-0.7-1.2h-0.9c0,0.9,0.4,1.5,0.9,1.9c0.7,0.5,1.4,0.7,2.5,0.7
	C193.3,91.9,194.3,91.7,194.8,91.2z M202.6,91.2c0.7-0.4,0.9-0.9,0.9-1.8c0-0.6-0.2-0.9-0.6-1.3c-0.4-0.3-0.9-0.6-1.8-0.7l-2-0.3
	c-0.7-0.2-1-0.3-1.3-0.5s-0.4-0.4-0.4-0.7c0-0.4,0.2-0.7,0.6-0.9c0.4-0.3,0.9-0.4,1.6-0.4c0.8,0,1.3,0.1,1.8,0.4
	c0.4,0.3,0.7,0.7,0.7,1.1h0.9c0-0.8-0.3-1.3-0.9-1.8c-0.7-0.5-1.4-0.7-2.5-0.7c-0.9,0-1.8,0.3-2.4,0.7c-0.7,0.4-0.9,0.9-0.9,1.6
	c0,0.6,0.2,0.9,0.6,1.3c0.5,0.3,0.9,0.6,1.9,0.7l2.1,0.4c0.6,0.1,0.9,0.2,1,0.4c0.3,0.2,0.4,0.4,0.4,0.7c0,0.6-0.2,0.8-0.7,1
	c-0.4,0.3-1,0.4-1.9,0.4c-0.8,0-1.4-0.2-1.9-0.5c-0.4-0.3-0.7-0.7-0.7-1.2h-0.9c0.1,0.9,0.5,1.5,0.9,1.9c0.7,0.5,1.4,0.7,2.5,0.7
	C201.1,91.9,202,91.7,202.6,91.2z M204.7,88c0,1.1,0.4,2.1,1,2.9c0.7,0.7,1.7,1,2.8,1s2.1-0.4,2.8-1c0.7-0.8,1-1.8,1-2.9
	s-0.4-2.1-1-2.8c-0.7-0.7-1.7-1-2.8-1s-2.1,0.4-2.8,1C205.1,85.8,204.7,86.9,204.7,88z M206.4,85.7c-0.6,0.6-0.8,1.2-0.8,2.2
	c0,0.9,0.3,1.7,0.8,2.2c0.6,0.6,1.2,0.8,2.1,0.8c0.9,0,1.6-0.3,2.1-0.8c0.6-0.6,0.8-1.2,0.8-2.2c0-0.9-0.3-1.7-0.8-2.2
	c-0.6-0.6-1.2-0.8-2.1-0.8C207.6,85,207,85.3,206.4,85.7z M213.8,87.9c0,1.2,0.4,2.2,1,2.9c0.7,0.8,1.7,1,2.8,1
	c0.9,0,1.8-0.3,2.5-0.8c0.7-0.6,1-1.2,1.1-2.1h-0.9c-0.2,0.7-0.5,1.1-0.9,1.4c-0.6,0.4-1,0.6-1.8,0.6c-0.9,0-1.6-0.3-2.1-0.8
	c-0.6-0.6-0.8-1.3-0.8-2.2s0.3-1.7,0.8-2.2c0.6-0.6,1.2-0.8,2.1-0.8c0.7,0,1.2,0.2,1.7,0.5s0.8,0.7,0.9,1.3h0.9
	c-0.1-0.8-0.6-1.4-1.1-2c-0.7-0.5-1.4-0.7-2.4-0.7c-1.1,0-2.1,0.4-2.8,1C214.1,86,213.8,86.8,213.8,87.9z M222.8,91.7h0.9v-7.4h-0.9
	V91.7z M223.8,82.7v-1.1h-0.9v1.1H223.8z M231.7,87.6c-0.2,0.1-0.5,0.2-0.8,0.3c-0.4,0.1-0.9,0.2-1.8,0.4c-1,0.2-1.8,0.4-2,0.6
	s-0.5,0.5-0.5,0.9s0.2,0.7,0.6,0.9c0.4,0.3,0.8,0.4,1.4,0.4c0.9,0,1.7-0.2,2.2-0.7c0.6-0.5,0.9-0.9,0.9-1.7v-0.1L231.7,87.6
	L231.7,87.6z M226,86.7h0.9c0-0.7,0.3-1,0.7-1.3s1-0.5,2-0.5c0.7,0,1.1,0.2,1.5,0.4c0.4,0.2,0.6,0.5,0.6,0.9c0,0.6-0.6,0.9-1.8,1
	c-0.4,0-0.7,0.1-0.8,0.1c-0.8,0.2-1.4,0.3-1.8,0.4c-0.4,0.1-0.7,0.2-0.8,0.4c-0.3,0.2-0.6,0.5-0.7,0.7c-0.1,0.3-0.2,0.6-0.2,0.9
	c0,0.7,0.2,1.3,0.7,1.7c0.5,0.5,1.1,0.7,2,0.7c0.7,0,1.3-0.2,1.9-0.4c0.5-0.2,0.9-0.6,1.3-0.9c0,0.5,0.1,0.7,0.3,0.9
	c0.2,0.2,0.4,0.3,0.7,0.3c0.1,0,0.2,0,0.4,0s0.3,0,0.5-0.1V91c-0.1,0-0.1,0.1-0.1,0.1s-0.1,0-0.2,0c-0.2,0-0.3,0-0.4-0.1
	c-0.1-0.1-0.1-0.3-0.1-0.7v-2.9v-0.5c0-0.6,0-0.9-0.1-1.1s-0.2-0.5-0.4-0.7c-0.3-0.4-0.7-0.6-1-0.7c-0.5-0.1-0.9-0.2-1.7-0.2
	c-1.1,0-2,0.2-2.6,0.7C226.4,85.2,226.1,85.7,226,86.7z M238,84.1h-1.7v-2.2h-0.9v2.2h-1.2v0.8h1.2v4.7c0,0.7,0.2,1.2,0.4,1.5
	c0.3,0.3,0.7,0.5,1.1,0.5c0.2,0,0.4,0,0.6,0c0.2,0,0.4,0,0.7-0.1v-0.8c-0.2,0.1-0.4,0.1-0.5,0.1s-0.3,0-0.4,0
	c-0.4,0-0.7-0.1-0.7-0.2c-0.1-0.1-0.2-0.5-0.2-0.9V85h1.7L238,84.1L238,84.1z M239.2,91.7h0.9v-7.4h-0.9V91.7z M240.1,81.6h-0.9v1.1
	h0.9V81.6z M243.6,90.2c0.6,0.6,1.2,0.8,2.1,0.8s1.6-0.3,2.1-0.8c0.6-0.6,0.8-1.2,0.8-2.2c0-0.9-0.3-1.7-0.8-2.2
	c-0.6-0.6-1.2-0.8-2.1-0.8s-1.6,0.3-2.1,0.8c-0.6,0.6-0.8,1.2-0.8,2.2C242.7,88.9,243,89.7,243.6,90.2z M248.5,90.9
	c0.7-0.8,1-1.8,1-2.9s-0.4-2.1-1-2.8c-0.7-0.7-1.7-1-2.8-1s-2.1,0.4-2.8,1c-0.7,0.7-1,1.7-1,2.8s0.4,2.1,1,2.9c0.7,0.7,1.7,1,2.8,1
	C246.8,92,247.9,91.6,248.5,90.9z M256.8,85.6c0.3,0.4,0.5,0.9,0.5,2v4.2h0.9v-4.7c0-0.9-0.3-1.7-0.7-2.1c-0.5-0.5-1.1-0.7-2.1-0.7
	c-0.7,0-1.2,0.1-1.8,0.4s-0.9,0.7-1.3,1.1v-1.3h-0.9v7.4V92h0.9v-4.3c0-0.7,0.3-1.3,0.8-1.8c0.7-0.5,1.2-0.7,2.1-0.7
	C256,85.1,256.4,85.3,256.8,85.6z M265.2,85.1v6.6h1v-6.6h1.7v-0.8h-1.7v-0.7c0-0.5,0.1-0.8,0.2-0.9c0.2-0.1,0.4-0.2,0.7-0.2
	c0.1,0,0.3,0,0.4,0s0.3,0,0.5,0.1v-0.9c-0.3,0-0.5-0.1-0.7-0.1c-0.2-0.1-0.4-0.1-0.6-0.1c-0.7,0-0.9,0.2-1.2,0.5
	c-0.3,0.3-0.4,0.8-0.4,1.7v0.7h-1.2v0.8L265.2,85.1L265.2,85.1L265.2,85.1z M270.3,90.2c0.6,0.6,1.2,0.8,2.1,0.8s1.6-0.3,2.1-0.8
	c0.6-0.6,0.8-1.2,0.8-2.2c0-0.9-0.3-1.7-0.8-2.2c-0.6-0.6-1.2-0.8-2.1-0.8s-1.6,0.3-2.1,0.8c-0.6,0.6-0.8,1.2-0.8,2.2
	C269.4,88.9,269.7,89.7,270.3,90.2z M275.2,90.9c0.7-0.8,1-1.8,1-2.9s-0.4-2.1-1-2.8c-0.7-0.7-1.7-1-2.8-1c-1.1,0-2.1,0.4-2.8,1
	c-0.7,0.7-1,1.7-1,2.8s0.4,2.1,1,2.9c0.7,0.7,1.7,1,2.8,1C273.5,92,274.6,91.6,275.2,90.9z M282.2,85.4v-0.9
	c-0.2-0.1-0.4-0.2-0.6-0.2c-0.1-0.1-0.3-0.1-0.5-0.1c-0.6,0-0.9,0.1-1.3,0.4s-0.7,0.7-0.9,1v-1.2H278v7.4h0.9v-4.6
	c0.2-0.7,0.6-1,0.9-1.4c0.4-0.3,0.8-0.5,1.4-0.5c0.2,0,0.3,0,0.5,0C281.9,85.3,282,85.3,282.2,85.4z M90.2,103.2
	c0,1.7,0.5,2.9,1.4,3.9c0.9,0.9,2.1,1.4,3.7,1.4c1.3,0,2.5-0.3,3.3-1c0.9-0.8,1.4-1.8,1.7-3h-1c-0.3,0.9-0.7,1.7-1.4,2.2
	c-0.7,0.6-1.5,0.8-2.6,0.8c-1.2,0-2.3-0.4-3-1.1c-0.8-0.8-1.1-1.9-1.1-3.2c0-1.3,0.4-2.4,1.1-3.2c0.7-0.8,1.8-1.1,3.1-1.1
	c0.9,0,1.8,0.3,2.4,0.7c0.7,0.5,1,1.1,1.2,2v0.1h1.1c-0.2-1.1-0.7-2-1.5-2.7s-1.9-0.9-3.2-0.9c-1.7,0-2.9,0.5-3.9,1.4
	C90.7,100.2,90.2,101.4,90.2,103.2z M103.2,102.2c-0.6,0.6-0.8,1.2-0.8,2.2c0,0.9,0.3,1.7,0.8,2.2c0.6,0.6,1.2,0.8,2.1,0.8
	s1.6-0.3,2.1-0.8c0.6-0.6,0.8-1.2,0.8-2.2c0-0.9-0.3-1.7-0.8-2.2c-0.6-0.6-1.2-0.8-2.1-0.8C104.4,101.4,103.7,101.7,103.2,102.2z
	 M101.4,104.5c0,1.1,0.4,2.1,1,2.9c0.7,0.7,1.7,1,2.8,1s2.1-0.4,2.8-1c0.7-0.8,1-1.8,1-2.9s-0.4-2.1-1-2.8c-0.7-0.8-1.7-1-2.8-1
	s-2.1,0.4-2.8,1C101.7,102.3,101.4,103.2,101.4,104.5z M111,108.2h0.9v-10H111V108.2z M114,108.2h0.9v-10H114V108.2z M117.8,103.8
	h5.8c-0.1-0.7-0.4-1.3-0.9-1.8c-0.6-0.5-1.1-0.7-2-0.7c-0.8,0-1.5,0.3-2,0.7C118.1,102.5,117.9,103.2,117.8,103.8z M124.2,105.9h-1
	c-0.2,0.6-0.6,0.9-0.9,1.2c-0.5,0.3-0.9,0.5-1.6,0.5c-0.8,0-1.5-0.2-2-0.7c-0.6-0.6-0.8-1.2-0.9-2.1h6.8v-0.3c0-1.2-0.4-2.2-1-2.9
	c-0.7-0.7-1.7-1-2.8-1s-2.1,0.4-2.8,1c-0.8,0.7-1,1.7-1,2.8c0,1.2,0.4,2.2,1,2.9c0.7,0.8,1.7,1,2.8,1c0.9,0,1.8-0.3,2.4-0.7
	C123.6,107.2,124,106.7,124.2,105.9 M124.2,105.9L124.2,105.9l0.1-0.2C124.3,105.8,124.2,105.9,124.2,105.9 M125.8,104.4
	c0,1.1,0.4,2.1,1,2.8c0.7,0.7,1.7,1,2.8,1c0.7,0,1.2-0.1,1.7-0.4c0.6-0.3,0.9-0.7,1.3-1.1v0.8c0,0.9-0.3,1.4-0.7,1.8
	c-0.6,0.4-1.2,0.6-2.3,0.6c-0.7,0-1.3-0.2-1.7-0.4c-0.5-0.2-0.7-0.6-0.7-0.9h-0.9c0,0.7,0.4,1.2,0.9,1.6c0.7,0.5,1.4,0.7,2.4,0.7
	c0.7,0,1.2,0,1.8-0.2c0.5-0.1,0.9-0.4,1.2-0.7s0.7-0.6,0.7-0.9c0.1-0.4,0.2-0.9,0.2-1.5h0.1v-6.8h-0.9v1.2c-0.5-0.6-0.9-0.9-1.3-1.1
	c-0.6-0.3-1-0.4-1.7-0.4c-1.1,0-2.1,0.4-2.8,1C126.1,102.2,125.8,103.2,125.8,104.4z M127.5,102.3c-0.6,0.6-0.8,1.2-0.8,2.1
	s0.3,1.6,0.8,2.1c0.6,0.6,1.2,0.8,2.1,0.8s1.6-0.3,2.1-0.8c0.6-0.6,0.8-1.2,0.8-2.1s-0.3-1.6-0.8-2.1c-0.6-0.6-1.2-0.8-2.1-0.8
	S128.1,101.8,127.5,102.3z M142.7,105.9L142.7,105.9l0.1-0.2C142.8,105.8,142.8,105.9,142.7,105.9 M136.2,103.8h5.8
	c-0.1-0.7-0.4-1.3-0.9-1.8c-0.6-0.5-1.1-0.7-2-0.7c-0.8,0-1.5,0.3-2,0.7C136.6,102.5,136.3,103.2,136.2,103.8z M142.7,105.9h-1
	c-0.2,0.6-0.6,0.9-0.9,1.2c-0.5,0.3-0.9,0.5-1.6,0.5c-0.8,0-1.5-0.2-2-0.7c-0.6-0.6-0.8-1.2-0.9-2.1h6.8v-0.3c0-1.2-0.4-2.2-1-2.9
	c-0.7-0.8-1.7-1-2.8-1s-2.1,0.4-2.8,1c-0.7,0.7-1,1.7-1,2.8c0,1.2,0.4,2.2,1,2.9c0.7,0.7,1.7,1,2.8,1c0.9,0,1.8-0.3,2.4-0.7
	C142.1,107.2,142.5,106.7,142.7,105.9 M153.5,98.9l-2.3,5.1h4.6L153.5,98.9z M148.3,108.2h1l1.4-3.1h5.5l1.4,3.1h1l-4.6-10h-1.1
	L148.3,108.2z M159.4,104.5c0,1.1,0.4,2.1,1,2.8c0.7,0.7,1.7,1,2.8,1c0.7,0,1.2-0.1,1.7-0.4s0.9-0.7,1.2-1.1v1.3h0.9v-10h-0.9v3.9
	c-0.5-0.5-0.9-0.8-1.3-1c-0.6-0.3-1-0.4-1.7-0.4c-1.1,0-2.1,0.4-2.8,1C159.6,102.3,159.4,103.2,159.4,104.5z M161.1,102.2
	c-0.6,0.6-0.8,1.2-0.8,2.1s0.3,1.6,0.8,2.1c0.6,0.6,1.2,0.8,2.1,0.8c0.9,0,1.6-0.3,2.1-0.8c0.6-0.5,0.8-1.1,0.8-2s-0.3-1.6-0.8-2.2
	c-0.6-0.6-1.2-0.8-2.1-0.8C162.4,101.4,161.7,101.7,161.1,102.2z M169.3,108.4h0.9v-4.3c0-0.7,0.3-1.3,0.8-1.8
	c0.7-0.5,1.2-0.7,2.1-0.7c0.7,0,1.3,0.2,1.6,0.6s0.5,0.9,0.5,2v4.2h0.9v-4.3c0-0.7,0.3-1.3,0.8-1.8c0.7-0.5,1.2-0.7,2.1-0.7
	c0.8,0,1.3,0.2,1.6,0.6s0.5,0.9,0.5,2v4.2h0.9v-4.7c0-0.9-0.3-1.7-0.7-2.1c-0.5-0.5-1.1-0.7-2.1-0.7c-0.7,0-1.2,0.1-1.8,0.4
	s-0.9,0.7-1.3,1.1c-0.2-0.6-0.6-0.9-0.9-1.1c-0.5-0.3-1-0.4-1.8-0.4c-0.7,0-1.2,0.1-1.8,0.4s-0.9,0.7-1.3,1.1v-1.3h-0.9L169.3,108.4
	L169.3,108.4L169.3,108.4z M184,108.2h0.9v-7.4H184V108.2z M185,99.2V98h-1v1.1L185,99.2L185,99.2z M186.5,105.8
	c0.1,0.9,0.4,1.5,0.9,1.9c0.7,0.5,1.4,0.7,2.5,0.7c1.2,0,2.1-0.2,2.7-0.7c0.7-0.4,0.9-0.9,0.9-1.8c0-0.6-0.2-0.9-0.6-1.3
	c-0.4-0.3-0.9-0.6-1.8-0.7l-2-0.3c-0.7-0.2-1-0.3-1.3-0.5s-0.4-0.4-0.4-0.7c0-0.4,0.2-0.7,0.6-0.9c0.4-0.3,0.9-0.4,1.6-0.4
	s1.3,0.1,1.8,0.4c0.4,0.3,0.7,0.7,0.7,1.1h0.9c0-0.8-0.3-1.3-0.9-1.8c-0.7-0.5-1.4-0.7-2.5-0.7c-0.9,0-1.8,0.3-2.4,0.7
	c-0.7,0.4-0.9,0.9-0.9,1.6c0,0.6,0.2,0.9,0.6,1.3c0.5,0.3,0.9,0.6,1.9,0.7l2.1,0.4c0.6,0.1,0.8,0.2,1,0.4c0.3,0.2,0.4,0.4,0.4,0.7
	c0,0.6-0.2,0.8-0.7,1s-1.1,0.4-2,0.4c-0.8,0-1.4-0.2-1.9-0.5c-0.4-0.3-0.7-0.7-0.7-1.2L186.5,105.8L186.5,105.8z M194.5,105.8
	c0,0.9,0.4,1.5,0.9,1.9c0.7,0.5,1.4,0.7,2.5,0.7c1.2,0,2.1-0.2,2.7-0.7c0.7-0.4,0.9-0.9,0.9-1.8c0-0.6-0.2-0.9-0.6-1.3
	c-0.4-0.3-0.9-0.6-1.8-0.7l-2-0.3c-0.7-0.2-1-0.3-1.3-0.5s-0.4-0.4-0.4-0.7c0-0.4,0.2-0.7,0.6-0.9c0.4-0.3,0.9-0.4,1.6-0.4
	s1.3,0.1,1.8,0.4c0.4,0.3,0.7,0.7,0.7,1.1h0.9c0-0.8-0.3-1.3-0.9-1.8c-0.7-0.5-1.4-0.7-2.5-0.7c-0.9,0-1.8,0.3-2.4,0.7
	c-0.7,0.4-0.9,0.9-0.9,1.6c0,0.6,0.2,0.9,0.6,1.3c0.5,0.3,0.9,0.6,1.9,0.7l2.1,0.4c0.6,0.1,0.9,0.2,1,0.4c0.3,0.2,0.4,0.4,0.4,0.7
	c0,0.6-0.2,0.8-0.7,1s-1.1,0.4-2,0.4c-0.8,0-1.5-0.2-1.9-0.5s-0.7-0.7-0.7-1.2L194.5,105.8L194.5,105.8z M204,99.2V98h-0.9v1.1
	L204,99.2L204,99.2z M203.1,108.2h0.9v-7.4h-0.9V108.2z M207.5,102.2c-0.6,0.6-0.8,1.2-0.8,2.2c0,0.9,0.3,1.7,0.8,2.2
	c0.6,0.6,1.2,0.8,2.1,0.8s1.6-0.3,2.1-0.8c0.6-0.6,0.8-1.2,0.8-2.2c0-0.9-0.3-1.7-0.8-2.2c-0.6-0.6-1.2-0.8-2.1-0.8
	C208.8,101.4,208,101.7,207.5,102.2z M205.7,104.5c0,1.1,0.4,2.1,1,2.9c0.7,0.7,1.7,1,2.8,1s2.1-0.4,2.8-1c0.7-0.8,1-1.8,1-2.9
	s-0.4-2.1-1-2.8c-0.7-0.8-1.7-1-2.8-1s-2.1,0.4-2.8,1C206.1,102.3,205.7,103.2,205.7,104.5z M215.2,108.3h0.9V104
	c0-0.7,0.3-1.3,0.8-1.8c0.7-0.5,1.2-0.7,2.1-0.7c0.8,0,1.2,0.2,1.6,0.6c0.3,0.4,0.5,0.9,0.5,2v4.2h0.9v-4.7c0-0.9-0.3-1.7-0.7-2.1
	c-0.5-0.5-1.1-0.7-2.1-0.7c-0.7,0-1.2,0.1-1.8,0.4s-0.9,0.7-1.3,1.1V101h-0.9V108.3L215.2,108.3z M228.5,103.2
	c0,1.7,0.5,2.9,1.4,3.9c0.9,0.9,2.1,1.4,3.7,1.4c1.3,0,2.5-0.4,3.3-1c0.9-0.8,1.4-1.8,1.7-3h-1c-0.3,0.9-0.7,1.7-1.4,2.2
	c-0.7,0.6-1.5,0.8-2.6,0.8c-1.2,0-2.3-0.4-3-1.1c-0.8-0.8-1.1-1.9-1.1-3.2c0-1.3,0.4-2.4,1.1-3.2c0.7-0.8,1.8-1.1,3.1-1.1
	c0.9,0,1.8,0.3,2.4,0.7c0.7,0.5,1,1.1,1.2,2v0.1h1.1c-0.2-1.1-0.7-2-1.5-2.7s-1.9-0.9-3.2-0.9c-1.7,0-2.9,0.5-3.9,1.4
	C228.9,100.2,228.5,101.4,228.5,103.2z M241.3,102.2c-0.6,0.6-0.8,1.2-0.8,2.2c0,0.9,0.3,1.7,0.8,2.2c0.6,0.6,1.2,0.8,2.1,0.8
	c0.9,0,1.6-0.3,2.1-0.8c0.6-0.6,0.8-1.2,0.8-2.2c0-0.9-0.3-1.7-0.8-2.2c-0.6-0.6-1.2-0.8-2.1-0.8
	C242.6,101.4,241.9,101.7,241.3,102.2z M239.5,104.5c0,1.1,0.5,2.1,1,2.9c0.7,0.7,1.7,1,2.8,1s2.1-0.4,2.8-1c0.7-0.8,1-1.8,1-2.9
	s-0.4-2.1-1-2.8c-0.7-0.7-1.7-1-2.8-1s-2.1,0.4-2.8,1C239.8,102.3,239.5,103.2,239.5,104.5z M249.1,105.4c0,0.9,0.3,1.7,0.7,2.1
	c0.5,0.5,1.1,0.7,2.1,0.7c0.7,0,1.2-0.1,1.8-0.4s0.9-0.7,1.3-1.1v1.4h0.9v-7.4H255v4.2c0,0.7-0.3,1.3-0.8,1.8
	c-0.7,0.5-1.2,0.7-2.1,0.7c-0.7,0-1.2-0.2-1.6-0.6c-0.3-0.4-0.5-0.9-0.5-2v-4.2h-0.9L249.1,105.4L249.1,105.4z M258,108.3h0.9V104
	c0-0.7,0.3-1.3,0.8-1.8c0.7-0.5,1.2-0.7,2.1-0.7c0.8,0,1.2,0.2,1.6,0.6c0.3,0.4,0.5,0.9,0.5,2v4.2h0.9v-4.7c0-0.9-0.3-1.7-0.7-2.1
	c-0.5-0.5-1.1-0.7-2.1-0.7c-0.7,0-1.2,0.1-1.8,0.4c-0.6,0.3-0.9,0.7-1.3,1.1V101H258V108.3L258,108.3z M266.3,105.8
	c0,0.9,0.4,1.5,0.9,1.9c0.7,0.5,1.4,0.7,2.5,0.7c1.2,0,2.1-0.3,2.7-0.7c0.7-0.4,0.9-0.9,0.9-1.8c0-0.6-0.2-0.9-0.6-1.3
	c-0.4-0.3-0.9-0.6-1.8-0.7l-2-0.3c-0.7-0.2-1-0.3-1.3-0.5s-0.4-0.4-0.4-0.7c0-0.4,0.2-0.7,0.6-0.9c0.4-0.3,0.9-0.4,1.6-0.4
	c0.8,0,1.3,0.1,1.8,0.4c0.4,0.3,0.7,0.7,0.7,1.1h0.9c0-0.8-0.3-1.3-0.9-1.8c-0.7-0.5-1.4-0.7-2.5-0.7c-0.9,0-1.8,0.3-2.4,0.7
	c-0.7,0.4-0.9,0.9-0.9,1.6c0,0.6,0.2,0.9,0.6,1.3c0.5,0.3,0.9,0.6,1.9,0.7l2.1,0.4c0.6,0.1,0.9,0.2,1,0.4c0.3,0.2,0.4,0.4,0.4,0.7
	c0,0.6-0.2,0.8-0.7,1c-0.5,0.3-1.1,0.4-2,0.4c-0.8,0-1.4-0.2-1.9-0.5c-0.4-0.3-0.7-0.7-0.7-1.2L266.3,105.8L266.3,105.8z
	 M281.9,105.9L281.9,105.9l0.1-0.2C281.9,105.8,281.9,105.9,281.9,105.9 M275.4,103.8h5.8c-0.1-0.7-0.4-1.3-0.9-1.8
	c-0.6-0.5-1.1-0.7-2-0.7c-0.8,0-1.5,0.3-2,0.7C275.8,102.5,275.5,103.2,275.4,103.8z M281.9,105.9h-1.1c-0.2,0.6-0.6,0.9-0.9,1.2
	c-0.5,0.3-0.9,0.5-1.6,0.5c-0.8,0-1.5-0.2-2-0.7c-0.5-0.6-0.7-1.2-0.8-2.1h6.8v-0.3c0-1.2-0.4-2.2-1-2.9c-0.7-0.8-1.7-1-2.8-1
	s-2.1,0.4-2.8,1c-0.7,0.7-1,1.7-1,2.8c0,1.2,0.4,2.2,1,2.9c0.7,0.7,1.7,1,2.8,1c0.9,0,1.8-0.3,2.4-0.7
	C281.3,107.2,281.7,106.7,281.9,105.9 M283.9,108.2h0.9v-10h-0.9V108.2z M288.1,99.2V98h-0.9v1.1L288.1,99.2L288.1,99.2z
	 M287.1,108.2h0.9v-7.4h-0.9V108.2z M290.1,108.3h0.9V104c0-0.7,0.3-1.3,0.8-1.8c0.7-0.5,1.2-0.7,2.1-0.7c0.8,0,1.2,0.2,1.6,0.6
	c0.3,0.4,0.5,0.9,0.5,2v4.2h0.9v-4.7c0-0.9-0.3-1.7-0.7-2.1c-0.5-0.5-1.1-0.7-2.1-0.7c-0.7,0-1.2,0.1-1.8,0.4
	c-0.6,0.3-0.9,0.7-1.3,1.1V101h-0.9V108.3L290.1,108.3z M300.4,102.3c-0.6,0.6-0.8,1.2-0.8,2.1s0.3,1.6,0.8,2.1
	c0.6,0.6,1.2,0.8,2.1,0.8s1.6-0.3,2.1-0.8c0.6-0.6,0.8-1.2,0.8-2.1s-0.3-1.6-0.8-2.1c-0.6-0.6-1.2-0.8-2.1-0.8
	S301,101.8,300.4,102.3z M298.8,104.4c0,1.1,0.4,2.1,1,2.8c0.7,0.7,1.7,1,2.8,1c0.7,0,1.2-0.1,1.7-0.4c0.6-0.3,0.9-0.7,1.3-1.1v0.8
	c0,0.9-0.3,1.4-0.7,1.8c-0.6,0.4-1.2,0.6-2.3,0.6c-0.7,0-1.3-0.2-1.7-0.4c-0.5-0.2-0.7-0.6-0.7-0.9h-0.9c0,0.7,0.4,1.2,0.9,1.6
	c0.7,0.5,1.4,0.7,2.4,0.7c0.7,0,1.1,0,1.7-0.2c0.5-0.1,0.9-0.4,1.2-0.7c0.4-0.3,0.7-0.6,0.7-0.9c0.1-0.4,0.2-0.9,0.2-1.5h0.2v-6.8
	h-0.9v1.2c-0.5-0.6-0.9-0.9-1.3-1.1c-0.6-0.3-1-0.4-1.7-0.4c-1.1,0-2.1,0.4-2.8,1C299.1,102.2,298.8,103.2,298.8,104.4z"/>
</svg>
