<svg data-name="Layer 1" xmlns="http://www.w3.org/2000/svg" viewBox="0 0 298.8874 141.0375"><title>NACAC_full_KO</title><path d="M298.887 0v141.038H0V0h298.887zM62.953 18.307h-7.846V62.58a15.964 15.964 0 0 0-1.12-2.15 28.916 28.916 0 0 0-1.682-2.427l-28.3-39.696h-9.06v54.547h7.845V28.58a15.19 15.19 0 0 0 1.028 2.15 13.822 13.822 0 0 0 1.214 1.96l28.954 40.257h8.967v-54.64zm145.988 0h-9.06l-22.416 54.64h8.5l4.203-10.74h28.3l4.205 10.74h8.966zm6.726 36.707L204.458 26.06l-11.49 28.954h22.698zm68.277-2.335h-7.94a14.977 14.977 0 0 1-5.23 11.02c-3.082 2.802-7.19 4.203-12.142 4.203a17.832 17.832 0 0 1-14.01-6.07c-3.548-4.017-5.323-9.34-5.323-16.066 0-7.098 1.682-12.516 5.044-16.44 3.364-3.83 8.127-5.79 14.292-5.79 4.576 0 8.313.934 11.208 2.896a12.7 12.7 0 0 1 5.51 8.313h8.033a18.102 18.102 0 0 0-7.565-13.077q-6.586-4.764-16.813-4.764c-8.687 0-15.505 2.522-20.55 7.565s-7.564 11.77-7.564 20.363c0 9.247 2.43 16.532 7.286 21.763s11.582 7.846 20.08 7.846c7.38 0 13.45-1.962 18.12-5.885s7.194-9.246 7.567-15.878zm-107.32-17.84a18.612 18.612 0 0 0-2.428-7.38 18.15 18.15 0 0 0-5.23-5.79q-6.585-4.764-16.813-4.764a44.766 44.766 0 0 0-14.85 2.71c-12.797 4.668-22.884 9.152-31.57 14.476L99.193 18.4h-9.06l-22.51 54.547h8.5c2.522-5.044 13.45-23.817 41.564-37.92a50.597 50.597 0 0 0-13.824 38.014h6.63c-1.96-34.37 32.13-47.635 32.13-47.635a21.993 21.993 0 0 1 9.248-1.774c4.577.094 8.313 1.028 11.208 2.896a13.042 13.042 0 0 1 5.51 8.313h8.034zM99.288 38.2l-4.67-12.05-9.247 23.725a102.74 102.74 0 0 1 13.917-11.675zM177.09 52.68h-8.125a14.81 14.81 0 0 1-5.044 11.02 17.62 17.62 0 0 1-12.14 4.203 17.832 17.832 0 0 1-14.01-6.07c-3.55-4.017-5.325-9.34-5.325-16.066a37.294 37.294 0 0 1 .467-5.79 19.148 19.148 0 0 0-8.033 13.262 26.773 26.773 0 0 0 6.444 13.356c4.857 5.23 11.488 7.846 20.08 7.846 7.38 0 13.45-1.962 18.12-5.885s7.193-9.246 7.567-15.878zM61.646 90.88h-1.4v10.65h1.12V92l7.38 9.527h1.4V90.88h-1.027v9.528zm16.906 6.445a4.346 4.346 0 0 1-.84.28c-.373.094-1.027.187-1.867.374a7.203 7.203 0 0 0-2.15.56 1.03 1.03 0 0 0-.466.933 1.172 1.172 0 0 0 .56 1.027 2.37 2.37 0 0 0 1.495.374 3.646 3.646 0 0 0 2.335-.654 2.257 2.257 0 0 0 .934-1.775v-1.12zm1.122 4.297h.374a.842.842 0 0 0 .467-.094v-.934a.326.326 0 0 0-.187.094h-.187a.45.45 0 0 1-.374-.094 1.03 1.03 0 0 1-.094-.653v-3.55a4.215 4.215 0 0 0-.093-1.213 2.34 2.34 0 0 0-.375-.654 1.86 1.86 0 0 0-1.12-.747 8.595 8.595 0 0 0-1.775-.187 4.473 4.473 0 0 0-2.71.653 2.604 2.604 0 0 0-1.026 2.055H73.6a1.537 1.537 0 0 1 .748-1.4 3.925 3.925 0 0 1 2.055-.468 3.612 3.612 0 0 1 1.588.373.938.938 0 0 1 .56.934c0 .56-.56.934-1.867 1.12-.374 0-.654.095-.84.095-.84.186-1.495.28-1.87.373a1.76 1.76 0 0 0-.84.374 1.662 1.662 0 0 0-.653.746 2.764 2.764 0 0 0-.187.934 1.988 1.988 0 0 0 .747 1.775 2.965 2.965 0 0 0 2.15.653 5.026 5.026 0 0 0 2.054-.373 4.473 4.473 0 0 0 1.4-1.028 1.24 1.24 0 0 0 .28.935.92.92 0 0 0 .748.28zm5.604-8.033h-1.774v-2.336h-1.028v2.335h-1.307v.84h1.307v5.043a3.02 3.02 0 0 0 .374 1.588 1.614 1.614 0 0 0 1.214.468h.56a1.823 1.823 0 0 0 .654-.093v-.84a1.016 1.016 0 0 1-.467.093h-.374a1.207 1.207 0 0 1-.748-.187 1.903 1.903 0 0 1-.186-1.026V94.43h1.774v-.84zm1.308.186v7.846h1.027v-7.846h-1.026zm1.027-2.896h-1.026v1.215h1.027V90.88zm3.55 4.484a3.108 3.108 0 0 0-.84 2.335 3.256 3.256 0 0 0 .84 2.334 3.41 3.41 0 0 0 4.484 0 3.108 3.108 0 0 0 .84-2.335 3.256 3.256 0 0 0-.84-2.336 3.41 3.41 0 0 0-4.483 0zM89.293 97.7a4.474 4.474 0 0 0 1.12 3.08 4.546 4.546 0 0 0 5.978 0 4.474 4.474 0 0 0 1.122-3.08 4.113 4.113 0 1 0-8.22 0zm16.345-.468v4.39h1.027v-5.044a2.642 2.642 0 0 0-2.988-2.99 4.182 4.182 0 0 0-1.868.374 3.492 3.492 0 0 0-1.402 1.215v-1.4H99.38v7.938h1.027v-4.483a2.35 2.35 0 0 1 .84-1.868 3.596 3.596 0 0 1 2.243-.747 2.143 2.143 0 0 1 1.68.56 3.476 3.476 0 0 1 .468 2.055zm9.247 3.176a1.24 1.24 0 0 0 .28.934.92.92 0 0 0 .747.28h.374a.842.842 0 0 0 .467-.094v-.934a.092.092 0 0 0-.094.094h-.187a.45.45 0 0 1-.374-.094 1.032 1.032 0 0 1-.094-.654v-3.55a4.213 4.213 0 0 0-.094-1.213 2.34 2.34 0 0 0-.373-.654 1.86 1.86 0 0 0-1.122-.747 8.6 8.6 0 0 0-1.775-.187 4.473 4.473 0 0 0-2.708.653 2.604 2.604 0 0 0-1.028 2.055h1.028a1.536 1.536 0 0 1 .747-1.4 3.925 3.925 0 0 1 2.055-.468 3.612 3.612 0 0 1 1.587.373.938.938 0 0 1 .56.934c0 .56-.56.934-1.868 1.12-.373 0-.653.095-.84.095-.84.186-1.495.28-1.868.373a1.76 1.76 0 0 0-.84.374 1.66 1.66 0 0 0-.654.746 2.763 2.763 0 0 0-.187.934 2.392 2.392 0 0 0 .747 1.775 2.965 2.965 0 0 0 2.148.654 6.105 6.105 0 0 0 1.962-.375 4.473 4.473 0 0 0 1.4-1.028zm-3.27.467a3.646 3.646 0 0 0 2.336-.654 2.257 2.257 0 0 0 .935-1.774v-1.12a4.346 4.346 0 0 1-.84.28c-.374.093-1.028.186-1.87.373a7.203 7.203 0 0 0-2.147.56 1.03 1.03 0 0 0-.467.933 1.172 1.172 0 0 0 .56 1.027 2.37 2.37 0 0 0 1.496.375zm7.847-9.995h-1.028v10.65h1.027V90.88zm9.153 6.352h4.857l-2.428-5.418zm5.324 1.12l1.494 3.27h1.12l-4.857-10.648h-1.214l-4.95 10.648h1.12l1.495-3.27h5.79zm9.713 2.803a2.047 2.047 0 0 0 1.027-1.868 1.9 1.9 0 0 0-.56-1.4 3.933 3.933 0 0 0-1.868-.655l-2.055-.28a5.98 5.98 0 0 1-1.4-.467.758.758 0 0 1-.374-.747 1.027 1.027 0 0 1 .56-.934 2.808 2.808 0 0 1 1.68-.374 3.49 3.49 0 0 1 1.87.374 1.826 1.826 0 0 1 .746 1.214h1.027a2.074 2.074 0 0 0-.934-1.868 4.347 4.347 0 0 0-2.616-.654 5.025 5.025 0 0 0-2.522.654 1.78 1.78 0 0 0-.934 1.68 1.9 1.9 0 0 0 .56 1.402 4.364 4.364 0 0 0 1.963.654l2.24.373a2.197 2.197 0 0 1 1.122.373.758.758 0 0 1 .374.747 1.133 1.133 0 0 1-.655 1.12 4.255 4.255 0 0 1-2.055.375 3.56 3.56 0 0 1-1.96-.467 2.044 2.044 0 0 1-.748-1.308h-1.028a2.098 2.098 0 0 0 1.028 1.962 4.348 4.348 0 0 0 2.615.747 4.926 4.926 0 0 0 2.896-.655zm8.22 0a2.047 2.047 0 0 0 1.027-1.868 1.9 1.9 0 0 0-.56-1.4 3.933 3.933 0 0 0-1.868-.655l-2.055-.28a5.977 5.977 0 0 1-1.4-.467.758.758 0 0 1-.375-.747 1.027 1.027 0 0 1 .56-.934 2.808 2.808 0 0 1 1.68-.374 3.49 3.49 0 0 1 1.87.374 1.826 1.826 0 0 1 .747 1.214h1.026a2.075 2.075 0 0 0-.934-1.868 4.347 4.347 0 0 0-2.615-.654 5.024 5.024 0 0 0-2.522.654 1.78 1.78 0 0 0-.934 1.68 1.9 1.9 0 0 0 .56 1.402 4.364 4.364 0 0 0 1.962.654l2.242.373a2.197 2.197 0 0 1 1.12.373.758.758 0 0 1 .374.747 1.133 1.133 0 0 1-.653 1.12 3.65 3.65 0 0 1-1.962.375 3.796 3.796 0 0 1-1.96-.467 2.044 2.044 0 0 1-.75-1.308h-1.026a2.793 2.793 0 0 0 .934 1.962 4.348 4.348 0 0 0 2.616.747 4.926 4.926 0 0 0 2.896-.655zm2.147-3.456a4.474 4.474 0 0 0 1.12 3.08 4.546 4.546 0 0 0 5.98 0 4.474 4.474 0 0 0 1.12-3.08 4.113 4.113 0 1 0-8.22 0zm1.868-2.336a3.108 3.108 0 0 0-.84 2.335 3.256 3.256 0 0 0 .84 2.334 3.41 3.41 0 0 0 4.484 0 3.108 3.108 0 0 0 .84-2.335 3.256 3.256 0 0 0-.84-2.336 3.41 3.41 0 0 0-4.484 0zm7.753 2.24a4.165 4.165 0 0 0 1.122 3.084 4.09 4.09 0 0 0 2.988 1.12 4.175 4.175 0 0 0 2.616-.84 3.355 3.355 0 0 0 1.214-2.242h-1.027a2.204 2.204 0 0 1-1.028 1.495 3.156 3.156 0 0 1-1.868.56 3.03 3.03 0 0 1-2.24-.84 3.663 3.663 0 0 1 0-4.67 3.03 3.03 0 0 1 2.24-.84 3.323 3.323 0 0 1 1.775.466 2.328 2.328 0 0 1 1.027 1.4h1.027a3.155 3.155 0 0 0-1.215-2.053 4.25 4.25 0 0 0-2.52-.748 3.857 3.857 0 0 0-4.11 4.11zm9.528 4.018h1.027v-7.846h-1.027v7.846zm1.027-9.527V90.88h-1.027v1.215h1.027zm8.313 5.23a4.346 4.346 0 0 1-.84.28c-.374.094-1.028.187-1.87.374a7.203 7.203 0 0 0-2.147.56 1.03 1.03 0 0 0-.466.933 1.172 1.172 0 0 0 .56 1.027 2.37 2.37 0 0 0 1.495.374 3.646 3.646 0 0 0 2.334-.654 2.257 2.257 0 0 0 .934-1.775v-1.12zm-5.978-1.027h1.028a1.536 1.536 0 0 1 .747-1.4 3.925 3.925 0 0 1 2.055-.468 3.612 3.612 0 0 1 1.588.373.938.938 0 0 1 .56.934c0 .56-.56.934-1.868 1.12-.374 0-.654.094-.84.094-.842.188-1.496.28-1.87.375a1.76 1.76 0 0 0-.84.374 1.662 1.662 0 0 0-.653.746 2.764 2.764 0 0 0-.187.934 1.988 1.988 0 0 0 .747 1.775 2.965 2.965 0 0 0 2.148.653 6.106 6.106 0 0 0 1.962-.373 4.473 4.473 0 0 0 1.4-1.028 1.24 1.24 0 0 0 .28.934.92.92 0 0 0 .748.28h.373a.842.842 0 0 0 .468-.092v-.934a.091.091 0 0 0-.094.093h-.187a.45.45 0 0 1-.373-.093 1.03 1.03 0 0 1-.094-.654v-3.55a4.216 4.216 0 0 0-.093-1.213 2.34 2.34 0 0 0-.374-.654 2.38 2.38 0 0 0-1.12-.747 8.6 8.6 0 0 0-1.774-.187 4.473 4.473 0 0 0-2.71.653 2.604 2.604 0 0 0-1.026 2.055zm12.703-2.71h-1.775v-2.334h-1.027v2.335h-1.306v.84h1.307v5.043a3.02 3.02 0 0 0 .375 1.588 1.614 1.614 0 0 0 1.214.468h.56a1.823 1.823 0 0 0 .653-.093v-.84a1.016 1.016 0 0 1-.467.093h-.374a1.207 1.207 0 0 1-.747-.187 1.902 1.902 0 0 1-.187-1.026V94.43h1.775v-.84zm1.214 8.033h1.028v-7.844h-1.028v7.846zm1.028-10.74h-1.028v1.214h1.028V90.88zm3.642 9.154a3.41 3.41 0 0 0 4.484 0 3.108 3.108 0 0 0 .84-2.336 3.256 3.256 0 0 0-.84-2.335 3.41 3.41 0 0 0-4.483 0 3.108 3.108 0 0 0-.84 2.335 3.256 3.256 0 0 0 .84 2.336zm5.23.747a4.474 4.474 0 0 0 1.122-3.082 4.113 4.113 0 1 0-8.22 0 4.474 4.474 0 0 0 1.12 3.083 4.546 4.546 0 0 0 5.978 0zm8.687-5.603a3.476 3.476 0 0 1 .467 2.054v4.39h1.03V96.58a2.642 2.642 0 0 0-2.99-2.99 4.182 4.182 0 0 0-1.868.375 3.492 3.492 0 0 0-1.4 1.214v-1.4h-1.028v7.938h1.027v-4.483a2.35 2.35 0 0 1 .842-1.868 3.595 3.595 0 0 1 2.24-.747 2.143 2.143 0 0 1 1.682.56zm8.874-.56v7.005h1.12v-7.005h1.775v-.84h-1.775v-.748a1.732 1.732 0 0 1 .187-.935 1.447 1.447 0 0 1 .747-.187h.374a1.016 1.016 0 0 1 .467.093v-.933c-.28 0-.467-.093-.654-.093a1.184 1.184 0 0 0-.56-.093 1.694 1.694 0 0 0-1.308.468 2.612 2.612 0 0 0-.374 1.774v.654H216.6v.84h1.308zm5.417 5.417a3.41 3.41 0 0 0 4.483 0 3.108 3.108 0 0 0 .84-2.335 3.256 3.256 0 0 0-.84-2.336 3.41 3.41 0 0 0-4.483 0 3.108 3.108 0 0 0-.84 2.335 3.256 3.256 0 0 0 .84 2.334zm5.23.747a4.474 4.474 0 0 0 1.12-3.08 4.113 4.113 0 1 0-8.218 0 4.474 4.474 0 0 0 1.12 3.08 4.546 4.546 0 0 0 5.978 0zm7.38-5.883V93.87a1.328 1.328 0 0 0-.56-.187.7.7 0 0 0-.468-.094 2.25 2.25 0 0 0-1.4.373 2.747 2.747 0 0 0-.935 1.12v-1.307h-1.027v7.846h1.027v-4.857a3.42 3.42 0 0 1 .934-1.495 2.377 2.377 0 0 1 1.495-.467h.468a1.016 1.016 0 0 1 .466.094zM33.157 113.67a5.433 5.433 0 0 0 1.494 4.11 5.005 5.005 0 0 0 3.923 1.495 5.07 5.07 0 0 0 3.55-1.12 5.672 5.672 0 0 0 1.774-3.176h-1.122a4.418 4.418 0 0 1-1.494 2.334 4.262 4.262 0 0 1-2.71.84 4.087 4.087 0 0 1-3.175-1.214 5.263 5.263 0 0 1 0-6.725A4.164 4.164 0 0 1 38.67 109a4.25 4.25 0 0 1 2.52.748 3.436 3.436 0 0 1 1.308 2.055v.093h1.214a4.244 4.244 0 0 0-1.588-2.802 5.343 5.343 0 0 0-3.362-1.027 5.17 5.17 0 0 0-5.604 5.604zm13.636-.933a3.108 3.108 0 0 0-.84 2.335 3.256 3.256 0 0 0 .84 2.335 3.41 3.41 0 0 0 4.484 0 3.108 3.108 0 0 0 .84-2.335 3.256 3.256 0 0 0-.84-2.335 3.41 3.41 0 0 0-4.484 0zm-1.868 2.335a4.474 4.474 0 0 0 1.12 3.082 4.546 4.546 0 0 0 5.98 0 4.474 4.474 0 0 0 1.12-3.082 4.113 4.113 0 1 0-8.22 0zm10.088 3.923h1.027v-10.648h-1.026v10.648zm3.27 0h1.026v-10.648h-1.027v10.648zm3.922-4.577h6.07a2.78 2.78 0 0 0-.933-1.868 3.077 3.077 0 0 0-2.055-.747 3.33 3.33 0 0 0-2.148.747 2.78 2.78 0 0 0-.934 1.868zm6.852 2.242h-1.06a2.416 2.416 0 0 1-1.03 1.307 3.225 3.225 0 0 1-1.68.467 2.89 2.89 0 0 1-2.148-.747 3.52 3.52 0 0 1-.934-2.242h7.192v-.28a4.165 4.165 0 0 0-1.12-3.082 4.113 4.113 0 0 0-7.1 2.99 4.165 4.165 0 0 0 1.12 3.08 4.09 4.09 0 0 0 2.99 1.122 4.25 4.25 0 0 0 2.522-.747 3.793 3.793 0 0 0 1.248-1.868m0 0h.06v-.187c-.015.066-.042.123-.06.187m1.647-1.682a3.857 3.857 0 0 0 4.11 4.11 3.556 3.556 0 0 0 1.775-.373 4.24 4.24 0 0 0 1.4-1.214v.84a2.192 2.192 0 0 1-.746 1.87 4.24 4.24 0 0 1-2.43.56 4.193 4.193 0 0 1-1.773-.375 1.24 1.24 0 0 1-.747-1.027h-1.027a1.86 1.86 0 0 0 1.027 1.68 4.228 4.228 0 0 0 2.522.655 5.758 5.758 0 0 0 1.868-.187 3.45 3.45 0 0 0 1.308-.654 1.766 1.766 0 0 0 .748-.934 6.704 6.704 0 0 0 .187-1.588h.093v-7.19H77.99v1.306a5.422 5.422 0 0 0-1.4-1.214 3.79 3.79 0 0 0-1.775-.373 3.857 3.857 0 0 0-4.11 4.108zm1.868-2.148a3.41 3.41 0 1 0 2.242-.84 3.03 3.03 0 0 0-2.24.84zm16.006 3.83h.06v-.187c-.016.066-.043.123-.06.187m-6.853-2.242h6.07a2.78 2.78 0 0 0-.933-1.868 3.077 3.077 0 0 0-2.055-.747 3.33 3.33 0 0 0-2.15.747 2.78 2.78 0 0 0-.933 1.868zm6.852 2.242h-1.062a2.416 2.416 0 0 1-1.028 1.307 3.225 3.225 0 0 1-1.68.467 2.89 2.89 0 0 1-2.15-.747 3.52 3.52 0 0 1-.933-2.242h7.192v-.28a4.165 4.165 0 0 0-1.122-3.082 4.113 4.113 0 0 0-7.1 2.99 4.165 4.165 0 0 0 1.122 3.08 4.09 4.09 0 0 0 2.99 1.122 4.25 4.25 0 0 0 2.52-.747 3.793 3.793 0 0 0 1.25-1.868m11.36-7.472l-2.428 5.417h4.857zm-5.51 9.807h1.12l1.495-3.27h5.79l1.495 3.27h1.12l-4.856-10.648H99.38zm11.768-3.923a3.857 3.857 0 0 0 4.11 4.11 3.556 3.556 0 0 0 1.775-.374 3.988 3.988 0 0 0 1.307-1.214v1.4h1.028v-10.647h-.934v4.11a7.366 7.366 0 0 0-1.4-1.12 3.79 3.79 0 0 0-1.776-.375 3.857 3.857 0 0 0-4.11 4.11zm1.868-2.335a3.173 3.173 0 0 0 4.483 4.483 2.68 2.68 0 0 0 .84-2.148 3.415 3.415 0 0 0-.84-2.335 3.41 3.41 0 0 0-4.484 0zm8.593 6.445h1.026v-4.484a2.35 2.35 0 0 1 .84-1.868 3.595 3.595 0 0 1 2.243-.747 2.143 2.143 0 0 1 1.68.56 3.476 3.476 0 0 1 .467 2.055v4.39h.934v-4.483a2.352 2.352 0 0 1 .84-1.868 3.596 3.596 0 0 1 2.243-.748 2.014 2.014 0 0 1 1.68.56 3.477 3.477 0 0 1 .468 2.054v4.39h1.03v-5.043a2.642 2.642 0 0 0-2.99-2.988 4.18 4.18 0 0 0-1.868.373 3.49 3.49 0 0 0-1.4 1.214 2.21 2.21 0 0 0-1.03-1.215 3.704 3.704 0 0 0-1.867-.373 4.18 4.18 0 0 0-1.868.373 3.49 3.49 0 0 0-1.4 1.214v-1.4h-1.028v8.03zm15.597-.187h1.028v-7.846h-1.028v7.845zm1.028-9.434v-1.213h-1.028v1.214h1.028zm1.588 6.913a2.29 2.29 0 0 0 1.027 1.96 4.348 4.348 0 0 0 2.615.748 4.926 4.926 0 0 0 2.896-.652 2.046 2.046 0 0 0 1.028-1.868 1.9 1.9 0 0 0-.56-1.4 3.932 3.932 0 0 0-1.868-.655l-2.055-.28a5.975 5.975 0 0 1-1.4-.467.758.758 0 0 1-.374-.747 1.027 1.027 0 0 1 .56-.933 2.808 2.808 0 0 1 1.682-.374 3.49 3.49 0 0 1 1.868.374 1.826 1.826 0 0 1 .747 1.214h1.028a2.075 2.075 0 0 0-.934-1.867 4.347 4.347 0 0 0-2.615-.654 5.025 5.025 0 0 0-2.52.653 1.78 1.78 0 0 0-.935 1.68 1.9 1.9 0 0 0 .56 1.402 4.364 4.364 0 0 0 1.96.654l2.243.373a2.6 2.6 0 0 1 1.12.373.758.758 0 0 1 .374.747 1.133 1.133 0 0 1-.654 1.12 4.256 4.256 0 0 1-2.055.375 3.796 3.796 0 0 1-1.96-.467 2.045 2.045 0 0 1-.748-1.307h-1.028zm8.406 0a2.098 2.098 0 0 0 1.026 1.96 4.348 4.348 0 0 0 2.615.748 4.926 4.926 0 0 0 2.897-.652 2.046 2.046 0 0 0 1.027-1.868 1.9 1.9 0 0 0-.56-1.4 3.932 3.932 0 0 0-1.868-.655l-2.054-.28a5.975 5.975 0 0 1-1.4-.467.758.758 0 0 1-.375-.747 1.027 1.027 0 0 1 .56-.933 2.808 2.808 0 0 1 1.68-.374 3.49 3.49 0 0 1 1.87.374 1.826 1.826 0 0 1 .747 1.213h1.027a2.075 2.075 0 0 0-.933-1.868 4.347 4.347 0 0 0-2.615-.653 5.025 5.025 0 0 0-2.522.652 1.78 1.78 0 0 0-.934 1.682 1.9 1.9 0 0 0 .56 1.4 4.364 4.364 0 0 0 1.962.654l2.24.374a2.197 2.197 0 0 1 1.122.374.758.758 0 0 1 .374.747 1.133 1.133 0 0 1-.654 1.12 4.256 4.256 0 0 1-2.055.374 3.558 3.558 0 0 1-1.962-.467 2.045 2.045 0 0 1-.747-1.307h-1.027zm10.086-6.912v-1.213h-1.027v1.214h1.026zm-1.027 9.435h1.026v-7.846h-1.027v7.845zm4.67-6.258a3.108 3.108 0 0 0-.842 2.335 3.256 3.256 0 0 0 .84 2.335 3.41 3.41 0 0 0 4.484 0 3.108 3.108 0 0 0 .84-2.335 3.256 3.256 0 0 0-.84-2.335 3.41 3.41 0 0 0-4.483 0zm-1.87 2.335a4.474 4.474 0 0 0 1.122 3.082 4.546 4.546 0 0 0 5.977 0 4.474 4.474 0 0 0 1.12-3.082 4.113 4.113 0 1 0-8.22 0zm9.995 4.016h1.027v-4.483a2.352 2.352 0 0 1 .84-1.868 3.596 3.596 0 0 1 2.243-.747 2.143 2.143 0 0 1 1.68.56 3.477 3.477 0 0 1 .468 2.055v4.39h1.027v-5.044a2.642 2.642 0 0 0-2.99-2.988 4.18 4.18 0 0 0-1.867.374 3.49 3.49 0 0 0-1.4 1.214v-1.4h-1.028v7.938zm14.01-5.417a5.432 5.432 0 0 0 1.494 4.11 5.005 5.005 0 0 0 3.922 1.495 5.563 5.563 0 0 0 3.55-1.12 5.672 5.672 0 0 0 1.774-3.176h-1.12a4.418 4.418 0 0 1-1.495 2.334 4.262 4.262 0 0 1-2.708.84 4.087 4.087 0 0 1-3.176-1.214 5.263 5.263 0 0 1 0-6.725 4.164 4.164 0 0 1 3.27-1.214 4.25 4.25 0 0 1 2.52.748 3.436 3.436 0 0 1 1.31 2.055v.094h1.213a4.244 4.244 0 0 0-1.59-2.802 5.344 5.344 0 0 0-3.36-1.028 5.17 5.17 0 0 0-5.604 5.604zm13.637-.933a3.108 3.108 0 0 0-.84 2.335 3.256 3.256 0 0 0 .84 2.335 3.41 3.41 0 0 0 4.483 0 3.108 3.108 0 0 0 .84-2.335 3.256 3.256 0 0 0-.84-2.335 3.41 3.41 0 0 0-4.483 0zm-1.962 2.335a4.967 4.967 0 0 0 1.12 3.082 4.546 4.546 0 0 0 5.98 0 4.474 4.474 0 0 0 1.12-3.082 4.113 4.113 0 1 0-8.22 0zm10.087 1.027a2.642 2.642 0 0 0 2.99 2.988 4.18 4.18 0 0 0 1.867-.373 3.49 3.49 0 0 0 1.4-1.214v1.495h1.03v-7.846h-1.028v4.39a2.352 2.352 0 0 1-.84 1.867 3.596 3.596 0 0 1-2.242.747 2.283 2.283 0 0 1-1.68-.56 3.476 3.476 0 0 1-.468-2.055v-4.39h-1.028v4.95zm9.434 2.988h1.03v-4.483a2.35 2.35 0 0 1 .84-1.868 3.596 3.596 0 0 1 2.24-.747 2.143 2.143 0 0 1 1.682.56 3.477 3.477 0 0 1 .467 2.055v4.39h1.026v-5.044a2.642 2.642 0 0 0-2.988-2.988 4.18 4.18 0 0 0-1.868.374 3.49 3.49 0 0 0-1.4 1.214v-1.4h-1.03v7.938zm8.78-2.615a2.098 2.098 0 0 0 1.03 1.96 4.348 4.348 0 0 0 2.614.75 5.761 5.761 0 0 0 2.895-.655 2.046 2.046 0 0 0 1.027-1.868 1.9 1.9 0 0 0-.56-1.4 3.932 3.932 0 0 0-1.868-.655l-2.056-.28a5.975 5.975 0 0 1-1.4-.467.758.758 0 0 1-.375-.747 1.027 1.027 0 0 1 .56-.933 2.808 2.808 0 0 1 1.68-.374 3.49 3.49 0 0 1 1.87.374 1.826 1.826 0 0 1 .746 1.214h1.028a2.075 2.075 0 0 0-.934-1.867 4.347 4.347 0 0 0-2.616-.654 5.025 5.025 0 0 0-2.52.653 1.78 1.78 0 0 0-.935 1.68 1.9 1.9 0 0 0 .56 1.402 4.364 4.364 0 0 0 1.96.654l2.242.373a2.197 2.197 0 0 1 1.12.373.758.758 0 0 1 .374.747 1.133 1.133 0 0 1-.654 1.12 4.256 4.256 0 0 1-2.055.375 3.796 3.796 0 0 1-1.96-.467 2.045 2.045 0 0 1-.748-1.307h-1.03zm16.474.187h.06v-.187c-.015.066-.042.123-.06.187m-6.852-2.242h6.072a2.78 2.78 0 0 0-.934-1.868 3.078 3.078 0 0 0-2.055-.747 3.33 3.33 0 0 0-2.148.747 2.78 2.78 0 0 0-.935 1.868zm6.852 2.242h-1.155a2.416 2.416 0 0 1-1.028 1.307 3.225 3.225 0 0 1-1.68.467 2.89 2.89 0 0 1-2.15-.747 4.044 4.044 0 0 1-.84-2.242h7.192v-.28a4.165 4.165 0 0 0-1.12-3.082 4.113 4.113 0 0 0-7.1 2.99 4.165 4.165 0 0 0 1.12 3.08 4.09 4.09 0 0 0 2.99 1.122 4.25 4.25 0 0 0 2.522-.747 3.793 3.793 0 0 0 1.248-1.868m2.114 2.335h1.028v-10.648h-1.028v10.648zm4.39-9.434v-1.213h-1.027v1.214h1.028zm-1.027 9.435h1.028v-7.846h-1.027v7.845zm3.177.093h1.027v-4.483a2.352 2.352 0 0 1 .84-1.868 3.596 3.596 0 0 1 2.242-.747 2.143 2.143 0 0 1 1.682.56 3.477 3.477 0 0 1 .467 2.055v4.39h1.027v-5.044a2.642 2.642 0 0 0-2.99-2.988 4.18 4.18 0 0 0-1.867.374 3.49 3.49 0 0 0-1.4 1.214v-1.4h-1.028v7.938zm10.928-6.258a3.41 3.41 0 1 0 2.24-.84 3.03 3.03 0 0 0-2.24.84zm-1.775 2.148a3.857 3.857 0 0 0 4.11 4.11 3.556 3.556 0 0 0 1.775-.373 4.24 4.24 0 0 0 1.4-1.214v.84a2.192 2.192 0 0 1-.747 1.87 4.24 4.24 0 0 1-2.428.56 4.194 4.194 0 0 1-1.775-.374 1.24 1.24 0 0 1-.747-1.028h-1.027a1.86 1.86 0 0 0 1.028 1.68 4.228 4.228 0 0 0 2.522.655 5.46 5.46 0 0 0 1.775-.187 3.45 3.45 0 0 0 1.307-.653 1.766 1.766 0 0 0 .747-.934 6.704 6.704 0 0 0 .186-1.59h.188v-7.19h-1.028v1.306a5.422 5.422 0 0 0-1.4-1.214 3.79 3.79 0 0 0-1.775-.373 3.857 3.857 0 0 0-4.11 4.108z" fill="#fff"/></svg>