<svg id="Layer_1" xmlns="http://www.w3.org/2000/svg" viewBox="0 0 288 146.7"><style>.st0{fill:#fff}.st1{fill:#7a7a7a}</style><path class="st0" d="M3.2 105.1l.9-1c.7.6 1.5 1 2.5 1 .9 0 1.4-.4 1.4-1 0-.5-.2-.9-1.7-1.2-1.6-.4-2.6-.9-2.6-2.4 0-1.4 1.1-2.2 2.6-2.2 1.1 0 2 .4 2.9 1l-.7 1c-.7-.5-1.4-.7-2.1-.7s-1.4.3-1.4.8c0 .6.4.9 1.9 1.2 1.6.4 2.5 1 2.5 2.2 0 1.5-1.1 2.4-2.7 2.4-1.5.1-2.6-.3-3.5-1.1zM10.3 103.3c0-1.7 1.2-3.1 2.9-3.1 1.9 0 2.9 1.5 2.9 3.1v.4h-4.3c.1 1 .9 1.5 1.7 1.5.6 0 1.1-.2 1.6-.7l.7.7c-.5.6-1.4 1.1-2.4 1.1-1.9 0-3.1-1.2-3.1-3zm4.4-.5c-.1-.9-.6-1.5-1.5-1.5s-1.4.6-1.5 1.5h3zM17.3 100.4h1.4v1c.4-.6 1-1.1 2-1.1 1.4 0 2.7 1.1 2.7 3 0 2-1.4 3-2.7 3-1 0-1.6-.5-2-1v2.7h-1.4v-7.6zm4.7 2.9c0-1.1-.7-1.9-1.6-1.9s-1.7.7-1.7 1.9c0 1.1.7 1.9 1.7 1.9.8 0 1.6-.8 1.6-1.9zM24.9 104.6v-3.1h-.7v-1.1h.7v-1.6h1.4v1.6h1.6v1.1h-1.6v2.9c0 .5.2.7.7.7.2 0 .6-.1.9-.2v1.1c-.4.2-.7.2-1.2.2-1 .1-1.8-.3-1.8-1.6zM29.2 104.7h1.5v1.5h-1.5v-1.5zM35.2 105.2l2.6-2.2c1.1-.9 1.5-1.4 1.5-2.1 0-.7-.5-1.2-1.2-1.2s-1.2.4-1.7 1.1l-1-.7c.7-1 1.5-1.6 2.9-1.6 1.5 0 2.6.9 2.6 2.4 0 1.2-.6 1.9-2 3l-1.6 1.4H41v1.2h-5.6l-.2-1.3zM42.1 105.2l2.6-2.2c1.1-.9 1.5-1.4 1.5-2.1 0-.7-.5-1.2-1.2-1.2s-1.2.4-1.7 1.1l-1-.7c.7-1 1.5-1.6 2.9-1.6 1.5 0 2.6.9 2.6 2.4 0 1.2-.6 1.9-2 3l-1.6 1.4h3.7v1.2h-5.6v-1.1h-.2zM48.9 102.2h4.6v1.2h-4.6v-1.2zM54.6 105.2l2.6-2.2c1.1-.9 1.5-1.4 1.5-2.1 0-.7-.5-1.2-1.2-1.2s-1.2.4-1.7 1.1l-1-.7c.7-1 1.5-1.6 2.9-1.6 1.5 0 2.6.9 2.6 2.4 0 1.2-.6 1.9-2 3l-1.6 1.4h3.7v1.2h-5.6v-1.1h-.2zM65.3 104.4h-3.8l-.2-1 4.3-5.1h1.1v5h1.1v1.1h-1.1v1.7h-1.4v-1.7zm0-1.1v-3.1l-2.5 3.1h2.5zM68.6 107.3c.6-.1 1-.5 1-1H69v-1.5h1.5v1.2c0 1.2-.6 1.7-1.7 1.9l-.2-.6zM75.1 105.2l2.6-2.2c1.1-.9 1.5-1.4 1.5-2.1 0-.7-.5-1.2-1.2-1.2s-1.2.4-1.7 1.1l-1-.7c.7-1 1.5-1.6 2.9-1.6 1.5 0 2.6.9 2.6 2.4 0 1.2-.6 1.9-2 3l-1.6 1.4h3.7v1.2h-5.6l-.2-1.3zM81.9 102.3c0-2.2 1.4-4 3.3-4s3.3 1.7 3.3 4c0 2.2-1.4 4-3.3 4s-3.3-1.7-3.3-4zm5.3 0c0-1.5-.7-2.9-2-2.9-1.2 0-2 1.2-2 2.7 0 1.5.7 2.7 2 2.7 1.3.3 2-1 2-2.5zM91.2 99.7l-1.4.4-.2-1.1 2-.6h1v7.8h-1.4v-6.5zM95.2 105.6c-.6-.6-1-1.4-1-3 0-2.4 1.1-4.2 3.3-4.2 1 0 1.7.4 2.4.9l-.7 1c-.5-.4-1-.6-1.7-.6-1.4 0-1.9 1.4-1.9 2.5.5-.5 1-.7 1.9-.7 1.5 0 2.7.9 2.7 2.5 0 1.5-1.2 2.6-2.9 2.6-.9-.3-1.6-.5-2.1-1zm3.7-1.9c0-.7-.6-1.4-1.6-1.4s-1.6.6-1.6 1.4c0 .7.6 1.4 1.6 1.4s1.6-.5 1.6-1.4zM108.8 97.4h1.1v10.3h-1.1V97.4zM118.5 102.3c0-2.2 1.6-4 4-4 1.4 0 2.2.5 3 1.2l-.9 1c-.6-.6-1.2-1-2.1-1-1.5 0-2.6 1.2-2.6 2.7 0 1.5 1.1 2.7 2.6 2.7 1 0 1.6-.4 2.2-1l.9.9c-.9.9-1.7 1.4-3.1 1.4-2.4.1-4-1.6-4-3.9zM126.3 103.3c0-1.7 1.4-3.1 3.1-3.1 1.7 0 3.1 1.4 3.1 3s-1.4 3-3.1 3c-1.7.1-3.1-1.3-3.1-2.9zm5 0c0-1-.7-1.9-1.7-1.9-1.1 0-1.7.9-1.7 1.9 0 1 .7 1.9 1.7 1.9s1.7-.9 1.7-1.9zM134 98.1h1.4v8.1H134v-8.1zM137.1 104.1v-3.7h1.4v3.3c0 .9.5 1.4 1.2 1.4s1.4-.5 1.4-1.5v-3.3h1.4v5.8h-1.4v-.9c-.4.5-.9 1-1.9 1-1.3.1-2.1-.8-2.1-2.1zM143.9 100.4h1.4v.9c.4-.5.9-1 1.7-1 .9 0 1.5.4 1.7 1 .5-.6 1.1-1 2-1 1.2 0 2 .9 2 2.2v3.7h-1.4v-3.3c0-.9-.4-1.5-1.2-1.5-.7 0-1.2.5-1.2 1.5v3.3h-1.4v-3.3c0-.9-.5-1.4-1.2-1.4s-1.2.5-1.2 1.5v3.3h-1.4l.2-5.9zM155.8 105.3v.9h-1.4v-8.1h1.4v3.2c.4-.6 1-1.1 2-1.1 1.4 0 2.7 1.1 2.7 3 0 2-1.4 3-2.7 3-1 .1-1.6-.4-2-.9zm3.4-2c0-1.1-.7-1.9-1.6-1.9-.9 0-1.7.7-1.7 1.9 0 1.1.7 1.9 1.7 1.9.9 0 1.6-.8 1.6-1.9zM161.8 104.1v-3.7h1.4v3.3c0 .9.5 1.4 1.2 1.4s1.4-.5 1.4-1.5v-3.3h1.4v5.8h-1.4v-.9c-.4.5-.9 1-1.9 1-1.4.1-2.1-.8-2.1-2.1zM168.3 105.4l.6-.9c.6.5 1.4.7 1.9.7.6 0 .9-.2.9-.6 0-.5-.6-.6-1.4-.9-.9-.2-1.9-.6-1.9-1.7s.9-1.7 2.1-1.7c.7 0 1.5.2 2.1.6l-.5 1c-.6-.4-1.1-.5-1.6-.5s-.9.2-.9.6c0 .4.6.6 1.4.9.9.2 1.9.6 1.9 1.7 0 1.2-1 1.9-2.1 1.9-.9-.2-1.8-.4-2.5-1.1zM173.8 107.3c.6-.1 1-.5 1-1h-.6v-1.5h1.5v1.2c0 1.2-.6 1.7-1.7 1.9l-.2-.6zM180.4 102.3c0-2.2 1.7-4 4.1-4s4.1 1.9 4.1 4c0 2.2-1.7 4-4.1 4s-4.1-1.7-4.1-4zm6.7 0c0-1.5-1.1-2.7-2.6-2.7s-2.6 1.2-2.6 2.7c0 1.5 1.1 2.7 2.6 2.7 1.5.1 2.6-1.2 2.6-2.7zM190.1 98.5h1.4v3.2h3.7v-3.2h1.4v7.7h-1.4V103h-3.7v3.2h-1.4v-7.7zM205.5 97.4h1.1v10.3h-1.1V97.4zM215.3 100.4h1.4v.9c.4-.5.9-1 1.9-1 1.4 0 2.1.9 2.1 2.2v3.7h-1.4v-3.3c0-.9-.5-1.5-1.2-1.5s-1.4.5-1.4 1.5v3.3h-1.4v-5.8zM221.9 104.6c0-1.2 1-1.9 2.4-1.9.6 0 1.1.1 1.6.2v-.1c0-.9-.5-1.2-1.5-1.2-.6 0-1.1.1-1.6.4l-.4-1c.6-.2 1.2-.5 2.2-.5.9 0 1.5.2 2 .6.4.4.6 1 .6 1.9v3.5h-1.4v-.7c-.4.5-1 .9-1.9.9-1.2-.4-2-1-2-2.1zm3.9-.5v-.4c-.4-.1-.7-.2-1.4-.2-.9 0-1.4.4-1.4 1s.5.9 1.1.9c1-.1 1.7-.6 1.7-1.3zM228.3 103.3c0-1.7 1.2-3.1 3-3.1 1.1 0 1.7.4 2.4 1l-.9.9c-.4-.4-.9-.7-1.5-.7-1 0-1.7.9-1.7 1.9 0 1 .7 1.9 1.7 1.9.6 0 1.1-.2 1.5-.7l.7.7c-.6.6-1.2 1.1-2.4 1.1-1.4 0-2.8-1.4-2.8-3zM234.6 104.6c0-1.2 1-1.9 2.4-1.9.6 0 1.1.1 1.6.2v-.1c0-.9-.5-1.2-1.5-1.2-.6 0-1.1.1-1.6.4l-.4-1c.6-.2 1.2-.5 2.2-.5.9 0 1.5.2 2 .6.4.4.6 1 .6 1.9v3.5h-1.4v-.7c-.4.5-1 .9-1.9.9-1-.4-2-1-2-2.1zm4-.5v-.4c-.4-.1-.7-.2-1.4-.2-.9 0-1.4.4-1.4 1s.5.9 1.1.9c1.1-.1 1.7-.6 1.7-1.3zM241.2 103.3c0-1.7 1.2-3.1 3-3.1 1.1 0 1.7.4 2.4 1l-.9.9c-.4-.4-.9-.7-1.5-.7-1 0-1.7.9-1.7 1.9 0 1 .7 1.9 1.7 1.9.6 0 1.1-.2 1.5-.7l.7.7c-.6.6-1.2 1.1-2.4 1.1-1.5 0-2.8-1.4-2.8-3zM247.8 100.4h1.4v.9c.4-.5.9-1 1.9-1 1.4 0 2.1.9 2.1 2.2v3.7h-1.4v-3.3c0-.9-.5-1.5-1.2-1.5s-1.4.5-1.4 1.5v3.3h-1.4v-5.8zM254.4 103.3c0-1.7 1.2-3.1 2.9-3.1 1.9 0 2.9 1.5 2.9 3.1v.4h-4.3c.1 1 .9 1.5 1.7 1.5.6 0 1.1-.2 1.6-.7l.7.7c-.5.6-1.4 1.1-2.4 1.1-1.9 0-3.1-1.2-3.1-3zm4.3-.5c-.1-.9-.6-1.5-1.5-1.5s-1.4.6-1.5 1.5h3zM261.6 104.6v-3.1h-.7v-1.1h.7v-1.6h1.4v1.6h1.6v1.1H263v2.9c0 .5.2.7.7.7.2 0 .6-.1.9-.2v1.1c-.4.2-.7.2-1.2.2-1.1.1-1.8-.3-1.8-1.6zM265.8 104.7h1.5v1.5h-1.5v-1.5zM268.3 103.3c0-1.7 1.4-3.1 3.1-3.1 1.7 0 3.1 1.4 3.1 3s-1.4 3-3.1 3c-1.8.1-3.1-1.3-3.1-2.9zm4.9 0c0-1-.7-1.9-1.7-1.9-1.1 0-1.7.9-1.7 1.9 0 1 .7 1.9 1.7 1.9s1.7-.9 1.7-1.9zM276 100.4h1.4v1.4c.4-.9 1-1.5 2.1-1.4v1.4h-.1c-1.1 0-2 .7-2 2.4v2.2H276v-6zM280.3 107.3l.5-1c.6.4 1.2.6 2.1.6 1.2 0 1.9-.6 1.9-1.7v-.5c-.5.6-1.1 1.1-2.1 1.1-1.4 0-2.6-1-2.6-2.7 0-1.7 1.2-2.7 2.6-2.7 1 0 1.6.5 2 1v-.9h1.4v4.6c0 1-.2 1.7-.7 2.2-.5.5-1.4.7-2.4.7-1.1 0-2-.2-2.7-.7zm4.5-4.3c0-1-.7-1.6-1.7-1.6-.9 0-1.6.6-1.6 1.6s.7 1.6 1.6 1.6c.8 0 1.7-.6 1.7-1.6z"/><g><path class="st0" d="M107.3 50.8V29.6h3l6.8 10.7c1.6 2.5 2.9 4.7 3.8 6.9h.1c-.2-2.9-.4-5.5-.4-8.7v-8.9h2.6v21.2h-2.7L113.8 40c-1.5-2.4-2.9-4.8-4-7.1h-.1c.1 2.7.2 5.2.2 8.7v9.1l-2.6.1zM136.4 50.8l-.2-1.9h-.2c-.9 1.2-2.5 2.2-4.7 2.2-3.1 0-4.7-2.2-4.7-4.3 0-3.7 3.2-5.7 9.2-5.7v-.4c0-1.2-.4-3.5-3.5-3.5-1.4 0-2.9.5-4 1.1l-.6-1.9c1.2-.9 3.1-1.4 5-1.4 4.7 0 5.8 3.2 5.8 6.2v5.7c0 1.4.1 2.6.2 3.6l-2.3.3zm-.4-7.6c-3-.1-6.5.5-6.5 3.5 0 1.7 1.2 2.6 2.6 2.6 2 0 3.2-1.2 3.7-2.6.1-.2.1-.6.1-.9l.1-2.6zM146.4 31.2v4.3h4v2.1h-4v8.2c0 1.9.5 3 2.1 3 .7 0 1.2-.1 1.6-.2l.1 2.1c-.5.2-1.4.4-2.5.4-1.2 0-2.4-.4-3-1.1-.7-.9-1.1-2.2-1.1-4v-8.3h-2.4v-2.1h2.4V32l2.8-.8zM156.5 31.4c0 1-.6 1.7-1.7 1.7-1 0-1.6-.7-1.6-1.7s.7-1.7 1.7-1.7c.9-.1 1.6.7 1.6 1.7zm-3 19.4V35.7h2.7V51h-2.7v-.2zM174.6 43.2c0 5.6-3.8 8.1-7.6 8.1-4.1 0-7.3-3-7.3-7.8 0-5.1 3.3-8.1 7.6-8.1 4.3-.1 7.3 3 7.3 7.8zm-12.1.1c0 3.3 1.9 5.8 4.6 5.8 2.6 0 4.6-2.5 4.6-6 0-2.6-1.2-5.8-4.6-5.8-3.2.1-4.6 3.1-4.6 6zM178.1 39.8c0-1.6 0-2.9-.1-4.1h2.5l.1 2.5h.1c.7-1.5 2.5-2.9 5.1-2.9 2.1 0 5.3 1.2 5.3 6.5v9.1h-2.7V42c0-2.5-.9-4.5-3.5-4.5-1.9 0-3.2 1.2-3.7 2.9-.1.4-.2.9-.2 1.2v9.2h-2.7l-.2-11zM204 50.8l-.2-1.9h-.1c-.9 1.2-2.5 2.2-4.7 2.2-3.1 0-4.7-2.2-4.7-4.3 0-3.7 3.2-5.7 9.2-5.7v-.4c0-1.2-.4-3.5-3.5-3.5-1.4 0-2.9.5-4 1.1l-.6-1.9c1.2-.9 3.1-1.4 5-1.4 4.7 0 5.8 3.2 5.8 6.2v5.7c0 1.4.1 2.6.2 3.6l-2.4.3zm-.4-7.6c-3-.1-6.5.5-6.5 3.5 0 1.7 1.2 2.6 2.6 2.6 2 0 3.2-1.2 3.7-2.6.1-.2.1-.6.1-.9l.1-2.6zM210.7 28.5h2.7v22.3h-2.7V28.5zM122.2 79.5c-1 .5-3 1-5.6 1-6 0-10.4-3.7-10.4-10.7 0-6.7 4.5-11.2 11-11.2 2.6 0 4.3.6 5.1 1l-.6 2.2c-1-.5-2.5-.9-4.2-.9-5 0-8.3 3.2-8.3 8.8 0 5.2 3 8.6 8.2 8.6 1.6 0 3.3-.4 4.5-.9l.3 2.1zM139 72.6c0 5.6-3.8 8.1-7.6 8.1-4.1 0-7.3-3-7.3-7.8 0-5.1 3.3-8.1 7.6-8.1 4.3-.2 7.3 3 7.3 7.8zm-12.1.1c0 3.3 1.9 5.8 4.6 5.8 2.6 0 4.6-2.5 4.6-6 0-2.6-1.2-5.8-4.6-5.8-3.2 0-4.6 3.1-4.6 6zM142.4 69.1c0-1.6 0-2.9-.1-4.1h2.5l.1 2.5h.1c.7-1.5 2.5-2.9 5.1-2.9 2.1 0 5.3 1.2 5.3 6.5v9.1h-2.7v-8.8c0-2.5-.9-4.5-3.5-4.5-1.9 0-3.2 1.2-3.7 2.9-.1.4-.2.9-.2 1.2v9.2h-2.9V69.1zM160.2 80.3V67.1h-2.1V65h2.1v-.7c0-2.1.5-4.1 1.7-5.3 1-1 2.5-1.4 3.7-1.4 1 0 1.9.2 2.4.5l-.4 2.1c-.4-.2-1-.4-1.7-.4-2.4 0-3 2.1-3 4.5v.9h3.7v2.1h-3.7v13.2c0-.2-2.7-.2-2.7-.2zM170.2 73.2c.1 3.7 2.5 5.3 5.2 5.3 2 0 3.2-.4 4.2-.7l.5 2c-1 .5-2.6 1-5.1 1-4.7 0-7.4-3.1-7.4-7.7s2.7-8.2 7.2-8.2c5 0 6.3 4.3 6.3 7.2 0 .6-.1 1-.1 1.2l-10.8-.1zm8.1-2c0-1.7-.7-4.5-3.8-4.5-2.9 0-4 2.6-4.2 4.5h8zM184.5 69.8c0-1.7 0-3.3-.1-4.7h2.5l.1 3h.1c.7-2 2.4-3.3 4.2-3.3.4 0 .5 0 .7.1v2.5c-.2-.1-.6-.1-1-.1-2 0-3.3 1.5-3.7 3.6-.1.4-.1.9-.1 1.2v8.1h-2.7V69.8zM196 73.2c.1 3.7 2.5 5.3 5.2 5.3 2 0 3.2-.4 4.2-.7l.5 2c-1 .5-2.6 1-5.1 1-4.7 0-7.4-3.1-7.4-7.7s2.7-8.2 7.2-8.2c5 0 6.3 4.3 6.3 7.2 0 .6-.1 1-.1 1.2l-10.8-.1zm8.1-2c0-1.7-.7-4.5-3.8-4.5-2.9 0-4 2.6-4.2 4.5h8zM210.2 69.1c0-1.6 0-2.9-.1-4.1h2.5l.1 2.5h.1c.7-1.5 2.5-2.9 5.1-2.9 2.1 0 5.3 1.2 5.3 6.5v9.1h-2.7v-8.8c0-2.5-.9-4.5-3.5-4.5-1.9 0-3.2 1.2-3.7 2.9-.1.4-.2.9-.2 1.2v9.2h-2.7l-.2-11.1zM238.5 79.6c-.7.4-2.4.9-4.3.9-4.6 0-7.6-3.1-7.6-7.8 0-4.7 3.2-8.1 8.2-8.1 1.6 0 3.1.4 3.8.7l-.6 2.1c-.6-.4-1.7-.7-3.2-.7-3.5 0-5.3 2.6-5.3 5.7 0 3.5 2.2 5.7 5.3 5.7 1.6 0 2.6-.4 3.3-.7l.4 2.2zM243.2 73.2c.1 3.7 2.5 5.3 5.2 5.3 2 0 3.2-.4 4.2-.7l.5 2c-1 .5-2.6 1-5.1 1-4.7 0-7.4-3.1-7.4-7.7s2.7-8.2 7.2-8.2c5 0 6.3 4.3 6.3 7.2 0 .6-.1 1-.1 1.2l-10.8-.1zm8.1-2c0-1.7-.7-4.5-3.8-4.5-2.9 0-4 2.6-4.2 4.5h8z"/></g><g><path class="st1" d="M1.6 29h95v51.6h-95z"/><path class="st0" d="M1.7 80.5c33.4-37.8 80.2-49 94.8-51.5H1.6l.1 51.5z"/></g><g><path class="st0" d="M1.5 21.3V2h3.2l10 14c.2.2.4.6.6.9.1.2.2.5.4.7V2h2.7v19.4h-3.1L5.2 7.1c-.1-.3-.2-.5-.4-.7-.1-.2-.2-.5-.3-.7v15.6h-3zM58.9 21.3l8-19.3h3.2L78 21.4h-3l-1.5-3.8h-10L62 21.4h-3.1zm5.6-6.3h8.1l-4-10.2L64.5 15zM93.8 14.1h2.9c-.1 2.4-1 4.2-2.7 5.6-1.6 1.4-3.8 2.1-6.5 2.1-3 0-5.3-.9-7.1-2.7-1.7-1.9-2.6-4.5-2.6-7.7 0-3 .9-5.5 2.7-7.2 1.7-1.7 4.2-2.6 7.2-2.6 2.5 0 4.5.6 6 1.7s2.5 2.7 2.7 4.6h-2.9c-.2-1.2-.9-2.2-2-3-1-.7-2.4-1-4-1-2.2 0-3.8.7-5.1 2.1-1.2 1.4-1.7 3.3-1.7 5.8 0 2.4.6 4.2 1.9 5.7 1.2 1.5 2.9 2.1 5 2.1 1.7 0 3.2-.5 4.3-1.5 1.2-1 1.8-2.4 1.9-4zM57.8 5.3c-.5-.7-1.1-1.5-1.9-2.1-1.5-1.1-3.5-1.7-6-1.7-1.9 0-3.8.4-5.2 1-4.5 1.6-8.1 3.2-11.2 5.1L31.3 2h-3.2l-7.9 19.4h2.9C24 19.7 27.8 13 37.7 8c-2.9 3-5.2 7.4-4.8 13.4h2.4c-.8-12.2 11.2-17 11.2-17 1.1-.5 2.2-.6 3.2-.6 1.6 0 3 .4 4 1s1.6 1.6 2 3h2.9c0-1-.3-1.7-.8-2.5zm-31.4 7.8l3.2-8.4 1.6 4.2c-1.8 1.5-3.4 2.9-4.8 4.2z"/><g><path class="st0" d="M56 14.1c-.1 1.6-.6 3-1.7 3.8s-2.6 1.5-4.3 1.5c-2.1 0-3.7-.7-5-2.1-1.2-1.5-1.9-3.3-1.9-5.7 0-.7 0-1.4.1-2.1-1.6 1.1-2.6 2.9-2.9 4.7.4 1.9 1.1 3.5 2.2 4.7 1.7 1.9 4.1 2.7 7.1 2.7 2.6 0 4.7-.7 6.5-2.1 1.6-1.4 2.5-3.2 2.6-5.6.1.2-2.7.2-2.7.2z"/></g></g></svg>