<svg id="Layer_1" xmlns="http://www.w3.org/2000/svg" viewBox="0 0 288 126"><style>.st0{fill:#fff}</style><path class="st0" d="M0 68.1V9.6h9.7L40 52.1c.7.9 1.3 1.8 1.8 2.6s.9 1.6 1.2 2.3V9.6h8.4v58.5h-9.6L10.8 25c-.5-.7-.9-1.3-1.3-2.1-.4-.7-.8-1.5-1.1-2.3V68H0zM174 68.1l24-58.5h9.7L232 68.1h-9.6l-4.5-11.5h-30.3l-4.5 11.5H174zm16.6-19.2h24.3l-12-31-12.3 31zM279.5 46.4h8.5c-.4 7.1-3.1 12.8-8.1 17-5 4.2-11.5 6.3-19.4 6.3-9.1 0-16.3-2.8-21.5-8.4-5.2-5.6-7.8-13.4-7.8-23.3 0-9.2 2.7-16.4 8.1-21.8 5.4-5.4 12.7-8.1 22-8.1 7.3 0 13.3 1.7 18 5.1 4.7 3.4 7.4 8.1 8.1 14h-8.6c-.8-3.9-2.8-6.8-5.9-8.9-3.1-2.1-7.1-3.1-12-3.1-6.6 0-11.7 2.1-15.3 6.2-3.6 4.2-5.4 10-5.4 17.6 0 7.2 1.9 12.9 5.7 17.2 3.8 4.3 8.8 6.5 15 6.5 5.3 0 9.7-1.5 13-4.5 3.5-3 5.3-6.9 5.6-11.8zM170.5 19.4c-1.4-2.4-3.2-4.5-5.6-6.2-4.7-3.4-10.7-5.1-18-5.1-5.8 0-11.5 1.3-15.9 2.9-13.7 5-24.5 9.8-33.8 15.5l-7-16.8h-9.7L56.4 68.1h9.1c2.7-5.4 14.4-25.5 44.5-40.6-8.5 9.2-15.7 22.4-14.8 40.7h7.1c-2.1-36.8 34.4-51 34.4-51 3.2-1.4 6.8-2 9.9-1.9 4.9.1 8.9 1.1 12 3.1 3.1 2.1 5 5 5.9 8.9h8.6c-.4-3-1.2-5.6-2.6-7.9zm-95.1 24L85.3 18l5 12.9c-5.9 4.2-10.9 8.4-14.9 12.5z"/><g><path class="st0" d="M164.9 46.4c-.2 4.9-2 8.8-5.4 11.8-3.4 3-7.7 4.5-13 4.5-6.2 0-11.2-2.2-15-6.5-3.8-4.3-5.7-10-5.7-17.2 0-2.2.2-4.3.5-6.2-4.8 3.3-8 8.8-8.6 14.2 1.1 5.7 3.4 10.5 6.9 14.3 5.2 5.6 12.3 8.4 21.5 8.4 7.9 0 14.4-2.1 19.4-6.3 5-4.2 7.7-9.9 8.1-17h-8.7z"/></g><g><path class="st0" d="M48.5 98.8V87.3H50l8 10.2V87.3h1.1v11.4h-1.5l-7.9-10.2v10.2h-1.2zM70.2 97.7v1c-.2.1-.3.1-.5.1h-.4c-.4 0-.6-.1-.8-.3-.2-.2-.3-.5-.3-1-.5.5-1 .9-1.5 1.1-.7.3-1.4.4-2.2.4-1 0-1.8-.2-2.3-.7-.6-.4-.8-1.1-.8-1.9 0-.4.1-.7.2-1 .1-.3.4-.6.7-.8.2-.2.5-.3.9-.4.4-.1 1.1-.2 2-.4.2 0 .5-.1.9-.1 1.4-.2 2-.6 2-1.2 0-.5-.2-.8-.6-1-.4-.2-1-.4-1.7-.4-1 0-1.7.2-2.2.5-.5.3-.8.8-.8 1.5h-1.1c.1-1 .4-1.7 1.1-2.2.7-.5 1.6-.7 2.9-.7.8 0 1.4.1 1.9.2s.9.4 1.2.8c.2.2.3.5.4.7.1.3.1.7.1 1.3V97c0 .4 0 .6.1.7.1.1.2.1.4.1h.2s.1-.1.2-.1zm-2.1-3.5c-.2.1-.5.2-.9.3-.4.1-1.1.2-2 .4-1.2.2-2 .4-2.3.6-.3.2-.5.5-.5 1s.2.8.6 1.1c.4.3.9.4 1.6.4 1 0 1.9-.2 2.5-.7.6-.5 1-1.1 1-1.9V94.2zM73.4 96.5c0 .6.1 1 .2 1.1.1.1.4.2.8.2h.4c.1 0 .3 0 .5-.1v.9c-.3.1-.5.1-.7.1H74c-.6 0-1-.2-1.3-.5-.2-.3-.4-.9-.4-1.7v-5.4h-1.4v-.9h1.4v-2.5h1.1v2.5h1.9v.9h-1.9v5.4zM76.7 88.6v-1.3h1.1v1.3h-1.1zm0 10.2v-8.4h1.1v8.4h-1.1zM79.6 94.6c0-1.3.4-2.4 1.2-3.2.8-.8 1.9-1.2 3.2-1.2 1.3 0 2.4.4 3.2 1.2.8.8 1.2 1.9 1.2 3.2 0 1.3-.4 2.4-1.2 3.3-.8.8-1.9 1.2-3.2 1.2-1.3 0-2.4-.4-3.2-1.2-.8-.9-1.2-2-1.2-3.3zm1.1 0c0 1 .3 1.9.9 2.5.6.6 1.4.9 2.4.9s1.8-.3 2.4-.9c.6-.6.9-1.4.9-2.5 0-1-.3-1.9-.9-2.5-.6-.6-1.4-.9-2.4-.9s-1.8.3-2.4.9c-.6.6-.9 1.4-.9 2.5zM90.4 98.8v-8.4h1.1v1.5c.4-.6.9-1 1.5-1.3.6-.3 1.3-.4 2-.4 1.1 0 1.9.3 2.4.8s.8 1.3.8 2.4v5.4h-1.1v-4.7c0-1.1-.2-1.8-.5-2.2-.3-.4-1-.6-1.8-.6-1 0-1.7.3-2.4.8-.6.5-.9 1.2-.9 2v4.8h-1.1zM109 97.7v1c-.2.1-.3.1-.5.1h-.4c-.4 0-.6-.1-.8-.3-.2-.2-.3-.5-.3-1-.5.5-1 .9-1.5 1.1-.6.2-1.3.4-2.1.4-1 0-1.8-.2-2.3-.7s-.8-1.1-.8-1.9c0-.4.1-.7.2-1 .1-.3.4-.6.7-.8.2-.2.5-.3.9-.4.4-.1 1.1-.2 2-.4.2 0 .5-.1.9-.1 1.4-.2 2-.6 2-1.2 0-.5-.2-.8-.6-1-.4-.2-1-.4-1.7-.4-1 0-1.7.2-2.2.5-.5.3-.8.8-.8 1.5h-1.1c.1-1 .4-1.7 1.1-2.2.7-.5 1.6-.7 2.9-.7.8 0 1.4.1 1.9.2s.9.4 1.2.8c.2.2.3.5.4.7.1.3.1.7.1 1.3V97c0 .4 0 .6.1.7.1.1.2.1.4.1h.2s0-.1.1-.1zm-2-3.5c-.2.1-.5.2-.9.3-.4.1-1.1.2-2 .4-1.2.2-2 .4-2.3.6-.3.2-.5.5-.5 1s.2.8.6 1.1c.4.3.9.4 1.6.4 1 0 1.9-.2 2.5-.7.6-.5 1-1.1 1-1.9V94.2zM110.8 98.8V87.3h1.1v11.4h-1.1zM118.4 98.8l5.3-11.4h1.3l5.2 11.4H129l-1.6-3.5h-6.2l-1.6 3.5h-1.2zm3.3-4.7h5.2l-2.6-5.8-2.6 5.8zM130.8 96.1h1.1c.1.6.4 1.1.8 1.4s1.2.5 2.1.5c.9 0 1.7-.1 2.2-.4s.7-.6.7-1.2c0-.4-.1-.6-.4-.8-.2-.2-.6-.3-1.2-.4l-2.4-.4c-1-.1-1.6-.4-2.1-.7-.4-.4-.6-.9-.6-1.5 0-.8.3-1.4 1-1.8.7-.4 1.6-.7 2.7-.7 1.2 0 2.1.2 2.8.7.7.5 1 1.1 1 2h-1.1c-.1-.6-.4-1-.8-1.3-.5-.3-1.1-.4-2-.4-.8 0-1.4.1-1.8.4-.4.2-.6.6-.6 1s.1.6.4.8c.3.2.8.3 1.5.5l2.2.3c.9.1 1.6.4 2 .7.4.4.6.9.6 1.5 0 .9-.4 1.6-1.1 2-.7.5-1.7.7-3.1.7-1.2 0-2.1-.3-2.8-.8-.7-.4-1.1-1.1-1.1-2.1zM139.7 96.1h1.1c.1.6.4 1.1.8 1.4.5.3 1.2.5 2.1.5.9 0 1.7-.1 2.1-.4.5-.3.7-.6.7-1.2 0-.4-.1-.6-.4-.8-.2-.2-.6-.3-1.2-.4l-2.4-.4c-1-.1-1.6-.4-2.1-.7-.4-.4-.6-.9-.6-1.5 0-.8.3-1.4 1-1.8.7-.4 1.6-.7 2.7-.7 1.2 0 2.1.2 2.8.7.7.5 1 1.1 1 2h-1.1c-.1-.6-.4-1-.8-1.3-.5-.3-1.1-.4-2-.4-.8 0-1.4.1-1.8.4-.4.2-.6.6-.6 1s.1.6.4.8c.3.2.8.3 1.5.5l2.2.3c.9.1 1.6.4 2 .7.4.4.6.9.6 1.5 0 .9-.4 1.6-1.1 2-.7.5-1.7.7-3.1.7-1.2 0-2.1-.3-2.8-.8-.5-.4-.9-1.1-1-2.1zM148.9 94.6c0-1.3.4-2.4 1.2-3.2.8-.8 1.9-1.2 3.2-1.2 1.3 0 2.4.4 3.2 1.2.8.8 1.2 1.9 1.2 3.2 0 1.3-.4 2.4-1.2 3.3-.8.8-1.9 1.2-3.2 1.2-1.3 0-2.4-.4-3.2-1.2-.8-.9-1.2-2-1.2-3.3zm1.1 0c0 1 .3 1.9.9 2.5.6.6 1.4.9 2.4.9s1.8-.3 2.4-.9c.6-.6.9-1.4.9-2.5 0-1-.3-1.9-.9-2.5-.6-.6-1.4-.9-2.4-.9s-1.8.3-2.4.9c-.6.6-.9 1.4-.9 2.5zM166.6 95.7h1.1c-.1 1-.6 1.8-1.3 2.4-.8.6-1.7.9-2.8.9-1.3 0-2.4-.4-3.2-1.2-.8-.8-1.2-1.9-1.2-3.3 0-1.3.4-2.4 1.2-3.2.8-.8 1.9-1.2 3.2-1.2 1.1 0 2 .3 2.7.8.7.6 1.2 1.3 1.3 2.2h-1.1c-.2-.7-.6-1.2-1.1-1.5-.5-.3-1.1-.5-1.9-.5-1 0-1.8.3-2.4.9-.6.6-.9 1.5-.9 2.5s.3 1.9.9 2.5c.6.6 1.4.9 2.4.9.8 0 1.4-.2 2-.6.6-.3.9-.9 1.1-1.6zM169.4 88.6v-1.3h1.1v1.3h-1.1zm0 10.2v-8.4h1.1v8.4h-1.1zM181.4 97.7v1c-.2.1-.3.1-.5.1h-.4c-.4 0-.6-.1-.8-.3-.2-.2-.3-.5-.3-1-.5.5-1 .9-1.5 1.1-.6.2-1.3.4-2.1.4-1 0-1.8-.2-2.3-.7-.6-.4-.8-1.1-.8-1.9 0-.4.1-.7.2-1 .1-.3.4-.6.7-.8.2-.2.5-.3.9-.4.4-.1 1.1-.2 2-.4.2 0 .5-.1.9-.1 1.4-.2 2-.6 2-1.2 0-.5-.2-.8-.6-1-.4-.2-1-.4-1.7-.4-1 0-1.7.2-2.2.5-.5.3-.8.8-.8 1.5H173c.1-1 .4-1.7 1.1-2.2.7-.5 1.6-.7 2.9-.7.8 0 1.4.1 1.9.2.5.2.9.4 1.2.8.2.2.3.5.4.7.1.3.1.7.1 1.3V97c0 .4 0 .6.1.7.1.1.2.1.4.1h.2s0-.1.1-.1zm-2-3.5c-.2.1-.5.2-.9.3-.4.1-1.1.2-2 .4-1.2.2-2 .4-2.3.6-.3.2-.5.5-.5 1s.2.8.6 1.1.9.4 1.6.4c1 0 1.9-.2 2.5-.7.6-.5 1-1.1 1-1.9V94.2zM184.7 96.5c0 .6.1 1 .2 1.1.1.1.4.2.8.2h.4c.1 0 .3 0 .5-.1v.9c-.3.1-.5.1-.7.1h-.6c-.6 0-1-.2-1.3-.5-.2-.3-.4-.9-.4-1.7v-5.4h-1.4v-.9h1.4v-2.5h1.1v2.5h1.9v.9h-1.9v5.4zM187.9 88.6v-1.3h1.1v1.3h-1.1zm0 10.2v-8.4h1.1v8.4h-1.1zM190.9 94.6c0-1.3.4-2.4 1.2-3.2.8-.8 1.9-1.2 3.2-1.2 1.3 0 2.4.4 3.2 1.2.8.8 1.2 1.9 1.2 3.2 0 1.3-.4 2.4-1.2 3.3-.8.8-1.9 1.2-3.2 1.2-1.3 0-2.4-.4-3.2-1.2-.8-.9-1.2-2-1.2-3.3zm1.1 0c0 1 .3 1.9.9 2.5.6.6 1.4.9 2.4.9s1.8-.3 2.4-.9c.6-.6.9-1.4.9-2.5 0-1-.3-1.9-.9-2.5-.6-.6-1.4-.9-2.4-.9s-1.8.3-2.4.9c-.6.6-.9 1.4-.9 2.5zM201.6 98.8v-8.4h1.1v1.5c.4-.6.9-1 1.5-1.3.6-.3 1.3-.4 2-.4 1.1 0 1.9.3 2.4.8s.8 1.3.8 2.4v5.4h-1.1v-4.7c0-1.1-.2-1.8-.5-2.2-.4-.4-.9-.6-1.8-.6-1 0-1.7.3-2.4.8-.6.5-.9 1.2-.9 2v4.8h-1.1zM217.3 98.8v-7.5h-1.4v-.9h1.4v-.7c0-1 .1-1.6.4-1.9.3-.3.7-.5 1.4-.5.2 0 .4 0 .6.1.2 0 .4.1.7.1v1c-.2-.1-.4-.1-.5-.1h-.4c-.4 0-.6.1-.8.2-.1.1-.2.5-.2 1v.8h1.9v.9h-1.9v7.5h-1.2zM221.1 94.6c0-1.3.4-2.4 1.2-3.2.8-.8 1.9-1.2 3.2-1.2 1.3 0 2.4.4 3.2 1.2.8.8 1.2 1.9 1.2 3.2 0 1.3-.4 2.4-1.2 3.3-.8.8-1.9 1.2-3.2 1.2-1.3 0-2.4-.4-3.2-1.2-.8-.9-1.2-2-1.2-3.3zm1.1 0c0 1 .3 1.9.9 2.5.6.6 1.4.9 2.4.9s1.8-.3 2.4-.9c.6-.6.9-1.4.9-2.5 0-1-.3-1.9-.9-2.5-.6-.6-1.4-.9-2.4-.9s-1.8.3-2.4.9c-.6.6-.9 1.4-.9 2.5zM233 98.8h-1.1v-8.4h1.1v1.4c.2-.5.6-.9 1-1.2.4-.3.9-.4 1.5-.4.2 0 .4 0 .5.1.2 0 .4.1.6.2v1.1c-.2-.1-.4-.1-.5-.1h-.5c-.7 0-1.2.2-1.6.5-.4.4-.8.9-1 1.6v5.2zM29.5 109.7c-.2-.9-.7-1.7-1.4-2.2-.7-.5-1.6-.8-2.7-.8-1.5 0-2.7.4-3.5 1.3-.9.9-1.3 2.1-1.3 3.6s.4 2.7 1.3 3.6c.8.9 2 1.3 3.4 1.3 1.2 0 2.1-.3 2.9-.9.8-.6 1.3-1.5 1.6-2.5H31c-.3 1.4-.9 2.5-1.9 3.4s-2.3 1.2-3.8 1.2c-1.8 0-3.2-.5-4.2-1.6-1.1-1.1-1.6-2.5-1.6-4.4 0-1.9.5-3.3 1.6-4.4 1.1-1.1 2.5-1.6 4.4-1.6 1.5 0 2.7.4 3.6 1.1.9.7 1.5 1.7 1.7 3h-1.3zM32.1 113.2c0-1.3.4-2.4 1.2-3.2.8-.8 1.9-1.2 3.2-1.2 1.3 0 2.4.4 3.2 1.2.8.8 1.2 1.9 1.2 3.2 0 1.3-.4 2.4-1.2 3.3-.8.8-1.9 1.2-3.2 1.2-1.3 0-2.4-.4-3.2-1.2-.8-.9-1.2-2-1.2-3.3zm1.1 0c0 1 .3 1.9.9 2.5.6.6 1.4.9 2.4.9s1.8-.3 2.4-.9c.6-.6.9-1.4.9-2.5 0-1-.3-1.9-.9-2.5-.6-.6-1.4-.9-2.4-.9s-1.8.3-2.4.9c-.6.6-.9 1.4-.9 2.5zM42.9 117.4V106H44v11.4h-1.1zM46.4 117.4V106h1.1v11.4h-1.1zM58 114.7c-.2.9-.7 1.6-1.4 2.2-.7.5-1.6.8-2.7.8-1.3 0-2.4-.4-3.2-1.2-.8-.8-1.2-1.9-1.2-3.3 0-1.3.4-2.4 1.2-3.2.8-.8 1.9-1.2 3.2-1.2 1.3 0 2.4.4 3.2 1.2s1.2 1.9 1.2 3.3v.3h-7.7c.1 1 .4 1.8 1 2.4s1.4.8 2.3.8c.7 0 1.3-.2 1.8-.5s.9-.8 1.1-1.4H58zm-7.4-2.2h6.5c-.1-.8-.4-1.5-1-2s-1.3-.8-2.2-.8c-.9 0-1.7.3-2.3.8-.6.5-.9 1.2-1 2zM68.5 116.7c0 .7-.1 1.3-.2 1.7-.1.4-.4.7-.8 1-.4.3-.9.6-1.4.7-.6.2-1.2.2-2 .2-1.1 0-2-.2-2.7-.7-.7-.4-1.1-1-1.1-1.8h1.1c.1.5.3.9.8 1.1.4.2 1.1.4 1.9.4 1.2 0 2-.2 2.6-.6.5-.4.8-1 .8-2v-.9c-.5.6-.9 1-1.5 1.3-.5.3-1.2.4-1.9.4-1.3 0-2.4-.4-3.2-1.2-.8-.8-1.2-1.9-1.2-3.2s.4-2.4 1.2-3.2c.8-.8 1.9-1.2 3.2-1.2.7 0 1.3.1 1.9.4.5.3 1 .7 1.5 1.3V109h1.1v7.7zm-1.1-3.5c0-1-.3-1.8-.9-2.4-.6-.6-1.4-.9-2.4-.9s-1.8.3-2.4.9c-.6.6-.9 1.4-.9 2.4s.3 1.8.9 2.4c.6.6 1.4.9 2.4.9s1.8-.3 2.4-.9.9-1.4.9-2.4zM78.9 114.7c-.2.9-.7 1.6-1.4 2.2-.7.5-1.6.8-2.7.8-1.3 0-2.4-.4-3.2-1.2-.8-.8-1.2-1.9-1.2-3.3 0-1.3.4-2.4 1.2-3.2.8-.8 1.9-1.2 3.2-1.2 1.3 0 2.4.4 3.2 1.2s1.2 1.9 1.2 3.3v.3h-7.7c.1 1 .4 1.8 1 2.4.6.6 1.4.8 2.3.8.7 0 1.3-.2 1.8-.5s.9-.8 1.1-1.4h1.2zm-7.4-2.2H78c-.1-.8-.4-1.5-1-2s-1.3-.8-2.2-.8c-.9 0-1.7.3-2.3.8-.6.5-.9 1.2-1 2zM85.1 117.4l5.3-11.4h1.3l5.2 11.4h-1.2l-1.6-3.5h-6.2l-1.6 3.5h-1.2zm3.3-4.7h5.2l-2.6-5.8-2.6 5.8zM106.5 106v11.4h-1.1v-1.5c-.4.6-.9 1-1.4 1.3-.5.3-1.2.4-1.9.4-1.3 0-2.4-.4-3.2-1.2-.8-.8-1.2-1.9-1.2-3.2s.4-2.4 1.2-3.2c.8-.8 1.9-1.2 3.2-1.2.7 0 1.3.1 1.9.4.5.3 1 .7 1.5 1.2V106h1zm-1.1 7.2c0-1-.3-1.8-.9-2.5-.6-.6-1.4-.9-2.4-.9s-1.8.3-2.4.9c-.6.6-.9 1.4-.9 2.4s.3 1.8.9 2.4c.6.6 1.4.9 2.4.9s1.8-.3 2.4-.9c.6-.5.9-1.3.9-2.3zM108.9 117.4V109h1.1v1.5c.4-.6.9-1 1.5-1.3s1.3-.4 2-.4c.8 0 1.5.1 2 .4.5.3.9.7 1.1 1.3.4-.6.9-1 1.5-1.3.6-.3 1.3-.4 2-.4 1.1 0 1.9.3 2.4.8s.8 1.3.8 2.4v5.4h-1.1v-4.7c0-1.1-.2-1.8-.5-2.2-.3-.4-.9-.6-1.8-.6-1 0-1.7.3-2.4.8-.6.5-.9 1.2-.9 2v4.8h-1v-4.7c0-1.1-.2-1.8-.5-2.2-.3-.4-1-.6-1.8-.6-1 0-1.7.3-2.4.8-.6.5-.9 1.2-.9 2v4.8h-1.1zM125.6 107.3V106h1.1v1.3h-1.1zm0 10.1V109h1.1v8.4h-1.1zM128.4 114.7h1.1c.1.6.4 1.1.8 1.4.5.3 1.2.5 2.1.5.9 0 1.7-.1 2.2-.4.5-.3.7-.6.7-1.2 0-.4-.1-.6-.4-.8s-.6-.3-1.2-.4l-2.4-.4c-1-.1-1.6-.4-2.1-.7-.4-.4-.6-.9-.6-1.5 0-.8.3-1.4 1-1.8.7-.4 1.6-.7 2.7-.7 1.2 0 2.1.2 2.8.7.7.5 1 1.1 1 2H135c-.1-.6-.4-1-.8-1.3-.5-.3-1.1-.4-2-.4-.8 0-1.4.1-1.8.4-.4.2-.6.6-.6 1s.1.6.4.8.8.3 1.5.5l2.2.3c.9.1 1.6.4 2 .7.4.4.6.9.6 1.5 0 .9-.4 1.6-1.1 2-.7.5-1.7.7-3.1.7-1.2 0-2.1-.3-2.8-.8-.7-.4-1-1.1-1.1-2.1zM137.4 114.7h1.1c.1.6.4 1.1.8 1.4s1.2.5 2.1.5c.9 0 1.7-.1 2.2-.4.5-.3.7-.6.7-1.2 0-.4-.1-.6-.4-.8-.2-.2-.6-.3-1.2-.4l-2.4-.4c-1-.1-1.6-.4-2.1-.7-.4-.4-.6-.9-.6-1.5 0-.8.3-1.4 1-1.8.7-.4 1.6-.7 2.7-.7 1.2 0 2.1.2 2.8.7.7.5 1 1.1 1 2H144c-.1-.6-.4-1-.8-1.3-.5-.3-1.1-.4-2-.4-.8 0-1.4.1-1.8.4-.4.2-.6.6-.6 1s.1.6.4.8.8.3 1.5.5l2.2.3c.9.1 1.6.4 2 .7.4.4.6.9.6 1.5 0 .9-.4 1.6-1.1 2-.7.5-1.7.7-3.1.7-1.2 0-2.1-.3-2.8-.8-.7-.4-1.1-1.1-1.1-2.1zM147.1 107.3V106h1.1v1.3h-1.1zm0 10.1V109h1.1v8.4h-1.1zM150.1 113.2c0-1.3.4-2.4 1.2-3.2.8-.8 1.9-1.2 3.2-1.2 1.3 0 2.4.4 3.2 1.2.8.8 1.2 1.9 1.2 3.2 0 1.3-.4 2.4-1.2 3.3-.8.8-1.9 1.2-3.2 1.2-1.3 0-2.4-.4-3.2-1.2-.8-.9-1.2-2-1.2-3.3zm1.1 0c0 1 .3 1.9.9 2.5.6.6 1.4.9 2.4.9s1.8-.3 2.4-.9c.6-.6.9-1.4.9-2.5 0-1-.3-1.9-.9-2.5-.6-.6-1.4-.9-2.4-.9s-1.8.3-2.4.9c-.6.6-.9 1.4-.9 2.5zM160.8 117.4V109h1.1v1.5c.4-.6.9-1 1.5-1.3s1.3-.4 2-.4c1.1 0 1.9.3 2.4.8s.8 1.3.8 2.4v5.4h-1.1v-4.7c0-1.1-.2-1.8-.5-2.2-.4-.4-.9-.6-1.8-.6-1 0-1.7.3-2.4.8-.6.5-.9 1.2-.9 2v4.8h-1.1zM185.8 109.7c-.2-.9-.7-1.7-1.4-2.2-.7-.5-1.6-.8-2.7-.8-1.5 0-2.7.4-3.5 1.3-.9.9-1.3 2.1-1.3 3.6s.4 2.7 1.3 3.6c.8.9 2 1.3 3.4 1.3 1.2 0 2.1-.3 2.9-.9.8-.6 1.3-1.5 1.6-2.5h1.2c-.3 1.4-.9 2.5-1.9 3.4-1 .8-2.3 1.2-3.8 1.2-1.8 0-3.2-.5-4.2-1.6-1.1-1.1-1.6-2.5-1.6-4.4 0-1.9.5-3.3 1.6-4.4 1.1-1.1 2.5-1.6 4.4-1.6 1.5 0 2.7.4 3.6 1.1.9.7 1.5 1.7 1.7 3h-1.3zM188.3 113.2c0-1.3.4-2.4 1.2-3.2.8-.8 1.9-1.2 3.2-1.2 1.3 0 2.4.4 3.2 1.2.8.8 1.2 1.9 1.2 3.2 0 1.3-.4 2.4-1.2 3.3-.8.8-1.9 1.2-3.2 1.2-1.3 0-2.4-.4-3.2-1.2-.7-.9-1.2-2-1.2-3.3zm1.2 0c0 1 .3 1.9.9 2.5.6.6 1.4.9 2.4.9s1.8-.3 2.4-.9c.6-.6.9-1.4.9-2.5 0-1-.3-1.9-.9-2.5-.6-.6-1.4-.9-2.4-.9s-1.8.3-2.4.9c-.6.6-.9 1.4-.9 2.5zM206.9 109v8.4h-1.1v-1.6c-.4.6-.9 1-1.5 1.3s-1.3.4-2 .4c-1.1 0-1.9-.3-2.4-.8s-.8-1.3-.8-2.4V109h1.1v4.7c0 1.1.2 1.8.5 2.2.4.4 1 .6 1.8.6 1 0 1.7-.3 2.4-.8.6-.5.9-1.2.9-2V109h1.1zM209.2 117.4V109h1.1v1.5c.4-.6.9-1 1.5-1.3.6-.3 1.3-.4 2-.4 1.1 0 1.9.3 2.4.8s.8 1.3.8 2.4v5.4h-1.1v-4.7c0-1.1-.2-1.8-.5-2.2-.4-.4-.9-.6-1.8-.6-1 0-1.7.3-2.4.8-.6.5-.9 1.2-.9 2v4.8h-1.1zM218.6 114.7h1.1c.1.6.4 1.1.8 1.4.5.3 1.2.5 2.1.5.9 0 1.7-.1 2.2-.4.5-.3.7-.6.7-1.2 0-.4-.1-.6-.4-.8-.2-.2-.6-.3-1.2-.4l-2.4-.4c-1-.1-1.6-.4-2.1-.7-.4-.4-.6-.9-.6-1.5 0-.8.3-1.4 1-1.8.7-.4 1.6-.7 2.7-.7 1.2 0 2.1.2 2.8.7.7.5 1 1.1 1 2h-1.1c-.1-.6-.4-1-.8-1.3-.5-.3-1.1-.4-2-.4-.8 0-1.4.1-1.8.4-.4.2-.6.6-.6 1s.1.6.4.8.8.3 1.5.5l2.2.3c.9.1 1.6.4 2 .7.4.4.6.9.6 1.5 0 .9-.4 1.6-1.1 2s-1.7.7-3.1.7c-1.2 0-2.1-.3-2.8-.8-.7-.4-1.1-1.1-1.1-2.1zM236.3 114.7c-.2.9-.7 1.6-1.4 2.2-.7.5-1.6.8-2.7.8-1.3 0-2.4-.4-3.2-1.2-.8-.8-1.2-1.9-1.2-3.3 0-1.3.4-2.4 1.2-3.2.8-.8 1.9-1.2 3.2-1.2 1.3 0 2.4.4 3.2 1.2s1.2 1.9 1.2 3.3v.3h-7.7c.1 1 .4 1.8.9 2.4.6.6 1.4.8 2.3.8.7 0 1.3-.2 1.8-.5s.9-.8 1.1-1.4h1.3zm-7.4-2.2h6.5c-.1-.8-.4-1.5-1-2s-1.3-.8-2.2-.8c-.9 0-1.7.3-2.3.8-.6.5-.9 1.2-1 2zM238.5 117.4V106h1.1v11.4h-1.1zM242.1 107.3V106h1.1v1.3h-1.1zm0 10.1V109h1.1v8.4h-1.1zM245.5 117.4V109h1.1v1.5c.4-.6.9-1 1.5-1.3.6-.3 1.3-.4 2-.4 1.1 0 1.9.3 2.4.8s.8 1.3.8 2.4v5.4h-1.1v-4.7c0-1.1-.2-1.8-.5-2.2-.4-.4-.9-.6-1.8-.6-1 0-1.7.3-2.4.8-.6.5-.9 1.2-.9 2v4.8h-1.1zM264 116.7c0 .7-.1 1.3-.2 1.7-.1.4-.4.7-.8 1-.4.3-.9.6-1.4.7-.6.2-1.2.2-1.9.2-1.1 0-2-.2-2.7-.7-.7-.4-1.1-1-1.1-1.8h1.1c.1.5.3.9.8 1.1.4.2 1.1.4 1.9.4 1.2 0 2-.2 2.6-.6.5-.4.8-1 .8-2v-.9c-.5.6-.9 1-1.5 1.3-.5.3-1.2.4-1.9.4-1.3 0-2.4-.4-3.2-1.2-.8-.8-1.2-1.9-1.2-3.2s.4-2.4 1.2-3.2c.8-.8 1.9-1.2 3.2-1.2.7 0 1.3.1 1.9.4.5.3 1 .7 1.5 1.3V109h1.1v7.7zm-1.1-3.5c0-1-.3-1.8-.9-2.4-.6-.6-1.4-.9-2.4-.9s-1.8.3-2.4.9c-.6.6-.9 1.4-.9 2.4s.3 1.8.9 2.4c.6.6 1.4.9 2.4.9s1.8-.3 2.4-.9c.6-.6.9-1.4.9-2.4z"/></g></svg>