<svg id="Layer_1" xmlns="http://www.w3.org/2000/svg" viewBox="0 0 612 792"><style>.st0{fill:#0081c6}</style><path class="st0" d="M208 412.8v-42.9h7.1l22.2 31.1c.5.7.9 1.3 1.3 1.9.4.6.7 1.2.9 1.7v-34.7h6.2v42.9h-7L216 381.2c-.3-.5-.7-1-.9-1.5-.3-.5-.6-1.1-.8-1.7v34.7H208zM335.4 412.8l17.6-42.9h7.1l17.7 42.9h-7l-3.3-8.4h-22.2l-3.3 8.4h-6.6zm12.2-14.1h17.8l-8.8-22.7-9 22.7zM412.7 396.9h6.3c-.3 5.2-2.3 9.4-5.9 12.5-3.7 3.1-8.4 4.6-14.2 4.6-6.7 0-11.9-2.1-15.7-6.2-3.8-4.1-5.7-9.8-5.7-17.1 0-6.7 2-12 6-16 4-3.9 9.3-5.9 16.1-5.9 5.4 0 9.8 1.2 13.2 3.7 3.4 2.5 5.4 5.9 5.9 10.2h-6.3c-.6-2.8-2-5-4.3-6.5s-5.2-2.3-8.8-2.3c-4.8 0-8.6 1.5-11.2 4.6-2.7 3-4 7.3-4 12.9 0 5.2 1.4 9.4 4.1 12.6 2.8 3.2 6.4 4.7 11 4.7 3.9 0 7.1-1.1 9.6-3.3 2.4-2.1 3.7-5 3.9-8.5zM256 412.8c0-.1 0 0 0 0zM263.2 394.6l7.3-18.6 3.7 9.5c1.6-1.1 3.2-2.2 5-3.3l-5.1-12.3H267l-17.6 42.9h3.9l-2.4-1c.1-.6 3.3-8.2 12.3-17.2z"/><path class="st0" d="M274.8 387.2c1.5-1 3.5-2.3 5-3.3l-.7-1.7c-1.8 1.1-3.4 2.2-5 3.3l.7 1.7zM261.6 398.7l1.6-4.1c-9 8.9-12.2 16.6-12.4 17.2l2.4 1h2.8l3.3-8.4 2.3-5.7zM312.6 374.2c-1.1.2-2.2.4-3.2.8 1.1-.4 2.2-.6 3.2-.8z"/><path class="st0" d="M332.9 377.1c-1-1.8-2.4-3.3-4.1-4.6-3.4-2.5-7.8-3.7-13.2-3.7-6.8 0-12.1 2-16.1 5.9-2.6 2.6-4.3 5.7-5.2 9.5 4.3-4.4 9.5-7.6 15.2-9.3 1-.4 2-.6 3.2-.8.9-.1 1.7-.2 2.7-.2 3.6 0 6.5.8 8.8 2.3 2.3 1.5 3.7 3.7 4.3 6.5h6.3c-.3-2-.9-3.9-1.9-5.6z"/><g><path class="st0" d="M308.1 375.5l-1.6-4.9c-11.1 3.1-20.1 7.3-27.4 11.7l.7 1.7c-1.6 1-3.5 2.2-5 3.3l-.7-1.7c-4.4 3.1-8 6.2-11 9.1l-1.6 4.1-2.3 5.6-3.3 8.4c2-3.9 10.5-18.7 32.6-29.7-6.2 6.7-11.5 16.4-10.8 29.8h5.2c-1.5-27.1 24.1-37 25.2-37.4z"/></g><g><path class="st0" d="M328.8 396.9c-.2 3.6-1.5 6.5-4 8.7-2.5 2.2-5.7 3.3-9.6 3.3-4.6 0-8.2-1.6-11-4.7-2.8-3.2-4.2-7.4-4.2-12.6 0-1.6.1-3.1.4-4.6-.7.5-1.3 1-1.9 1.4-2 2-4 5-4.4 9 .8 4.2 2.5 7.7 5 10.5 3.8 4.1 9 6.2 15.7 6.2 5.8 0 10.5-1.5 14.2-4.6 3.7-3.1 5.6-7.2 5.9-12.5h-6.1z"/></g></svg>