<svg data-name="Layer 1" xmlns="http://www.w3.org/2000/svg" viewBox="0 0 284.5 106.5789"><title>NACAC_conf_logo</title><path d="M1.737 103.6l.87-.99a3.69 3.69 0 0 0 2.48.99c.87 0 1.365-.37 1.365-.99 0-.497-.248-.87-1.737-1.242-1.613-.372-2.606-.868-2.606-2.357a2.33 2.33 0 0 1 2.605-2.233 4.684 4.684 0 0 1 2.853.993l-.744.993a3.64 3.64 0 0 0-2.11-.745 1.057 1.057 0 0 0-1.24.87c0 .62.372.867 1.86 1.24 1.614.372 2.483.992 2.483 2.233 0 1.49-1.117 2.358-2.73 2.358a3.986 3.986 0 0 1-3.35-1.117zM8.81 101.864a2.947 2.947 0 0 1 2.853-3.102 2.867 2.867 0 0 1 2.854 3.102v.372h-4.343a1.64 1.64 0 0 0 1.737 1.49 2.184 2.184 0 0 0 1.614-.745l.744.745a3.07 3.07 0 0 1-2.357 1.117 2.9 2.9 0 0 1-3.1-2.978zm4.342-.496a1.49 1.49 0 0 0-2.978 0h2.978zM15.757 98.886h1.365v.993a2.195 2.195 0 0 1 1.985-1.118 2.816 2.816 0 0 1 2.73 2.978 2.74 2.74 0 0 1-2.73 2.978 2.386 2.386 0 0 1-1.985-.993v2.73h-1.365v-7.568zm4.715 2.978a1.71 1.71 0 0 0-1.613-1.86 1.804 1.804 0 0 0-1.738 1.86 1.73 1.73 0 0 0 1.737 1.86 1.71 1.71 0 0 0 1.612-1.86zM23.45 103.105v-3.102h-.745v-1.117h.745v-1.612h1.365v1.612h1.613v1.117h-1.613v2.854a.658.658 0 0 0 .744.744 2.3 2.3 0 0 0 .868-.247v1.117a2.04 2.04 0 0 1-1.24.248 1.387 1.387 0 0 1-1.738-1.613zM27.668 103.23h1.49v1.488h-1.49v-1.49zM33.748 103.725l2.605-2.233c1.117-.87 1.49-1.365 1.49-2.11a1.172 1.172 0 0 0-1.24-1.24 2.004 2.004 0 0 0-1.738 1.116l-.993-.744a3.282 3.282 0 0 1 2.854-1.613 2.35 2.35 0 0 1 2.605 2.358c0 1.24-.62 1.86-1.984 2.978l-1.613 1.365h3.722v1.242h-5.583l-.124-1.117zM40.572 103.725l2.606-2.233c1.116-.87 1.488-1.365 1.488-2.11a1.172 1.172 0 0 0-1.24-1.24 2.004 2.004 0 0 0-1.737 1.116l-.994-.744a3.282 3.282 0 0 1 2.854-1.612 2.35 2.35 0 0 1 2.606 2.357c0 1.24-.62 1.86-1.986 2.977l-1.613 1.365h3.722v1.24h-5.584v-1.117h-.124zM47.396 100.747h4.59v1.24h-4.59v-1.24zM53.103 103.725l2.606-2.233c1.116-.87 1.488-1.365 1.488-2.11a1.172 1.172 0 0 0-1.24-1.24 2.004 2.004 0 0 0-1.738 1.116l-.993-.744A3.282 3.282 0 0 1 56.08 96.9a2.35 2.35 0 0 1 2.607 2.358c0 1.24-.62 1.86-1.986 2.978L55.09 103.6h3.723v1.242h-5.583v-1.117h-.124zM63.774 102.98h-3.847l-.248-.992L64.02 96.9h1.117v4.964h1.115v1.117h-1.117v1.738h-1.364v-1.737zm0-1.116v-3.102l-2.482 3.102h2.482zM67.124 105.834a1.06 1.06 0 0 0 .992-.992h-.62v-1.49h1.49v1.242a1.665 1.665 0 0 1-1.738 1.86zM73.575 103.725l2.606-2.234c1.118-.867 1.49-1.363 1.49-2.108a1.172 1.172 0 0 0-1.24-1.24 2.004 2.004 0 0 0-1.738 1.116l-.992-.744a3.282 3.282 0 0 1 2.854-1.613 2.35 2.35 0 0 1 2.605 2.36c0 1.24-.62 1.86-1.986 2.976L75.56 103.6h3.723v1.242H73.7l-.124-1.117zM80.4 100.87c0-2.232 1.364-3.97 3.35-3.97s3.35 1.738 3.35 3.97c0 2.235-1.365 3.97-3.35 3.97s-3.35-1.735-3.35-3.97zm5.335 0c0-1.487-.745-2.852-1.985-2.852s-1.986 1.24-1.986 2.73.745 2.73 1.985 2.73c1.24.123 1.985-1.118 1.985-2.606zM89.705 98.266l-1.365.372-.248-1.117 1.985-.62h.993v7.818h-1.365v-6.452zM93.675 104.097a3.704 3.704 0 0 1-.992-2.977c0-2.358 1.116-4.22 3.35-4.22a3.642 3.642 0 0 1 2.357.87l-.744.992a2.69 2.69 0 0 0-1.737-.62c-1.366 0-1.862 1.365-1.862 2.482a2.34 2.34 0 0 1 1.86-.745 2.478 2.478 0 0 1 2.73 2.48 2.684 2.684 0 0 1-2.853 2.606 3.646 3.646 0 0 1-2.11-.868zm3.722-1.86a1.635 1.635 0 0 0-3.225 0 1.45 1.45 0 0 0 1.613 1.364 1.382 1.382 0 0 0 1.612-1.364z"/><path d="M107.323 95.91h1.117v10.297h-1.117V95.91z" fill="#004868"/><path d="M117 100.87a3.846 3.846 0 0 1 3.97-3.97 3.905 3.905 0 0 1 2.98 1.242l-.87.993a2.84 2.84 0 0 0-2.11-.993 2.65 2.65 0 0 0-2.604 2.73 2.65 2.65 0 0 0 2.605 2.73 2.905 2.905 0 0 0 2.234-.992l.87.868a4.032 4.032 0 0 1-3.103 1.365 3.846 3.846 0 0 1-3.97-3.972zM124.818 101.864a3.103 3.103 0 0 1 6.203-.124 3.047 3.047 0 0 1-3.1 2.978 2.872 2.872 0 0 1-3.102-2.854zm4.963 0a1.803 1.803 0 0 0-1.736-1.86 1.726 1.726 0 0 0-1.737 1.86 1.74 1.74 0 1 0 3.474 0zM132.51 96.653h1.365v8.065h-1.365v-8.065zM135.612 102.61v-3.724h1.365v3.35a1.21 1.21 0 0 0 1.24 1.365 1.338 1.338 0 0 0 1.365-1.488v-3.35h1.365v5.832h-1.365v-.87a2.147 2.147 0 0 1-1.86.994 1.848 1.848 0 0 1-2.11-2.11zM142.436 98.886h1.365v.87a2.09 2.09 0 0 1 1.738-.994 1.725 1.725 0 0 1 1.737.993 2.41 2.41 0 0 1 1.985-.993 1.964 1.964 0 0 1 1.985 2.234v3.722h-1.365v-3.35a1.26 1.26 0 1 0-2.482 0v3.35h-1.364v-3.35a1.21 1.21 0 0 0-1.24-1.365 1.255 1.255 0 0 0-1.242 1.49v3.35h-1.365l.25-5.957zM154.347 103.85v.868h-1.365v-8.065h1.365v3.226a2.195 2.195 0 0 1 1.985-1.118 2.816 2.816 0 0 1 2.73 2.978 2.74 2.74 0 0 1-2.73 2.978 2.05 2.05 0 0 1-1.985-.87zm3.35-1.986a1.71 1.71 0 0 0-1.613-1.86 1.804 1.804 0 0 0-1.737 1.86 1.73 1.73 0 0 0 1.737 1.86 1.71 1.71 0 0 0 1.613-1.86zM160.303 102.61v-3.724h1.364v3.35a1.21 1.21 0 0 0 1.24 1.365 1.338 1.338 0 0 0 1.366-1.488v-3.35h1.365v5.832h-1.365v-.87a2.147 2.147 0 0 1-1.86.994 1.848 1.848 0 0 1-2.11-2.11zM166.755 103.973l.62-.868a3.268 3.268 0 0 0 1.86.744c.62 0 .87-.25.87-.62 0-.497-.62-.62-1.366-.87-.87-.247-1.862-.62-1.862-1.736 0-1.117.87-1.737 2.11-1.737a4.183 4.183 0 0 1 2.11.62l-.498.992a3.004 3.004 0 0 0-1.613-.497.745.745 0 0 0-.868.62c0 .372.62.62 1.364.87.868.247 1.86.62 1.86 1.736a1.893 1.893 0 0 1-2.11 1.86 6.395 6.395 0 0 1-2.48-1.117zM172.338 105.834a1.06 1.06 0 0 0 .992-.992h-.62v-1.49h1.49v1.242a1.665 1.665 0 0 1-1.738 1.86zM178.914 100.87a3.95 3.95 0 0 1 4.094-3.97 4.026 4.026 0 0 1 4.094 3.97 4.096 4.096 0 0 1-8.188 0zm6.7 0a2.608 2.608 0 1 0-5.212 0 2.608 2.608 0 1 0 5.212 0zM188.59 97.025h1.366v3.226h3.722v-3.225h1.365v7.693h-1.365v-3.227h-3.722v3.227h-1.365v-7.692z"/><path d="M203.976 95.91h1.117v10.297h-1.117V95.91z" fill="#004868"/><path d="M213.778 98.886h1.365v.87a2.147 2.147 0 0 1 1.86-.994 1.992 1.992 0 0 1 2.11 2.234v3.722h-1.365v-3.35a1.317 1.317 0 0 0-1.24-1.49 1.338 1.338 0 0 0-1.365 1.49v3.35h-1.365v-5.832zM220.354 103.105c0-1.24.993-1.86 2.357-1.86a6.286 6.286 0 0 1 1.614.247v-.124c0-.87-.496-1.24-1.488-1.24a3.434 3.434 0 0 0-1.613.37l-.373-.99a5.408 5.408 0 0 1 2.234-.498 3.157 3.157 0 0 1 1.985.62 2.568 2.568 0 0 1 .62 1.862v3.474h-1.366v-.745a2.24 2.24 0 0 1-1.86.87c-1.24-.25-2.11-.87-2.11-1.985zm3.97-.496v-.374a3.83 3.83 0 0 0-1.365-.248c-.87 0-1.366.372-1.366.993a.928.928 0 0 0 1.117.87 1.436 1.436 0 0 0 1.614-1.24zM226.806 101.864a3.072 3.072 0 0 1 5.335-2.11l-.867.87a2.163 2.163 0 0 0-1.49-.745 1.803 1.803 0 0 0-1.736 1.86 1.803 1.803 0 0 0 1.737 1.86 1.77 1.77 0 0 0 1.49-.743l.743.744a3.07 3.07 0 0 1-2.357 1.118 2.806 2.806 0 0 1-2.854-2.854zM233.134 103.105c0-1.24.992-1.86 2.357-1.86a6.286 6.286 0 0 1 1.614.247v-.124c0-.87-.496-1.24-1.49-1.24a3.434 3.434 0 0 0-1.612.37l-.372-.99a5.408 5.408 0 0 1 2.233-.498 3.157 3.157 0 0 1 1.986.62 2.568 2.568 0 0 1 .62 1.862v3.474h-1.366v-.745a2.24 2.24 0 0 1-1.86.87c-1.118-.25-2.11-.87-2.11-1.985zm3.97-.496v-.374a3.83 3.83 0 0 0-1.365-.248c-.87 0-1.366.372-1.366.993a.928.928 0 0 0 1.117.87 1.367 1.367 0 0 0 1.614-1.24zM239.71 101.864a3.072 3.072 0 0 1 5.335-2.11l-.868.87a2.163 2.163 0 0 0-1.49-.745 1.803 1.803 0 0 0-1.736 1.86 1.803 1.803 0 0 0 1.738 1.86 1.77 1.77 0 0 0 1.49-.743l.743.744a3.07 3.07 0 0 1-2.356 1.118 2.736 2.736 0 0 1-2.854-2.854zM246.285 98.886h1.365v.87a2.147 2.147 0 0 1 1.86-.994 1.992 1.992 0 0 1 2.11 2.234v3.722h-1.365v-3.35a1.317 1.317 0 0 0-1.24-1.49 1.338 1.338 0 0 0-1.365 1.49v3.35h-1.365v-5.832zM252.86 101.864a2.947 2.947 0 0 1 2.855-3.102 2.867 2.867 0 0 1 2.854 3.102v.372h-4.344a1.64 1.64 0 0 0 1.737 1.49 2.184 2.184 0 0 0 1.613-.745l.744.745a3.07 3.07 0 0 1-2.357 1.117 2.9 2.9 0 0 1-3.102-2.978zm4.344-.496a1.49 1.49 0 0 0-2.978 0h2.978zM260.058 103.105v-3.102h-.745v-1.117h.745v-1.612h1.364v1.612h1.613v1.117h-1.613v2.854a.658.658 0 0 0 .745.744 2.3 2.3 0 0 0 .868-.247v1.117a2.04 2.04 0 0 1-1.24.248 1.387 1.387 0 0 1-1.737-1.613zM264.276 103.23h1.49v1.488h-1.49v-1.49zM266.757 101.864a3.103 3.103 0 0 1 6.204-.124 3.047 3.047 0 0 1-3.1 2.978 2.872 2.872 0 0 1-3.103-2.854zm4.963 0a1.803 1.803 0 0 0-1.737-1.86 1.726 1.726 0 0 0-1.737 1.86 1.74 1.74 0 1 0 3.474 0zM274.45 98.886h1.365v1.365a1.93 1.93 0 0 1 2.11-1.363v1.364h-.125c-1.117 0-1.985.746-1.985 2.36v2.23h-1.365v-5.954zM278.793 105.834l.496-.992a3.845 3.845 0 0 0 2.108.62 1.61 1.61 0 0 0 1.86-1.737v-.496a2.59 2.59 0 0 1-4.714-1.614 2.575 2.575 0 0 1 2.606-2.73 2.386 2.386 0 0 1 1.985.992v-.868h1.365v4.59a3.033 3.033 0 0 1-.744 2.235 3.36 3.36 0 0 1-2.358.744 4.587 4.587 0 0 1-2.605-.746zm4.466-4.342a1.598 1.598 0 0 0-1.738-1.613 1.564 1.564 0 0 0-1.613 1.612 1.564 1.564 0 0 0 1.612 1.613 1.668 1.668 0 0 0 1.737-1.614z"/><path d="M105.835 49.382V28.165h2.977l6.824 10.67a49.71 49.71 0 0 1 3.847 6.948h.124a95.442 95.442 0 0 1-.372-8.685v-8.933h2.605V49.38h-2.73l-6.7-10.793a82.99 82.99 0 0 1-3.97-7.072h-.124c.124 2.73.248 5.21.248 8.685v9.057l-2.73.124zM134.868 49.382l-.248-1.862h-.125a5.59 5.59 0 0 1-4.714 2.234 4.409 4.409 0 0 1-4.714-4.343c0-3.72 3.226-5.706 9.18-5.706v-.373a3.13 3.13 0 0 0-3.473-3.473 8.658 8.658 0 0 0-3.97 1.117l-.62-1.86a8.978 8.978 0 0 1 4.963-1.366c4.715 0 5.83 3.226 5.83 6.204v5.707a28.89 28.89 0 0 0 .25 3.597l-2.358.124zm-.373-7.693c-2.977-.125-6.45.495-6.45 3.473a2.47 2.47 0 0 0 2.604 2.606 3.845 3.845 0 0 0 3.72-2.607 2.11 2.11 0 0 0 .125-.868V41.69zM144.918 29.778v4.342h3.97v2.11h-3.97v8.188c0 1.86.496 2.978 2.11 2.978a4.86 4.86 0 0 0 1.612-.248l.124 2.11a6.102 6.102 0 0 1-2.482.37 3.837 3.837 0 0 1-2.977-1.115 6.06 6.06 0 0 1-1.117-3.97V36.23h-2.358v-2.11h2.358v-3.598zM154.968 29.902a1.628 1.628 0 0 1-1.737 1.737 1.598 1.598 0 0 1-1.612-1.74 1.696 1.696 0 0 1 1.737-1.736 1.598 1.598 0 0 1 1.613 1.738zm-2.978 19.48V34.244h2.73v15.26h-2.73v-.122zM173.082 41.69c0 5.582-3.846 8.064-7.568 8.064-4.095 0-7.32-2.978-7.32-7.817 0-5.087 3.35-8.065 7.568-8.065 4.342 0 7.32 3.102 7.32 7.817zm-12.035.123c0 3.35 1.86 5.83 4.59 5.83 2.606 0 4.59-2.48 4.59-5.954 0-2.607-1.24-5.833-4.59-5.833-3.225.125-4.59 3.102-4.59 5.956zM176.556 38.34c0-1.614 0-2.855-.124-4.096h2.482l.124 2.482h.124a5.49 5.49 0 0 1 5.087-2.854c2.108 0 5.334 1.24 5.334 6.452v9.058h-2.73v-8.81c0-2.48-.87-4.467-3.474-4.467a3.87 3.87 0 0 0-3.722 2.854 4.408 4.408 0 0 0-.248 1.24v9.182h-2.73l-.124-11.043zM202.488 49.382l-.25-1.862h-.123a5.59 5.59 0 0 1-4.714 2.234 4.409 4.409 0 0 1-4.714-4.343c0-3.72 3.226-5.706 9.18-5.706v-.373a3.13 3.13 0 0 0-3.473-3.473 8.658 8.658 0 0 0-3.97 1.117l-.62-1.86a8.978 8.978 0 0 1 4.963-1.366c4.715 0 5.83 3.226 5.83 6.204v5.707a28.89 28.89 0 0 0 .25 3.597l-2.358.124zm-.373-7.693c-2.977-.125-6.45.495-6.45 3.473a2.47 2.47 0 0 0 2.604 2.606 3.845 3.845 0 0 0 3.72-2.607 2.11 2.11 0 0 0 .125-.868V41.69zM209.188 27.048h2.73v22.334h-2.73V27.048zM120.723 78.042a13.512 13.512 0 0 1-5.583.993c-5.955 0-10.422-3.723-10.422-10.67 0-6.7 4.466-11.167 11.042-11.167a11.76 11.76 0 0 1 5.087.993l-.62 2.234a9.724 9.724 0 0 0-4.218-.87c-4.964 0-8.314 3.227-8.314 8.81 0 5.212 2.978 8.562 8.19 8.562a11.92 11.92 0 0 0 4.465-.87zM137.473 71.094c0 5.583-3.846 8.065-7.568 8.065-4.095 0-7.32-2.98-7.32-7.818 0-5.087 3.35-8.065 7.568-8.065 4.342-.124 7.32 3.102 7.32 7.817zm-12.035.124c0 3.35 1.86 5.83 4.59 5.83 2.606 0 4.59-2.48 4.59-5.954 0-2.606-1.24-5.83-4.59-5.83-3.225 0-4.59 3.1-4.59 5.954zM140.947 67.62c0-1.613 0-2.854-.124-4.094h2.482l.124 2.48h.123a5.49 5.49 0 0 1 5.087-2.853c2.11 0 5.335 1.24 5.335 6.452v9.057h-2.73v-8.81c0-2.48-.868-4.465-3.474-4.465a3.87 3.87 0 0 0-3.72 2.853 4.408 4.408 0 0 0-.25 1.24v9.182h-2.853V67.62zM158.69 78.787V65.635h-2.11v-2.11h2.11v-.744a7.492 7.492 0 0 1 1.737-5.334 5.34 5.34 0 0 1 3.722-1.365 5.57 5.57 0 0 1 2.357.498l-.373 2.11a3.286 3.286 0 0 0-1.737-.373c-2.357 0-2.977 2.11-2.977 4.466v.87h3.722v2.11h-3.722v13.15a20.104 20.104 0 0 0-2.73-.123zM168.74 71.714c.124 3.723 2.482 5.336 5.21 5.336a11.164 11.164 0 0 0 4.22-.745l.496 1.985a11.298 11.298 0 0 1-5.087.993c-4.716 0-7.446-3.102-7.446-7.692s2.73-8.188 7.197-8.188c4.964 0 6.328 4.342 6.328 7.196 0 .62-.124.993-.124 1.24l-10.794-.124zm8.065-1.985c0-1.738-.745-4.467-3.847-4.467-2.853 0-3.97 2.605-4.218 4.466h8.065zM183.008 68.364c0-1.737 0-3.35-.124-4.714h2.482l.124 2.977h.124a4.714 4.714 0 0 1 4.218-3.35 1.343 1.343 0 0 1 .745.124v2.483a2.42 2.42 0 0 0-.993-.124c-1.985 0-3.35 1.488-3.722 3.597a4.22 4.22 0 0 0-.124 1.24v8.066h-2.73v-10.3zM194.547 71.714c.124 3.723 2.48 5.336 5.21 5.336a11.164 11.164 0 0 0 4.22-.745l.496 1.985a11.298 11.298 0 0 1-5.087.993c-4.715 0-7.445-3.102-7.445-7.692s2.73-8.188 7.198-8.188c4.963 0 6.327 4.342 6.327 7.196 0 .62-.124.993-.124 1.24l-10.793-.123zm8.065-1.985c0-1.738-.745-4.467-3.847-4.467-2.853 0-3.97 2.605-4.218 4.466h8.065zM208.69 67.62c0-1.613 0-2.854-.123-4.094h2.482l.123 2.48h.124a5.49 5.49 0 0 1 5.087-2.853c2.11 0 5.335 1.24 5.335 6.452v9.057h-2.73v-8.81c0-2.48-.87-4.465-3.475-4.465a3.87 3.87 0 0 0-3.722 2.853 4.408 4.408 0 0 0-.248 1.24v9.182h-2.73l-.124-11.042zM236.98 78.166a10.466 10.466 0 0 1-4.343.87c-4.59 0-7.568-3.103-7.568-7.818s3.225-8.065 8.188-8.065a9.532 9.532 0 0 1 3.846.745l-.62 2.11a6.463 6.463 0 0 0-3.226-.746c-3.474 0-5.335 2.606-5.335 5.708 0 3.474 2.233 5.707 5.335 5.707a7.024 7.024 0 0 0 3.35-.744zM241.695 71.714c.124 3.723 2.48 5.336 5.21 5.336a11.164 11.164 0 0 0 4.22-.745l.496 1.985a11.298 11.298 0 0 1-5.086.993c-4.715 0-7.445-3.102-7.445-7.692s2.73-8.188 7.196-8.188c4.962 0 6.327 4.342 6.327 7.196 0 .62-.124.993-.124 1.24l-10.795-.123zm8.065-1.985c0-1.738-.745-4.467-3.847-4.467-2.854 0-3.97 2.605-4.218 4.466h8.064z" fill="#0081c6"/><path fill="#004868" d="M.124 27.544h95.04v51.614H.124z"/><path d="M.248 79.035c33.376-37.843 80.15-49.01 94.792-51.49H.124zM0 19.852V.495h3.226l10.05 14.02c.248.248.372.62.62.87l.372.743V.495h2.73v19.356h-3.102L3.722 5.582a2.712 2.712 0 0 0-.372-.62l-.372-.743V19.85H0zM57.446 19.852L65.386.495h3.227l7.94 19.356H73.45l-1.487-3.846h-10.05l-1.49 3.846h-2.977zm5.583-6.328h8.064L67.124 3.35zM92.31 12.655h2.854a7.18 7.18 0 0 1-2.73 5.584 9.836 9.836 0 0 1-6.452 2.108 9.165 9.165 0 0 1-7.072-2.73 10.9 10.9 0 0 1-2.605-7.692 9.446 9.446 0 0 1 2.73-7.197A9.856 9.856 0 0 1 86.23.123a9.702 9.702 0 0 1 5.956 1.738 6.843 6.843 0 0 1 2.73 4.59h-2.854a4.464 4.464 0 0 0-1.985-2.978 6.525 6.525 0 0 0-3.97-.992 6.452 6.452 0 0 0-5.087 2.11c-1.24 1.364-1.737 3.35-1.737 5.83a8.54 8.54 0 0 0 1.86 5.708 5.985 5.985 0 0 0 4.964 2.11 6.364 6.364 0 0 0 4.343-1.49 6.288 6.288 0 0 0 1.86-4.094zM56.33 3.846a9.883 9.883 0 0 0-1.862-2.11A9.702 9.702 0 0 0 48.513 0a13.453 13.453 0 0 0-5.21.993A63.245 63.245 0 0 0 32.134 6.08L29.778.496h-3.226l-7.94 19.355 2.977.002c.867-1.737 4.714-8.437 14.64-13.4a17.36 17.36 0 0 0-4.84 13.4h2.358c-.744-12.16 11.29-16.874 11.29-16.874a7.822 7.822 0 0 1 3.227-.62 7.513 7.513 0 0 1 3.97.992 4.755 4.755 0 0 1 1.985 2.978h2.854a4.192 4.192 0 0 0-.745-2.482zm-31.39 7.817l3.225-8.437 1.613 4.218a58.932 58.932 0 0 0-4.84 4.22z" fill="#0081c6"/><path d="M54.468 12.655a5.12 5.12 0 0 1-1.737 3.847 7.044 7.044 0 0 1-4.34 1.49 6.366 6.366 0 0 1-4.964-2.11 8.54 8.54 0 0 1-1.86-5.708 12.038 12.038 0 0 1 .123-2.11 6.81 6.81 0 0 0-2.855 4.716 9.833 9.833 0 0 0 2.233 4.715 9.165 9.165 0 0 0 7.072 2.73 10.076 10.076 0 0 0 6.452-2.11 7.478 7.478 0 0 0 2.606-5.583 19.21 19.21 0 0 1-2.73.124z" fill="#0081c6"/></svg>