<svg data-name="Layer 1" xmlns="http://www.w3.org/2000/svg" viewBox="0 0 222.5 54.5"><title>NACAC_knockout</title><path d="M61.935 30.4a82.198 82.198 0 0 1 10.96-9.142l-3.68-9.45z" fill="#fff"/><path d="M0 0v54.5h222.5V0H0zm44.31 48.52h-7l-22.67-31.564a17.142 17.142 0 0 1-.947-1.513 19.928 19.928 0 0 1-.82-1.655v34.73H6.74V5.668h7.07l22.185 31.125c.494.68.918 1.324 1.287 1.922a11.467 11.467 0 0 1 .877 1.687V5.667h6.15V48.52zm37.344 0h-5.19a39.556 39.556 0 0 1 10.842-29.78c-22.054 11.087-30.613 25.824-32.58 29.744l-.015.035h-6.68L65.673 5.666H72.8L77.895 18a109.695 109.695 0 0 1 25.32-11.072 24.643 24.643 0 0 1 11.113-2.36q8.057 0 13.21 3.747a14.484 14.484 0 0 1 4.118 4.56 15.225 15.225 0 0 1 1.836 5.678h-6.325a10.01 10.01 0 0 0-4.295-6.522 15.436 15.436 0 0 0-8.803-2.292 19.868 19.868 0 0 0-2.685.192 32.042 32.042 0 0 0-3.156.755c-.47.138-.93.302-1.394.46l.025.08c-1.115.417-26.75 10.316-25.206 37.294zm46.24-3.45q-5.496 4.638-14.21 4.642-10.026 0-15.716-6.17A20.98 20.98 0 0 1 92.92 33.07a15.242 15.242 0 0 1 4.44-8.998c.577-.477 1.19-.954 1.89-1.432a27.635 27.635 0 0 0-.37 4.56q0 7.854 4.158 12.596a15.316 15.316 0 0 0 20.534 1.47 11.79 11.79 0 0 0 3.982-8.657h6.258a16.733 16.733 0 0 1-5.92 12.463zm41.74 3.45l-3.298-8.41h-22.18l-3.316 8.41h-6.677l17.633-42.853h7.14l17.7 42.852h-7.003zm42.13-3.45q-5.498 4.638-14.203 4.642-10.027 0-15.724-6.17-5.678-6.163-5.688-17.075 0-10.062 5.97-15.984 5.956-5.913 16.085-5.915 8.067 0 13.212 3.747a14.355 14.355 0 0 1 5.938 10.238h-6.316a10.02 10.02 0 0 0-4.288-6.525 15.47 15.47 0 0 0-8.804-2.29q-7.223 0-11.207 4.574-3.99 4.57-3.978 12.885 0 7.855 4.142 12.593a15.308 15.308 0 0 0 20.537 1.475 11.803 11.803 0 0 0 3.986-8.658h6.26a16.735 16.735 0 0 1-5.92 12.463z" fill="#fff"/><path fill="#fff" d="M146.36 34.48h17.803l-8.806-22.673-8.996 22.672z"/></svg>