<svg id="Layer_1" xmlns="http://www.w3.org/2000/svg" viewBox="0 0 288 126"><style>.st0{fill:#fff}</style><path class="st0" d="M395.2-7.5v141h-502.5v-141h502.5zM57.5 10.8h-7.8v44.3c-.3-.7-.7-1.4-1.1-2.1-.5-.7-1-1.6-1.7-2.4L18.6 10.8H9.5v54.5h7.8V21.1c.3.7.7 1.5 1 2.1.4.7.7 1.3 1.2 2l29 40.3h9V10.8zm146 0h-9.1L172 65.4h8.5l4.2-10.7H213l4.2 10.7h9l-22.7-54.6zm6.7 36.7l-11.2-29-11.5 29h22.7zm68.3-2.3h-7.9c-.3 4.6-2 8.2-5.2 11-3.1 2.8-7.2 4.2-12.1 4.2-5.8 0-10.5-2.1-14-6.1-3.5-4-5.3-9.3-5.3-16.1 0-7.1 1.7-12.5 5-16.4 3.4-3.8 8.1-5.8 14.3-5.8 4.6 0 8.3.9 11.2 2.9 2.9 2 4.8 4.7 5.5 8.3h8c-.7-5.5-3.2-9.9-7.6-13.1-4.4-3.2-10-4.8-16.8-4.8-8.7 0-15.5 2.5-20.5 7.6-5 5-7.6 11.8-7.6 20.4 0 9.2 2.4 16.5 7.3 21.8 4.9 5.2 11.6 7.8 20.1 7.8 7.4 0 13.4-2 18.1-5.9 4.6-3.9 7.1-9.2 7.5-15.8zM171.2 27.3c-.4-2.8-1.1-5.2-2.4-7.4-1.3-2.2-3-4.2-5.2-5.8-4.4-3.2-10-4.8-16.8-4.8-5.4 0-10.7 1.2-14.9 2.7-12.8 4.7-22.9 9.2-31.6 14.5l-6.5-15.7h-9.1L62.2 65.4h8.5c2.5-5 13.4-23.8 41.6-37.9-7.9 8.6-14.7 20.9-13.8 38h6.6c-2-34.4 32.1-47.6 32.1-47.6 3-1.3 6.4-1.9 9.2-1.8 4.6.1 8.3 1 11.2 2.9 2.9 2 4.7 4.7 5.5 8.3h8.1zm-77.4 3.4l-4.7-12-9.2 23.7c3.8-3.9 8.4-7.8 13.9-11.7zm77.8 14.5h-8.1c-.2 4.6-1.9 8.2-5 11-3.2 2.8-7.2 4.2-12.1 4.2-5.8 0-10.5-2.1-14-6.1-3.5-4-5.3-9.3-5.3-16.1 0-2.1.2-4 .5-5.8-4.5 3.1-7.5 8.2-8 13.3 1 5.3 3.2 9.8 6.4 13.4 4.9 5.2 11.5 7.8 20.1 7.8 7.4 0 13.4-2 18.1-5.9 4.6-3.9 7.1-9.2 7.4-15.8zM56.2 83.4h-1.4V94h1.1v-9.5l7.4 9.5h1.4V83.4h-1v9.5l-7.5-9.5zm16.9 6.4c-.2.1-.5.2-.8.3-.4.1-1 .2-1.9.4-1.1.2-1.9.4-2.1.6-.3.2-.5.5-.5.9s.2.7.6 1c.4.3.8.4 1.5.4.9 0 1.8-.2 2.3-.7.6-.5.9-1 .9-1.8v-1.1zm1.1 4.3h.4c.2 0 .3 0 .5-.1v-.9c-.1 0-.2.1-.2.1h-.2c-.2 0-.3 0-.4-.1-.1-.1-.1-.3-.1-.7v-3.6c0-.6 0-.9-.1-1.2-.1-.2-.2-.5-.4-.7-.3-.4-.7-.7-1.1-.7-.5-.1-1-.2-1.8-.2-1.2 0-2.1.2-2.7.7-.7.5-.9 1.1-1 2.1h1c0-.7.3-1.1.7-1.4.5-.3 1.1-.5 2.1-.5.7 0 1.2.2 1.6.4.4.2.6.5.6.9 0 .6-.6.9-1.9 1.1-.4 0-.7.1-.8.1-.8.2-1.5.3-1.9.4-.4.1-.7.2-.8.4-.3.2-.6.5-.7.7-.1.3-.2.6-.2.9 0 .7.2 1.4.7 1.8.5.5 1.2.7 2.1.7.7 0 1.4-.1 2.1-.4.5-.2.9-.6 1.4-1 0 .5.1.7.3.9.3.2.5.3.8.3zm5.6-8H78v-2.3h-1v2.3h-1.3v.8H77v5c0 .7.2 1.3.4 1.6.3.3.7.5 1.2.5h.6c.2 0 .4 0 .7-.1v-.8c-.2.1-.4.1-.5.1H79c-.4 0-.7-.1-.7-.2-.1-.1-.2-.5-.2-1v-5h1.8v-.9zm1.3.2v7.8h1v-7.8h-1zm1.1-2.9h-1v1.2h1v-1.2zm3.5 4.4c-.6.6-.8 1.3-.8 2.3 0 .9.3 1.8.8 2.3.6.6 1.3.8 2.2.8s1.7-.3 2.2-.8c.6-.6.8-1.3.8-2.3 0-.9-.3-1.8-.8-2.3-.5-.5-1.2-.8-2.1-.8s-1.7.3-2.3.8zm-1.9 2.4c0 1.2.4 2.2 1.1 3.1.7.7 1.8 1.1 3 1.1s2.2-.4 3-1.1c.7-.8 1.1-1.9 1.1-3.1 0-1.2-.4-2.2-1.1-3-.7-.7-1.8-1.1-3-1.1s-2.2.4-3 1.1c-.7.7-1.1 1.8-1.1 3zm16.4-.5v4.4h1v-5c0-1-.3-1.8-.7-2.2-.5-.5-1.2-.7-2.2-.7-.7 0-1.3.1-1.9.4-.6.3-1 .7-1.4 1.2v-1.4h-1V94.3h1v-4.5c0-.7.3-1.4.8-1.9.7-.5 1.3-.7 2.2-.7.7 0 1.4.2 1.7.6.3.2.5.9.5 1.9zm9.2 3.2c0 .5.1.7.3.9.2.2.4.3.7.3h.4c.2 0 .3 0 .5-.1v-.9c-.1 0-.1.1-.1.1h-.2c-.2 0-.3 0-.4-.1-.1-.1-.1-.3-.1-.7v-3.6c0-.6 0-.9-.1-1.2-.1-.2-.2-.5-.4-.7-.3-.4-.7-.7-1.1-.7-.5-.1-1-.2-1.8-.2-1.2 0-2.1.2-2.7.7-.7.5-.9 1.1-1 2.1h1c0-.7.3-1.1.7-1.4s1.1-.5 2.1-.5c.7 0 1.2.2 1.6.4.4.2.6.5.6.9 0 .6-.6.9-1.9 1.1-.4 0-.7.1-.8.1-.8.2-1.5.3-1.9.4-.4.1-.7.2-.8.4-.3.2-.6.5-.7.7-.1.3-.2.6-.2.9 0 .7.3 1.3.7 1.8.5.5 1.2.7 2.1.7.7 0 1.4-.2 2-.4.6-.2 1.1-.5 1.5-1zm-3.2.5c.9 0 1.8-.2 2.3-.7.6-.5.9-1 .9-1.8v-1.1c-.2.1-.5.2-.8.3-.4.1-1 .2-1.9.4-1.1.2-1.9.4-2.1.6s-.5.5-.5.9.2.7.6 1c.4.3.8.4 1.5.4zm7.8-10h-1V94h1V83.4zm9.2 6.3h4.9l-2.4-5.4-2.5 5.4zm5.3 1.1l1.5 3.3h1.1l-4.9-10.6H125l-5 10.6h1.1l1.5-3.3h5.9zm9.7 2.8c.7-.4 1-1 1-1.9 0-.6-.2-1-.6-1.4-.4-.3-1-.6-1.9-.7l-2.1-.3c-.7-.2-1.1-.3-1.4-.5-.3-.2-.4-.4-.4-.7 0-.4.2-.7.6-.9.4-.3.9-.4 1.7-.4.8 0 1.4.1 1.9.4.4.3.7.7.7 1.2h1c0-.8-.3-1.4-.9-1.9-.7-.5-1.5-.7-2.6-.7-1 0-1.9.3-2.5.7-.7.4-.9.9-.9 1.7 0 .6.2 1 .6 1.4.5.3 1 .6 2 .7l2.2.4c.6.1.9.2 1.1.4.3.2.4.4.4.7 0 .6-.2.8-.7 1.1-.5.3-1.2.4-2.1.4-.8 0-1.6-.2-2-.5-.4-.3-.7-.7-.7-1.3h-1c0 .9.4 1.6 1 2 .7.5 1.5.7 2.6.7 1.4.1 2.4-.1 3-.6zm8.2 0c.7-.4 1-1 1-1.9 0-.6-.2-1-.6-1.4-.4-.3-1-.6-1.9-.7l-2.1-.3c-.7-.2-1.1-.3-1.4-.5s-.4-.4-.4-.7c0-.4.2-.7.6-.9.4-.3.9-.4 1.7-.4.8 0 1.4.1 1.9.4.4.3.7.7.7 1.2h1c0-.8-.3-1.4-.9-1.9-.7-.5-1.5-.7-2.6-.7-1 0-1.9.3-2.5.7-.7.4-.9.9-.9 1.7 0 .6.2 1 .6 1.4.5.3 1 .6 2 .7l2.2.4c.6.1.9.2 1.1.4.3.2.4.4.4.7 0 .6-.2.8-.7 1.1-.4.3-1.1.4-2 .4-.8 0-1.5-.2-2-.5-.4-.3-.7-.7-.7-1.3h-1c.1.9.5 1.6.9 2 .7.5 1.5.7 2.6.7 1.4.1 2.4-.1 3-.6zm2.2-3.4c0 1.2.4 2.2 1.1 3.1.7.7 1.8 1.1 3 1.1s2.2-.4 3-1.1c.7-.8 1.1-1.9 1.1-3.1 0-1.2-.4-2.2-1.1-3-.7-.7-1.8-1.1-3-1.1s-2.2.4-3 1.1c-.7.7-1.1 1.8-1.1 3zm1.8-2.4c-.6.6-.8 1.3-.8 2.3 0 .9.3 1.8.8 2.3.6.6 1.3.8 2.2.8s1.7-.3 2.2-.8c.6-.6.8-1.3.8-2.3 0-.9-.3-1.8-.8-2.3-.6-.6-1.3-.8-2.2-.8s-1.6.3-2.2.8zm7.8 2.3c0 1.3.4 2.3 1.1 3.1s1.8 1.1 3 1.1c1 0 1.9-.3 2.6-.8.7-.6 1.1-1.3 1.2-2.2h-1c-.2.7-.5 1.2-1 1.5-.6.4-1.1.6-1.9.6-.9 0-1.7-.3-2.2-.8-.6-.6-.8-1.4-.8-2.3 0-.9.3-1.8.8-2.3.6-.6 1.3-.8 2.2-.8.7 0 1.3.2 1.8.5s.8.7 1 1.4h1c-.1-.8-.6-1.5-1.2-2.1-.7-.5-1.5-.7-2.5-.7-1.2 0-2.2.4-3 1.1s-1.1 1.5-1.1 2.7zm9.5 4h1v-7.8h-1v7.8zm1.1-9.5v-1.2h-1v1.2h1zm8.3 5.2c-.2.1-.5.2-.8.3-.4.1-1 .2-1.9.4-1.1.2-1.9.4-2.1.6s-.5.5-.5.9.2.7.6 1c.4.3.8.4 1.5.4.9 0 1.8-.2 2.3-.7.6-.5.9-1 .9-1.8v-1.1zm-6-1h1c0-.7.3-1.1.7-1.4s1.1-.5 2.1-.5c.7 0 1.2.2 1.6.4.4.2.6.5.6.9 0 .6-.6.9-1.9 1.1-.4 0-.7.1-.8.1-.8.2-1.5.3-1.9.4-.4.1-.7.2-.8.4-.3.2-.6.5-.7.7-.1.3-.2.6-.2.9 0 .7.2 1.4.7 1.8.5.5 1.2.7 2.1.7.7 0 1.4-.2 2-.4.5-.2.9-.6 1.4-1 0 .5.1.7.3.9.2.2.4.3.7.3h.4c.2 0 .3 0 .5-.1v-.9c-.1 0-.1.1-.1.1h-.2c-.2 0-.3 0-.4-.1-.1-.1-.1-.3-.1-.7v-3.6c0-.6 0-.9-.1-1.2-.1-.2-.2-.5-.4-.7-.3-.4-.7-.6-1.1-.7-.5-.1-1-.2-1.8-.2-1.2 0-2.1.2-2.7.7-.5.5-.8 1.1-.9 2.1zm12.7-2.7H182v-2.3h-1v2.3h-1.3v.8h1.3v5c0 .7.2 1.3.4 1.6.3.3.7.5 1.2.5h.6c.2 0 .4 0 .7-.1v-.8c-.2.1-.4.1-.5.1h-.4c-.4 0-.7-.1-.7-.2-.1-.1-.2-.5-.2-1v-5h1.8v-.9zm1.2 8h1v-7.8h-1v7.8zm1-10.7h-1v1.2h1v-1.2zm3.7 9.1c.6.6 1.3.8 2.2.8.9 0 1.7-.3 2.2-.8.6-.6.8-1.3.8-2.3 0-.9-.3-1.8-.8-2.3-.6-.6-1.3-.8-2.2-.8-.9 0-1.7.3-2.2.8-.6.6-.8 1.3-.8 2.3-.1.9.2 1.8.8 2.3zm5.2.8c.7-.8 1.1-1.9 1.1-3.1 0-1.2-.4-2.2-1.1-3-.7-.7-1.8-1.1-3-1.1s-2.2.4-3 1.1c-.7.7-1.1 1.8-1.1 3s.4 2.2 1.1 3.1c.7.7 1.8 1.1 3 1.1s2.3-.4 3-1.1zm8.7-5.6c.3.4.5 1 .5 2.1v4.4h1v-5c0-1-.3-1.8-.7-2.2-.5-.5-1.2-.7-2.2-.7-.7 0-1.3.1-1.9.4-.6.3-1 .7-1.4 1.2v-1.4h-1V94.4h1v-4.5c0-.7.3-1.4.8-1.9.7-.5 1.3-.7 2.2-.7.9-.2 1.3 0 1.7.4zm8.9-.6v7h1.1v-7h1.8v-.8h-1.8v-.7c0-.5.1-.8.2-.9.2-.1.4-.2.7-.2h.4c.1 0 .3 0 .5.1v-.9c-.3 0-.5-.1-.7-.1-.2-.1-.4-.1-.6-.1-.7 0-1 .2-1.3.5-.3.3-.4.8-.4 1.8v.7h-1.3v.8h1.4zm5.4 5.4c.6.6 1.3.8 2.2.8s1.7-.3 2.2-.8c.6-.6.8-1.3.8-2.3 0-.9-.3-1.8-.8-2.3-.6-.6-1.3-.8-2.2-.8s-1.7.3-2.2.8c-.6.6-.8 1.3-.8 2.3-.1.9.2 1.8.8 2.3zm5.2.8c.7-.8 1.1-1.9 1.1-3.1 0-1.2-.4-2.2-1.1-3-.7-.7-1.8-1.1-3-1.1s-2.2.4-3 1.1c-.7.7-1.1 1.8-1.1 3s.4 2.2 1.1 3.1c.7.7 1.8 1.1 3 1.1s2.3-.4 3-1.1zm7.4-5.9v-1c-.2-.1-.4-.2-.6-.2-.1-.1-.3-.1-.5-.1-.6 0-1 .1-1.4.4-.4.3-.7.7-.9 1.1v-1.3h-1v7.8h1v-4.9c.2-.7.6-1.1.9-1.5.4-.3.8-.5 1.5-.5h.5c.1.1.3.1.5.2zM27.7 106.2c0 1.8.5 3.1 1.5 4.1.9 1 2.2 1.5 3.9 1.5 1.4 0 2.6-.3 3.5-1.1.9-.8 1.5-1.9 1.8-3.2h-1.1c-.3.9-.7 1.8-1.5 2.3-.7.6-1.6.8-2.7.8-1.3 0-2.4-.4-3.2-1.2-.8-.8-1.2-2-1.2-3.4s.4-2.5 1.2-3.4c.7-.8 1.9-1.2 3.3-1.2 1 0 1.9.3 2.5.7.7.5 1.1 1.2 1.3 2.1v.1h1.2c-.2-1.2-.7-2.1-1.6-2.8-.8-.7-2-1-3.4-1-1.8 0-3.1.5-4.1 1.5-.9 1.1-1.4 2.4-1.4 4.2zm13.7-1c-.6.6-.8 1.3-.8 2.3 0 .9.3 1.8.8 2.3.6.6 1.3.8 2.2.8.9 0 1.7-.3 2.2-.8.6-.6.8-1.3.8-2.3 0-.9-.3-1.8-.8-2.3-.6-.6-1.3-.8-2.2-.8-.9 0-1.7.3-2.2.8zm-1.9 2.4c0 1.2.4 2.2 1.1 3.1.7.7 1.8 1.1 3 1.1s2.2-.4 3-1.1c.7-.8 1.1-1.9 1.1-3.1 0-1.2-.4-2.2-1.1-3s-1.8-1.1-3-1.1-2.2.4-3 1.1-1.1 1.7-1.1 3zm10.1 3.9h1v-10.6h-1v10.6zm3.2 0h1v-10.6h-1v10.6zm4-4.6h6.1c-.1-.7-.4-1.4-.9-1.9-.6-.5-1.2-.7-2.1-.7-.8 0-1.6.3-2.1.7-.7.5-.9 1.2-1 1.9zm6.8 2.2h-1.1c-.2.6-.6 1-1 1.3-.5.3-1 .5-1.7.5-.8 0-1.6-.2-2.1-.7-.6-.6-.8-1.3-.9-2.2H64v-.3c0-1.3-.4-2.3-1.1-3.1-.7-.7-1.8-1.1-3-1.1s-2.2.4-3 1.1-1.1 1.8-1.1 3c0 1.3.4 2.3 1.1 3.1s1.8 1.1 3 1.1c1 0 1.9-.3 2.5-.7.6-.6 1-1.2 1.2-2m0 0l.1-.2c0 .1-.1.2-.1.2m1.7-1.6c0 1.2.4 2.2 1.1 3 .7.7 1.8 1.1 3 1.1.7 0 1.3-.1 1.8-.4.6-.3.9-.7 1.4-1.2v.8c0 .9-.3 1.5-.7 1.9-.6.4-1.3.6-2.4.6-.7 0-1.4-.2-1.8-.4-.5-.2-.7-.6-.7-1h-1c0 .7.4 1.3 1 1.7.7.5 1.5.7 2.5.7.7 0 1.3 0 1.9-.2.5-.1.9-.4 1.3-.7.4-.3.7-.6.7-.9.1-.4.2-.9.2-1.6h.1v-7.2h-1v1.3c-.5-.6-.9-.9-1.4-1.2-.6-.3-1.1-.4-1.8-.4-1.2 0-2.2.4-3 1.1-.9.7-1.2 1.7-1.2 3zm1.8-2.2c-.6.6-.8 1.3-.8 2.2 0 .9.3 1.7.8 2.2.6.6 1.3.8 2.2.8.9 0 1.7-.3 2.2-.8.6-.6.8-1.3.8-2.2 0-.9-.3-1.7-.8-2.2-.6-.6-1.3-.8-2.2-.8-.9 0-1.6.3-2.2.8zm16 3.8l.1-.2c0 .1 0 .2-.1.2m-6.8-2.2h6.1c-.1-.7-.4-1.4-.9-1.9-.6-.5-1.2-.7-2.1-.7-.8 0-1.6.3-2.1.7-.6.5-.9 1.2-1 1.9zm6.8 2.2H82c-.2.6-.6 1-1 1.3-.5.3-1 .5-1.7.5-.8 0-1.6-.2-2.1-.7-.6-.6-.8-1.3-.9-2.2h7.2v-.3c0-1.3-.4-2.3-1.1-3.1s-1.8-1.1-3-1.1-2.2.4-3 1.1c-.7.7-1.1 1.8-1.1 3 0 1.3.4 2.3 1.1 3.1.7.7 1.8 1.1 3 1.1 1 0 1.9-.3 2.5-.7.6-.6 1-1.2 1.2-2m11.4-7.4l-2.4 5.4H97l-2.5-5.4zm-5.5 9.8h1.1l1.5-3.3h5.8l1.5 3.3h1.1l-4.9-10.6h-1.2L89 111.5zm11.8-3.9c0 1.2.4 2.2 1.1 3 .7.7 1.8 1.1 3 1.1.7 0 1.3-.1 1.8-.4.5-.3.9-.7 1.3-1.2v1.4h1v-10.6h-1v4.1c-.5-.5-.9-.8-1.4-1.1-.6-.3-1.1-.4-1.8-.4-1.2 0-2.2.4-3 1.1s-1 1.7-1 3zm1.8-2.4c-.6.6-.8 1.3-.8 2.2 0 .9.3 1.7.8 2.2.6.6 1.3.8 2.2.8s1.7-.3 2.2-.8c.6-.5.8-1.2.8-2.1 0-.9-.3-1.7-.8-2.3-.6-.6-1.3-.8-2.2-.8s-1.6.3-2.2.8zm8.6 6.5h1v-4.5c0-.7.3-1.4.8-1.9.7-.5 1.3-.7 2.2-.7.7 0 1.4.2 1.7.6.3.4.5 1 .5 2.1v4.4h.9v-4.5c0-.7.3-1.4.8-1.9.7-.5 1.3-.7 2.2-.7.8 0 1.4.2 1.7.6.3.4.5 1 .5 2.1v4.4h1v-5c0-1-.3-1.8-.7-2.2-.5-.5-1.2-.7-2.2-.7-.7 0-1.3.1-1.9.4-.6.3-1 .7-1.4 1.2-.2-.6-.6-.9-1-1.2-.5-.3-1.1-.4-1.9-.4-.7 0-1.3.1-1.9.4-.6.3-1 .7-1.4 1.2V104h-1v7.8-.1zm15.6-.2h1v-7.8h-1v7.8zm1-9.5v-1.2h-1v1.2h1zm1.6 7c.1.9.4 1.6 1 2 .7.5 1.5.7 2.6.7 1.3 0 2.2-.2 2.9-.7.7-.4 1-1 1-1.9 0-.6-.2-1-.6-1.4-.4-.3-1-.6-1.9-.7l-2.1-.3c-.7-.2-1.1-.3-1.4-.5-.3-.2-.4-.4-.4-.7 0-.4.2-.7.6-.9.4-.3.9-.4 1.7-.4.8 0 1.4.1 1.9.4.4.3.7.7.7 1.2h1c0-.8-.3-1.4-.9-1.9-.7-.5-1.5-.7-2.6-.7-1 0-1.9.3-2.5.7-.7.4-.9.9-.9 1.7 0 .6.2 1 .6 1.4.5.3 1 .6 2 .7l2.2.4c.6.1.8.2 1.1.4.3.2.4.4.4.7 0 .6-.2.8-.7 1.1-.5.3-1.2.4-2.1.4-.8 0-1.5-.2-2-.5-.4-.3-.7-.7-.7-1.3h-.9zm8.4 0c0 .9.4 1.6 1 2 .7.5 1.5.7 2.6.7 1.3 0 2.2-.2 2.9-.7.7-.4 1-1 1-1.9 0-.6-.2-1-.6-1.4-.4-.3-1-.6-1.9-.7l-2.1-.3c-.7-.2-1.1-.3-1.4-.5-.3-.2-.4-.4-.4-.7 0-.4.2-.7.6-.9.4-.3.9-.4 1.7-.4.8 0 1.4.1 1.9.4.4.3.7.7.7 1.2h1c0-.8-.3-1.4-.9-1.9-.7-.5-1.5-.7-2.6-.7-1 0-1.9.3-2.5.7-.7.4-.9.9-.9 1.7 0 .6.2 1 .6 1.4.5.3 1 .6 2 .7l2.2.4c.6.1.9.2 1.1.4.3.2.4.4.4.7 0 .6-.2.8-.7 1.1-.5.3-1.2.4-2.1.4-.8 0-1.6-.2-2-.5-.4-.3-.7-.7-.7-1.3h-.9zm10.1-7v-1.2h-1v1.2h1zm-1 9.5h1v-7.8h-1v7.8zm4.7-6.3c-.6.6-.8 1.3-.8 2.3 0 .9.3 1.8.8 2.3.6.6 1.3.8 2.2.8.9 0 1.7-.3 2.2-.8.6-.6.8-1.3.8-2.3 0-.9-.3-1.8-.8-2.3-.6-.6-1.3-.8-2.2-.8-.9 0-1.7.3-2.2.8zm-1.9 2.4c0 1.2.4 2.2 1.1 3.1.7.7 1.8 1.1 3 1.1s2.2-.4 3-1.1c.7-.8 1.1-1.9 1.1-3.1 0-1.2-.4-2.2-1.1-3s-1.8-1.1-3-1.1-2.2.4-3 1.1c-.7.7-1.1 1.7-1.1 3zm10 4h1v-4.5c0-.7.3-1.4.8-1.9.7-.5 1.3-.7 2.2-.7.8 0 1.3.2 1.7.6.3.4.5 1 .5 2.1v4.4h1v-5c0-1-.3-1.8-.7-2.2-.5-.5-1.2-.7-2.2-.7-.7 0-1.3.1-1.9.4-.6.3-1 .7-1.4 1.2v-1.4h-1v7.7zm14-5.4c0 1.8.5 3.1 1.5 4.1.9 1 2.2 1.5 3.9 1.5 1.4 0 2.6-.4 3.5-1.1.9-.8 1.5-1.9 1.8-3.2h-1.1c-.3.9-.7 1.8-1.5 2.3-.7.6-1.6.8-2.7.8-1.3 0-2.4-.4-3.2-1.2-.8-.8-1.2-2-1.2-3.4s.4-2.5 1.2-3.4c.7-.8 1.9-1.2 3.3-1.2 1 0 1.9.3 2.5.7.7.5 1.1 1.2 1.3 2.1v.1h1.2c-.2-1.2-.7-2.1-1.6-2.8-.8-.7-2-1-3.4-1-1.8 0-3.1.5-4.1 1.5-.9 1.1-1.4 2.4-1.4 4.2zm13.6-1c-.6.6-.8 1.3-.8 2.3 0 .9.3 1.8.8 2.3.6.6 1.3.8 2.2.8s1.7-.3 2.2-.8c.6-.6.8-1.3.8-2.3 0-.9-.3-1.8-.8-2.3-.6-.6-1.3-.8-2.2-.8s-1.6.3-2.2.8zm-1.9 2.4c0 1.2.5 2.2 1.1 3.1.7.7 1.8 1.1 3 1.1s2.2-.4 3-1.1c.7-.8 1.1-1.9 1.1-3.1 0-1.2-.4-2.2-1.1-3-.7-.7-1.8-1.1-3-1.1s-2.2.4-3 1.1-1.1 1.7-1.1 3zm10.1 1c0 1 .3 1.8.7 2.2.5.5 1.2.7 2.2.7.7 0 1.3-.1 1.9-.4.6-.3 1-.7 1.4-1.2v1.5h1v-7.8h-1v4.4c0 .7-.3 1.4-.8 1.9-.7.5-1.3.7-2.2.7-.7 0-1.3-.2-1.7-.6-.3-.4-.5-1-.5-2.1v-4.4h-1v5.1zm9.4 3h1v-4.5c0-.7.3-1.4.8-1.9.7-.5 1.3-.7 2.2-.7.8 0 1.3.2 1.7.6.3.4.5 1 .5 2.1v4.4h1v-5c0-1-.3-1.8-.7-2.2-.5-.5-1.2-.7-2.2-.7-.7 0-1.3.1-1.9.4-.6.3-1 .7-1.4 1.2v-1.4h-1v7.7zm8.8-2.6c0 .9.4 1.6 1 2 .7.5 1.5.7 2.6.7 1.3 0 2.2-.3 2.9-.7.7-.4 1-1 1-1.9 0-.6-.2-1-.6-1.4-.4-.3-1-.6-1.9-.7l-2.1-.3c-.7-.2-1.1-.3-1.4-.5-.3-.2-.4-.4-.4-.7 0-.4.2-.7.6-.9.4-.3.9-.4 1.7-.4.8 0 1.4.1 1.9.4.4.3.7.7.7 1.2h1c0-.8-.3-1.4-.9-1.9-.7-.5-1.5-.7-2.6-.7-1 0-1.9.3-2.5.7-.7.4-.9.9-.9 1.7 0 .6.2 1 .6 1.4.5.3 1 .6 2 .7l2.2.4c.6.1.9.2 1.1.4.3.2.4.4.4.7 0 .6-.2.8-.7 1.1-.5.3-1.2.4-2.1.4-.8 0-1.5-.2-2-.5-.4-.3-.7-.7-.7-1.3h-.9zm16.5.1l.1-.2c-.1.1-.1.2-.1.2m-6.9-2.2h6.1c-.1-.7-.4-1.4-.9-1.9-.6-.5-1.2-.7-2.1-.7-.8 0-1.6.3-2.1.7-.6.5-.9 1.2-1 1.9zm6.9 2.2H229c-.2.6-.6 1-1 1.3-.5.3-1 .5-1.7.5-.8 0-1.6-.2-2.1-.7-.5-.6-.7-1.3-.8-2.2h7.2v-.3c0-1.3-.4-2.3-1.1-3.1s-1.8-1.1-3-1.1-2.2.4-3 1.1c-.7.7-1.1 1.8-1.1 3 0 1.3.4 2.3 1.1 3.1.7.7 1.8 1.1 3 1.1 1 0 1.9-.3 2.5-.7.5-.6.9-1.2 1.2-2m2.1 2.4h1v-10.6h-1v10.6zm4.4-9.5v-1.2h-1v1.2h1zm-1.1 9.5h1v-7.8h-1v7.8zm3.2.1h1v-4.5c0-.7.3-1.4.8-1.9.7-.5 1.3-.7 2.2-.7.8 0 1.3.2 1.7.6.3.4.5 1 .5 2.1v4.4h1v-5c0-1-.3-1.8-.7-2.2-.5-.5-1.2-.7-2.2-.7-.7 0-1.3.1-1.9.4-.6.3-1 .7-1.4 1.2v-1.4h-1v7.7zm10.9-6.3c-.6.6-.8 1.3-.8 2.2 0 .9.3 1.7.8 2.2.6.6 1.3.8 2.2.8.9 0 1.7-.3 2.2-.8.6-.6.8-1.3.8-2.2 0-.9-.3-1.7-.8-2.2-.6-.6-1.3-.8-2.2-.8-.9 0-1.6.3-2.2.8zm-1.7 2.2c0 1.2.4 2.2 1.1 3 .7.7 1.8 1.1 3 1.1.7 0 1.3-.1 1.8-.4.6-.3.9-.7 1.4-1.2v.8c0 .9-.3 1.5-.7 1.9-.6.4-1.3.6-2.4.6-.7 0-1.4-.2-1.8-.4-.5-.2-.7-.6-.7-1h-1c0 .7.4 1.3 1 1.7.7.5 1.5.7 2.5.7.7 0 1.2 0 1.8-.2.5-.1.9-.4 1.3-.7.4-.3.7-.6.7-.9.1-.4.2-.9.2-1.6h.2v-7.2h-1v1.3c-.5-.6-.9-.9-1.4-1.2-.6-.3-1.1-.4-1.8-.4-1.2 0-2.2.4-3 1.1-.9.7-1.2 1.7-1.2 3z"/></svg>