<?xml version="1.0" encoding="utf-8"?>
<!-- Generator: Adobe Illustrator 19.2.0, SVG Export Plug-In . SVG Version: 6.00 Build 0)  -->
<svg version="1.1" id="Layer_1" xmlns="http://www.w3.org/2000/svg" xmlns:xlink="http://www.w3.org/1999/xlink" x="0px" y="0px"
	 viewBox="0 0 211 45.3" style="enable-background:new 0 0 211 45.3;" xml:space="preserve">
<g>
	<path d="M31.5,35.8c-0.2-0.5-0.5-1.1-0.9-1.7c-0.4-0.6-0.8-1.2-1.3-1.9L7.1,1.1H0v42.8h6.3V9.2c0.2,0.6,0.5,1.2,0.8,1.7
		c0.2,0.5,0.6,1,0.9,1.5L30.7,44h7V1.1h-6.2V35.8z"/>
	<path d="M145,1.1L127.4,44h6.6l3.3-8.4h22.2l3.3,8.4h7L152.1,1.1H145z M139.6,29.9l9-22.7l8.8,22.7H139.6z"/>
	<path d="M204.7,28.1c-0.2,3.5-1.5,6.4-3.9,8.5c-2.5,2.2-5.7,3.3-9.6,3.3c-4.6,0-8.2-1.5-11-4.7c-2.7-3.2-4.1-7.4-4.1-12.6
		c0-5.6,1.3-9.9,4-12.9c2.6-3.1,6.4-4.6,11.2-4.6c3.6,0,6.5,0.8,8.8,2.3s3.7,3.7,4.3,6.5h6.3c-0.5-4.3-2.5-7.7-5.9-10.2
		S197,0,191.6,0c-6.8,0-12.1,2-16.1,5.9c-4,4-6,9.3-6,16c0,7.3,1.9,13,5.7,17.1c3.8,4.1,9,6.2,15.7,6.2c5.8,0,10.5-1.5,14.2-4.6
		c3.6-3.1,5.6-7.3,5.9-12.5H204.7z"/>
	<path d="M104.6,5.4c-1.1,0.2-2.2,0.4-3.2,0.8C102.5,5.8,103.6,5.6,104.6,5.4z"/>
	<path d="M100.1,6.7l0-0.1c0.5-0.2,1-0.3,1.4-0.5c1-0.4,2-0.6,3.2-0.8c0.9-0.1,1.7-0.2,2.7-0.2c3.6,0,6.5,0.8,8.8,2.3
		s3.7,3.7,4.3,6.5h6.3c-0.3-2-0.9-3.9-1.9-5.6c-1-1.8-2.4-3.3-4.1-4.6C117.4,1.2,113,0,107.6,0c-4.4,0-8.1,0.8-11.3,2.4
		c-10.1,3-18.4,6.9-25.2,11l0,0c0,0,0.1,0,0.1,0L66.1,1.1H59L41.4,44h3.8h0.1H48l0.3-0.7c2.6-4.8,11.3-18.6,32.2-29
		C74.3,21,69,30.7,69.7,44.1h5.2C73.4,17,99,7.1,100.1,6.7z M66.8,18.5l-0.7-1.7c-4.4,3.1-7.9,6.1-10.9,9l0,0l7.3-18.6l3.7,9.4
		c0,0-0.1,0-0.1,0.1L66.8,18.5c1.5-1.1,3.5-2.4,5-3.4l0,0.1C70.2,16.2,68.3,17.4,66.8,18.5z"/>
	<path d="M120.8,28.1c-0.2,3.6-1.5,6.5-4,8.7s-5.7,3.3-9.6,3.3c-4.6,0-8.2-1.6-11-4.7C93.4,32.2,92,28,92,22.8
		c0-1.6,0.1-3.1,0.4-4.6c-0.7,0.5-1.3,1-1.9,1.4c-2,2-4,5-4.4,9c0.8,4.2,2.5,7.7,5,10.5c3.8,4.1,9,6.2,15.7,6.2
		c5.8,0,10.5-1.5,14.2-4.6c3.7-3.1,5.6-7.2,5.9-12.5L120.8,28.1L120.8,28.1z"/>
</g>
</svg>
