<svg id="Layer_1" xmlns="http://www.w3.org/2000/svg" viewBox="0 0 400 120"><style>.st0{opacity:.8;fill:#fff;enable-background:new}</style><path class="st0" d="M570.5-55v239h-715V-55h715zM118.4 12.8H111v41.9c-.3-.7-.7-1.3-1-2-.5-.7-.9-1.5-1.6-2.3L81.6 12.8H73v51.6h7.4V22.6c.3.7.7 1.4.9 2 .4.7.7 1.2 1.1 1.9l27.5 38.2h8.5V12.8zm138.3 0h-8.6l-21.2 51.7h8l4-10.1h26.8l4 10.1h8.5l-21.5-51.7zm6.3 34.8l-10.6-27.5-10.9 27.5H263zm64.7-2.2h-7.5c-.3 4.4-1.9 7.8-4.9 10.4-2.9 2.7-6.8 4-11.5 4-5.5 0-9.9-2-13.3-5.8-3.3-3.8-5-8.8-5-15.2 0-6.7 1.6-11.8 4.7-15.5 3.2-3.6 7.7-5.5 13.5-5.5 4.4 0 7.9.9 10.6 2.7 2.7 1.9 4.5 4.4 5.2 7.9h7.6c-.7-5.2-3-9.4-7.2-12.4s-9.5-4.5-15.9-4.5c-8.2 0-14.7 2.4-19.4 7.2-4.7 4.7-7.2 11.2-7.2 19.3 0 8.7 2.3 15.6 6.9 20.6 4.6 4.9 11 7.4 19 7.4 7 0 12.7-1.9 17.1-5.6 4.5-3.7 6.9-8.8 7.3-15zm-101.6-17c-.4-2.7-1-4.9-2.3-7-1.2-2.1-2.8-4-4.9-5.5-4.2-3-9.5-4.5-15.9-4.5-5.1 0-10.1 1.1-14.1 2.6-12.1 4.5-21.7 8.7-29.9 13.7l-6.2-14.9h-8.6l-21.3 51.7h8c2.4-4.7 12.7-22.5 39.4-35.9-7.5 8.1-13.9 19.8-13.1 36h6.2c-1.9-32.6 30.4-45.1 30.4-45.1 2.8-1.2 6.1-1.8 8.7-1.7 4.4.1 7.9.9 10.6 2.7 2.7 1.9 4.4 4.4 5.2 7.9h7.8zm-73.3 3.3l-4.4-11.4-8.7 22.4c3.5-3.6 7.9-7.3 13.1-11zm73.7 13.7h-7.7c-.2 4.4-1.8 7.8-4.7 10.4-3 2.7-6.8 4-11.5 4-5.5 0-9.9-2-13.3-5.8-3.3-3.8-5-8.8-5-15.2 0-2 .2-3.8.5-5.5-4.3 2.9-7.1 7.8-7.6 12.6.9 5 3 9.3 6.1 12.7 4.6 4.9 10.9 7.4 19 7.4 7 0 12.7-1.9 17.1-5.6 4.4-3.7 6.8-8.8 7.1-15zM117.2 81.6h-1.3v10h1v-9l7 9h1.3v-10h-.9v9l-7.1-9zm16 6c-.2.1-.5.2-.8.3-.4.1-.9.2-1.8.4-1 .2-1.8.4-2 .6-.3.2-.5.5-.5.9s.2.7.6.9c.4.3.8.4 1.4.4.9 0 1.7-.2 2.2-.7.6-.5.9-.9.9-1.7v-1.1zm1 4.1h.4c.2 0 .3 0 .5-.1v-.9c-.1 0-.2.1-.2.1h-.2c-.2 0-.3 0-.4-.1-.1-.1-.1-.3-.1-.7v-3.4c0-.6 0-.9-.1-1.1s-.2-.5-.4-.7c-.3-.4-.7-.7-1-.7-.5-.1-.9-.2-1.7-.2-1.1 0-2 .2-2.6.7-.7.5-.9 1-.9 2h.9c0-.7.3-1 .7-1.3.5-.3 1-.5 2-.5.7 0 1.1.2 1.5.4.4.2.6.5.6.9 0 .6-.6.9-1.8 1-.4 0-.7.1-.8.1-.8.2-1.4.3-1.8.4-.4.1-.7.2-.8.4-.3.2-.6.5-.7.7-.1.3-.2.6-.2.9 0 .7.2 1.3.7 1.7.5.5 1.1.7 2 .7.7 0 1.3-.1 2-.4.5-.2.9-.6 1.3-.9 0 .5.1.7.3.9.4 0 .6.1.8.1zm5.3-7.6h-1.7v-2.2h-.9v2.2h-1.2v.8h1.2v4.7c0 .7.2 1.2.4 1.5.3.3.7.5 1.1.5h.6c.2 0 .4 0 .7-.1v-.8c-.2.1-.4.1-.5.1h-.4c-.4 0-.7-.1-.7-.2-.1-.1-.2-.5-.2-.9V85h1.7l-.1-.9zm1.3.2v7.4h.9v-7.4h-.9zm1-2.7h-.9v1.1h.9v-1.1zm3.3 4.1c-.6.6-.8 1.2-.8 2.2 0 .9.3 1.7.8 2.2.6.6 1.2.8 2.1.8.9 0 1.6-.3 2.1-.8.6-.6.8-1.2.8-2.2 0-.9-.3-1.7-.8-2.2s-1.1-.8-2-.8-1.6.4-2.2.8zm-1.8 2.3c0 1.1.4 2.1 1 2.9.7.7 1.7 1 2.8 1s2.1-.4 2.8-1c.7-.8 1-1.8 1-2.9s-.4-2.1-1-2.8c-.7-.7-1.7-1-2.8-1s-2.1.4-2.8 1c-.6.6-1 1.7-1 2.8zm15.6-.5v4.2h.9V87c0-.9-.3-1.7-.7-2.1-.5-.5-1.1-.7-2.1-.7-.7 0-1.2.1-1.8.4s-.9.7-1.3 1.1v-1.3h-.9v7.5h.9v-4.3c0-.7.3-1.3.8-1.8.7-.5 1.2-.7 2.1-.7.7 0 1.3.2 1.6.6.3.2.5.9.5 1.8zm8.7 3.1c0 .5.1.7.3.9.2.2.4.3.7.3h.4c.2 0 .3 0 .5-.1v-.9c-.1 0-.1.1-.1.1h-.2c-.2 0-.3 0-.4-.1-.1-.1-.1-.3-.1-.7v-3.4c0-.6 0-.9-.1-1.1s-.2-.5-.4-.7c-.3-.4-.7-.7-1-.7-.5-.1-.9-.2-1.7-.2-1.1 0-2 .2-2.6.7-.7.5-.9 1-.9 2h.9c0-.7.3-1 .7-1.3s1-.5 2-.5c.7 0 1.1.2 1.5.4s.6.5.6.9c0 .6-.6.9-1.8 1-.4 0-.7.1-.8.1-.8.2-1.4.3-1.8.4-.4.1-.7.2-.8.4-.3.2-.6.5-.7.7-.1.3-.2.6-.2.9 0 .7.3 1.2.7 1.7.5.5 1.1.7 2 .7.7 0 1.3-.2 1.9-.4.5-.4 1-.7 1.4-1.1zm-3.1.4c.9 0 1.7-.2 2.2-.7.6-.5.9-.9.9-1.7v-1c-.2.1-.5.2-.8.3-.4.1-.9.2-1.8.4-1 .2-1.8.4-2 .6s-.5.5-.5.9.2.7.6.9c.4.2.8.3 1.4.3zm7.4-9.4h-.9v10h.9v-10zm8.7 5.9h4.6l-2.3-5.1-2.3 5.1zm5.1 1.1l1.4 3.1h1l-4.6-10h-1.1l-4.7 10h1l1.4-3.1h5.6zm9.1 2.6c.7-.4.9-.9.9-1.8 0-.6-.2-.9-.6-1.3-.4-.3-.9-.6-1.8-.7l-2-.3c-.7-.2-1-.3-1.3-.5s-.4-.4-.4-.7c0-.4.2-.7.6-.9.4-.3.9-.4 1.6-.4.8 0 1.3.1 1.8.4.4.3.7.7.7 1.1h.9c0-.8-.3-1.3-.9-1.8-.7-.5-1.4-.7-2.5-.7-.9 0-1.8.3-2.4.7-.7.4-.9.9-.9 1.6 0 .6.2.9.6 1.3.5.3.9.6 1.9.7l2.1.4c.6.1.9.2 1 .4.3.2.4.4.4.7 0 .6-.2.8-.7 1s-1.1.4-2 .4c-.8 0-1.5-.2-1.9-.5s-.7-.7-.7-1.2h-.9c0 .9.4 1.5.9 1.9.7.5 1.4.7 2.5.7 1.6.2 2.6 0 3.1-.5zm7.8 0c.7-.4.9-.9.9-1.8 0-.6-.2-.9-.6-1.3-.4-.3-.9-.6-1.8-.7l-2-.3c-.7-.2-1-.3-1.3-.5s-.4-.4-.4-.7c0-.4.2-.7.6-.9.4-.3.9-.4 1.6-.4.8 0 1.3.1 1.8.4.4.3.7.7.7 1.1h.9c0-.8-.3-1.3-.9-1.8-.7-.5-1.4-.7-2.5-.7-.9 0-1.8.3-2.4.7-.7.4-.9.9-.9 1.6 0 .6.2.9.6 1.3.5.3.9.6 1.9.7l2.1.4c.6.1.9.2 1 .4.3.2.4.4.4.7 0 .6-.2.8-.7 1-.4.3-1 .4-1.9.4-.8 0-1.4-.2-1.9-.5-.4-.3-.7-.7-.7-1.2h-.9c.1.9.5 1.5.9 1.9.7.5 1.4.7 2.5.7 1.5.2 2.4 0 3-.5zm2.1-3.2c0 1.1.4 2.1 1 2.9.7.7 1.7 1 2.8 1s2.1-.4 2.8-1c.7-.8 1-1.8 1-2.9s-.4-2.1-1-2.8c-.7-.7-1.7-1-2.8-1s-2.1.4-2.8 1c-.6.6-1 1.7-1 2.8zm1.7-2.3c-.6.6-.8 1.2-.8 2.2 0 .9.3 1.7.8 2.2.6.6 1.2.8 2.1.8.9 0 1.6-.3 2.1-.8.6-.6.8-1.2.8-2.2 0-.9-.3-1.7-.8-2.2-.6-.6-1.2-.8-2.1-.8-.9.1-1.5.4-2.1.8zm7.4 2.2c0 1.2.4 2.2 1 2.9.7.8 1.7 1 2.8 1 .9 0 1.8-.3 2.5-.8.7-.6 1-1.2 1.1-2.1h-.9c-.2.7-.5 1.1-.9 1.4-.6.4-1 .6-1.8.6-.9 0-1.6-.3-2.1-.8-.6-.6-.8-1.3-.8-2.2s.3-1.7.8-2.2c.6-.6 1.2-.8 2.1-.8.7 0 1.2.2 1.7.5s.8.7.9 1.3h.9c-.1-.8-.6-1.4-1.1-2-.7-.5-1.4-.7-2.4-.7-1.1 0-2.1.4-2.8 1-.7 1-1 1.8-1 2.9zm9 3.8h.9v-7.4h-.9v7.4zm1-9v-1.1h-.9v1.1h.9zm7.9 4.9c-.2.1-.5.2-.8.3-.4.1-.9.2-1.8.4-1 .2-1.8.4-2 .6s-.5.5-.5.9.2.7.6.9c.4.3.8.4 1.4.4.9 0 1.7-.2 2.2-.7.6-.5.9-.9.9-1.7v-1.1zm-5.7-.9h.9c0-.7.3-1 .7-1.3s1-.5 2-.5c.7 0 1.1.2 1.5.4.4.2.6.5.6.9 0 .6-.6.9-1.8 1-.4 0-.7.1-.8.1-.8.2-1.4.3-1.8.4-.4.1-.7.2-.8.4-.3.2-.6.5-.7.7-.1.3-.2.6-.2.9 0 .7.2 1.3.7 1.7.5.5 1.1.7 2 .7.7 0 1.3-.2 1.9-.4.5-.2.9-.6 1.3-.9 0 .5.1.7.3.9.2.2.4.3.7.3h.4c.2 0 .3 0 .5-.1V91c-.1 0-.1.1-.1.1h-.2c-.2 0-.3 0-.4-.1-.1-.1-.1-.3-.1-.7v-3.4c0-.6 0-.9-.1-1.1s-.2-.5-.4-.7c-.3-.4-.7-.6-1-.7-.5-.1-.9-.2-1.7-.2-1.1 0-2 .2-2.6.7-.4.3-.7.8-.8 1.8zm12-2.6h-1.7v-2.2h-.9v2.2h-1.2v.8h1.2v4.7c0 .7.2 1.2.4 1.5.3.3.7.5 1.1.5h.6c.2 0 .4 0 .7-.1v-.8c-.2.1-.4.1-.5.1h-.4c-.4 0-.7-.1-.7-.2-.1-.1-.2-.5-.2-.9V85h1.7l-.1-.9zm1.2 7.6h.9v-7.4h-.9v7.4zm.9-10.1h-.9v1.1h.9v-1.1zm3.5 8.6c.6.6 1.2.8 2.1.8s1.6-.3 2.1-.8c.6-.6.8-1.2.8-2.2 0-.9-.3-1.7-.8-2.2-.6-.6-1.2-.8-2.1-.8s-1.6.3-2.1.8c-.6.6-.8 1.2-.8 2.2-.1.9.2 1.7.8 2.2zm4.9.7c.7-.8 1-1.8 1-2.9s-.4-2.1-1-2.8c-.7-.7-1.7-1-2.8-1s-2.1.4-2.8 1c-.7.7-1 1.7-1 2.8s.4 2.1 1 2.9c.7.7 1.7 1 2.8 1 1.1.1 2.2-.3 2.8-1zm8.3-5.3c.3.4.5.9.5 2v4.2h.9v-4.7c0-.9-.3-1.7-.7-2.1-.5-.5-1.1-.7-2.1-.7-.7 0-1.2.1-1.8.4s-.9.7-1.3 1.1v-1.3h-.9V92h.9v-4.3c0-.7.3-1.3.8-1.8.7-.5 1.2-.7 2.1-.7.8-.1 1.2.1 1.6.4zm8.4-.5v6.6h1v-6.6h1.7v-.8h-1.7v-.7c0-.5.1-.8.2-.9.2-.1.4-.2.7-.2h.4c.1 0 .3 0 .5.1v-.9c-.3 0-.5-.1-.7-.1-.2-.1-.4-.1-.6-.1-.7 0-.9.2-1.2.5-.3.3-.4.8-.4 1.7v.7h-1.2v.8l1.3-.1zm5.1 5.1c.6.6 1.2.8 2.1.8s1.6-.3 2.1-.8c.6-.6.8-1.2.8-2.2 0-.9-.3-1.7-.8-2.2-.6-.6-1.2-.8-2.1-.8s-1.6.3-2.1.8c-.6.6-.8 1.2-.8 2.2-.1.9.2 1.7.8 2.2zm4.9.7c.7-.8 1-1.8 1-2.9s-.4-2.1-1-2.8c-.7-.7-1.7-1-2.8-1-1.1 0-2.1.4-2.8 1-.7.7-1 1.7-1 2.8s.4 2.1 1 2.9c.7.7 1.7 1 2.8 1 1.1.1 2.2-.3 2.8-1zm7-5.5v-.9c-.2-.1-.4-.2-.6-.2-.1-.1-.3-.1-.5-.1-.6 0-.9.1-1.3.4s-.7.7-.9 1v-1.2h-.9v7.4h.9v-4.6c.2-.7.6-1 .9-1.4.4-.3.8-.5 1.4-.5h.5c.2 0 .3 0 .5.1zm-192 17.8c0 1.7.5 2.9 1.4 3.9.9.9 2.1 1.4 3.7 1.4 1.3 0 2.5-.3 3.3-1 .9-.8 1.4-1.8 1.7-3h-1c-.3.9-.7 1.7-1.4 2.2-.7.6-1.5.8-2.6.8-1.2 0-2.3-.4-3-1.1-.8-.8-1.1-1.9-1.1-3.2 0-1.3.4-2.4 1.1-3.2.7-.8 1.8-1.1 3.1-1.1.9 0 1.8.3 2.4.7.7.5 1 1.1 1.2 2v.1h1.1c-.2-1.1-.7-2-1.5-2.7s-1.9-.9-3.2-.9c-1.7 0-2.9.5-3.9 1.4-.8.7-1.3 1.9-1.3 3.7zm13-1c-.6.6-.8 1.2-.8 2.2 0 .9.3 1.7.8 2.2.6.6 1.2.8 2.1.8s1.6-.3 2.1-.8c.6-.6.8-1.2.8-2.2 0-.9-.3-1.7-.8-2.2-.6-.6-1.2-.8-2.1-.8-.9 0-1.6.3-2.1.8zm-1.8 2.3c0 1.1.4 2.1 1 2.9.7.7 1.7 1 2.8 1s2.1-.4 2.8-1c.7-.8 1-1.8 1-2.9s-.4-2.1-1-2.8c-.7-.8-1.7-1-2.8-1s-2.1.4-2.8 1c-.7.6-1 1.5-1 2.8zm9.6 3.7h.9v-10h-.9v10zm3 0h.9v-10h-.9v10zm3.8-4.4h5.8c-.1-.7-.4-1.3-.9-1.8-.6-.5-1.1-.7-2-.7-.8 0-1.5.3-2 .7-.6.5-.8 1.2-.9 1.8zm6.4 2.1h-1c-.2.6-.6.9-.9 1.2-.5.3-.9.5-1.6.5-.8 0-1.5-.2-2-.7-.6-.6-.8-1.2-.9-2.1h6.8v-.3c0-1.2-.4-2.2-1-2.9-.7-.7-1.7-1-2.8-1s-2.1.4-2.8 1c-.8.7-1 1.7-1 2.8 0 1.2.4 2.2 1 2.9.7.8 1.7 1 2.8 1 .9 0 1.8-.3 2.4-.7.4-.4.8-.9 1-1.7m0 0l.1-.2c0 .1-.1.2-.1.2m1.6-1.5c0 1.1.4 2.1 1 2.8.7.7 1.7 1 2.8 1 .7 0 1.2-.1 1.7-.4.6-.3.9-.7 1.3-1.1v.8c0 .9-.3 1.4-.7 1.8-.6.4-1.2.6-2.3.6-.7 0-1.3-.2-1.7-.4-.5-.2-.7-.6-.7-.9h-.9c0 .7.4 1.2.9 1.6.7.5 1.4.7 2.4.7.7 0 1.2 0 1.8-.2.5-.1.9-.4 1.2-.7s.7-.6.7-.9c.1-.4.2-.9.2-1.5h.1v-6.8h-.9v1.2c-.5-.6-.9-.9-1.3-1.1-.6-.3-1-.4-1.7-.4-1.1 0-2.1.4-2.8 1-.8.7-1.1 1.7-1.1 2.9zm1.7-2.1c-.6.6-.8 1.2-.8 2.1s.3 1.6.8 2.1c.6.6 1.2.8 2.1.8s1.6-.3 2.1-.8c.6-.6.8-1.2.8-2.1s-.3-1.6-.8-2.1c-.6-.6-1.2-.8-2.1-.8s-1.5.3-2.1.8zm15.2 3.6l.1-.2c0 .1 0 .2-.1.2m-6.5-2.1h5.8c-.1-.7-.4-1.3-.9-1.8-.6-.5-1.1-.7-2-.7-.8 0-1.5.3-2 .7-.5.5-.8 1.2-.9 1.8zm6.5 2.1h-1c-.2.6-.6.9-.9 1.2-.5.3-.9.5-1.6.5-.8 0-1.5-.2-2-.7-.6-.6-.8-1.2-.9-2.1h6.8v-.3c0-1.2-.4-2.2-1-2.9-.7-.8-1.7-1-2.8-1s-2.1.4-2.8 1c-.7.7-1 1.7-1 2.8 0 1.2.4 2.2 1 2.9.7.7 1.7 1 2.8 1 .9 0 1.8-.3 2.4-.7.4-.4.8-.9 1-1.7m10.8-7l-2.3 5.1h4.6l-2.3-5.1zm-5.2 9.3h1l1.4-3.1h5.5l1.4 3.1h1l-4.6-10h-1.1l-4.6 10zm11.1-3.7c0 1.1.4 2.1 1 2.8.7.7 1.7 1 2.8 1 .7 0 1.2-.1 1.7-.4s.9-.7 1.2-1.1v1.3h.9v-10h-.9v3.9c-.5-.5-.9-.8-1.3-1-.6-.3-1-.4-1.7-.4-1.1 0-2.1.4-2.8 1-.7.7-.9 1.6-.9 2.9zm1.7-2.3c-.6.6-.8 1.2-.8 2.1s.3 1.6.8 2.1c.6.6 1.2.8 2.1.8.9 0 1.6-.3 2.1-.8.6-.5.8-1.1.8-2s-.3-1.6-.8-2.2c-.6-.6-1.2-.8-2.1-.8-.8 0-1.5.3-2.1.8zm8.2 6.2h.9v-4.3c0-.7.3-1.3.8-1.8.7-.5 1.2-.7 2.1-.7.7 0 1.3.2 1.6.6s.5.9.5 2v4.2h.9v-4.3c0-.7.3-1.3.8-1.8.7-.5 1.2-.7 2.1-.7.8 0 1.3.2 1.6.6s.5.9.5 2v4.2h.9v-4.7c0-.9-.3-1.7-.7-2.1-.5-.5-1.1-.7-2.1-.7-.7 0-1.2.1-1.8.4s-.9.7-1.3 1.1c-.2-.6-.6-.9-.9-1.1-.5-.3-1-.4-1.8-.4-.7 0-1.2.1-1.8.4s-.9.7-1.3 1.1v-1.3h-.9l-.1 7.3zm14.7-.2h.9v-7.4h-.9v7.4zm1-9V98h-1v1.1l1 .1zm1.5 6.6c.1.9.4 1.5.9 1.9.7.5 1.4.7 2.5.7 1.2 0 2.1-.2 2.7-.7.7-.4.9-.9.9-1.8 0-.6-.2-.9-.6-1.3-.4-.3-.9-.6-1.8-.7l-2-.3c-.7-.2-1-.3-1.3-.5s-.4-.4-.4-.7c0-.4.2-.7.6-.9.4-.3.9-.4 1.6-.4s1.3.1 1.8.4c.4.3.7.7.7 1.1h.9c0-.8-.3-1.3-.9-1.8-.7-.5-1.4-.7-2.5-.7-.9 0-1.8.3-2.4.7-.7.4-.9.9-.9 1.6 0 .6.2.9.6 1.3.5.3.9.6 1.9.7l2.1.4c.6.1.8.2 1 .4.3.2.4.4.4.7 0 .6-.2.8-.7 1s-1.1.4-2 .4c-.8 0-1.4-.2-1.9-.5-.4-.3-.7-.7-.7-1.2l-.5.2zm8 0c0 .9.4 1.5.9 1.9.7.5 1.4.7 2.5.7 1.2 0 2.1-.2 2.7-.7.7-.4.9-.9.9-1.8 0-.6-.2-.9-.6-1.3-.4-.3-.9-.6-1.8-.7l-2-.3c-.7-.2-1-.3-1.3-.5s-.4-.4-.4-.7c0-.4.2-.7.6-.9.4-.3.9-.4 1.6-.4s1.3.1 1.8.4c.4.3.7.7.7 1.1h.9c0-.8-.3-1.3-.9-1.8-.7-.5-1.4-.7-2.5-.7-.9 0-1.8.3-2.4.7-.7.4-.9.9-.9 1.6 0 .6.2.9.6 1.3.5.3.9.6 1.9.7l2.1.4c.6.1.9.2 1 .4.3.2.4.4.4.7 0 .6-.2.8-.7 1s-1.1.4-2 .4c-.8 0-1.5-.2-1.9-.5s-.7-.7-.7-1.2l-.5.2zm9.5-6.6V98h-.9v1.1l.9.1zm-.9 9h.9v-7.4h-.9v7.4zm4.4-6c-.6.6-.8 1.2-.8 2.2 0 .9.3 1.7.8 2.2.6.6 1.2.8 2.1.8s1.6-.3 2.1-.8c.6-.6.8-1.2.8-2.2 0-.9-.3-1.7-.8-2.2-.6-.6-1.2-.8-2.1-.8-.8 0-1.6.3-2.1.8zm-1.8 2.3c0 1.1.4 2.1 1 2.9.7.7 1.7 1 2.8 1s2.1-.4 2.8-1c.7-.8 1-1.8 1-2.9s-.4-2.1-1-2.8c-.7-.8-1.7-1-2.8-1s-2.1.4-2.8 1c-.6.6-1 1.5-1 2.8zm9.5 3.8h.9V104c0-.7.3-1.3.8-1.8.7-.5 1.2-.7 2.1-.7.8 0 1.2.2 1.6.6.3.4.5.9.5 2v4.2h.9v-4.7c0-.9-.3-1.7-.7-2.1-.5-.5-1.1-.7-2.1-.7-.7 0-1.2.1-1.8.4s-.9.7-1.3 1.1V101h-.9v7.3zm13.3-5.1c0 1.7.5 2.9 1.4 3.9.9.9 2.1 1.4 3.7 1.4 1.3 0 2.5-.4 3.3-1 .9-.8 1.4-1.8 1.7-3h-1c-.3.9-.7 1.7-1.4 2.2-.7.6-1.5.8-2.6.8-1.2 0-2.3-.4-3-1.1-.8-.8-1.1-1.9-1.1-3.2 0-1.3.4-2.4 1.1-3.2.7-.8 1.8-1.1 3.1-1.1.9 0 1.8.3 2.4.7.7.5 1 1.1 1.2 2v.1h1.1c-.2-1.1-.7-2-1.5-2.7s-1.9-.9-3.2-.9c-1.7 0-2.9.5-3.9 1.4-.9.7-1.3 1.9-1.3 3.7zm12.8-1c-.6.6-.8 1.2-.8 2.2 0 .9.3 1.7.8 2.2.6.6 1.2.8 2.1.8.9 0 1.6-.3 2.1-.8.6-.6.8-1.2.8-2.2 0-.9-.3-1.7-.8-2.2-.6-.6-1.2-.8-2.1-.8-.8 0-1.5.3-2.1.8zm-1.8 2.3c0 1.1.5 2.1 1 2.9.7.7 1.7 1 2.8 1s2.1-.4 2.8-1c.7-.8 1-1.8 1-2.9s-.4-2.1-1-2.8c-.7-.7-1.7-1-2.8-1s-2.1.4-2.8 1c-.7.6-1 1.5-1 2.8zm9.6.9c0 .9.3 1.7.7 2.1.5.5 1.1.7 2.1.7.7 0 1.2-.1 1.8-.4s.9-.7 1.3-1.1v1.4h.9v-7.4h-.9v4.2c0 .7-.3 1.3-.8 1.8-.7.5-1.2.7-2.1.7-.7 0-1.2-.2-1.6-.6-.3-.4-.5-.9-.5-2v-4.2h-.9v4.8zm8.9 2.9h.9V104c0-.7.3-1.3.8-1.8.7-.5 1.2-.7 2.1-.7.8 0 1.2.2 1.6.6.3.4.5.9.5 2v4.2h.9v-4.7c0-.9-.3-1.7-.7-2.1-.5-.5-1.1-.7-2.1-.7-.7 0-1.2.1-1.8.4-.6.3-.9.7-1.3 1.1V101h-.9v7.3zm8.3-2.5c0 .9.4 1.5.9 1.9.7.5 1.4.7 2.5.7 1.2 0 2.1-.3 2.7-.7.7-.4.9-.9.9-1.8 0-.6-.2-.9-.6-1.3-.4-.3-.9-.6-1.8-.7l-2-.3c-.7-.2-1-.3-1.3-.5s-.4-.4-.4-.7c0-.4.2-.7.6-.9.4-.3.9-.4 1.6-.4.8 0 1.3.1 1.8.4.4.3.7.7.7 1.1h.9c0-.8-.3-1.3-.9-1.8-.7-.5-1.4-.7-2.5-.7-.9 0-1.8.3-2.4.7-.7.4-.9.9-.9 1.6 0 .6.2.9.6 1.3.5.3.9.6 1.9.7l2.1.4c.6.1.9.2 1 .4.3.2.4.4.4.7 0 .6-.2.8-.7 1-.5.3-1.1.4-2 .4-.8 0-1.4-.2-1.9-.5-.4-.3-.7-.7-.7-1.2l-.5.2zm15.6.1l.1-.2c-.1.1-.1.2-.1.2m-6.5-2.1h5.8c-.1-.7-.4-1.3-.9-1.8-.6-.5-1.1-.7-2-.7-.8 0-1.5.3-2 .7-.5.5-.8 1.2-.9 1.8zm6.5 2.1h-1.1c-.2.6-.6.9-.9 1.2-.5.3-.9.5-1.6.5-.8 0-1.5-.2-2-.7-.5-.6-.7-1.2-.8-2.1h6.8v-.3c0-1.2-.4-2.2-1-2.9-.7-.8-1.7-1-2.8-1s-2.1.4-2.8 1c-.7.7-1 1.7-1 2.8 0 1.2.4 2.2 1 2.9.7.7 1.7 1 2.8 1 .9 0 1.8-.3 2.4-.7.4-.4.8-.9 1-1.7m2 2.3h.9v-10h-.9v10zm4.2-9V98h-.9v1.1l.9.1zm-1 9h.9v-7.4h-.9v7.4zm3 .1h.9V104c0-.7.3-1.3.8-1.8.7-.5 1.2-.7 2.1-.7.8 0 1.2.2 1.6.6.3.4.5.9.5 2v4.2h.9v-4.7c0-.9-.3-1.7-.7-2.1-.5-.5-1.1-.7-2.1-.7-.7 0-1.2.1-1.8.4-.6.3-.9.7-1.3 1.1V101h-.9v7.3zm10.3-6c-.6.6-.8 1.2-.8 2.1s.3 1.6.8 2.1c.6.6 1.2.8 2.1.8s1.6-.3 2.1-.8c.6-.6.8-1.2.8-2.1s-.3-1.6-.8-2.1c-.6-.6-1.2-.8-2.1-.8s-1.5.3-2.1.8zm-1.6 2.1c0 1.1.4 2.1 1 2.8.7.7 1.7 1 2.8 1 .7 0 1.2-.1 1.7-.4.6-.3.9-.7 1.3-1.1v.8c0 .9-.3 1.4-.7 1.8-.6.4-1.2.6-2.3.6-.7 0-1.3-.2-1.7-.4-.5-.2-.7-.6-.7-.9h-.9c0 .7.4 1.2.9 1.6.7.5 1.4.7 2.4.7.7 0 1.1 0 1.7-.2.5-.1.9-.4 1.2-.7.4-.3.7-.6.7-.9.1-.4.2-.9.2-1.5h.2v-6.8h-.9v1.2c-.5-.6-.9-.9-1.3-1.1-.6-.3-1-.4-1.7-.4-1.1 0-2.1.4-2.8 1-.8.7-1.1 1.7-1.1 2.9z"/></svg>