<svg data-name="Layer 1" xmlns="http://www.w3.org/2000/svg" viewBox="0 0 222.5 54.5"><title>NACAC_knockout</title><path d="M61.935 30.4a82.198 82.198 0 0 1 10.961-9.142l-3.68-9.451z" fill="#fff"/><path d="M0 0v54.5h222.5V0H0zm44.31 48.519H37.31L14.64 16.956a17.142 17.142 0 0 1-.947-1.513 19.928 19.928 0 0 1-.82-1.655v34.73H6.74V5.667h7.069l22.186 31.126a30.85 30.85 0 0 1 1.287 1.922 11.467 11.467 0 0 1 .877 1.687V5.667h6.15v42.852zm37.344 0h-5.19a39.556 39.556 0 0 1 10.842-29.78C65.252 29.827 56.693 44.564 54.725 48.484l-.014.035h-6.68l17.64-42.852H72.8l5.096 12.334a109.695 109.695 0 0 1 25.32-11.073 24.643 24.643 0 0 1 11.114-2.36q8.058 0 13.211 3.747a14.484 14.484 0 0 1 4.118 4.56 15.225 15.225 0 0 1 1.836 5.678h-6.325a10.01 10.01 0 0 0-4.294-6.522 15.436 15.436 0 0 0-8.803-2.293 19.868 19.868 0 0 0-2.685.192 32.042 32.042 0 0 0-3.156.755c-.47.138-.932.302-1.395.46l.025.08c-1.116.417-26.752 10.316-25.207 37.294zm46.239-3.449q-5.495 4.638-14.21 4.642-10.025 0-15.715-6.169a20.98 20.98 0 0 1-5.047-10.475 15.242 15.242 0 0 1 4.438-8.998 25.765 25.765 0 0 1 1.892-1.432 27.635 27.635 0 0 0-.37 4.56q0 7.854 4.157 12.596a15.316 15.316 0 0 0 20.534 1.471 11.79 11.79 0 0 0 3.982-8.658h6.258a16.733 16.733 0 0 1-5.92 12.463zm41.74 3.449l-3.297-8.41h-22.179l-3.317 8.41h-6.677l17.633-42.852h7.139l17.7 42.852h-7.002zm42.132-3.449q-5.498 4.638-14.204 4.642-10.028 0-15.725-6.169-5.678-6.164-5.688-17.076 0-10.062 5.969-15.984 5.957-5.913 16.086-5.915 8.067 0 13.212 3.747a14.355 14.355 0 0 1 5.938 10.238h-6.316a10.019 10.019 0 0 0-4.288-6.525 15.47 15.47 0 0 0-8.803-2.29q-7.223 0-11.207 4.574-3.989 4.57-3.977 12.885 0 7.855 4.142 12.593a15.308 15.308 0 0 0 20.537 1.475 11.803 11.803 0 0 0 3.985-8.658h6.26a16.735 16.735 0 0 1-5.92 12.463z" fill="#fff"/><path fill="#fff" d="M146.361 34.479h17.802l-8.806-22.672-8.996 22.672z"/></svg>