<svg data-name="Layer 1" xmlns="http://www.w3.org/2000/svg" viewBox="0 0 288 126"><title>NACAC_full_KO</title><path d="M294.887-5.787V135.25H-4V-5.787h298.887zM58.953 12.519h-7.846v44.273a15.964 15.964 0 0 0-1.12-2.148 28.916 28.916 0 0 0-1.682-2.429l-28.3-39.696h-9.06v54.547h7.845V22.794a15.19 15.19 0 0 0 1.027 2.148 13.822 13.822 0 0 0 1.215 1.961L49.986 67.16h8.967V12.52zm145.988 0h-9.06L173.464 67.16h8.5l4.204-10.741h28.3l4.203 10.741h8.967zm6.725 36.707l-11.208-28.954-11.489 28.955h22.697zm68.277-2.335h-7.94a14.977 14.977 0 0 1-5.23 11.022c-3.082 2.802-7.192 4.203-12.142 4.203a17.832 17.832 0 0 1-14.01-6.071c-3.55-4.016-5.324-9.34-5.324-16.065 0-7.099 1.681-12.516 5.044-16.44 3.362-3.83 8.126-5.79 14.29-5.79 4.577 0 8.313.934 11.209 2.895a12.7 12.7 0 0 1 5.51 8.313h8.033a18.102 18.102 0 0 0-7.565-13.076q-6.585-4.764-16.813-4.764c-8.686 0-15.505 2.522-20.548 7.566s-7.566 11.768-7.566 20.361c0 9.247 2.428 16.533 7.285 21.763s11.582 7.846 20.082 7.846c7.379 0 13.45-1.962 18.12-5.884s7.192-9.247 7.565-15.879zm-107.32-17.84a18.612 18.612 0 0 0-2.428-7.378 18.15 18.15 0 0 0-5.23-5.791q-6.585-4.764-16.813-4.764a44.766 44.766 0 0 0-14.85 2.709c-12.797 4.67-22.884 9.153-31.57 14.477l-6.539-15.691h-9.06L63.623 67.16h8.5c2.522-5.044 13.45-23.818 41.564-37.921a50.597 50.597 0 0 0-13.824 38.014h6.632c-1.962-34.372 32.13-47.635 32.13-47.635a21.993 21.993 0 0 1 9.247-1.775c4.576.094 8.312 1.028 11.208 2.896a13.042 13.042 0 0 1 5.51 8.313h8.033zm-77.336 3.363l-4.67-12.049L81.37 44.09a102.74 102.74 0 0 1 13.917-11.675zm77.804 14.477h-8.126a14.81 14.81 0 0 1-5.044 11.022 17.62 17.62 0 0 1-12.142 4.203 17.832 17.832 0 0 1-14.01-6.071c-3.55-4.016-5.324-9.34-5.324-16.065a37.294 37.294 0 0 1 .467-5.791 19.148 19.148 0 0 0-8.033 13.263 26.773 26.773 0 0 0 6.445 13.356c4.857 5.23 11.489 7.846 20.082 7.846 7.378 0 13.45-1.961 18.12-5.884s7.191-9.247 7.565-15.879zM57.645 85.093h-1.4V95.74h1.12v-9.527l7.379 9.527h1.401V85.093h-1.027v9.527zm16.906 6.445a4.346 4.346 0 0 1-.84.28c-.374.093-1.028.187-1.868.373a7.203 7.203 0 0 0-2.148.56 1.03 1.03 0 0 0-.467.934 1.172 1.172 0 0 0 .56 1.028 2.37 2.37 0 0 0 1.494.373 3.646 3.646 0 0 0 2.335-.654 2.257 2.257 0 0 0 .934-1.774v-1.12zm1.121 4.296h.374a.842.842 0 0 0 .467-.093v-.934a.326.326 0 0 0-.187.093h-.187a.45.45 0 0 1-.373-.093 1.031 1.031 0 0 1-.094-.654v-3.55a4.215 4.215 0 0 0-.093-1.213 2.34 2.34 0 0 0-.374-.654 1.859 1.859 0 0 0-1.12-.748 8.595 8.595 0 0 0-1.775-.186 4.473 4.473 0 0 0-2.709.653 2.604 2.604 0 0 0-1.027 2.055H69.6a1.537 1.537 0 0 1 .747-1.401 3.925 3.925 0 0 1 2.055-.467 3.612 3.612 0 0 1 1.588.374.938.938 0 0 1 .56.934c0 .56-.56.934-1.868 1.12-.374 0-.654.094-.84.094-.841.187-1.495.28-1.869.373a1.76 1.76 0 0 0-.84.374 1.662 1.662 0 0 0-.654.747 2.764 2.764 0 0 0-.187.934 1.988 1.988 0 0 0 .747 1.775 2.965 2.965 0 0 0 2.149.654 5.026 5.026 0 0 0 2.055-.374 4.473 4.473 0 0 0 1.4-1.027 1.24 1.24 0 0 0 .28.934.92.92 0 0 0 .748.28zm5.604-8.032h-1.774v-2.335h-1.028v2.335h-1.307v.84h1.307v5.044a3.02 3.02 0 0 0 .374 1.588 1.614 1.614 0 0 0 1.214.467h.56a1.823 1.823 0 0 0 .654-.093v-.841a1.016 1.016 0 0 1-.467.093h-.373a1.207 1.207 0 0 1-.748-.187 1.903 1.903 0 0 1-.186-1.027v-5.044h1.774v-.84zm1.308.186v7.846h1.027v-7.846h-1.027zm1.027-2.895h-1.027v1.214h1.027v-1.214zm3.55 4.483a3.108 3.108 0 0 0-.841 2.335 3.256 3.256 0 0 0 .84 2.335 3.41 3.41 0 0 0 4.484 0 3.108 3.108 0 0 0 .84-2.335 3.256 3.256 0 0 0-.84-2.335 3.41 3.41 0 0 0-4.483 0zm-1.868 2.335a4.474 4.474 0 0 0 1.12 3.083 4.546 4.546 0 0 0 5.978 0 4.474 4.474 0 0 0 1.121-3.083 4.113 4.113 0 1 0-8.22 0zm16.345-.467v4.39h1.028V90.79a2.642 2.642 0 0 0-2.99-2.988 4.182 4.182 0 0 0-1.867.373 3.492 3.492 0 0 0-1.401 1.214v-1.4H95.38v7.939h1.027v-4.484a2.351 2.351 0 0 1 .841-1.868 3.596 3.596 0 0 1 2.242-.747 2.143 2.143 0 0 1 1.681.56 3.476 3.476 0 0 1 .467 2.055zm9.247 3.176a1.24 1.24 0 0 0 .28.934.92.92 0 0 0 .747.28h.374a.842.842 0 0 0 .467-.093v-.934a.092.092 0 0 0-.094.093h-.186a.45.45 0 0 1-.374-.093 1.032 1.032 0 0 1-.093-.654v-3.55a4.213 4.213 0 0 0-.094-1.214 2.341 2.341 0 0 0-.373-.653 1.86 1.86 0 0 0-1.121-.748 8.599 8.599 0 0 0-1.775-.186 4.473 4.473 0 0 0-2.709.653 2.604 2.604 0 0 0-1.027 2.055h1.027a1.536 1.536 0 0 1 .748-1.4 3.925 3.925 0 0 1 2.055-.468 3.612 3.612 0 0 1 1.587.374.938.938 0 0 1 .56.934c0 .56-.56.934-1.868 1.12-.373 0-.653.094-.84.094-.84.187-1.495.28-1.868.374a1.76 1.76 0 0 0-.84.373 1.661 1.661 0 0 0-.655.747 2.763 2.763 0 0 0-.186.934 2.392 2.392 0 0 0 .747 1.775 2.965 2.965 0 0 0 2.148.654 6.105 6.105 0 0 0 1.961-.374 4.473 4.473 0 0 0 1.402-1.027zm-3.27.467a3.646 3.646 0 0 0 2.336-.654 2.257 2.257 0 0 0 .934-1.774v-1.121a4.346 4.346 0 0 1-.84.28c-.374.093-1.028.187-1.869.373a7.203 7.203 0 0 0-2.148.56 1.03 1.03 0 0 0-.467.934 1.172 1.172 0 0 0 .56 1.028 2.37 2.37 0 0 0 1.495.374zm7.847-9.994h-1.028V95.74h1.028V85.093zm9.153 6.351h4.857l-2.429-5.417zm5.324 1.121l1.494 3.27h1.121l-4.857-10.649h-1.214l-4.95 10.648h1.12l1.495-3.269h5.791zm9.714 2.802a2.047 2.047 0 0 0 1.027-1.868 1.9 1.9 0 0 0-.56-1.4 3.933 3.933 0 0 0-1.868-.655l-2.055-.28a5.98 5.98 0 0 1-1.4-.467.758.758 0 0 1-.374-.747 1.027 1.027 0 0 1 .56-.934 2.808 2.808 0 0 1 1.681-.374 3.491 3.491 0 0 1 1.868.374 1.826 1.826 0 0 1 .747 1.214h1.028a2.074 2.074 0 0 0-.934-1.868 4.347 4.347 0 0 0-2.616-.653 5.025 5.025 0 0 0-2.522.653 1.779 1.779 0 0 0-.934 1.682 1.9 1.9 0 0 0 .56 1.4 4.364 4.364 0 0 0 1.962.654l2.241.374a2.197 2.197 0 0 1 1.121.374.758.758 0 0 1 .374.747 1.133 1.133 0 0 1-.654 1.12 4.255 4.255 0 0 1-2.055.374 3.559 3.559 0 0 1-1.961-.467 2.044 2.044 0 0 1-.747-1.308h-1.028a2.098 2.098 0 0 0 1.028 1.962 4.348 4.348 0 0 0 2.615.747 4.926 4.926 0 0 0 2.896-.654zm8.22 0A2.047 2.047 0 0 0 148.9 93.5a1.9 1.9 0 0 0-.56-1.4 3.933 3.933 0 0 0-1.868-.655l-2.055-.28a5.977 5.977 0 0 1-1.401-.467.758.758 0 0 1-.374-.747 1.027 1.027 0 0 1 .56-.934 2.808 2.808 0 0 1 1.681-.374 3.491 3.491 0 0 1 1.868.374 1.826 1.826 0 0 1 .748 1.214h1.027a2.075 2.075 0 0 0-.934-1.868 4.347 4.347 0 0 0-2.615-.653 5.024 5.024 0 0 0-2.522.653 1.779 1.779 0 0 0-.934 1.682 1.9 1.9 0 0 0 .56 1.4 4.364 4.364 0 0 0 1.962.654l2.241.374a2.197 2.197 0 0 1 1.12.374.758.758 0 0 1 .375.747 1.133 1.133 0 0 1-.654 1.12 3.65 3.65 0 0 1-1.962.374 3.796 3.796 0 0 1-1.961-.467 2.044 2.044 0 0 1-.747-1.308h-1.028a2.793 2.793 0 0 0 .934 1.962 4.348 4.348 0 0 0 2.615.747 4.926 4.926 0 0 0 2.896-.654zm2.147-3.456a4.474 4.474 0 0 0 1.121 3.082 4.546 4.546 0 0 0 5.978 0 4.474 4.474 0 0 0 1.12-3.082 4.113 4.113 0 1 0-8.219 0zm1.868-2.335a3.108 3.108 0 0 0-.84 2.335 3.256 3.256 0 0 0 .84 2.335 3.41 3.41 0 0 0 4.484 0 3.108 3.108 0 0 0 .84-2.335 3.256 3.256 0 0 0-.84-2.335 3.41 3.41 0 0 0-4.484 0zm7.753 2.242a4.165 4.165 0 0 0 1.12 3.082 4.089 4.089 0 0 0 2.99 1.12 4.175 4.175 0 0 0 2.615-.84 3.355 3.355 0 0 0 1.214-2.241h-1.027a2.204 2.204 0 0 1-1.028 1.494 3.156 3.156 0 0 1-1.868.56 3.03 3.03 0 0 1-2.241-.84 3.663 3.663 0 0 1 0-4.67 3.03 3.03 0 0 1 2.241-.841 3.323 3.323 0 0 1 1.775.467 2.328 2.328 0 0 1 1.027 1.4h1.028a3.155 3.155 0 0 0-1.215-2.054 4.25 4.25 0 0 0-2.521-.747 3.857 3.857 0 0 0-4.11 4.11zm9.527 4.016h1.027v-7.846h-1.027v7.846zm1.027-9.527v-1.214h-1.027v1.214h1.027zm8.313 5.23a4.346 4.346 0 0 1-.84.28c-.374.094-1.028.187-1.869.374a7.203 7.203 0 0 0-2.148.56 1.03 1.03 0 0 0-.467.934 1.172 1.172 0 0 0 .56 1.028 2.37 2.37 0 0 0 1.495.373 3.646 3.646 0 0 0 2.335-.654 2.257 2.257 0 0 0 .934-1.774v-1.12zm-5.978-1.027h1.027a1.536 1.536 0 0 1 .748-1.401 3.925 3.925 0 0 1 2.054-.467 3.612 3.612 0 0 1 1.588.374.938.938 0 0 1 .56.934c0 .56-.56.934-1.868 1.12-.373 0-.653.094-.84.094-.84.187-1.495.28-1.868.373a1.76 1.76 0 0 0-.84.374 1.662 1.662 0 0 0-.655.747 2.764 2.764 0 0 0-.186.934 1.988 1.988 0 0 0 .747 1.775 2.965 2.965 0 0 0 2.148.654 6.106 6.106 0 0 0 1.962-.374 4.473 4.473 0 0 0 1.4-1.027 1.24 1.24 0 0 0 .28.934.92.92 0 0 0 .748.28h.373a.842.842 0 0 0 .467-.094v-.934a.091.091 0 0 0-.093.094h-.186a.45.45 0 0 1-.374-.094 1.031 1.031 0 0 1-.093-.653v-3.55a4.216 4.216 0 0 0-.093-1.214 2.34 2.34 0 0 0-.374-.653 2.381 2.381 0 0 0-1.12-.748 8.6 8.6 0 0 0-1.776-.186 4.473 4.473 0 0 0-2.708.653 2.604 2.604 0 0 0-1.028 2.055zm12.703-2.709h-1.775v-2.334h-1.027v2.335h-1.308v.84h1.308v5.044a3.02 3.02 0 0 0 .374 1.588 1.614 1.614 0 0 0 1.214.467h.56a1.823 1.823 0 0 0 .654-.093v-.841a1.016 1.016 0 0 1-.467.093h-.374a1.207 1.207 0 0 1-.747-.187 1.902 1.902 0 0 1-.187-1.027v-5.044h1.775v-.84zm1.214 8.033h1.027v-7.846h-1.027v7.846zm1.027-10.741h-1.027v1.214h1.027v-1.214zm3.643 9.153a3.41 3.41 0 0 0 4.483 0 3.108 3.108 0 0 0 .841-2.335 3.256 3.256 0 0 0-.84-2.335 3.41 3.41 0 0 0-4.484 0 3.108 3.108 0 0 0-.84 2.335 3.256 3.256 0 0 0 .84 2.335zm5.23.747a4.474 4.474 0 0 0 1.121-3.082 4.113 4.113 0 1 0-8.219 0 4.474 4.474 0 0 0 1.12 3.082 4.546 4.546 0 0 0 5.979 0zm8.687-5.604a3.476 3.476 0 0 1 .467 2.055v4.39h1.028V90.79a2.642 2.642 0 0 0-2.99-2.988 4.182 4.182 0 0 0-1.867.373 3.492 3.492 0 0 0-1.401 1.214v-1.4h-1.028v7.939h1.028v-4.484a2.351 2.351 0 0 1 .84-1.868 3.595 3.595 0 0 1 2.242-.747 2.143 2.143 0 0 1 1.681.56zm8.873-.56v7.006h1.121v-7.006h1.775v-.84h-1.775v-.748a1.732 1.732 0 0 1 .187-.934 1.447 1.447 0 0 1 .747-.187h.374a1.016 1.016 0 0 1 .467.094v-.934c-.28 0-.467-.093-.654-.093a1.184 1.184 0 0 0-.56-.094 1.694 1.694 0 0 0-1.308.467 2.612 2.612 0 0 0-.373 1.775v.654H212.6v.84h1.308zm5.417 5.418a3.41 3.41 0 0 0 4.484 0 3.108 3.108 0 0 0 .84-2.335 3.256 3.256 0 0 0-.84-2.336 3.41 3.41 0 0 0-4.484 0 3.108 3.108 0 0 0-.84 2.336 3.256 3.256 0 0 0 .84 2.334zm5.231.747a4.474 4.474 0 0 0 1.12-3.082 4.113 4.113 0 1 0-8.218 0 4.474 4.474 0 0 0 1.12 3.082 4.546 4.546 0 0 0 5.978 0zm7.379-5.885v-1.027a1.328 1.328 0 0 0-.56-.187.7.7 0 0 0-.467-.093 2.251 2.251 0 0 0-1.401.373 2.747 2.747 0 0 0-.934 1.121v-1.308h-1.028v7.846h1.028v-4.857a3.42 3.42 0 0 1 .934-1.494 2.377 2.377 0 0 1 1.494-.467h.467a1.016 1.016 0 0 1 .467.093zM29.158 107.883a5.433 5.433 0 0 0 1.494 4.11 5.005 5.005 0 0 0 3.923 1.495 5.07 5.07 0 0 0 3.55-1.121 5.672 5.672 0 0 0 1.774-3.176h-1.12a4.418 4.418 0 0 1-1.495 2.335 4.262 4.262 0 0 1-2.709.84 4.087 4.087 0 0 1-3.175-1.214 5.263 5.263 0 0 1 0-6.725 4.164 4.164 0 0 1 3.27-1.214 4.25 4.25 0 0 1 2.52.747 3.436 3.436 0 0 1 1.309 2.055v.094h1.214a4.244 4.244 0 0 0-1.588-2.803 5.343 5.343 0 0 0-3.363-1.027 5.17 5.17 0 0 0-5.604 5.604zm13.637-.934a3.108 3.108 0 0 0-.841 2.335 3.256 3.256 0 0 0 .84 2.335 3.41 3.41 0 0 0 4.484 0 3.108 3.108 0 0 0 .84-2.335 3.256 3.256 0 0 0-.84-2.335 3.41 3.41 0 0 0-4.483 0zm-1.868 2.335a4.474 4.474 0 0 0 1.12 3.082 4.546 4.546 0 0 0 5.978 0 4.474 4.474 0 0 0 1.12-3.082 4.113 4.113 0 1 0-8.219 0zm10.087 3.923h1.027V102.56h-1.027v10.648zm3.27 0h1.026V102.56h-1.027v10.648zm3.922-4.577h6.071a2.779 2.779 0 0 0-.934-1.868 3.077 3.077 0 0 0-2.055-.747 3.33 3.33 0 0 0-2.148.747 2.78 2.78 0 0 0-.934 1.868zm6.852 2.242h-1.061a2.416 2.416 0 0 1-1.027 1.308 3.225 3.225 0 0 1-1.682.467 2.89 2.89 0 0 1-2.148-.748 3.52 3.52 0 0 1-.934-2.241h7.192v-.28a4.165 4.165 0 0 0-1.12-3.083 4.113 4.113 0 0 0-7.1 2.99 4.165 4.165 0 0 0 1.121 3.082 4.089 4.089 0 0 0 2.99 1.12 4.25 4.25 0 0 0 2.521-.747 3.793 3.793 0 0 0 1.248-1.868m0 0h.06v-.187c-.015.066-.042.123-.06.187m1.647-1.681a3.857 3.857 0 0 0 4.11 4.11 3.556 3.556 0 0 0 1.775-.374 4.241 4.241 0 0 0 1.401-1.214v.84a2.192 2.192 0 0 1-.747 1.869 4.24 4.24 0 0 1-2.429.56 4.193 4.193 0 0 1-1.774-.374 1.24 1.24 0 0 1-.747-1.028h-1.028a1.86 1.86 0 0 0 1.028 1.682 4.228 4.228 0 0 0 2.521.654 5.758 5.758 0 0 0 1.868-.187 3.45 3.45 0 0 0 1.308-.654 1.766 1.766 0 0 0 .747-.934 6.704 6.704 0 0 0 .187-1.588h.093v-7.192h-1.027v1.308a5.422 5.422 0 0 0-1.401-1.215 3.79 3.79 0 0 0-1.775-.373 3.857 3.857 0 0 0-4.11 4.11zm1.869-2.148a3.41 3.41 0 1 0 2.241-.841 3.03 3.03 0 0 0-2.241.84zm16.005 3.83h.06v-.187c-.015.065-.042.123-.06.186m-6.852-2.242h6.071a2.779 2.779 0 0 0-.934-1.868 3.077 3.077 0 0 0-2.055-.747 3.33 3.33 0 0 0-2.148.747 2.779 2.779 0 0 0-.934 1.868zm6.852 2.242h-1.061a2.416 2.416 0 0 1-1.027 1.307 3.225 3.225 0 0 1-1.682.467 2.89 2.89 0 0 1-2.148-.747 3.52 3.52 0 0 1-.934-2.242h7.192v-.28a4.165 4.165 0 0 0-1.12-3.082 4.113 4.113 0 0 0-7.099 2.99 4.165 4.165 0 0 0 1.12 3.082 4.089 4.089 0 0 0 2.99 1.12 4.25 4.25 0 0 0 2.522-.747 3.793 3.793 0 0 0 1.247-1.868M95.94 103.4l-2.428 5.417h4.857zm-5.51 9.807h1.12l1.495-3.269h5.791l1.495 3.27h1.12l-4.856-10.649H95.38zm11.769-3.923a3.857 3.857 0 0 0 4.11 4.11 3.556 3.556 0 0 0 1.774-.373 3.988 3.988 0 0 0 1.308-1.215v1.401h1.027V102.56h-.934v4.11a7.366 7.366 0 0 0-1.4-1.12 3.79 3.79 0 0 0-1.775-.374 3.857 3.857 0 0 0-4.11 4.11zm1.868-2.335a3.173 3.173 0 0 0 4.483 4.483 2.68 2.68 0 0 0 .84-2.148 3.415 3.415 0 0 0-.84-2.335 3.41 3.41 0 0 0-4.483 0zm8.593 6.445h1.027v-4.483a2.351 2.351 0 0 1 .84-1.868 3.595 3.595 0 0 1 2.242-.748 2.143 2.143 0 0 1 1.681.56 3.476 3.476 0 0 1 .468 2.055v4.39h.933v-4.483a2.352 2.352 0 0 1 .841-1.868 3.596 3.596 0 0 1 2.242-.747 2.014 2.014 0 0 1 1.681.56 3.477 3.477 0 0 1 .467 2.055v4.39h1.027v-5.044a2.642 2.642 0 0 0-2.989-2.99 4.181 4.181 0 0 0-1.868.375 3.491 3.491 0 0 0-1.4 1.214 2.209 2.209 0 0 0-1.028-1.214 3.704 3.704 0 0 0-1.868-.374 4.181 4.181 0 0 0-1.868.374 3.491 3.491 0 0 0-1.4 1.214v-1.401h-1.028v8.032zm15.598-.187h1.027v-7.846h-1.027v7.846zm1.027-9.434v-1.214h-1.027v1.214h1.027zm1.588 6.912a2.29 2.29 0 0 0 1.028 1.962 4.348 4.348 0 0 0 2.615.747 4.926 4.926 0 0 0 2.895-.654 2.046 2.046 0 0 0 1.028-1.868 1.9 1.9 0 0 0-.56-1.401 3.932 3.932 0 0 0-1.868-.654l-2.055-.28a5.975 5.975 0 0 1-1.401-.467.758.758 0 0 1-.374-.747 1.027 1.027 0 0 1 .56-.934 2.808 2.808 0 0 1 1.682-.374 3.491 3.491 0 0 1 1.868.374 1.826 1.826 0 0 1 .747 1.214h1.027a2.075 2.075 0 0 0-.934-1.868 4.347 4.347 0 0 0-2.615-.654 5.025 5.025 0 0 0-2.522.654 1.779 1.779 0 0 0-.934 1.682 1.901 1.901 0 0 0 .56 1.4 4.364 4.364 0 0 0 1.962.654l2.241.374a2.6 2.6 0 0 1 1.121.373.758.758 0 0 1 .374.748 1.133 1.133 0 0 1-.654 1.12 4.256 4.256 0 0 1-2.055.374 3.796 3.796 0 0 1-1.962-.467 2.045 2.045 0 0 1-.747-1.307h-1.027zm8.406 0a2.098 2.098 0 0 0 1.028 1.962 4.348 4.348 0 0 0 2.615.747 4.926 4.926 0 0 0 2.896-.654 2.046 2.046 0 0 0 1.027-1.868 1.9 1.9 0 0 0-.56-1.401 3.932 3.932 0 0 0-1.868-.654l-2.055-.28a5.975 5.975 0 0 1-1.4-.467.758.758 0 0 1-.374-.747 1.027 1.027 0 0 1 .56-.934 2.808 2.808 0 0 1 1.68-.374 3.491 3.491 0 0 1 1.869.374 1.826 1.826 0 0 1 .747 1.214h1.027a2.075 2.075 0 0 0-.934-1.868 4.347 4.347 0 0 0-2.615-.654 5.025 5.025 0 0 0-2.522.654 1.779 1.779 0 0 0-.934 1.682 1.901 1.901 0 0 0 .56 1.4 4.364 4.364 0 0 0 1.962.654l2.241.374a2.197 2.197 0 0 1 1.121.373.758.758 0 0 1 .374.748 1.133 1.133 0 0 1-.654 1.12 4.256 4.256 0 0 1-2.055.374 3.558 3.558 0 0 1-1.961-.467 2.045 2.045 0 0 1-.748-1.307h-1.027zm10.088-6.912v-1.214h-1.028v1.214h1.028zm-1.028 9.434h1.028v-7.846h-1.028v7.846zm4.67-6.258a3.108 3.108 0 0 0-.84 2.335 3.256 3.256 0 0 0 .84 2.335 3.41 3.41 0 0 0 4.484 0 3.108 3.108 0 0 0 .84-2.335 3.256 3.256 0 0 0-.84-2.335 3.41 3.41 0 0 0-4.484 0zm-1.868 2.335a4.474 4.474 0 0 0 1.121 3.082 4.546 4.546 0 0 0 5.978 0 4.474 4.474 0 0 0 1.12-3.082 4.113 4.113 0 1 0-8.219 0zm9.994 4.016h1.028v-4.483a2.352 2.352 0 0 1 .84-1.868 3.596 3.596 0 0 1 2.242-.747 2.143 2.143 0 0 1 1.681.56 3.477 3.477 0 0 1 .467 2.055v4.39h1.028v-5.044a2.642 2.642 0 0 0-2.989-2.989 4.181 4.181 0 0 0-1.868.374 3.49 3.49 0 0 0-1.401 1.214v-1.4h-1.028v7.938zm14.01-5.417a5.432 5.432 0 0 0 1.495 4.11 5.005 5.005 0 0 0 3.923 1.495 5.563 5.563 0 0 0 3.55-1.121 5.672 5.672 0 0 0 1.774-3.176h-1.121a4.418 4.418 0 0 1-1.495 2.335 4.262 4.262 0 0 1-2.708.84 4.087 4.087 0 0 1-3.176-1.213 5.263 5.263 0 0 1 0-6.725 4.164 4.164 0 0 1 3.27-1.215 4.25 4.25 0 0 1 2.521.748 3.436 3.436 0 0 1 1.308 2.055v.093h1.214a4.244 4.244 0 0 0-1.588-2.802 5.344 5.344 0 0 0-3.362-1.028 5.17 5.17 0 0 0-5.604 5.604zm13.637-.934a3.108 3.108 0 0 0-.84 2.335 3.256 3.256 0 0 0 .84 2.335 3.41 3.41 0 0 0 4.483 0 3.108 3.108 0 0 0 .841-2.335 3.256 3.256 0 0 0-.84-2.335 3.41 3.41 0 0 0-4.484 0zm-1.961 2.335a4.967 4.967 0 0 0 1.12 3.083 4.546 4.546 0 0 0 5.978 0 4.474 4.474 0 0 0 1.121-3.083 4.113 4.113 0 1 0-8.22 0zm10.087 1.028a2.642 2.642 0 0 0 2.989 2.989 4.181 4.181 0 0 0 1.868-.374 3.49 3.49 0 0 0 1.401-1.214v1.494h1.028v-7.845h-1.028v4.39a2.352 2.352 0 0 1-.84 1.868 3.596 3.596 0 0 1-2.242.747 2.283 2.283 0 0 1-1.682-.56 3.476 3.476 0 0 1-.466-2.055v-4.39h-1.028v4.95zm9.434 2.988h1.027v-4.483a2.351 2.351 0 0 1 .841-1.868 3.596 3.596 0 0 1 2.242-.747 2.143 2.143 0 0 1 1.68.56 3.477 3.477 0 0 1 .468 2.054v4.39h1.027v-5.043a2.642 2.642 0 0 0-2.989-2.99 4.181 4.181 0 0 0-1.868.374 3.491 3.491 0 0 0-1.4 1.215v-1.401h-1.028v7.939zm8.78-2.615a2.098 2.098 0 0 0 1.027 1.961 4.348 4.348 0 0 0 2.616.747 5.761 5.761 0 0 0 2.895-.654 2.046 2.046 0 0 0 1.028-1.868 1.9 1.9 0 0 0-.56-1.4 3.932 3.932 0 0 0-1.868-.654l-2.055-.28a5.975 5.975 0 0 1-1.401-.467.758.758 0 0 1-.374-.747 1.027 1.027 0 0 1 .56-.935 2.808 2.808 0 0 1 1.681-.373 3.491 3.491 0 0 1 1.868.373 1.826 1.826 0 0 1 .748 1.215h1.027a2.075 2.075 0 0 0-.934-1.868 4.347 4.347 0 0 0-2.615-.654 5.025 5.025 0 0 0-2.522.654 1.779 1.779 0 0 0-.934 1.681 1.901 1.901 0 0 0 .56 1.401 4.364 4.364 0 0 0 1.961.654l2.242.373a2.197 2.197 0 0 1 1.12.374.758.758 0 0 1 .374.747 1.133 1.133 0 0 1-.653 1.121 4.256 4.256 0 0 1-2.055.374 3.796 3.796 0 0 1-1.962-.467 2.045 2.045 0 0 1-.747-1.308h-1.027zm16.472.186h.06v-.186c-.014.065-.041.123-.06.186m-6.851-2.241h6.07a2.78 2.78 0 0 0-.933-1.868 3.078 3.078 0 0 0-2.055-.747 3.33 3.33 0 0 0-2.148.747 2.779 2.779 0 0 0-.935 1.868zm6.851 2.242h-1.154a2.416 2.416 0 0 1-1.027 1.307 3.225 3.225 0 0 1-1.682.467 2.89 2.89 0 0 1-2.148-.747 4.044 4.044 0 0 1-.84-2.242h7.192v-.28a4.165 4.165 0 0 0-1.121-3.082 4.113 4.113 0 0 0-7.099 2.989 4.165 4.165 0 0 0 1.12 3.082 4.089 4.089 0 0 0 2.99 1.12 4.25 4.25 0 0 0 2.522-.746 3.793 3.793 0 0 0 1.247-1.868m2.115 2.335h1.028v-10.648h-1.028v10.648zm4.39-9.434v-1.214h-1.027v1.214h1.027zm-1.027 9.434h1.027v-7.846h-1.027v7.846zm3.175.093h1.028v-4.483a2.352 2.352 0 0 1 .84-1.868 3.596 3.596 0 0 1 2.242-.747 2.143 2.143 0 0 1 1.681.56 3.477 3.477 0 0 1 .467 2.055v4.39h1.028v-5.044a2.642 2.642 0 0 0-2.989-2.99 4.181 4.181 0 0 0-1.868.375 3.49 3.49 0 0 0-1.401 1.214v-1.401h-1.028v7.939zm10.928-6.258a3.41 3.41 0 1 0 2.242-.84 3.03 3.03 0 0 0-2.242.84zm-1.775 2.149a3.857 3.857 0 0 0 4.11 4.11 3.556 3.556 0 0 0 1.775-.374 4.24 4.24 0 0 0 1.4-1.214v.84a2.192 2.192 0 0 1-.747 1.869 4.239 4.239 0 0 1-2.428.56 4.194 4.194 0 0 1-1.775-.374 1.24 1.24 0 0 1-.747-1.028h-1.027a1.86 1.86 0 0 0 1.027 1.682 4.228 4.228 0 0 0 2.522.654 5.46 5.46 0 0 0 1.775-.187 3.45 3.45 0 0 0 1.307-.654 1.766 1.766 0 0 0 .748-.934 6.704 6.704 0 0 0 .186-1.588h.187v-7.192h-1.027v1.308a5.422 5.422 0 0 0-1.401-1.215 3.79 3.79 0 0 0-1.775-.373 3.857 3.857 0 0 0-4.11 4.11z" fill="#fff"/></svg>