<svg xmlns="http://www.w3.org/2000/svg" viewBox="0 0 211 45.3"><path d="M31.5 35.8c-.2-.5-.5-1.1-.9-1.7-.4-.6-.8-1.2-1.3-1.9L7.1 1.1H0v42.8h6.3V9.2c.2.6.5 1.2.8 1.7.2.5.6 1 .9 1.5L30.7 44h7V1.1h-6.2v34.7zM145 1.1L127.4 44h6.6l3.3-8.4h22.2l3.3 8.4h7L152.1 1.1H145zm-5.4 28.8l9-22.7 8.8 22.7h-17.8zM204.7 28.1c-.2 3.5-1.5 6.4-3.9 8.5-2.5 2.2-5.7 3.3-9.6 3.3-4.6 0-8.2-1.5-11-4.7-2.7-3.2-4.1-7.4-4.1-12.6 0-5.6 1.3-9.9 4-12.9 2.6-3.1 6.4-4.6 11.2-4.6 3.6 0 6.5.8 8.8 2.3s3.7 3.7 4.3 6.5h6.3c-.5-4.3-2.5-7.7-5.9-10.2S197 0 191.6 0c-6.8 0-12.1 2-16.1 5.9-4 4-6 9.3-6 16 0 7.3 1.9 13 5.7 17.1 3.8 4.1 9 6.2 15.7 6.2 5.8 0 10.5-1.5 14.2-4.6 3.6-3.1 5.6-7.3 5.9-12.5h-6.3zM104.6 5.4c-1.1.2-2.2.4-3.2.8 1.1-.4 2.2-.6 3.2-.8z"/><path d="M100.1 6.7v-.1c.5-.2 1-.3 1.4-.5 1-.4 2-.6 3.2-.8.9-.1 1.7-.2 2.7-.2 3.6 0 6.5.8 8.8 2.3s3.7 3.7 4.3 6.5h6.3c-.3-2-.9-3.9-1.9-5.6-1-1.8-2.4-3.3-4.1-4.6C117.4 1.2 113 0 107.6 0c-4.4 0-8.1.8-11.3 2.4-10.1 3-18.4 6.9-25.2 11h.1L66.1 1.1H59L41.4 44H48l.3-.7c2.6-4.8 11.3-18.6 32.2-29C74.3 21 69 30.7 69.7 44.1h5.2C73.4 17 99 7.1 100.1 6.7zM66.8 18.5l-.7-1.7c-4.4 3.1-7.9 6.1-10.9 9l7.3-18.6 3.7 9.4s-.1 0-.1.1l.7 1.8c1.5-1.1 3.5-2.4 5-3.4v.1c-1.6 1-3.5 2.2-5 3.3z"/><path d="M120.8 28.1c-.2 3.6-1.5 6.5-4 8.7s-5.7 3.3-9.6 3.3c-4.6 0-8.2-1.6-11-4.7C93.4 32.2 92 28 92 22.8c0-1.6.1-3.1.4-4.6-.7.5-1.3 1-1.9 1.4-2 2-4 5-4.4 9 .8 4.2 2.5 7.7 5 10.5 3.8 4.1 9 6.2 15.7 6.2 5.8 0 10.5-1.5 14.2-4.6 3.7-3.1 5.6-7.2 5.9-12.5l-6.1-.1z"/></svg>