<svg id="Layer_1" data-name="Layer 1" xmlns="http://www.w3.org/2000/svg" viewBox="0 0 300 90.41"><defs><style>.cls-1{fill:#f90}.cls-1,.cls-2{fill-rule:evenodd}</style></defs><title>amazon</title><path class="cls-1" d="M186.12 86.83c-17.43 12.86-42.7 19.7-64.46 19.7a116.65 116.65 0 0 1-78.74-30C41.28 75 42.74 73 44.7 74.15a158.49 158.49 0 0 0 78.79 20.91 156.75 156.75 0 0 0 60.1-12.3c2.94-1.25 5.41 1.94 2.53 4.07z" transform="translate(0 -16.13)"/><path class="cls-1" d="M193.37 78.55c-2.23-2.86-14.74-1.35-20.36-.68-1.7.2-2-1.28-.43-2.36 10-7 26.33-5 28.23-2.64s-.5 18.76-9.85 26.58c-1.44 1.2-2.81.56-2.17-1 2.1-5.28 6.81-17.04 4.58-19.9z" transform="translate(0 -16.13)"/><path class="cls-2" d="M173.41 26v-6.81a1.68 1.68 0 0 1 1.73-1.73h30.52a1.7 1.7 0 0 1 1.76 1.72V25c0 1-.83 2.26-2.3 4.29l-15.81 22.6c5.87-.14 12.08.74 17.41 3.74a3.11 3.11 0 0 1 1.62 2.66v7.27a1.63 1.63 0 0 1-2.25 1.56 35.15 35.15 0 0 0-32.25.06c-1.06.57-2.17-.58-2.17-1.58v-6.92A8.21 8.21 0 0 1 172.8 54l18.32-26.28h-15.95a1.7 1.7 0 0 1-1.76-1.72zM62.08 68.54H52.8A1.75 1.75 0 0 1 51.13 67V19.31a1.75 1.75 0 0 1 1.79-1.72h8.65a1.75 1.75 0 0 1 1.69 1.6v6.22h.17c2.25-6 6.5-8.82 12.22-8.82s9.45 2.81 12 8.82a13.71 13.71 0 0 1 23.57-3.61c2.95 4 2.34 9.83 2.34 14.94v30.08a1.75 1.75 0 0 1-1.79 1.72h-9.27a1.74 1.74 0 0 1-1.67-1.71V41.56c0-2 .17-7-.26-8.93-.69-3.21-2.77-4.11-5.46-4.11a6.16 6.16 0 0 0-5.55 3.91c-1 2.41-.87 6.42-.87 9.13v25.26A1.75 1.75 0 0 1 87 68.54h-9.31A1.74 1.74 0 0 1 76 66.82V41.56c0-5.31.87-13.14-5.72-13.14s-6.4 7.58-6.4 13.14v25.26a1.75 1.75 0 0 1-1.8 1.72zM233.69 16.59c13.78 0 21.23 11.83 21.23 26.88 0 14.54-8.23 26.07-21.23 26.07-13.52 0-20.89-11.83-20.89-26.57s7.45-26.38 20.89-26.38zm.09 9.73c-6.85 0-7.28 9.33-7.28 15.14s-.09 18.25 7.19 18.25 7.54-10 7.54-16.15c0-4-.17-8.82-1.39-12.64-1.04-3.3-3.12-4.6-6.06-4.6zM272.8 68.54h-9.25a1.74 1.74 0 0 1-1.67-1.71V19.15a1.76 1.76 0 0 1 1.78-1.56h8.61a1.77 1.77 0 0 1 1.65 1.34v7.29h.17c2.6-6.52 6.24-9.63 12.65-9.63 4.16 0 8.23 1.5 10.83 5.62C300 26 300 32.43 300 37v30a1.76 1.76 0 0 1-1.78 1.5h-9.31a1.75 1.75 0 0 1-1.65-1.5V41.16c0-5.21.61-12.84-5.81-12.84a6.07 6.07 0 0 0-5.37 3.81 21.18 21.18 0 0 0-1.47 9v25.69a1.78 1.78 0 0 1-1.81 1.72zM149.08 45.78c0 3.62.09 6.63-1.74 9.85a7.54 7.54 0 0 1-6.43 4.22c-3.56 0-5.65-2.71-5.65-6.73 0-7.91 7.09-9.35 13.81-9.35v2zm9.36 22.64a1.92 1.92 0 0 1-2.19.22c-3.08-2.56-3.64-3.75-5.32-6.19-5.1 5.19-8.71 6.75-15.31 6.75-7.82 0-13.9-4.82-13.9-14.47a15.77 15.77 0 0 1 9.9-15.18c5-2.21 12.07-2.61 17.46-3.22v-1.21c0-2.21.17-4.82-1.13-6.73a6.2 6.2 0 0 0-5.21-2.39c-3.54 0-6.69 1.81-7.46 5.58a2 2 0 0 1-1.61 1.71l-9-1a1.63 1.63 0 0 1-1.39-1.94c2.07-10.92 11.93-14.22 20.76-14.22 4.52 0 10.42 1.21 14 4.62 4.52 4.22 4.08 9.85 4.08 16V51.2c0 4.35 1.81 6.26 3.51 8.61a1.75 1.75 0 0 1 0 2.47c-1.9 1.59-5.27 4.52-7.12 6.17zM27.36 45.78c0 3.62.09 6.63-1.74 9.85a7.54 7.54 0 0 1-6.43 4.22c-3.56 0-5.65-2.71-5.65-6.73 0-7.91 7.09-9.35 13.81-9.35v2zm9.36 22.64a1.92 1.92 0 0 1-2.19.22c-3.08-2.56-3.64-3.75-5.32-6.19-5.1 5.19-8.71 6.75-15.31 6.75C6.08 69.19 0 64.37 0 54.72a15.77 15.77 0 0 1 9.9-15.17c5-2.21 12.07-2.61 17.46-3.22v-1.21c0-2.21.17-4.82-1.13-6.73A6.2 6.2 0 0 0 21 26c-3.54 0-6.69 1.81-7.46 5.58a2 2 0 0 1-1.61 1.71l-9-1a1.63 1.63 0 0 1-1.39-1.94c2.09-10.92 11.95-14.22 20.78-14.22 4.52 0 10.42 1.21 14 4.62 4.52 4.22 4.08 9.85 4.08 16V51.2c0 4.35 1.81 6.26 3.5 8.61a1.75 1.75 0 0 1 0 2.47c-1.9 1.59-5.27 4.52-7.12 6.17z" transform="translate(0 -16.13)"/></svg>