<svg id="Layer_1" data-name="Layer 1" xmlns="http://www.w3.org/2000/svg" viewBox="0 0 100 122.67"><defs><style>.cls-1{fill:#999;fill-rule:evenodd}</style></defs><title>apple</title><path class="cls-1" d="M155.18 10.67A26.25 26.25 0 0 1 174.44 0s1.67 10-6.34 19.61c-8.55 10.27-18.27 8.59-18.27 8.59s-1.83-8.08 5.35-17.53zM150.86 35.2c4.15 0 11.84-5.7 21.86-5.7 17.24 0 24 12.27 24 12.27A26.64 26.64 0 0 0 183.47 65c0 18.57 16.53 25 16.53 25s-11.55 32.52-27.16 32.52c-7.17 0-12.74-4.83-20.29-4.83s-15.33 5-20.31 5C118 122.67 100 91.82 100 67c0-24.39 15.24-37.19 29.53-37.19 9.29.03 16.47 5.39 21.33 5.39z" transform="translate(-100)"/></svg>