<svg id="Layer_1" data-name="Layer 1" xmlns="http://www.w3.org/2000/svg" viewBox="0 0 300 98.47"><defs><style>.cls-1{fill:#4486f4}.cls-2{fill:#ea4537}.cls-3{fill:#fbbd07}.cls-4{fill:#36a954}</style></defs><title>google</title><path class="cls-1" d="M56.35 46.83h16.94a.62.62 0 0 1 .73.67c.1.93.27 1.85.33 2.78a40.24 40.24 0 0 1-2.44 17.42 31 31 0 0 1-9.12 12.56A33.56 33.56 0 0 1 45.41 88a38.66 38.66 0 0 1-21.29-2.4C10.75 79.79 2.54 69.72.41 55.22-1.2 44.22 2 34.37 9.13 25.87a38.55 38.55 0 0 1 33.66-13.56 35.83 35.83 0 0 1 18 6.84A38.47 38.47 0 0 1 64.33 22a.6.6 0 0 1 .06 1c-2.14 2.17-4.25 4.37-6.38 6.55-.44.45-.47.42-1.09-.13a26.55 26.55 0 0 0-19.36-6.84 26.57 26.57 0 0 0-18.88 8.79A26.34 26.34 0 0 0 11.93 45a27.65 27.65 0 0 0 5.58 22.8 26 26 0 0 0 15.8 9.61 28.06 28.06 0 0 0 16.59-1.5A21.72 21.72 0 0 0 61 66.29 24.42 24.42 0 0 0 63.58 58c.09-.63 0-.67-.68-.68H39.42a.56.56 0 0 1-.68-.67v-9.14a.56.56 0 0 1 .68-.66h16.93zM221.76 44.71a1 1 0 0 0 .2-.9v-2.28a.55.55 0 0 1 .63-.71h9a.53.53 0 0 1 .64.61V84.02a36.61 36.61 0 0 1-1.49 11.38c-2.73 8.41-8.52 13.3-17.2 14.78a25.34 25.34 0 0 1-11.42-.54 23.87 23.87 0 0 1-14.8-12.89c-.32-.75-.32-.75.47-1.08l8-3.31c.71-.29.73-.28 1.08.43a14.57 14.57 0 0 0 5.15 6 12.63 12.63 0 0 0 8.11 2 13.46 13.46 0 0 0 5.93-1.7 11.69 11.69 0 0 0 5.36-7.59 30.69 30.69 0 0 0 .59-7.95.43.43 0 0 0-.16-.46c-.35-.15-.48.2-.65.38a16.28 16.28 0 0 1-10 4.87A20.66 20.66 0 0 1 198.62 86a24 24 0 0 1-13.27-18.7 24.08 24.08 0 0 1 5.51-19.3 23 23 0 0 1 12.64-8.07 18.77 18.77 0 0 1 15.07 2.2 13.31 13.31 0 0 1 2.42 2 1.51 1.51 0 0 0 .77.58zm.92 18.83a15.5 15.5 0 0 0-1.1-5.8 12.79 12.79 0 0 0-22.71-3.16A15.71 15.71 0 0 0 196 65.07a14.27 14.27 0 0 0 5.91 11.18 12.62 12.62 0 0 0 17.75-2.58 16 16 0 0 0 3.02-10.13z" transform="translate(0 -12.1)"/><path class="cls-2" d="M103 39.26c8.83.35 16.18 4.13 21 12.26a24.16 24.16 0 0 1 3 14.9 24.2 24.2 0 0 1-24.3 22c-9.29 0-16.61-3.87-21.51-11.85-5.3-8.64-4.9-21.92 3.9-30.42a24.19 24.19 0 0 1 13.7-6.62c1.26-.16 2.51-.18 4.21-.27zm13.34 24.08a15.32 15.32 0 0 0-1.34-6.09 13.58 13.58 0 0 0-22.8-3.52 16.16 16.16 0 0 0-1.09 18.81 13.46 13.46 0 0 0 22 1 15.55 15.55 0 0 0 3.21-10.2z" transform="translate(0 -12.1)"/><path class="cls-3" d="M156.09 88.45c-10.23-.39-18-4.76-22.48-14.19a24.89 24.89 0 0 1 5.13-28.11 23.79 23.79 0 0 1 13.91-6.62 24.65 24.65 0 0 1 17.43 4 23.5 23.5 0 0 1 10.56 18 23.82 23.82 0 0 1-2.39 13.42c-4.12 8.07-10.83 12.45-19.78 13.47-.41 0-.83.07-1.24.08s-.75-.05-1.14-.05zm13.83-24.59a15.47 15.47 0 0 0-2.3-8.39 13.53 13.53 0 0 0-22.3-1.12A16.15 16.15 0 0 0 145 73a13.46 13.46 0 0 0 20.81 1.53 14.9 14.9 0 0 0 4.12-10.67z" transform="translate(0 -12.1)"/><path class="cls-2" d="M277.77 88.46a22.74 22.74 0 0 1-17-8.32 24.07 24.07 0 0 1-5.69-14.75A25.8 25.8 0 0 1 258.76 50a21.57 21.57 0 0 1 17.82-10.61c8-.49 14.21 2.82 18.93 9.17a35.17 35.17 0 0 1 4.36 8.58c.24.62.22.64-.62 1l-16.31 6.75-14.68 6.07c-.13.05-.25.12-.38.16-.49.16-.54.44-.3.87a12.05 12.05 0 0 0 8.24 6.44c5.85 1.2 11.24-.56 14.92-5.79.46-.65.47-.66 1.13-.23l7.13 4.73c.64.43.65.45.22 1-4.97 6.71-11.95 10.36-21.45 10.32zm-12.3-25.4c.38-.13.61-.19.83-.28l19.7-8.2c1.52-.63 1.55-.73.54-2a9.6 9.6 0 0 0-6.76-3.62c-5.38-.69-10.52 2.68-12.76 7a14.39 14.39 0 0 0-1.55 7.1z" transform="translate(0 -12.1)"/><path class="cls-4" d="M239.42 50.81v-34.9c0-1.34-.13-1.26 1.2-1.25h8.73c.87 0 .87 0 .89.85V85.63c0 1.45.23 1.33-1.32 1.34H240a.45.45 0 0 1-.56-.54v-.83q-.02-17.39-.02-34.79z" transform="translate(0 -12.1)"/></svg>