<svg id="Layer_1" data-name="Layer 1" xmlns="http://www.w3.org/2000/svg" viewBox="0 0 300 64.06"><defs><style>.cls-1{fill:#f25022}.cls-2{fill:#fefefe}.cls-3{fill:#80ba01}.cls-4{fill:#777}.cls-5{fill:#02a4ef}.cls-6{fill:#ffb902}</style></defs><title>microsoft</title><path class="cls-1" d="M0 29.3h30.48v30.48H0V29.3z" transform="translate(0 -29.3)"/><path class="cls-2" d="M30.48 29.3h3.11v30.48h30.47V29.3H300V53h-6.52v-8.25c-2.17.66-4.34 1.35-6.52 2-.05 2.09 0 4.18 0 6.26h-9.64a41.48 41.48 0 0 1 .12-4.93 3.85 3.85 0 0 1 2.2-3.08 6.28 6.28 0 0 1 4.86.44v-5.65a12 12 0 0 0-9.61 1.13 9 9 0 0 0-3.78 5.08c-.7 2.28-.34 4.69-.45 7h-4.57v5.28h4.59v22.23h6.59V58.28h9.65v14.17a9.84 9.84 0 0 0 1.86 6.29 7.33 7.33 0 0 0 5.2 2.38 12.89 12.89 0 0 0 6-.92v13.16H64.06V62.89H33.59v30.47h-3.11V62.89H0v-3.11h30.47V29.3z" transform="translate(0 -29.3)"/><path class="cls-3" d="M33.59 29.3h30.47v30.48H33.59V29.3z" transform="translate(0 -29.3)"/><path class="cls-4" d="M274.82 40.91a12 12 0 0 1 9.61-1.13v5.65a6.28 6.28 0 0 0-4.86-.44 3.85 3.85 0 0 0-2.2 3.08 41.48 41.48 0 0 0-.12 4.93h9.64v-6.26c2.19-.62 4.35-1.32 6.52-2v8.25h6.52v5.35c-2.18-.09-4.37 0-6.55 0v9.23c0 1.7-.09 3.42.11 5.12A3.31 3.31 0 0 0 295 75.3a4.91 4.91 0 0 0 5-.47v5.41a12.89 12.89 0 0 1-6 .92 7.33 7.33 0 0 1-5.2-2.38 9.84 9.84 0 0 1-1.86-6.29V58.32h-9.65v22.23h-6.59V58.32h-4.59v-5.28h4.57c.11-2.34-.25-4.75.45-7a9 9 0 0 1 3.72-5.07zM133.7 41.3a4 4 0 0 1 3.65 1.29 3.76 3.76 0 0 1 .46 4.28 4.1 4.1 0 0 1-4.39 1.84 3.73 3.73 0 0 1-3.06-3.71 3.81 3.81 0 0 1 3.34-3.74zM83.19 42.11h9.59q4.48 11.36 9 22.72c.76 1.89 1.48 3.81 2.28 5.69 3.84-9.47 7.73-18.91 11.54-28.39h9.22v38.43h-6.65V52.2v-1.27a5.08 5.08 0 0 0-.35.62c-3.81 9.68-7.69 19.33-11.48 29-1.58.06-3.16 0-4.74 0-3.93-9.68-7.81-19.38-11.72-29.06-.1-.2-.21-.4-.33-.59-.08 4.14 0 8.29 0 12.43v17.21h-6.36V42.1zM151.84 53a18 18 0 0 1 9.79 0 7.9 7.9 0 0 1 1.88.78v6.3a10.47 10.47 0 0 0-7.51-2.3 7.74 7.74 0 0 0-5.47 3 10.63 10.63 0 0 0-1.75 7.63 8.26 8.26 0 0 0 2.66 5.48 8.35 8.35 0 0 0 6.17 1.84 12.56 12.56 0 0 0 5.91-2.43v6a16 16 0 0 1-9 1.87 13.36 13.36 0 0 1-8.59-3.58 13.73 13.73 0 0 1-4-9.22 16.7 16.7 0 0 1 2.61-10.23 13.26 13.26 0 0 1 7.3-5.14zM196.5 52.5a17.49 17.49 0 0 1 9.44 1.11 11.66 11.66 0 0 1 5.76 5.82 18.07 18.07 0 0 1 1.3 8.69 14.61 14.61 0 0 1-2.9 8 12.76 12.76 0 0 1-7.57 4.67 18.93 18.93 0 0 1-7.72 0 12.48 12.48 0 0 1-7.61-5 15.81 15.81 0 0 1-2.41-10.29 14.68 14.68 0 0 1 3-8.42 13.15 13.15 0 0 1 8.67-4.63zM223.84 52.56a17.44 17.44 0 0 1 9.12.95v6.06a11.61 11.61 0 0 0-6.92-2 3.54 3.54 0 0 0-3.15 1.74 2.85 2.85 0 0 0 1 3.37c1.87 1.25 4.1 1.78 6 2.9a8.68 8.68 0 0 1 3.78 3.59 8 8 0 0 1-1.72 9.27c-2.44 2.28-5.95 2.91-9.17 2.79a19.6 19.6 0 0 1-6.7-1.54v-6.37a14.41 14.41 0 0 0 6 2.58 7.7 7.7 0 0 0 4.55-.42 2.63 2.63 0 0 0 .79-3.74 7.92 7.92 0 0 0-2.88-1.88 27.58 27.58 0 0 1-5.69-2.91 6.82 6.82 0 0 1-2.46-3.74 8.4 8.4 0 0 1 .91-6.57 9.81 9.81 0 0 1 6.56-4zM249 52.49a17.07 17.07 0 0 1 9.78 1.33 11.76 11.76 0 0 1 5.66 6.41 17.56 17.56 0 0 1 1 6.58 15.07 15.07 0 0 1-3 9.38 12.87 12.87 0 0 1-8.1 4.74 17.72 17.72 0 0 1-9.28-.79 12.22 12.22 0 0 1-6.7-6.5 18.24 18.24 0 0 1-1-9.57 13.49 13.49 0 0 1 4.35-8.46 13.65 13.65 0 0 1 7.29-3.12zM178.25 53.43a7.43 7.43 0 0 1 6.12-.52v6.59a7 7 0 0 0-4.46-1 5.47 5.47 0 0 0-4.12 3.3 12.18 12.18 0 0 0-.94 5.62v13.17h-6.5V53.06h6.51v4.73a8.44 8.44 0 0 1 3.41-4.32zM131 53h6.56v27.53H131V52.99z" transform="translate(0 -29.3)"/><path class="cls-2" d="M198.46 57.73A7.09 7.09 0 0 1 204 59.6a8.89 8.89 0 0 1 2.28 5.74 14.43 14.43 0 0 1-.93 6.73 6 6 0 0 1-3.24 3.18 8.89 8.89 0 0 1-5.37.24 6.58 6.58 0 0 1-4.13-3.41 12.71 12.71 0 0 1-1-6.9 8.76 8.76 0 0 1 2.55-5.75 6.89 6.89 0 0 1 4.34-1.71zM250.81 57.74a7.23 7.23 0 0 1 5.28 1.56 7.56 7.56 0 0 1 2.38 4.39 16.74 16.74 0 0 1 .05 5.89 8.59 8.59 0 0 1-1.7 4 6.17 6.17 0 0 1-3.82 2.1 8.71 8.71 0 0 1-4.72-.51 6.68 6.68 0 0 1-3.48-3.64 13.08 13.08 0 0 1-.78-6A9.52 9.52 0 0 1 246 60a6.74 6.74 0 0 1 4.81-2.31zM293.45 58.32c2.18 0 4.37-.06 6.55 0v16.51a4.91 4.91 0 0 1-5 .47 3.31 3.31 0 0 1-1.42-2.63c-.2-1.7-.07-3.41-.11-5.12v-9.23z" transform="translate(0 -29.3)"/><path class="cls-5" d="M0 62.89h30.48v30.47H0V62.89z" transform="translate(0 -29.3)"/><path class="cls-6" d="M33.59 62.89h30.47v30.47H33.59V62.89z" transform="translate(0 -29.3)"/></svg>