<svg xmlns="http://www.w3.org/2000/svg" viewBox="0 0 220 119"><path fill="#95C93F" d="M214.8 82.3s-35.4-52.4-88.6-56l6.2 9.2s24.9 9.7 41.5 38.6c0 0-8-26.7-24.3-35.4 0 0 23.1 9 38.1 20.9s27.1 22.7 27.1 22.7z"/><path fill="#F6DB3E" d="M101.3 13.5L115 27.8l-9.2 11.6 16.5-5.1 9.1 18.4 1.1-21.8 18.7-11.2-20.1.4.3-20.1-12.5 18.4z"/><path fill="#0884C7" d="M16 42.9c-.1-.2-.2-.5-.4-.7-.2-.3-.3-.5-.5-.8L5.8 28.3h-3v18h2.6V31.7c.1.3.2.5.3.7.1.2.3.4.4.6l9.5 13.3h2.9v-18H16v14.6zM63.7 28.3l-7.4 18h2.8l1.4-3.5h9.3l1.4 3.5h2.9l-7.4-18h-3zm-2.2 12.1l3.8-9.5 3.7 9.5h-7.5zM88.8 39.7c-.1 1.5-.6 2.7-1.6 3.6-1.1.9-2.4 1.4-4 1.4-1.9 0-3.4-.6-4.6-2-1.1-1.3-1.7-3.1-1.7-5.3 0-2.4.5-4.2 1.7-5.4 1.1-1.3 2.7-1.9 4.7-1.9 1.5 0 2.7.3 3.7 1 1 .6 1.6 1.6 1.8 2.7h2.6c-.2-1.8-1.1-3.2-2.5-4.3-1.4-1.1-3.3-1.6-5.6-1.6-2.9 0-5.1.8-6.8 2.5C74.9 32 74 34.2 74 37c0 3.1.8 5.5 2.4 7.2s3.8 2.6 6.6 2.6c2.4 0 4.4-.6 6-1.9 1.5-1.3 2.4-3.1 2.5-5.3 0 .1-2.7.1-2.7.1zM46.7 30.1c-.5.1-.9.2-1.3.3.5-.1.9-.2 1.3-.3z"/><path fill="#0884C7" d="M44.9 30.7l.6-.3c.4-.2.8-.3 1.3-.3.4 0 .7-.1 1.1-.1 1.5 0 2.7.3 3.7 1s1.6 1.6 1.8 2.7H56c-.1-.8-.4-1.6-.8-2.4-.4-.8-1-1.4-1.7-1.9-1.4-1.1-3.3-1.6-5.6-1.6-1.9 0-3.4.3-4.8 1-4.2 1.3-7.7 2.9-10.6 4.6l-2.1-5.2h-3l-7.4 18h2.7l.1-.3c1.1-2 4.8-7.8 13.5-12.2-2.6 2.8-4.8 6.9-4.5 12.5H34C33.6 35 44.4 30.8 44.9 30.7zm-14 4.9l-.3-.7c-1.9 1.3-3.3 2.6-4.6 3.8l3.1-7.8 1.6 4 .2.7c.6-.5 1.5-1 2.1-1.4-.7.5-1.5 1-2.1 1.4z"/><path fill="#0884C7" d="M53.6 39.7c-.1 1.5-.6 2.7-1.7 3.7-1.1.9-2.4 1.4-4 1.4-1.9 0-3.4-.7-4.6-2-1.2-1.3-1.8-3.1-1.8-5.3 0-.7 0-1.3.2-1.9-.3.2-.5.4-.8.6-.8.8-1.7 2.1-1.9 3.8.3 1.8 1.1 3.2 2.1 4.4 1.6 1.7 3.8 2.6 6.6 2.6 2.4 0 4.4-.6 6-1.9 1.6-1.3 2.4-3 2.5-5.3l-2.6-.1z"/><path fill="#20386D" d="M17.7 82.1L6.2 66.5v15.6H1.1V58.2h5.2l11.1 15v-15h5.1v23.9h-4.8zM37.6 82.1v-1.8c-1.2 1.4-3.2 2.2-5.5 2.2-2.8 0-6-1.9-6-5.7 0-4.1 3.3-5.6 6-5.6 2.3 0 4.3.8 5.5 2.1V71c0-1.8-1.5-2.9-3.8-2.9-1.9 0-3.6.7-5.1 2l-1.7-3c2.1-1.9 4.8-2.7 7.6-2.7 3.9 0 7.6 1.6 7.6 6.6v11.2h-4.6zm0-4.2v-2.2c-.8-1-2.2-1.5-3.7-1.5-1.8 0-3.3.9-3.3 2.6 0 1.6 1.5 2.5 3.3 2.5 1.5.1 3-.4 3.7-1.4zM47.6 77.8v-9h-2.9v-4h2.9V60h4.6v4.7h3.5v4h-3.5v7.8c0 1.1.6 1.9 1.6 1.9.7 0 1.3-.3 1.6-.5l1 3.4c-.7.6-1.9 1.1-3.8 1.1-3.3.1-5-1.5-5-4.6zM60.3 60.2c0-1.5 1.3-2.7 2.7-2.7 1.5 0 2.7 1.2 2.7 2.7 0 1.5-1.2 2.7-2.7 2.7-1.4 0-2.7-1.2-2.7-2.7zm.5 21.9V64.8h4.6v17.3h-4.6zM69.8 73.4c0-4.9 3.4-9.1 9.1-9.1 5.7 0 9.2 4.2 9.2 9.1 0 4.9-3.4 9.1-9.2 9.1-5.7 0-9.1-4.2-9.1-9.1zm13.6 0c0-2.7-1.6-5-4.4-5-2.8 0-4.4 2.3-4.4 5s1.6 5.1 4.4 5.1c2.8 0 4.4-2.4 4.4-5.1zM104.2 82.1V71.6c0-2.4-1.3-3.2-3.2-3.2-1.8 0-3.2 1-3.9 2v11.7h-4.6V64.8H97V67c1.1-1.3 3.2-2.7 6.1-2.7 3.8 0 5.6 2.2 5.6 5.5V82h-4.5zM123.7 82.1v-1.8c-1.2 1.4-3.2 2.2-5.5 2.2-2.8 0-6-1.9-6-5.7 0-4.1 3.3-5.6 6-5.6 2.3 0 4.3.8 5.5 2.1V71c0-1.8-1.5-2.9-3.8-2.9-1.9 0-3.6.7-5.1 2l-1.7-3c2.1-1.9 4.8-2.7 7.6-2.7 3.9 0 7.6 1.6 7.6 6.6v11.2h-4.6zm0-4.2v-2.2c-.8-1-2.2-1.5-3.7-1.5-1.8 0-3.3.9-3.3 2.6 0 1.6 1.5 2.5 3.3 2.5 1.5.1 2.9-.4 3.7-1.4zM133.7 82.1V58.2h4.6v23.9h-4.6zM0 100c0-7.4 5.6-12.4 12.7-12.4 5.3 0 8.3 2.9 10 5.8l-4.4 2.2c-1-1.9-3.2-3.5-5.6-3.5-4.3 0-7.5 3.3-7.5 7.9s3.2 7.9 7.5 7.9c2.5 0 4.6-1.5 5.6-3.5l4.4 2.1c-1.7 3-4.7 5.9-10 5.9-7.1 0-12.7-5-12.7-12.4zM24.6 103.3c0-4.9 3.4-9.1 9.1-9.1 5.7 0 9.2 4.2 9.2 9.1 0 4.9-3.4 9.1-9.2 9.1-5.7 0-9.1-4.2-9.1-9.1zm13.6 0c0-2.7-1.6-5-4.4-5s-4.4 2.3-4.4 5 1.6 5.1 4.4 5.1 4.4-2.4 4.4-5.1zM47.3 112V88h4.6v24h-4.6zM57.4 112V88H62v24h-4.6zM66.3 103.3c0-5 3.7-9.1 9-9.1 5.2 0 8.7 3.9 8.7 9.5v1H71.1c.3 2.2 2 4 5 4 1.5 0 3.5-.6 4.6-1.7l2 2.9c-1.7 1.6-4.4 2.4-7.1 2.4-5.3.1-9.3-3.4-9.3-9zm9-5.5c-2.8 0-4.1 2.1-4.3 3.8h8.5c0-1.6-1.2-3.8-4.2-3.8zM87.9 116.4l2-3.3c1.4 1.5 3.2 2.2 5.4 2.2s4.8-1 4.8-4.4v-1.8c-1.4 1.7-3.2 2.7-5.3 2.7-4.3 0-7.6-3-7.6-8.8 0-5.7 3.3-8.8 7.6-8.8 2.1 0 3.9.9 5.3 2.7v-2.2h4.6v16.1c0 6.6-5.1 8.2-9.4 8.2-2.9 0-5.2-.7-7.4-2.6zm12.3-10.6v-5.6c-.8-1.1-2.4-2-3.9-2-2.6 0-4.4 1.8-4.4 4.8s1.8 4.8 4.4 4.8c1.5 0 3.1-.9 3.9-2zM108.2 103.3c0-5 3.7-9.1 9-9.1 5.2 0 8.7 3.9 8.7 9.5v1H113c.3 2.2 2 4 5 4 1.5 0 3.5-.6 4.6-1.7l2 2.9c-1.7 1.6-4.4 2.4-7.1 2.4-5.4.1-9.3-3.4-9.3-9zm8.9-5.5c-2.8 0-4.1 2.1-4.3 3.8h8.5c0-1.6-1.2-3.8-4.2-3.8zM141.4 112V88h16.9v4.5h-11.8v5.1h11.6v4.5h-11.6v9.9h-5.1zM172.2 112v-1.8c-1.2 1.4-3.2 2.2-5.5 2.2-2.8 0-6-1.9-6-5.7 0-4.1 3.3-5.6 6-5.6 2.3 0 4.3.8 5.5 2.1v-2.3c0-1.8-1.5-2.9-3.8-2.9-1.9 0-3.6.7-5.1 2l-1.7-3c2.1-1.9 4.8-2.7 7.6-2.7 3.9 0 7.6 1.6 7.6 6.6V112h-4.6zm0-4.2v-2.2c-.8-1-2.2-1.5-3.7-1.5-1.8 0-3.3.9-3.3 2.6 0 1.6 1.5 2.5 3.3 2.5 1.5.1 2.9-.4 3.7-1.4zM181.8 90.1c0-1.5 1.3-2.7 2.7-2.7 1.5 0 2.7 1.2 2.7 2.7s-1.2 2.7-2.7 2.7c-1.4 0-2.7-1.2-2.7-2.7zm.5 21.9V94.6h4.6V112h-4.6zM192.3 112V94.6h4.6V97c1.2-1.5 3.4-2.8 5.5-2.8v4.4c-.3-.1-.8-.1-1.3-.1-1.5 0-3.5.9-4.3 2V112h-4.5zM204.8 109.7l2-3.2c1.3 1.2 3.8 2.4 6 2.4 2 0 2.9-.8 2.9-1.9 0-2.9-10.3-.5-10.3-7.4 0-2.9 2.5-5.5 7.1-5.5 2.9 0 5.3 1 7 2.4l-1.8 3.1c-1-1.1-3-2-5.1-2-1.7 0-2.7.8-2.7 1.7 0 2.6 10.3.4 10.3 7.4 0 3.2-2.7 5.6-7.5 5.6-3.2.1-6.1-.9-7.9-2.6z"/></svg>