<svg id="Layer_1" data-name="Layer 1" xmlns="http://www.w3.org/2000/svg" viewBox="0 0 300 98.47"><defs><style>.cls-1{fill:#4486f4;}.cls-2{fill:#ea4537;}.cls-3{fill:#fbbd07;}.cls-4{fill:#36a954;}</style></defs><title>google</title><path class="cls-1" d="M56.35,46.83H72.56c0.24,0,.49,0,0.73,0a0.62,0.62,0,0,1,.73.67c0.1,0.93.27,1.85,0.33,2.78A40.24,40.24,0,0,1,71.91,67.7a31,31,0,0,1-9.12,12.56A33.56,33.56,0,0,1,45.41,88,38.66,38.66,0,0,1,24.12,85.6C10.75,79.79,2.54,69.72.41,55.22-1.2,44.22,2,34.37,9.13,25.87A38.55,38.55,0,0,1,42.79,12.31a35.83,35.83,0,0,1,18,6.84A38.47,38.47,0,0,1,64.33,22a0.6,0.6,0,0,1,.06,1c-2.14,2.17-4.25,4.37-6.38,6.55-0.44.45-.47,0.42-1.09-0.13a26.55,26.55,0,0,0-19.36-6.84,26.57,26.57,0,0,0-18.88,8.79A26.34,26.34,0,0,0,11.93,45,27.65,27.65,0,0,0,17.51,67.8a26,26,0,0,0,15.8,9.61A28.06,28.06,0,0,0,49.9,75.91,21.72,21.72,0,0,0,61,66.29,24.42,24.42,0,0,0,63.58,58c0.09-.63,0-0.67-0.68-0.68q-3.12,0-6.23,0H40.25c-0.28,0-.55,0-0.83,0a0.56,0.56,0,0,1-.68-0.67q0-4.57,0-9.14a0.56,0.56,0,0,1,.68-0.66c0.87,0,1.73,0,2.6,0H56.35Z" transform="translate(0 -12.1)"/><path class="cls-1" d="M221.76,44.71a1,1,0,0,0,.2-0.9c0-.76,0-1.52,0-2.28a0.55,0.55,0,0,1,.63-0.71q4.52,0,9,0a0.53,0.53,0,0,1,.64.61c0,0.24,0,.48,0,0.73q0,20.93,0,41.86a36.61,36.61,0,0,1-1.49,11.38c-2.73,8.41-8.52,13.3-17.2,14.78a25.34,25.34,0,0,1-11.42-.54,23.87,23.87,0,0,1-14.8-12.89C187,96,187,96,187.79,95.67l8-3.31c0.71-.29.73-0.28,1.08,0.43a14.57,14.57,0,0,0,5.15,6,12.63,12.63,0,0,0,8.11,2,13.46,13.46,0,0,0,5.93-1.7,11.69,11.69,0,0,0,5.36-7.59,30.69,30.69,0,0,0,.59-7.95,0.43,0.43,0,0,0-.16-0.46c-0.35-.15-0.48.2-0.65,0.38a16.28,16.28,0,0,1-10,4.87A20.66,20.66,0,0,1,198.62,86,24,24,0,0,1,185.35,67.3,24.08,24.08,0,0,1,190.86,48a23,23,0,0,1,12.64-8.07,18.77,18.77,0,0,1,15.07,2.2,13.31,13.31,0,0,1,2.42,2A1.51,1.51,0,0,0,221.76,44.71Zm0.92,18.83a15.5,15.5,0,0,0-1.1-5.8,12.79,12.79,0,0,0-22.71-3.16A15.71,15.71,0,0,0,196,65.07a14.27,14.27,0,0,0,5.91,11.18,12.62,12.62,0,0,0,17.75-2.58A16,16,0,0,0,222.68,63.54Z" transform="translate(0 -12.1)"/><path class="cls-2" d="M103,39.26c8.83,0.35,16.18,4.13,21,12.26A24.16,24.16,0,0,1,127,66.42a24.2,24.2,0,0,1-24.3,22c-9.29,0-16.61-3.87-21.51-11.85-5.3-8.64-4.9-21.92,3.9-30.42a24.19,24.19,0,0,1,13.7-6.62C100.05,39.37,101.3,39.35,103,39.26Zm13.34,24.08A15.32,15.32,0,0,0,115,57.25,13.58,13.58,0,0,0,92.2,53.73a16.16,16.16,0,0,0-1.09,18.81,13.46,13.46,0,0,0,22,1A15.55,15.55,0,0,0,116.32,63.34Z" transform="translate(0 -12.1)"/><path class="cls-3" d="M156.09,88.45c-10.23-.39-18-4.76-22.48-14.19a24.89,24.89,0,0,1,5.13-28.11,23.79,23.79,0,0,1,13.91-6.62,24.65,24.65,0,0,1,17.43,4,23.5,23.5,0,0,1,10.56,18,23.82,23.82,0,0,1-2.39,13.42c-4.12,8.07-10.83,12.45-19.78,13.47-0.41,0-.83.07-1.24,0.08S156.48,88.45,156.09,88.45Zm13.83-24.59a15.47,15.47,0,0,0-2.3-8.39,13.53,13.53,0,0,0-22.3-1.12A16.15,16.15,0,0,0,145,73a13.46,13.46,0,0,0,20.81,1.53A14.9,14.9,0,0,0,169.93,63.86Z" transform="translate(0 -12.1)"/><path class="cls-2" d="M277.77,88.46a22.74,22.74,0,0,1-17-8.32,24.07,24.07,0,0,1-5.69-14.75A25.8,25.8,0,0,1,258.76,50a21.57,21.57,0,0,1,17.82-10.61c8-.49,14.21,2.82,18.93,9.17a35.17,35.17,0,0,1,4.36,8.58c0.24,0.62.22,0.64-.62,1l-16.31,6.75-14.68,6.07c-0.13.05-.25,0.12-0.38,0.16-0.49.16-.54,0.44-0.3,0.87a12.05,12.05,0,0,0,8.24,6.44c5.85,1.2,11.24-.56,14.92-5.79,0.46-.65.47-0.66,1.13-0.23L299,77.14c0.64,0.43.65,0.45,0.22,1C294.25,84.85,287.27,88.5,277.77,88.46Zm-12.3-25.4c0.38-.13.61-0.19,0.83-0.28L286,54.58c1.52-.63,1.55-0.73.54-2a9.6,9.6,0,0,0-6.76-3.62c-5.38-.69-10.52,2.68-12.76,7A14.39,14.39,0,0,0,265.47,63.06Z" transform="translate(0 -12.1)"/><path class="cls-4" d="M239.42,50.81q0-17.45,0-34.9c0-1.34-.13-1.26,1.2-1.25l8.73,0c0.87,0,.87,0,0.89.85,0,0.17,0,.35,0,0.52q0,34.8,0,69.6c0,1.45.23,1.33-1.32,1.34H240a0.45,0.45,0,0,1-.56-0.54c0-.28,0-0.55,0-0.83Q239.42,68.21,239.42,50.81Z" transform="translate(0 -12.1)"/></svg>