<svg id="Layer_1" data-name="Layer 1" xmlns="http://www.w3.org/2000/svg" viewBox="0 0 284.5 106.5789"><title>NACAC_conf_logo</title><path d="M3.237,105.07l0.8685-.9926a3.6888,3.6888,0,0,0,2.4815.9926c0.8685,0,1.3648-.3722,1.3648-0.9926h0c0-.4963-0.2481-0.8685-1.737-1.2407-1.613-.3722-2.6055-0.8685-2.6055-2.3574h0a2.33,2.33,0,0,1,2.6055-2.2333,4.6839,4.6839,0,0,1,2.8537.9926l-0.7444.9926a3.6408,3.6408,0,0,0-2.1092-.7444,1.0569,1.0569,0,0,0-1.2407.8685h0c0,0.62.3722,0.8685,1.8611,1.2407,1.613,0.3722,2.4815.9926,2.4815,2.2333h0c0,1.4889-1.1167,2.3574-2.73,2.3574A3.9856,3.9856,0,0,1,3.237,105.07Z" transform="translate(-1.5 -1.4685)"/><path d="M10.3092,103.3327h0a2.947,2.947,0,0,1,2.8537-3.1018,2.8668,2.8668,0,0,1,2.8537,3.1018v0.3722H11.674a1.6406,1.6406,0,0,0,1.737,1.4889,2.1841,2.1841,0,0,0,1.613-.7444l0.7444,0.7444A3.0713,3.0713,0,0,1,13.411,106.31,2.9,2.9,0,0,1,10.3092,103.3327Zm4.3426-.4963a1.4889,1.4889,0,0,0-2.9778,0h2.9778Z" transform="translate(-1.5 -1.4685)"/><path d="M17.2573,100.3549h1.3648v0.9926a2.1947,2.1947,0,0,1,1.9852-1.1167,2.8156,2.8156,0,0,1,2.73,2.9778h0a2.7413,2.7413,0,0,1-2.73,2.9778,2.3861,2.3861,0,0,1-1.9852-.9926v2.73H17.2573v-7.5685Zm4.7148,2.9778h0a1.71,1.71,0,0,0-1.613-1.8611,1.8037,1.8037,0,0,0-1.737,1.8611h0a1.73,1.73,0,0,0,1.737,1.8611A1.71,1.71,0,0,0,21.9721,103.3327Z" transform="translate(-1.5 -1.4685)"/><path d="M24.95,104.5734v-3.1018H24.2054v-1.1167H24.95V98.742h1.3648v1.613h1.613v1.1167h-1.613v2.8537a0.658,0.658,0,0,0,.7444.7444,2.3,2.3,0,0,0,.8685-0.2481v1.1167a2.04,2.04,0,0,1-1.2407.2481A1.387,1.387,0,0,1,24.95,104.5734Z" transform="translate(-1.5 -1.4685)"/><path d="M29.1683,104.6975h1.4889v1.4889H29.1683v-1.4889Z" transform="translate(-1.5 -1.4685)"/><path d="M35.2479,105.1938l2.6055-2.2333c1.1167-.8685,1.4889-1.3648,1.4889-2.1092A1.1722,1.1722,0,0,0,38.1016,99.61a2.0039,2.0039,0,0,0-1.737,1.1167l-0.9926-.7444a3.2818,3.2818,0,0,1,2.8537-1.613,2.3506,2.3506,0,0,1,2.6055,2.3574h0c0,1.2407-.62,1.8611-1.9852,2.9778l-1.613,1.3648h3.7222V106.31H35.372l-0.1241-1.1167h0Z" transform="translate(-1.5 -1.4685)"/><path d="M42.072,105.1938l2.6055-2.2333c1.1167-.8685,1.4889-1.3648,1.4889-2.1092A1.1722,1.1722,0,0,0,44.9256,99.61a2.0039,2.0039,0,0,0-1.737,1.1167l-0.9926-.7444A3.2818,3.2818,0,0,1,45.05,98.37a2.3506,2.3506,0,0,1,2.6055,2.3574h0c0,1.2407-.62,1.8611-1.9852,2.9778l-1.613,1.3648h3.7222V106.31H42.196v-1.1167H42.072Z" transform="translate(-1.5 -1.4685)"/><path d="M48.896,102.216h4.5907v1.2407H48.896V102.216Z" transform="translate(-1.5 -1.4685)"/><path d="M54.6034,105.1938l2.6055-2.2333c1.1167-.8685,1.4889-1.3648,1.4889-2.1092A1.1722,1.1722,0,0,0,57.457,99.61a2.0039,2.0039,0,0,0-1.737,1.1167l-0.9926-.7444a3.2818,3.2818,0,0,1,2.8537-1.613,2.3506,2.3506,0,0,1,2.6055,2.3574h0c0,1.2407-.62,1.8611-1.9852,2.9778l-1.613,1.3648h3.7222V106.31H54.7274v-1.1167H54.6034Z" transform="translate(-1.5 -1.4685)"/><path d="M65.2737,104.4493H61.4274l-0.2481-.9926,4.3426-5.087h1.1167v4.9629h1.1167v1.1167H66.6385v1.737H65.2737v-1.737Zm0-1.1167v-3.1018l-2.4815,3.1018h2.4815Z" transform="translate(-1.5 -1.4685)"/><path d="M68.6236,107.303a1.0612,1.0612,0,0,0,.9926-0.9926h-0.62v-1.4889h1.4889v1.2407a1.6645,1.6645,0,0,1-1.737,1.8611Z" transform="translate(-1.5 -1.4685)"/><path d="M75.0754,105.1938L77.681,102.96c1.1167-.8685,1.4889-1.3648,1.4889-2.1092A1.1722,1.1722,0,0,0,77.9291,99.61a2.0039,2.0039,0,0,0-1.737,1.1167L75.2,99.9827a3.2818,3.2818,0,0,1,2.8537-1.613,2.3506,2.3506,0,0,1,2.6055,2.3574h0c0,1.2407-.62,1.8611-1.9852,2.9778l-1.613,1.3648h3.7222V106.31H75.2l-0.1241-1.1167h0Z" transform="translate(-1.5 -1.4685)"/><path d="M81.8995,102.34h0c0-2.2333,1.3648-3.97,3.35-3.97s3.35,1.737,3.35,3.97h0c0,2.2333-1.3648,3.97-3.35,3.97S81.8995,104.5734,81.8995,102.34Zm5.3352,0h0c0-1.4889-.7444-2.8537-1.9852-2.8537s-1.9852,1.2407-1.9852,2.73h0c0,1.4889.7444,2.73,1.9852,2.73C86.49,105.07,87.2346,103.829,87.2346,102.34Z" transform="translate(-1.5 -1.4685)"/><path d="M91.205,99.7346l-1.3648.3722L89.592,98.99l1.9852-.62H92.57v7.8166H91.205V99.7346h0Z" transform="translate(-1.5 -1.4685)"/><path d="M95.1753,105.566a3.7035,3.7035,0,0,1-.9926-2.9778h0c0-2.3574,1.1167-4.2185,3.35-4.2185a3.6418,3.6418,0,0,1,2.3574.8685l-0.7444.9926a2.69,2.69,0,0,0-1.737-.62c-1.3648,0-1.8611,1.3648-1.8611,2.4815a2.3407,2.3407,0,0,1,1.8611-.7444,2.4781,2.4781,0,0,1,2.73,2.4815h0a2.6838,2.6838,0,0,1-2.8537,2.6055A3.6456,3.6456,0,0,1,95.1753,105.566Zm3.7222-1.8611h0a1.6355,1.6355,0,0,0-3.2259,0h0a1.449,1.449,0,0,0,1.613,1.3648A1.382,1.382,0,0,0,98.8975,103.7049Z" transform="translate(-1.5 -1.4685)"/><path d="M108.8234,97.3772H109.94v10.2981h-1.1167V97.3772Z" transform="translate(-1.5 -1.4685)" style="fill:#004868"/><path d="M118.5011,102.34h0a3.8458,3.8458,0,0,1,3.97-3.97,3.9054,3.9054,0,0,1,2.9778,1.2407l-0.8685.9926a2.84,2.84,0,0,0-2.1092-.9926,2.6494,2.6494,0,0,0-2.6055,2.73h0a2.6494,2.6494,0,0,0,2.6055,2.73,2.9055,2.9055,0,0,0,2.2333-.9926l0.8685,0.8685a4.0325,4.0325,0,0,1-3.1018,1.3648A3.8458,3.8458,0,0,1,118.5011,102.34Z" transform="translate(-1.5 -1.4685)"/><path d="M126.3177,103.3327h0a3.1031,3.1031,0,0,1,6.2037-.1241h0a3.0469,3.0469,0,0,1-3.1018,2.9778A2.8723,2.8723,0,0,1,126.3177,103.3327Zm4.9629,0h0a1.8027,1.8027,0,0,0-1.737-1.8611,1.7263,1.7263,0,0,0-1.737,1.8611h0A1.7412,1.7412,0,1,0,131.2806,103.3327Z" transform="translate(-1.5 -1.4685)"/><path d="M134.01,98.1216h1.3648v8.0648H134.01V98.1216Z" transform="translate(-1.5 -1.4685)"/><path d="M137.1121,104.0771v-3.7222h1.3648v3.35a1.21,1.21,0,0,0,1.2407,1.3648,1.3384,1.3384,0,0,0,1.3648-1.4889v-3.35h1.3648v5.8314h-1.3648v-0.8685a2.1467,2.1467,0,0,1-1.8611.9926A1.8478,1.8478,0,0,1,137.1121,104.0771Z" transform="translate(-1.5 -1.4685)"/><path d="M143.9361,100.3549h1.3648v0.8685a2.089,2.089,0,0,1,1.737-.9926,1.7253,1.7253,0,0,1,1.737.9926,2.4109,2.4109,0,0,1,1.9852-.9926,1.9641,1.9641,0,0,1,1.9852,2.2333v3.7222H151.38v-3.35a1.2614,1.2614,0,1,0-2.4815,0v3.35h-1.3648v-3.35a1.21,1.21,0,0,0-1.2407-1.3648,1.2553,1.2553,0,0,0-1.2407,1.4889v3.35h-1.3648l0.2482-5.9555h0Z" transform="translate(-1.5 -1.4685)"/><path d="M155.8471,105.3179v0.8685h-1.3648V98.1216h1.3648v3.2259a2.1947,2.1947,0,0,1,1.9852-1.1167,2.8156,2.8156,0,0,1,2.73,2.9778h0a2.7413,2.7413,0,0,1-2.73,2.9778A2.0489,2.0489,0,0,1,155.8471,105.3179Zm3.35-1.9852h0a1.71,1.71,0,0,0-1.613-1.8611,1.8037,1.8037,0,0,0-1.737,1.8611h0a1.73,1.73,0,0,0,1.737,1.8611A1.71,1.71,0,0,0,159.1971,103.3327Z" transform="translate(-1.5 -1.4685)"/><path d="M161.8027,104.0771v-3.7222h1.3648v3.35a1.21,1.21,0,0,0,1.2407,1.3648,1.3384,1.3384,0,0,0,1.3648-1.4889v-3.35h1.3648v5.8314H165.773v-0.8685a2.1467,2.1467,0,0,1-1.8611.9926A1.8478,1.8478,0,0,1,161.8027,104.0771Z" transform="translate(-1.5 -1.4685)"/><path d="M168.2545,105.4419l0.62-.8685a3.2685,3.2685,0,0,0,1.8611.7444c0.62,0,.8685-0.2481.8685-0.62h0c0-.4963-0.62-0.62-1.3648-0.8685-0.8685-.2481-1.8611-0.62-1.8611-1.737h0c0-1.1167.8685-1.737,2.1092-1.737a4.1826,4.1826,0,0,1,2.1092.62l-0.4963.9926a3.0038,3.0038,0,0,0-1.613-.4963,0.7452,0.7452,0,0,0-.8685.62h0c0,0.3722.62,0.62,1.3648,0.8685,0.8685,0.2481,1.8611.62,1.8611,1.737h0a1.8931,1.8931,0,0,1-2.1092,1.8611A6.3954,6.3954,0,0,1,168.2545,105.4419Z" transform="translate(-1.5 -1.4685)"/><path d="M173.8378,107.303a1.0612,1.0612,0,0,0,.9926-0.9926h-0.62v-1.4889h1.4889v1.2407a1.6645,1.6645,0,0,1-1.737,1.8611Z" transform="translate(-1.5 -1.4685)"/><path d="M180.4136,102.34h0a3.95,3.95,0,0,1,4.0944-3.97,4.0258,4.0258,0,0,1,4.0944,3.97h0A4.0964,4.0964,0,0,1,180.4136,102.34Zm6.7,0h0a2.6084,2.6084,0,1,0-5.2111,0h0A2.6084,2.6084,0,1,0,187.1136,102.34Z" transform="translate(-1.5 -1.4685)"/><path d="M190.0913,98.4938h1.3648V101.72h3.7222V98.4938h1.3648v7.6925h-1.3648V102.96h-3.7222v3.2259h-1.3648V98.4938Z" transform="translate(-1.5 -1.4685)"/><path d="M205.4764,97.3772h1.1167v10.2981h-1.1167V97.3772Z" transform="translate(-1.5 -1.4685)" style="fill:#004868"/><path d="M215.2782,100.3549h1.3648v0.8685a2.1467,2.1467,0,0,1,1.8611-.9926,1.9919,1.9919,0,0,1,2.1092,2.2333v3.7222h-1.3648v-3.35a1.3175,1.3175,0,0,0-1.2407-1.4889,1.3384,1.3384,0,0,0-1.3648,1.4889v3.35h-1.3648v-5.8314h0Z" transform="translate(-1.5 -1.4685)"/><path d="M221.8541,104.5734h0c0-1.2407.9926-1.8611,2.3574-1.8611a6.2864,6.2864,0,0,1,1.613.2481v-0.1241c0-.8685-0.4963-1.2407-1.4889-1.2407a3.4345,3.4345,0,0,0-1.613.3722l-0.3722-.9926a5.408,5.408,0,0,1,2.2333-.4963,3.1571,3.1571,0,0,1,1.9852.62,2.5683,2.5683,0,0,1,.62,1.8611v3.4741h-1.3648V105.69a2.2407,2.2407,0,0,1-1.8611.8685C222.7226,106.31,221.8541,105.69,221.8541,104.5734Zm3.97-.4963v-0.3722a3.83,3.83,0,0,0-1.3648-.2481c-0.8685,0-1.3648.3722-1.3648,0.9926h0a0.9278,0.9278,0,0,0,1.1167.8685A1.4363,1.4363,0,0,0,225.8245,104.0771Z" transform="translate(-1.5 -1.4685)"/><path d="M228.3059,103.3327h0a3.0725,3.0725,0,0,1,5.3351-2.1092l-0.8685.8685a2.1628,2.1628,0,0,0-1.4889-.7444,1.8027,1.8027,0,0,0-1.737,1.8611h0a1.8027,1.8027,0,0,0,1.737,1.8611,1.7686,1.7686,0,0,0,1.4889-.7444l0.7444,0.7444a3.0713,3.0713,0,0,1-2.3574,1.1167A2.806,2.806,0,0,1,228.3059,103.3327Z" transform="translate(-1.5 -1.4685)"/><path d="M234.6337,104.5734h0c0-1.2407.9926-1.8611,2.3574-1.8611a6.2864,6.2864,0,0,1,1.613.2481v-0.1241c0-.8685-0.4963-1.2407-1.4889-1.2407a3.4345,3.4345,0,0,0-1.613.3722l-0.3722-.9926a5.408,5.408,0,0,1,2.2333-.4963,3.1571,3.1571,0,0,1,1.9852.62,2.5683,2.5683,0,0,1,.62,1.8611v3.4741H238.604V105.69a2.2407,2.2407,0,0,1-1.8611.8685C235.6262,106.31,234.6337,105.69,234.6337,104.5734Zm3.97-.4963v-0.3722a3.83,3.83,0,0,0-1.3648-.2481c-0.8685,0-1.3648.3722-1.3648,0.9926h0a0.9278,0.9278,0,0,0,1.1167.8685A1.3673,1.3673,0,0,0,238.604,104.0771Z" transform="translate(-1.5 -1.4685)"/><path d="M241.21,103.3327h0a3.0725,3.0725,0,0,1,5.3351-2.1092l-0.8685.8685a2.1628,2.1628,0,0,0-1.4889-.7444,1.8027,1.8027,0,0,0-1.737,1.8611h0a1.8027,1.8027,0,0,0,1.737,1.8611,1.7686,1.7686,0,0,0,1.4889-.7444l0.7444,0.7444a3.0713,3.0713,0,0,1-2.3574,1.1167A2.7356,2.7356,0,0,1,241.21,103.3327Z" transform="translate(-1.5 -1.4685)"/><path d="M247.7854,100.3549H249.15v0.8685a2.1467,2.1467,0,0,1,1.8611-.9926,1.9919,1.9919,0,0,1,2.1092,2.2333v3.7222h-1.3648v-3.35a1.3175,1.3175,0,0,0-1.2407-1.4889,1.3384,1.3384,0,0,0-1.3648,1.4889v3.35h-1.3648v-5.8314h0Z" transform="translate(-1.5 -1.4685)"/><path d="M254.3613,103.3327h0a2.947,2.947,0,0,1,2.8537-3.1018,2.8668,2.8668,0,0,1,2.8537,3.1018v0.3722h-4.3426a1.6406,1.6406,0,0,0,1.737,1.4889,2.1841,2.1841,0,0,0,1.613-.7444l0.7444,0.7444a3.0713,3.0713,0,0,1-2.3574,1.1167A2.9,2.9,0,0,1,254.3613,103.3327Zm4.3426-.4963a1.4889,1.4889,0,0,0-2.9778,0h2.9778Z" transform="translate(-1.5 -1.4685)"/><path d="M261.5576,104.5734v-3.1018h-0.7444v-1.1167h0.7444V98.742h1.3648v1.613h1.613v1.1167h-1.613v2.8537a0.658,0.658,0,0,0,.7444.7444,2.3,2.3,0,0,0,.8685-0.2481v1.1167a2.04,2.04,0,0,1-1.2407.2481A1.387,1.387,0,0,1,261.5576,104.5734Z" transform="translate(-1.5 -1.4685)"/><path d="M265.776,104.6975h1.4889v1.4889H265.776v-1.4889Z" transform="translate(-1.5 -1.4685)"/><path d="M268.2575,103.3327h0a3.1031,3.1031,0,0,1,6.2037-.1241h0a3.0469,3.0469,0,0,1-3.1018,2.9778A2.8723,2.8723,0,0,1,268.2575,103.3327Zm4.9629,0h0a1.8027,1.8027,0,0,0-1.737-1.8611,1.7263,1.7263,0,0,0-1.737,1.8611h0A1.7412,1.7412,0,1,0,273.22,103.3327Z" transform="translate(-1.5 -1.4685)"/><path d="M275.95,100.3549h1.3648V101.72a1.931,1.931,0,0,1,2.1092-1.3648V101.72H279.3c-1.1167,0-1.9852.7444-1.9852,2.3574V106.31H275.95v-5.9555h0Z" transform="translate(-1.5 -1.4685)"/><path d="M280.2926,107.303l0.4963-.9926a3.845,3.845,0,0,0,2.1092.62,1.61,1.61,0,0,0,1.8611-1.737v-0.4963a2.589,2.589,0,0,1-4.7148-1.6129h0a2.5749,2.5749,0,0,1,2.6055-2.73,2.3861,2.3861,0,0,1,1.9852.9926V100.479H286V105.07a3.0332,3.0332,0,0,1-.7444,2.2333,3.3588,3.3588,0,0,1-2.3574.7444A4.5869,4.5869,0,0,1,280.2926,107.303Zm4.4666-4.3426h0a1.598,1.598,0,0,0-1.737-1.613,1.564,1.564,0,0,0-1.613,1.613h0a1.564,1.564,0,0,0,1.613,1.613A1.6677,1.6677,0,0,0,284.7592,102.96Z" transform="translate(-1.5 -1.4685)"/><path d="M107.3345,50.85V29.6332h2.9778l6.824,10.67a49.7108,49.7108,0,0,1,3.8463,6.9481h0.1241c-0.2481-2.8537-.3722-5.4592-0.3722-8.6851V29.6332H123.34V50.85h-2.73l-6.7-10.7944c-1.4889-2.3574-2.8537-4.8389-3.97-7.0722H109.816c0.1241,2.73.2481,5.2111,0.2481,8.6851v9.0574l-2.73.1241h0Z" transform="translate(-1.5 -1.4685)" style="fill:#0081c6"/><path d="M136.3676,50.85l-0.2481-1.8611h-0.1241a5.5911,5.5911,0,0,1-4.7148,2.2333,4.4085,4.4085,0,0,1-4.7148-4.3426c0-3.7222,3.2259-5.7074,9.1814-5.7074V40.8a3.13,3.13,0,0,0-3.4741-3.4741,8.6577,8.6577,0,0,0-3.97,1.1167l-0.62-1.8611a8.9778,8.9778,0,0,1,4.9629-1.3648c4.7148,0,5.8314,3.2259,5.8314,6.2037v5.7074a28.8906,28.8906,0,0,0,.2481,3.5981l-2.3574.1241h0Zm-0.3722-7.6925c-2.9778-.1241-6.4518.4963-6.4518,3.4741a2.4708,2.4708,0,0,0,2.6055,2.6055,3.8447,3.8447,0,0,0,3.7222-2.6055,2.1113,2.1113,0,0,0,.1241-0.8685V43.1572h0Z" transform="translate(-1.5 -1.4685)" style="fill:#0081c6"/><path d="M146.4176,31.2461v4.3426h3.97v2.1092h-3.97v8.1888c0,1.8611.4963,2.9778,2.1092,2.9778a4.861,4.861,0,0,0,1.613-.2481l0.1241,2.1092a6.1022,6.1022,0,0,1-2.4815.3722,3.8375,3.8375,0,0,1-2.9778-1.1167,6.0612,6.0612,0,0,1-1.1167-3.97V37.6979h-2.3574V35.5887h2.3574V31.9906Z" transform="translate(-1.5 -1.4685)" style="fill:#0081c6"/><path d="M156.4675,31.37a1.6277,1.6277,0,0,1-1.737,1.737,1.598,1.598,0,0,1-1.613-1.737,1.6962,1.6962,0,0,1,1.737-1.737A1.598,1.598,0,0,1,156.4675,31.37ZM153.49,50.85V35.7128h2.73v15.261h-2.73V50.85Z" transform="translate(-1.5 -1.4685)" style="fill:#0081c6"/><path d="M174.5822,43.1572c0,5.5833-3.8463,8.0648-7.5685,8.0648-4.0944,0-7.32-2.9778-7.32-7.8166,0-5.087,3.35-8.0648,7.5685-8.0648C171.6044,35.3405,174.5822,38.4424,174.5822,43.1572Zm-12.0351.1241c0,3.35,1.8611,5.8314,4.5907,5.8314,2.6055,0,4.5907-2.4815,4.5907-5.9555,0-2.6055-1.2407-5.8314-4.5907-5.8314C163.9119,37.45,162.5471,40.4275,162.5471,43.2812Z" transform="translate(-1.5 -1.4685)" style="fill:#0081c6"/><path d="M178.0562,39.8072c0-1.613,0-2.8537-.1241-4.0944h2.4815l0.1241,2.4815h0.1241a5.49,5.49,0,0,1,5.087-2.8537c2.1092,0,5.3352,1.2407,5.3352,6.4518V50.85h-2.73V42.0405c0-2.4815-.8685-4.4666-3.4741-4.4666a3.87,3.87,0,0,0-3.7222,2.8537,4.408,4.408,0,0,0-.2481,1.2407V50.85h-2.73l-0.1241-11.0425h0Z" transform="translate(-1.5 -1.4685)" style="fill:#0081c6"/><path d="M203.9876,50.85l-0.2481-1.8611h-0.1241a5.5911,5.5911,0,0,1-4.7148,2.2333,4.4085,4.4085,0,0,1-4.7148-4.3426c0-3.7222,3.2259-5.7074,9.1814-5.7074V40.8a3.13,3.13,0,0,0-3.4741-3.4741,8.6577,8.6577,0,0,0-3.97,1.1167l-0.62-1.8611a8.9778,8.9778,0,0,1,4.9629-1.3648c4.7148,0,5.8314,3.2259,5.8314,6.2037v5.7074a28.8906,28.8906,0,0,0,.2481,3.5981l-2.3574.1241h0Zm-0.3722-7.6925c-2.9778-.1241-6.4518.4963-6.4518,3.4741a2.4708,2.4708,0,0,0,2.6055,2.6055,3.8447,3.8447,0,0,0,3.7222-2.6055,2.1113,2.1113,0,0,0,.1241-0.8685V43.1572h0Z" transform="translate(-1.5 -1.4685)" style="fill:#0081c6"/><path d="M210.6875,28.5165h2.73V50.85h-2.73V28.5165Z" transform="translate(-1.5 -1.4685)" style="fill:#0081c6"/><path d="M122.2233,79.5106a13.5124,13.5124,0,0,1-5.5833.9926c-5.9555,0-10.4222-3.7222-10.4222-10.67,0-6.7,4.4666-11.1666,11.0425-11.1666a11.76,11.76,0,0,1,5.087.9926l-0.62,2.2333a9.7244,9.7244,0,0,0-4.2185-.8685c-4.9629,0-8.3129,3.2259-8.3129,8.8092,0,5.2111,2.9778,8.5611,8.1888,8.5611a11.9213,11.9213,0,0,0,4.4666-.8685Z" transform="translate(-1.5 -1.4685)" style="fill:#0081c6"/><path d="M138.9732,72.5625c0,5.5833-3.8463,8.0648-7.5685,8.0648-4.0944,0-7.32-2.9778-7.32-7.8166,0-5.087,3.35-8.0648,7.5685-8.0648C135.9954,64.6218,138.9732,67.8477,138.9732,72.5625Zm-12.0351.1241c0,3.35,1.8611,5.8314,4.5907,5.8314,2.6055,0,4.5907-2.4815,4.5907-5.9555,0-2.6055-1.2407-5.8314-4.5907-5.8314C128.3029,66.7311,126.9381,69.8329,126.9381,72.6866Z" transform="translate(-1.5 -1.4685)" style="fill:#0081c6"/><path d="M142.4472,69.0885c0-1.613,0-2.8537-.1241-4.0944h2.4815l0.1241,2.4815h0.1241a5.49,5.49,0,0,1,5.087-2.8537c2.1092,0,5.3352,1.2407,5.3352,6.4518V80.131h-2.73V71.3218c0-2.4815-.8685-4.4666-3.4741-4.4666a3.87,3.87,0,0,0-3.7222,2.8537,4.408,4.408,0,0,0-.2481,1.2407V80.131h-2.8537V69.0885h0Z" transform="translate(-1.5 -1.4685)" style="fill:#0081c6"/><path d="M160.19,80.2551V67.1033H158.08V64.9941H160.19V64.25a7.492,7.492,0,0,1,1.737-5.3352,5.3386,5.3386,0,0,1,3.7222-1.3648,5.5706,5.5706,0,0,1,2.3574.4963l-0.3722,2.1092a3.2862,3.2862,0,0,0-1.737-.3722c-2.3574,0-2.9778,2.1092-2.9778,4.4666v0.8685h3.7222v2.1092h-3.7222V80.3791A20.1042,20.1042,0,0,0,160.19,80.2551Z" transform="translate(-1.5 -1.4685)" style="fill:#0081c6"/><path d="M170.24,73.1829c0.1241,3.7222,2.4815,5.3352,5.2111,5.3352a11.1635,11.1635,0,0,0,4.2185-.7444l0.4963,1.9852a11.2984,11.2984,0,0,1-5.087.9926c-4.7148,0-7.4444-3.1018-7.4444-7.6925s2.73-8.1888,7.1963-8.1888c4.9629,0,6.3277,4.3426,6.3277,7.1963,0,0.62-.1241.9926-0.1241,1.2407L170.24,73.1829h0Zm8.0648-1.9852c0-1.737-.7444-4.4666-3.8463-4.4666-2.8537,0-3.97,2.6055-4.2185,4.4666h8.0648Z" transform="translate(-1.5 -1.4685)" style="fill:#0081c6"/><path d="M184.5081,69.8329c0-1.737,0-3.35-.1241-4.7148h2.4815l0.1241,2.9778h0.1241a4.7136,4.7136,0,0,1,4.2185-3.35,1.3434,1.3434,0,0,1,.7444.1241v2.4815a2.4188,2.4188,0,0,0-.9926-0.1241c-1.9852,0-3.35,1.4889-3.7222,3.5981a4.2206,4.2206,0,0,0-.1241,1.2407V80.131h-2.73V69.8329h0Z" transform="translate(-1.5 -1.4685)" style="fill:#0081c6"/><path d="M196.0469,73.1829c0.1241,3.7222,2.4815,5.3352,5.2111,5.3352a11.1635,11.1635,0,0,0,4.2185-.7444l0.4963,1.9852a11.2984,11.2984,0,0,1-5.087.9926c-4.7148,0-7.4444-3.1018-7.4444-7.6925s2.73-8.1888,7.1963-8.1888c4.9629,0,6.3277,4.3426,6.3277,7.1963,0,0.62-.1241.9926-0.1241,1.2407l-10.7944-.1241h0Zm8.0648-1.9852c0-1.737-.7444-4.4666-3.8463-4.4666-2.8537,0-3.97,2.6055-4.2185,4.4666h8.0648Z" transform="translate(-1.5 -1.4685)" style="fill:#0081c6"/><path d="M210.1912,69.0885c0-1.613,0-2.8537-.1241-4.0944h2.4815l0.1241,2.4815h0.1241a5.49,5.49,0,0,1,5.087-2.8537c2.1092,0,5.3352,1.2407,5.3352,6.4518V80.131h-2.73V71.3218c0-2.4815-.8685-4.4666-3.4741-4.4666a3.87,3.87,0,0,0-3.7222,2.8537,4.408,4.408,0,0,0-.2481,1.2407V80.131h-2.73l-0.1241-11.0425h0Z" transform="translate(-1.5 -1.4685)" style="fill:#0081c6"/><path d="M238.48,79.6347a10.4663,10.4663,0,0,1-4.3426.8685c-4.5907,0-7.5685-3.1018-7.5685-7.8166s3.2259-8.0648,8.1888-8.0648a9.5322,9.5322,0,0,1,3.8463.7444l-0.62,2.1092a6.4633,6.4633,0,0,0-3.2259-.7444c-3.4741,0-5.3352,2.6055-5.3352,5.7074,0,3.4741,2.2333,5.7074,5.3352,5.7074a7.0239,7.0239,0,0,0,3.35-.7444Z" transform="translate(-1.5 -1.4685)" style="fill:#0081c6"/><path d="M243.1947,73.1829c0.1241,3.7222,2.4815,5.3352,5.2111,5.3352a11.1635,11.1635,0,0,0,4.2185-.7444l0.4963,1.9852a11.2984,11.2984,0,0,1-5.087.9926c-4.7148,0-7.4444-3.1018-7.4444-7.6925s2.73-8.1888,7.1963-8.1888c4.9629,0,6.3277,4.3426,6.3277,7.1963,0,0.62-.1241.9926-0.1241,1.2407l-10.7944-.1241h0Zm8.0648-1.9852c0-1.737-.7444-4.4666-3.8463-4.4666-2.8537,0-3.97,2.6055-4.2185,4.4666h8.0648Z" transform="translate(-1.5 -1.4685)" style="fill:#0081c6"/><rect x="0.1241" y="27.5443" width="95.0401" height="51.6145" style="fill:#004868"/><path d="M1.7481,80.5032c33.3757-37.8423,80.1513-49.0089,94.792-51.49H1.6241Z" transform="translate(-1.5 -1.4685)" style="fill:#0081c6"/><path d="M1.5,21.32V1.9648H4.7259l10.05,14.02c0.2481,0.2481.3722,0.62,0.62,0.8685l0.3722,0.7444V1.9648h2.73V21.32H15.3962L5.2222,7.0518a2.7121,2.7121,0,0,0-.3722-0.62L4.4778,5.687V21.32H1.5Z" transform="translate(-1.5 -1.4685)" style="fill:#0081c6"/><path d="M58.9459,21.32L66.8866,1.9648h3.2259L78.0532,21.32H74.9514L73.4625,17.474h-10.05L61.9237,21.32H58.9459Zm5.5833-6.3277H72.594l-3.97-10.174Z" transform="translate(-1.5 -1.4685)" style="fill:#0081c6"/><path d="M93.8105,14.124h2.8537a7.18,7.18,0,0,1-2.73,5.5833,9.8365,9.8365,0,0,1-6.4518,2.1092,9.1655,9.1655,0,0,1-7.0722-2.73,10.901,10.901,0,0,1-2.6055-7.6925,9.4461,9.4461,0,0,1,2.73-7.1962,9.8558,9.8558,0,0,1,7.1963-2.6055A9.7023,9.7023,0,0,1,93.6865,3.33a6.8428,6.8428,0,0,1,2.73,4.5907H93.5624a4.4644,4.4644,0,0,0-1.9852-2.9778,6.525,6.525,0,0,0-3.97-.9926A6.4521,6.4521,0,0,0,82.52,6.0593c-1.2407,1.3648-1.737,3.35-1.737,5.8314a8.5391,8.5391,0,0,0,1.8611,5.7074,5.9846,5.9846,0,0,0,4.9629,2.1092,6.3645,6.3645,0,0,0,4.3426-1.4889A6.2878,6.2878,0,0,0,93.8105,14.124Z" transform="translate(-1.5 -1.4685)" style="fill:#0081c6"/><path d="M57.8293,5.3148a9.8826,9.8826,0,0,0-1.8611-2.1092,9.7023,9.7023,0,0,0-5.9555-1.737,13.4525,13.4525,0,0,0-5.2111.9926A63.2446,63.2446,0,0,0,33.635,7.5481L31.2776,1.9648H28.0517L20.111,21.32h2.9778c0.8685-1.737,4.7148-8.437,14.6406-13.4a17.36,17.36,0,0,0-4.8389,13.4h2.3574C34.5035,9.1611,46.5386,4.4463,46.5386,4.4463a7.8221,7.8221,0,0,1,3.2259-.62,7.5133,7.5133,0,0,1,3.97.9926A4.755,4.755,0,0,1,55.72,7.7963h2.8537A4.1921,4.1921,0,0,0,57.8293,5.3148ZM26.4387,13.1314l3.2259-8.437,1.613,4.2185A58.9317,58.9317,0,0,0,26.4387,13.1314Z" transform="translate(-1.5 -1.4685)" style="fill:#0081c6"/><path d="M55.9682,14.124a5.1193,5.1193,0,0,1-1.737,3.8463,7.0442,7.0442,0,0,1-4.3426,1.4889A6.366,6.366,0,0,1,44.9256,17.35a8.5392,8.5392,0,0,1-1.8611-5.7074,12.0378,12.0378,0,0,1,.1241-2.1092,6.81,6.81,0,0,0-2.8537,4.7148,9.833,9.833,0,0,0,2.2333,4.7148,9.1655,9.1655,0,0,0,7.0722,2.73,10.0759,10.0759,0,0,0,6.4518-2.1092A7.478,7.478,0,0,0,58.6978,14,19.21,19.21,0,0,1,55.9682,14.124Z" transform="translate(-1.5 -1.4685)" style="fill:#0081c6"/></svg>