<?xml version="1.0" encoding="utf-8"?>
<!-- Generator: Adobe Illustrator 19.2.0, SVG Export Plug-In . SVG Version: 6.00 Build 0)  -->
<svg version="1.1" id="Layer_1" xmlns="http://www.w3.org/2000/svg" xmlns:xlink="http://www.w3.org/1999/xlink" x="0px" y="0px"
	 viewBox="0 0 288 126" style="enable-background:new 0 0 288 126;" xml:space="preserve">
<style type="text/css">
	.st0{fill:#FFFFFF;}
</style>
<g>
	<g>
		<path class="st0" d="M0,68.1V9.6h9.7l30.3,42.5c0.7,0.9,1.3,1.8,1.8,2.6c0.5,0.8,0.9,1.6,1.2,2.3V9.6h8.4v58.5h-9.6L10.8,25
			c-0.5-0.7-0.9-1.3-1.3-2.1c-0.4-0.7-0.8-1.5-1.1-2.3v47.4H0z"/>
		<path class="st0" d="M174,68.1L198,9.6h9.7L232,68.1h-9.6l-4.5-11.5h-30.3l-4.5,11.5H174z M190.6,48.9h24.3l-12-31L190.6,48.9z"/>
		<path class="st0" d="M279.5,46.4h8.5c-0.4,7.1-3.1,12.8-8.1,17c-5,4.2-11.5,6.3-19.4,6.3c-9.1,0-16.3-2.8-21.5-8.4
			c-5.2-5.6-7.8-13.4-7.8-23.3c0-9.2,2.7-16.4,8.1-21.8c5.4-5.4,12.7-8.1,22-8.1c7.3,0,13.3,1.7,18,5.1c4.7,3.4,7.4,8.1,8.1,14h-8.6
			c-0.8-3.9-2.8-6.8-5.9-8.9c-3.1-2.1-7.1-3.1-12-3.1c-6.6,0-11.7,2.1-15.3,6.2c-3.6,4.2-5.4,10-5.4,17.6c0,7.2,1.9,12.9,5.7,17.2
			c3.8,4.3,8.8,6.5,15,6.5c5.3,0,9.7-1.5,13-4.5C277.4,55.2,279.2,51.3,279.5,46.4z"/>
	</g>
	<path class="st0" d="M170.5,19.4c-1.4-2.4-3.2-4.5-5.6-6.2c-4.7-3.4-10.7-5.1-18-5.1c-5.8,0-11.5,1.3-15.9,2.9
		c-13.7,5-24.5,9.8-33.8,15.5l-7-16.8h-9.7L56.4,68.1h5.3h3.8h0l0,0c2.7-5.4,14.4-25.5,44.5-40.6c-8.5,9.2-15.7,22.4-14.8,40.7h7.1
		c-2.1-36.8,34.4-51,34.4-51c3.2-1.4,6.8-2,9.9-1.9c4.9,0.1,8.9,1.1,12,3.1c3.1,2.1,5,5,5.9,8.9h8.6
		C172.7,24.3,171.9,21.7,170.5,19.4z M75.4,43.4L85.3,18l5,12.9C84.4,35.1,79.4,39.3,75.4,43.4z"/>
	<g>
		<path class="st0" d="M164.9,46.4c-0.2,4.9-2,8.8-5.4,11.8c-3.4,3-7.7,4.5-13,4.5c-6.2,0-11.2-2.2-15-6.5c-3.8-4.3-5.7-10-5.7-17.2
			c0-2.2,0.2-4.3,0.5-6.2c-4.8,3.3-8,8.8-8.6,14.2c1.1,5.7,3.4,10.5,6.9,14.3c5.2,5.6,12.3,8.4,21.5,8.4c7.9,0,14.4-2.1,19.4-6.3
			c5-4.2,7.7-9.9,8.1-17H164.9z"/>
	</g>
</g>
<g>
	<path class="st0" d="M48.5,98.8V87.3H50l8,10.2V87.3h1.1v11.4h-1.5l-7.9-10.2v10.2H48.5z"/>
	<path class="st0" d="M70.2,97.7l0,1c-0.2,0.1-0.3,0.1-0.5,0.1c-0.2,0-0.3,0-0.4,0c-0.4,0-0.6-0.1-0.8-0.3c-0.2-0.2-0.3-0.5-0.3-1
		c-0.5,0.5-1,0.9-1.5,1.1C66,98.9,65.3,99,64.5,99c-1,0-1.8-0.2-2.3-0.7c-0.6-0.4-0.8-1.1-0.8-1.9c0-0.4,0.1-0.7,0.2-1
		c0.1-0.3,0.4-0.6,0.7-0.8c0.2-0.2,0.5-0.3,0.9-0.4c0.4-0.1,1.1-0.2,2-0.4c0.2,0,0.5-0.1,0.9-0.1c1.4-0.2,2-0.6,2-1.2
		c0-0.5-0.2-0.8-0.6-1c-0.4-0.2-1-0.4-1.7-0.4c-1,0-1.7,0.2-2.2,0.5c-0.5,0.3-0.8,0.8-0.8,1.5h-1.1c0.1-1,0.4-1.7,1.1-2.2
		c0.7-0.5,1.6-0.7,2.9-0.7c0.8,0,1.4,0.1,1.9,0.2s0.9,0.4,1.2,0.8c0.2,0.2,0.3,0.5,0.4,0.7c0.1,0.3,0.1,0.7,0.1,1.3v0.5v3.3
		c0,0.4,0,0.6,0.1,0.7c0.1,0.1,0.2,0.1,0.4,0.1c0.1,0,0.2,0,0.2,0C70,97.8,70.1,97.7,70.2,97.7z M68.1,94.2
		c-0.2,0.1-0.5,0.2-0.9,0.3c-0.4,0.1-1.1,0.2-2,0.4c-1.2,0.2-2,0.4-2.3,0.6c-0.3,0.2-0.5,0.5-0.5,1c0,0.5,0.2,0.8,0.6,1.1
		c0.4,0.3,0.9,0.4,1.6,0.4c1,0,1.9-0.2,2.5-0.7c0.6-0.5,1-1.1,1-1.9v-0.1V94.2z"/>
	<path class="st0" d="M73.4,96.5c0,0.6,0.1,1,0.2,1.1c0.1,0.1,0.4,0.2,0.8,0.2c0.1,0,0.3,0,0.4,0c0.1,0,0.3,0,0.5-0.1v0.9
		c-0.3,0.1-0.5,0.1-0.7,0.1c-0.2,0-0.4,0-0.6,0c-0.6,0-1-0.2-1.3-0.5c-0.2-0.3-0.4-0.9-0.4-1.7v-5.4h-1.4v-0.9h1.4v-2.5h1.1v2.5h1.9
		v0.9h-1.9V96.5z"/>
	<path class="st0" d="M76.7,88.6v-1.3h1.1v1.3H76.7z M76.7,98.8v-8.4h1.1v8.4H76.7z"/>
	<path class="st0" d="M79.6,94.6c0-1.3,0.4-2.4,1.2-3.2c0.8-0.8,1.9-1.2,3.2-1.2c1.3,0,2.4,0.4,3.2,1.2c0.8,0.8,1.2,1.9,1.2,3.2
		c0,1.3-0.4,2.4-1.2,3.3c-0.8,0.8-1.9,1.2-3.2,1.2c-1.3,0-2.4-0.4-3.2-1.2C80,97,79.6,95.9,79.6,94.6z M80.7,94.6
		c0,1,0.3,1.9,0.9,2.5c0.6,0.6,1.4,0.9,2.4,0.9c1,0,1.8-0.3,2.4-0.9c0.6-0.6,0.9-1.4,0.9-2.5c0-1-0.3-1.9-0.9-2.5
		c-0.6-0.6-1.4-0.9-2.4-0.9c-1,0-1.8,0.3-2.4,0.9C81,92.7,80.7,93.5,80.7,94.6z"/>
	<path class="st0" d="M90.4,98.8v-8.4h1.1v1.5c0.4-0.6,0.9-1,1.5-1.3c0.6-0.3,1.3-0.4,2-0.4c1.1,0,1.9,0.3,2.4,0.8
		c0.5,0.5,0.8,1.3,0.8,2.4v5.4h-1.1v-4.7c0-1.1-0.2-1.8-0.5-2.2c-0.3-0.4-1-0.6-1.8-0.6c-1,0-1.7,0.3-2.4,0.8
		c-0.6,0.5-0.9,1.2-0.9,2v4.8H90.4z"/>
	<path class="st0" d="M109,97.7l0,1c-0.2,0.1-0.3,0.1-0.5,0.1c-0.2,0-0.3,0-0.4,0c-0.4,0-0.6-0.1-0.8-0.3c-0.2-0.2-0.3-0.5-0.3-1
		c-0.5,0.5-1,0.9-1.5,1.1c-0.6,0.2-1.3,0.4-2.1,0.4c-1,0-1.8-0.2-2.3-0.7s-0.8-1.1-0.8-1.9c0-0.4,0.1-0.7,0.2-1
		c0.1-0.3,0.4-0.6,0.7-0.8c0.2-0.2,0.5-0.3,0.9-0.4c0.4-0.1,1.1-0.2,2-0.4c0.2,0,0.5-0.1,0.9-0.1c1.4-0.2,2-0.6,2-1.2
		c0-0.5-0.2-0.8-0.6-1c-0.4-0.2-1-0.4-1.7-0.4c-1,0-1.7,0.2-2.2,0.5c-0.5,0.3-0.8,0.8-0.8,1.5h-1.1c0.1-1,0.4-1.7,1.1-2.2
		c0.7-0.5,1.6-0.7,2.9-0.7c0.8,0,1.4,0.1,1.9,0.2s0.9,0.4,1.2,0.8c0.2,0.2,0.3,0.5,0.4,0.7c0.1,0.3,0.1,0.7,0.1,1.3v0.5v3.3
		c0,0.4,0,0.6,0.1,0.7c0.1,0.1,0.2,0.1,0.4,0.1c0.1,0,0.2,0,0.2,0C108.9,97.8,108.9,97.7,109,97.7z M107,94.2
		c-0.2,0.1-0.5,0.2-0.9,0.3c-0.4,0.1-1.1,0.2-2,0.4c-1.2,0.2-2,0.4-2.3,0.6c-0.3,0.2-0.5,0.5-0.5,1c0,0.5,0.2,0.8,0.6,1.1
		c0.4,0.3,0.9,0.4,1.6,0.4c1,0,1.9-0.2,2.5-0.7c0.6-0.5,1-1.1,1-1.9v-0.1V94.2z"/>
	<path class="st0" d="M110.8,98.8V87.3h1.1v11.4H110.8z"/>
	<path class="st0" d="M118.4,98.8l5.3-11.4h1.3l5.2,11.4H129l-1.6-3.5h-6.2l-1.6,3.5H118.4z M121.7,94.1h5.2l-2.6-5.8L121.7,94.1z"
		/>
	<path class="st0" d="M130.8,96.1h1.1c0.1,0.6,0.4,1.1,0.8,1.4s1.2,0.5,2.1,0.5c0.9,0,1.7-0.1,2.2-0.4s0.7-0.6,0.7-1.2
		c0-0.4-0.1-0.6-0.4-0.8c-0.2-0.2-0.6-0.3-1.2-0.4l-2.4-0.4c-1-0.1-1.6-0.4-2.1-0.7c-0.4-0.4-0.6-0.9-0.6-1.5c0-0.8,0.3-1.4,1-1.8
		c0.7-0.4,1.6-0.7,2.7-0.7c1.2,0,2.1,0.2,2.8,0.7c0.7,0.5,1,1.1,1,2h-1.1c-0.1-0.6-0.4-1-0.8-1.3c-0.5-0.3-1.1-0.4-2-0.4
		c-0.8,0-1.4,0.1-1.8,0.4c-0.4,0.2-0.6,0.6-0.6,1c0,0.4,0.1,0.6,0.4,0.8c0.3,0.2,0.8,0.3,1.5,0.5l2.2,0.3c0.9,0.1,1.6,0.4,2,0.7
		c0.4,0.4,0.6,0.9,0.6,1.5c0,0.9-0.4,1.6-1.1,2c-0.7,0.5-1.7,0.7-3.1,0.7c-1.2,0-2.1-0.3-2.8-0.8C131.2,97.8,130.8,97.1,130.8,96.1z
		"/>
	<path class="st0" d="M139.7,96.1h1.1c0.1,0.6,0.4,1.1,0.8,1.4c0.5,0.3,1.2,0.5,2.1,0.5c0.9,0,1.7-0.1,2.1-0.4
		c0.5-0.3,0.7-0.6,0.7-1.2c0-0.4-0.1-0.6-0.4-0.8c-0.2-0.2-0.6-0.3-1.2-0.4l-2.4-0.4c-1-0.1-1.6-0.4-2.1-0.7
		c-0.4-0.4-0.6-0.9-0.6-1.5c0-0.8,0.3-1.4,1-1.8c0.7-0.4,1.6-0.7,2.7-0.7c1.2,0,2.1,0.2,2.8,0.7c0.7,0.5,1,1.1,1,2h-1.1
		c-0.1-0.6-0.4-1-0.8-1.3c-0.5-0.3-1.1-0.4-2-0.4c-0.8,0-1.4,0.1-1.8,0.4c-0.4,0.2-0.6,0.6-0.6,1c0,0.4,0.1,0.6,0.4,0.8
		c0.3,0.2,0.8,0.3,1.5,0.5l2.2,0.3c0.9,0.1,1.6,0.4,2,0.7c0.4,0.4,0.6,0.9,0.6,1.5c0,0.9-0.4,1.6-1.1,2c-0.7,0.5-1.7,0.7-3.1,0.7
		c-1.2,0-2.1-0.3-2.8-0.8C140.2,97.8,139.8,97.1,139.7,96.1z"/>
	<path class="st0" d="M148.9,94.6c0-1.3,0.4-2.4,1.2-3.2c0.8-0.8,1.9-1.2,3.2-1.2c1.3,0,2.4,0.4,3.2,1.2c0.8,0.8,1.2,1.9,1.2,3.2
		c0,1.3-0.4,2.4-1.2,3.3c-0.8,0.8-1.9,1.2-3.2,1.2c-1.3,0-2.4-0.4-3.2-1.2C149.3,97,148.9,95.9,148.9,94.6z M150,94.6
		c0,1,0.3,1.9,0.9,2.5c0.6,0.6,1.4,0.9,2.4,0.9c1,0,1.8-0.3,2.4-0.9c0.6-0.6,0.9-1.4,0.9-2.5c0-1-0.3-1.9-0.9-2.5
		c-0.6-0.6-1.4-0.9-2.4-0.9c-1,0-1.8,0.3-2.4,0.9C150.3,92.7,150,93.5,150,94.6z"/>
	<path class="st0" d="M166.6,95.7h1.1c-0.1,1-0.6,1.8-1.3,2.4c-0.8,0.6-1.7,0.9-2.8,0.9c-1.3,0-2.4-0.4-3.2-1.2
		c-0.8-0.8-1.2-1.9-1.2-3.3c0-1.3,0.4-2.4,1.2-3.2c0.8-0.8,1.9-1.2,3.2-1.2c1.1,0,2,0.3,2.7,0.8c0.7,0.6,1.2,1.3,1.3,2.2h-1.1
		c-0.2-0.7-0.6-1.2-1.1-1.5c-0.5-0.3-1.1-0.5-1.9-0.5c-1,0-1.8,0.3-2.4,0.9c-0.6,0.6-0.9,1.5-0.9,2.5c0,1,0.3,1.9,0.9,2.5
		c0.6,0.6,1.4,0.9,2.4,0.9c0.8,0,1.4-0.2,2-0.6C166.1,97,166.4,96.4,166.6,95.7z"/>
	<path class="st0" d="M169.4,88.6v-1.3h1.1v1.3H169.4z M169.4,98.8v-8.4h1.1v8.4H169.4z"/>
	<path class="st0" d="M181.4,97.7l0,1c-0.2,0.1-0.3,0.1-0.5,0.1c-0.2,0-0.3,0-0.4,0c-0.4,0-0.6-0.1-0.8-0.3c-0.2-0.2-0.3-0.5-0.3-1
		c-0.5,0.5-1,0.9-1.5,1.1c-0.6,0.2-1.3,0.4-2.1,0.4c-1,0-1.8-0.2-2.3-0.7c-0.6-0.4-0.8-1.1-0.8-1.9c0-0.4,0.1-0.7,0.2-1
		c0.1-0.3,0.4-0.6,0.7-0.8c0.2-0.2,0.5-0.3,0.9-0.4c0.4-0.1,1.1-0.2,2-0.4c0.2,0,0.5-0.1,0.9-0.1c1.4-0.2,2-0.6,2-1.2
		c0-0.5-0.2-0.8-0.6-1c-0.4-0.2-1-0.4-1.7-0.4c-1,0-1.7,0.2-2.2,0.5c-0.5,0.3-0.8,0.8-0.8,1.5H173c0.1-1,0.4-1.7,1.1-2.2
		c0.7-0.5,1.6-0.7,2.9-0.7c0.8,0,1.4,0.1,1.9,0.2c0.5,0.2,0.9,0.4,1.2,0.8c0.2,0.2,0.3,0.5,0.4,0.7c0.1,0.3,0.1,0.7,0.1,1.3v0.5v3.3
		c0,0.4,0,0.6,0.1,0.7c0.1,0.1,0.2,0.1,0.4,0.1c0.1,0,0.2,0,0.2,0C181.3,97.8,181.3,97.7,181.4,97.7z M179.4,94.2
		c-0.2,0.1-0.5,0.2-0.9,0.3c-0.4,0.1-1.1,0.2-2,0.4c-1.2,0.2-2,0.4-2.3,0.6c-0.3,0.2-0.5,0.5-0.5,1c0,0.5,0.2,0.8,0.6,1.1
		s0.9,0.4,1.6,0.4c1,0,1.9-0.2,2.5-0.7c0.6-0.5,1-1.1,1-1.9v-0.1V94.2z"/>
	<path class="st0" d="M184.7,96.5c0,0.6,0.1,1,0.2,1.1c0.1,0.1,0.4,0.2,0.8,0.2c0.1,0,0.3,0,0.4,0c0.1,0,0.3,0,0.5-0.1v0.9
		c-0.3,0.1-0.5,0.1-0.7,0.1c-0.2,0-0.4,0-0.6,0c-0.6,0-1-0.2-1.3-0.5c-0.2-0.3-0.4-0.9-0.4-1.7v-5.4h-1.4v-0.9h1.4v-2.5h1.1v2.5h1.9
		v0.9h-1.9V96.5z"/>
	<path class="st0" d="M187.9,88.6v-1.3h1.1v1.3H187.9z M187.9,98.8v-8.4h1.1v8.4H187.9z"/>
	<path class="st0" d="M190.9,94.6c0-1.3,0.4-2.4,1.2-3.2c0.8-0.8,1.9-1.2,3.2-1.2c1.3,0,2.4,0.4,3.2,1.2c0.8,0.8,1.2,1.9,1.2,3.2
		c0,1.3-0.4,2.4-1.2,3.3c-0.8,0.8-1.9,1.2-3.2,1.2c-1.3,0-2.4-0.4-3.2-1.2C191.3,97,190.9,95.9,190.9,94.6z M192,94.6
		c0,1,0.3,1.9,0.9,2.5c0.6,0.6,1.4,0.9,2.4,0.9c1,0,1.8-0.3,2.4-0.9c0.6-0.6,0.9-1.4,0.9-2.5c0-1-0.3-1.9-0.9-2.5
		c-0.6-0.6-1.4-0.9-2.4-0.9c-1,0-1.8,0.3-2.4,0.9C192.3,92.7,192,93.5,192,94.6z"/>
	<path class="st0" d="M201.6,98.8v-8.4h1.1v1.5c0.4-0.6,0.9-1,1.5-1.3c0.6-0.3,1.3-0.4,2-0.4c1.1,0,1.9,0.3,2.4,0.8
		c0.5,0.5,0.8,1.3,0.8,2.4v5.4h-1.1v-4.7c0-1.1-0.2-1.8-0.5-2.2c-0.4-0.4-0.9-0.6-1.8-0.6c-1,0-1.7,0.3-2.4,0.8
		c-0.6,0.5-0.9,1.2-0.9,2v4.8H201.6z"/>
	<path class="st0" d="M217.3,98.8v-7.5h-1.4v-0.9h1.4v-0.7c0-1,0.1-1.6,0.4-1.9c0.3-0.3,0.7-0.5,1.4-0.5c0.2,0,0.4,0,0.6,0.1
		c0.2,0,0.4,0.1,0.7,0.1v1c-0.2-0.1-0.4-0.1-0.5-0.1c-0.1,0-0.3,0-0.4,0c-0.4,0-0.6,0.1-0.8,0.2c-0.1,0.1-0.2,0.5-0.2,1v0.8h1.9v0.9
		h-1.9v7.5H217.3z"/>
	<path class="st0" d="M221.1,94.6c0-1.3,0.4-2.4,1.2-3.2c0.8-0.8,1.9-1.2,3.2-1.2c1.3,0,2.4,0.4,3.2,1.2c0.8,0.8,1.2,1.9,1.2,3.2
		c0,1.3-0.4,2.4-1.2,3.3c-0.8,0.8-1.9,1.2-3.2,1.2c-1.3,0-2.4-0.4-3.2-1.2C221.5,97,221.1,95.9,221.1,94.6z M222.2,94.6
		c0,1,0.3,1.9,0.9,2.5c0.6,0.6,1.4,0.9,2.4,0.9c1,0,1.8-0.3,2.4-0.9c0.6-0.6,0.9-1.4,0.9-2.5c0-1-0.3-1.9-0.9-2.5
		c-0.6-0.6-1.4-0.9-2.4-0.9c-1,0-1.8,0.3-2.4,0.9C222.5,92.7,222.2,93.5,222.2,94.6z"/>
	<path class="st0" d="M233,98.8h-1.1v-8.4h1.1v1.4c0.2-0.5,0.6-0.9,1-1.2c0.4-0.3,0.9-0.4,1.5-0.4c0.2,0,0.4,0,0.5,0.1
		c0.2,0,0.4,0.1,0.6,0.2v1.1c-0.2-0.1-0.4-0.1-0.5-0.1c-0.2,0-0.3,0-0.5,0c-0.7,0-1.2,0.2-1.6,0.5c-0.4,0.4-0.8,0.9-1,1.6V98.8z"/>
	<path class="st0" d="M29.5,109.7c-0.2-0.9-0.7-1.7-1.4-2.2c-0.7-0.5-1.6-0.8-2.7-0.8c-1.5,0-2.7,0.4-3.5,1.3
		c-0.9,0.9-1.3,2.1-1.3,3.6c0,1.5,0.4,2.7,1.3,3.6c0.8,0.9,2,1.3,3.4,1.3c1.2,0,2.1-0.3,2.9-0.9c0.8-0.6,1.3-1.5,1.6-2.5h1.2
		c-0.3,1.4-0.9,2.5-1.9,3.4s-2.3,1.2-3.8,1.2c-1.8,0-3.2-0.5-4.2-1.6c-1.1-1.1-1.6-2.5-1.6-4.4c0-1.9,0.5-3.3,1.6-4.4
		c1.1-1.1,2.5-1.6,4.4-1.6c1.5,0,2.7,0.4,3.6,1.1c0.9,0.7,1.5,1.7,1.7,3H29.5z"/>
	<path class="st0" d="M32.1,113.2c0-1.3,0.4-2.4,1.2-3.2c0.8-0.8,1.9-1.2,3.2-1.2c1.3,0,2.4,0.4,3.2,1.2c0.8,0.8,1.2,1.9,1.2,3.2
		c0,1.3-0.4,2.4-1.2,3.3c-0.8,0.8-1.9,1.2-3.2,1.2c-1.3,0-2.4-0.4-3.2-1.2C32.5,115.6,32.1,114.5,32.1,113.2z M33.2,113.2
		c0,1,0.3,1.9,0.9,2.5c0.6,0.6,1.4,0.9,2.4,0.9c1,0,1.8-0.3,2.4-0.9c0.6-0.6,0.9-1.4,0.9-2.5c0-1-0.3-1.9-0.9-2.5
		c-0.6-0.6-1.4-0.9-2.4-0.9c-1,0-1.8,0.3-2.4,0.9C33.5,111.3,33.2,112.1,33.2,113.2z"/>
	<path class="st0" d="M42.9,117.4V106H44v11.4H42.9z"/>
	<path class="st0" d="M46.4,117.4V106h1.1v11.4H46.4z"/>
	<path class="st0" d="M58,114.7c-0.2,0.9-0.7,1.6-1.4,2.2c-0.7,0.5-1.6,0.8-2.7,0.8c-1.3,0-2.4-0.4-3.2-1.2
		c-0.8-0.8-1.2-1.9-1.2-3.3c0-1.3,0.4-2.4,1.2-3.2c0.8-0.8,1.9-1.2,3.2-1.2c1.3,0,2.4,0.4,3.2,1.2s1.2,1.9,1.2,3.3v0.3h-7.7
		c0.1,1,0.4,1.8,1,2.4s1.4,0.8,2.3,0.8c0.7,0,1.3-0.2,1.8-0.5c0.5-0.3,0.9-0.8,1.1-1.4H58z M50.6,112.5h6.5c-0.1-0.8-0.4-1.5-1-2
		c-0.6-0.5-1.3-0.8-2.2-0.8c-0.9,0-1.7,0.3-2.3,0.8C51,111,50.7,111.7,50.6,112.5z"/>
	<path class="st0" d="M68.5,116.7c0,0.7-0.1,1.3-0.2,1.7c-0.1,0.4-0.4,0.7-0.8,1c-0.4,0.3-0.9,0.6-1.4,0.7c-0.6,0.2-1.2,0.2-2,0.2
		c-1.1,0-2-0.2-2.7-0.7c-0.7-0.4-1.1-1-1.1-1.8h1.1c0.1,0.5,0.3,0.9,0.8,1.1c0.4,0.2,1.1,0.4,1.9,0.4c1.2,0,2-0.2,2.6-0.6
		c0.5-0.4,0.8-1,0.8-2v-0.9c-0.5,0.6-0.9,1-1.5,1.3c-0.5,0.3-1.2,0.4-1.9,0.4c-1.3,0-2.4-0.4-3.2-1.2c-0.8-0.8-1.2-1.9-1.2-3.2
		s0.4-2.4,1.2-3.2c0.8-0.8,1.9-1.2,3.2-1.2c0.7,0,1.3,0.1,1.9,0.4c0.5,0.3,1,0.7,1.5,1.3V109h1.1V116.7z M67.4,113.2
		c0-1-0.3-1.8-0.9-2.4c-0.6-0.6-1.4-0.9-2.4-0.9c-1,0-1.8,0.3-2.4,0.9c-0.6,0.6-0.9,1.4-0.9,2.4c0,1,0.3,1.8,0.9,2.4
		c0.6,0.6,1.4,0.9,2.4,0.9c1,0,1.8-0.3,2.4-0.9S67.4,114.2,67.4,113.2z"/>
	<path class="st0" d="M78.9,114.7c-0.2,0.9-0.7,1.6-1.4,2.2c-0.7,0.5-1.6,0.8-2.7,0.8c-1.3,0-2.4-0.4-3.2-1.2
		c-0.8-0.8-1.2-1.9-1.2-3.3c0-1.3,0.4-2.4,1.2-3.2c0.8-0.8,1.9-1.2,3.2-1.2c1.3,0,2.4,0.4,3.2,1.2s1.2,1.9,1.2,3.3v0.3h-7.7
		c0.1,1,0.4,1.8,1,2.4c0.6,0.6,1.4,0.8,2.3,0.8c0.7,0,1.3-0.2,1.8-0.5c0.5-0.3,0.9-0.8,1.1-1.4H78.9z M71.5,112.5H78
		c-0.1-0.8-0.4-1.5-1-2c-0.6-0.5-1.3-0.8-2.2-0.8c-0.9,0-1.7,0.3-2.3,0.8C71.9,111,71.6,111.7,71.5,112.5z"/>
	<path class="st0" d="M85.1,117.4l5.3-11.4h1.3l5.2,11.4h-1.2l-1.6-3.5h-6.2l-1.6,3.5H85.1z M88.4,112.7h5.2l-2.6-5.8L88.4,112.7z"
		/>
	<path class="st0" d="M106.5,106v11.4h-1.1v-1.5c-0.4,0.6-0.9,1-1.4,1.3c-0.5,0.3-1.2,0.4-1.9,0.4c-1.3,0-2.4-0.4-3.2-1.2
		c-0.8-0.8-1.2-1.9-1.2-3.2s0.4-2.4,1.2-3.2c0.8-0.8,1.9-1.2,3.2-1.2c0.7,0,1.3,0.1,1.9,0.4c0.5,0.3,1,0.7,1.5,1.2V106H106.5z
		 M105.4,113.2c0-1-0.3-1.8-0.9-2.5c-0.6-0.6-1.4-0.9-2.4-0.9c-1,0-1.8,0.3-2.4,0.9c-0.6,0.6-0.9,1.4-0.9,2.4s0.3,1.8,0.9,2.4
		c0.6,0.6,1.4,0.9,2.4,0.9c1,0,1.8-0.3,2.4-0.9C105.1,115,105.4,114.2,105.4,113.2z"/>
	<path class="st0" d="M108.9,117.4V109h1.1v1.5c0.4-0.6,0.9-1,1.5-1.3s1.3-0.4,2-0.4c0.8,0,1.5,0.1,2,0.4c0.5,0.3,0.9,0.7,1.1,1.3
		c0.4-0.6,0.9-1,1.5-1.3c0.6-0.3,1.3-0.4,2-0.4c1.1,0,1.9,0.3,2.4,0.8c0.5,0.5,0.8,1.3,0.8,2.4v5.4h-1.1v-4.7c0-1.1-0.2-1.8-0.5-2.2
		c-0.3-0.4-0.9-0.6-1.8-0.6c-1,0-1.7,0.3-2.4,0.8c-0.6,0.5-0.9,1.2-0.9,2v4.8h-1v-4.7c0-1.1-0.2-1.8-0.5-2.2c-0.3-0.4-1-0.6-1.8-0.6
		c-1,0-1.7,0.3-2.4,0.8c-0.6,0.5-0.9,1.2-0.9,2v4.8H108.9z"/>
	<path class="st0" d="M125.6,107.3V106h1.1v1.3H125.6z M125.6,117.4V109h1.1v8.4H125.6z"/>
	<path class="st0" d="M128.4,114.7h1.1c0.1,0.6,0.4,1.1,0.8,1.4c0.5,0.3,1.2,0.5,2.1,0.5c0.9,0,1.7-0.1,2.2-0.4
		c0.5-0.3,0.7-0.6,0.7-1.2c0-0.4-0.1-0.6-0.4-0.8s-0.6-0.3-1.2-0.4l-2.4-0.4c-1-0.1-1.6-0.4-2.1-0.7c-0.4-0.4-0.6-0.9-0.6-1.5
		c0-0.8,0.3-1.4,1-1.8c0.7-0.4,1.6-0.7,2.7-0.7c1.2,0,2.1,0.2,2.8,0.7c0.7,0.5,1,1.1,1,2H135c-0.1-0.6-0.4-1-0.8-1.3
		c-0.5-0.3-1.1-0.4-2-0.4c-0.8,0-1.4,0.1-1.8,0.4c-0.4,0.2-0.6,0.6-0.6,1c0,0.4,0.1,0.6,0.4,0.8s0.8,0.3,1.5,0.5l2.2,0.3
		c0.9,0.1,1.6,0.4,2,0.7c0.4,0.4,0.6,0.9,0.6,1.5c0,0.9-0.4,1.6-1.1,2c-0.7,0.5-1.7,0.7-3.1,0.7c-1.2,0-2.1-0.3-2.8-0.8
		C128.8,116.4,128.5,115.7,128.4,114.7z"/>
	<path class="st0" d="M137.4,114.7h1.1c0.1,0.6,0.4,1.1,0.8,1.4s1.2,0.5,2.1,0.5c0.9,0,1.7-0.1,2.2-0.4c0.5-0.3,0.7-0.6,0.7-1.2
		c0-0.4-0.1-0.6-0.4-0.8c-0.2-0.2-0.6-0.3-1.2-0.4l-2.4-0.4c-1-0.1-1.6-0.4-2.1-0.7c-0.4-0.4-0.6-0.9-0.6-1.5c0-0.8,0.3-1.4,1-1.8
		c0.7-0.4,1.6-0.7,2.7-0.7c1.2,0,2.1,0.2,2.8,0.7c0.7,0.5,1,1.1,1,2H144c-0.1-0.6-0.4-1-0.8-1.3c-0.5-0.3-1.1-0.4-2-0.4
		c-0.8,0-1.4,0.1-1.8,0.4c-0.4,0.2-0.6,0.6-0.6,1c0,0.4,0.1,0.6,0.4,0.8s0.8,0.3,1.5,0.5l2.2,0.3c0.9,0.1,1.6,0.4,2,0.7
		c0.4,0.4,0.6,0.9,0.6,1.5c0,0.9-0.4,1.6-1.1,2c-0.7,0.5-1.7,0.7-3.1,0.7c-1.2,0-2.1-0.3-2.8-0.8
		C137.8,116.4,137.4,115.7,137.4,114.7z"/>
	<path class="st0" d="M147.1,107.3V106h1.1v1.3H147.1z M147.1,117.4V109h1.1v8.4H147.1z"/>
	<path class="st0" d="M150.1,113.2c0-1.3,0.4-2.4,1.2-3.2c0.8-0.8,1.9-1.2,3.2-1.2c1.3,0,2.4,0.4,3.2,1.2c0.8,0.8,1.2,1.9,1.2,3.2
		c0,1.3-0.4,2.4-1.2,3.3c-0.8,0.8-1.9,1.2-3.2,1.2c-1.3,0-2.4-0.4-3.2-1.2C150.5,115.6,150.1,114.5,150.1,113.2z M151.2,113.2
		c0,1,0.3,1.9,0.9,2.5c0.6,0.6,1.4,0.9,2.4,0.9c1,0,1.8-0.3,2.4-0.9c0.6-0.6,0.9-1.4,0.9-2.5c0-1-0.3-1.9-0.9-2.5
		c-0.6-0.6-1.4-0.9-2.4-0.9c-1,0-1.8,0.3-2.4,0.9C151.5,111.3,151.2,112.1,151.2,113.2z"/>
	<path class="st0" d="M160.8,117.4V109h1.1v1.5c0.4-0.6,0.9-1,1.5-1.3s1.3-0.4,2-0.4c1.1,0,1.9,0.3,2.4,0.8c0.5,0.5,0.8,1.3,0.8,2.4
		v5.4h-1.1v-4.7c0-1.1-0.2-1.8-0.5-2.2c-0.4-0.4-0.9-0.6-1.8-0.6c-1,0-1.7,0.3-2.4,0.8c-0.6,0.5-0.9,1.2-0.9,2v4.8H160.8z"/>
	<path class="st0" d="M185.8,109.7c-0.2-0.9-0.7-1.7-1.4-2.2c-0.7-0.5-1.6-0.8-2.7-0.8c-1.5,0-2.7,0.4-3.5,1.3
		c-0.9,0.9-1.3,2.1-1.3,3.6c0,1.5,0.4,2.7,1.3,3.6c0.8,0.9,2,1.3,3.4,1.3c1.2,0,2.1-0.3,2.9-0.9c0.8-0.6,1.3-1.5,1.6-2.5h1.2
		c-0.3,1.4-0.9,2.5-1.9,3.4c-1,0.8-2.3,1.2-3.8,1.2c-1.8,0-3.2-0.5-4.2-1.6c-1.1-1.1-1.6-2.5-1.6-4.4c0-1.9,0.5-3.3,1.6-4.4
		c1.1-1.1,2.5-1.6,4.4-1.6c1.5,0,2.7,0.4,3.6,1.1c0.9,0.7,1.5,1.7,1.7,3H185.8z"/>
	<path class="st0" d="M188.3,113.2c0-1.3,0.4-2.4,1.2-3.2c0.8-0.8,1.9-1.2,3.2-1.2c1.3,0,2.4,0.4,3.2,1.2c0.8,0.8,1.2,1.9,1.2,3.2
		c0,1.3-0.4,2.4-1.2,3.3c-0.8,0.8-1.9,1.2-3.2,1.2c-1.3,0-2.4-0.4-3.2-1.2C188.8,115.6,188.3,114.5,188.3,113.2z M189.5,113.2
		c0,1,0.3,1.9,0.9,2.5c0.6,0.6,1.4,0.9,2.4,0.9c1,0,1.8-0.3,2.4-0.9c0.6-0.6,0.9-1.4,0.9-2.5c0-1-0.3-1.9-0.9-2.5
		c-0.6-0.6-1.4-0.9-2.4-0.9c-1,0-1.8,0.3-2.4,0.9C189.8,111.3,189.5,112.1,189.5,113.2z"/>
	<path class="st0" d="M206.9,109v8.4h-1.1v-1.6c-0.4,0.6-0.9,1-1.5,1.3s-1.3,0.4-2,0.4c-1.1,0-1.9-0.3-2.4-0.8
		c-0.5-0.5-0.8-1.3-0.8-2.4V109h1.1v4.7c0,1.1,0.2,1.8,0.5,2.2c0.4,0.4,1,0.6,1.8,0.6c1,0,1.7-0.3,2.4-0.8c0.6-0.5,0.9-1.2,0.9-2
		V109H206.9z"/>
	<path class="st0" d="M209.2,117.4V109h1.1v1.5c0.4-0.6,0.9-1,1.5-1.3c0.6-0.3,1.3-0.4,2-0.4c1.1,0,1.9,0.3,2.4,0.8s0.8,1.3,0.8,2.4
		v5.4h-1.1v-4.7c0-1.1-0.2-1.8-0.5-2.2c-0.4-0.4-0.9-0.6-1.8-0.6c-1,0-1.7,0.3-2.4,0.8c-0.6,0.5-0.9,1.2-0.9,2v4.8H209.2z"/>
	<path class="st0" d="M218.6,114.7h1.1c0.1,0.6,0.4,1.1,0.8,1.4c0.5,0.3,1.2,0.5,2.1,0.5c0.9,0,1.7-0.1,2.2-0.4
		c0.5-0.3,0.7-0.6,0.7-1.2c0-0.4-0.1-0.6-0.4-0.8c-0.2-0.2-0.6-0.3-1.2-0.4l-2.4-0.4c-1-0.1-1.6-0.4-2.1-0.7
		c-0.4-0.4-0.6-0.9-0.6-1.5c0-0.8,0.3-1.4,1-1.8c0.7-0.4,1.6-0.7,2.7-0.7c1.2,0,2.1,0.2,2.8,0.7c0.7,0.5,1,1.1,1,2h-1.1
		c-0.1-0.6-0.4-1-0.8-1.3c-0.5-0.3-1.1-0.4-2-0.4c-0.8,0-1.4,0.1-1.8,0.4c-0.4,0.2-0.6,0.6-0.6,1c0,0.4,0.1,0.6,0.4,0.8
		s0.8,0.3,1.5,0.5l2.2,0.3c0.9,0.1,1.6,0.4,2,0.7c0.4,0.4,0.6,0.9,0.6,1.5c0,0.9-0.4,1.6-1.1,2s-1.7,0.7-3.1,0.7
		c-1.2,0-2.1-0.3-2.8-0.8C219,116.4,218.6,115.7,218.6,114.7z"/>
	<path class="st0" d="M236.3,114.7c-0.2,0.9-0.7,1.6-1.4,2.2c-0.7,0.5-1.6,0.8-2.7,0.8c-1.3,0-2.4-0.4-3.2-1.2
		c-0.8-0.8-1.2-1.9-1.2-3.3c0-1.3,0.4-2.4,1.2-3.2c0.8-0.8,1.9-1.2,3.2-1.2c1.3,0,2.4,0.4,3.2,1.2s1.2,1.9,1.2,3.3v0.3h-7.7
		c0.1,1,0.4,1.8,0.9,2.4c0.6,0.6,1.4,0.8,2.3,0.8c0.7,0,1.3-0.2,1.8-0.5c0.5-0.3,0.9-0.8,1.1-1.4H236.3z M228.9,112.5h6.5
		c-0.1-0.8-0.4-1.5-1-2c-0.6-0.5-1.3-0.8-2.2-0.8c-0.9,0-1.7,0.3-2.3,0.8C229.3,111,229,111.7,228.9,112.5z"/>
	<path class="st0" d="M238.5,117.4V106h1.1v11.4H238.5z"/>
	<path class="st0" d="M242.1,107.3V106h1.1v1.3H242.1z M242.1,117.4V109h1.1v8.4H242.1z"/>
	<path class="st0" d="M245.5,117.4V109h1.1v1.5c0.4-0.6,0.9-1,1.5-1.3c0.6-0.3,1.3-0.4,2-0.4c1.1,0,1.9,0.3,2.4,0.8s0.8,1.3,0.8,2.4
		v5.4h-1.1v-4.7c0-1.1-0.2-1.8-0.5-2.2c-0.4-0.4-0.9-0.6-1.8-0.6c-1,0-1.7,0.3-2.4,0.8c-0.6,0.5-0.9,1.2-0.9,2v4.8H245.5z"/>
	<path class="st0" d="M264,116.7c0,0.7-0.1,1.3-0.2,1.7c-0.1,0.4-0.4,0.7-0.8,1c-0.4,0.3-0.9,0.6-1.4,0.7c-0.6,0.2-1.2,0.2-1.9,0.2
		c-1.1,0-2-0.2-2.7-0.7c-0.7-0.4-1.1-1-1.1-1.8h1.1c0.1,0.5,0.3,0.9,0.8,1.1c0.4,0.2,1.1,0.4,1.9,0.4c1.2,0,2-0.2,2.6-0.6
		c0.5-0.4,0.8-1,0.8-2v-0.9c-0.5,0.6-0.9,1-1.5,1.3c-0.5,0.3-1.2,0.4-1.9,0.4c-1.3,0-2.4-0.4-3.2-1.2c-0.8-0.8-1.2-1.9-1.2-3.2
		s0.4-2.4,1.2-3.2c0.8-0.8,1.9-1.2,3.2-1.2c0.7,0,1.3,0.1,1.9,0.4c0.5,0.3,1,0.7,1.5,1.3V109h1.1V116.7z M262.9,113.2
		c0-1-0.3-1.8-0.9-2.4c-0.6-0.6-1.4-0.9-2.4-0.9c-1,0-1.8,0.3-2.4,0.9c-0.6,0.6-0.9,1.4-0.9,2.4c0,1,0.3,1.8,0.9,2.4
		c0.6,0.6,1.4,0.9,2.4,0.9c1,0,1.8-0.3,2.4-0.9C262.6,115,262.9,114.2,262.9,113.2z"/>
</g>
</svg>
