<svg id="Layer_1" data-name="Layer 1" xmlns="http://www.w3.org/2000/svg" viewBox="0 0 222.5 54.5"><title>NACAC_knockout</title><path d="M263.1855,394.6494a82.1978,82.1978,0,0,1,10.9605-9.1416l-3.68-9.4512Z" transform="translate(-201.25 -364.25)" style="fill:#fff"/><path d="M201.25,364.25v54.5h222.5v-54.5H201.25Zm44.3091,48.5186h-6.9976L215.89,381.2061a17.1421,17.1421,0,0,1-.9467-1.5127c-0.2886-.5225-0.5664-1.0732-0.8208-1.6553v34.73H207.99V369.917h7.0689l22.1865,31.126c0.4932,0.6787.9175,1.3242,1.287,1.9219a11.4672,11.4672,0,0,1,.8765,1.6875V369.917h6.15v42.8516Zm37.3447,0h-5.19a39.5561,39.5561,0,0,1,10.8418-29.7793c-22.0533,11.0879-30.6128,25.8242-32.5806,29.7451l-0.0137.0342h-6.68l17.6406-42.8516h7.1269l5.0967,12.334a109.6953,109.6953,0,0,1,25.32-11.0732,24.6427,24.6427,0,0,1,11.1137-2.3594q8.0581,0,13.2109,3.7461a14.4841,14.4841,0,0,1,4.1182,4.56,15.2254,15.2254,0,0,1,1.8359,5.6787h-6.3252a10.0109,10.0109,0,0,0-4.2939-6.5225,15.4358,15.4358,0,0,0-8.8027-2.293,19.8684,19.8684,0,0,0-2.6855.1924,32.0421,32.0421,0,0,0-3.1562.7549c-0.4706.1376-.9319,0.3019-1.3951,0.46l0.0259,0.08C306.9951,375.8916,281.3594,385.791,282.9038,412.7686Zm46.2388-3.4482q-5.4946,4.6377-14.209,4.6416-10.0254,0-15.7153-6.1689a20.9794,20.9794,0,0,1-5.0474-10.4756,15.2425,15.2425,0,0,1,4.4385-8.998c0.5771-.4766,1.1914-0.9531,1.8916-1.4316a27.635,27.635,0,0,0-.37,4.56q0,7.8545,4.1572,12.5957a15.3159,15.3159,0,0,0,20.5342,1.4717,11.7894,11.7894,0,0,0,3.9814-8.6582h6.2578A16.7335,16.7335,0,0,1,329.1426,409.32Zm41.74,3.4482-3.2969-8.41H345.4072l-3.3174,8.41h-6.6767l17.6328-42.8516h7.1387l17.7,42.8516h-7.002Zm42.1328-3.4482q-5.4989,4.6377-14.2041,4.6416-10.0282,0-15.7256-6.1689-5.6776-6.1641-5.6875-17.0762,0-10.062,5.9688-15.9844,5.9575-5.9121,16.0859-5.9141,8.0671,0,13.2119,3.7461a14.3548,14.3548,0,0,1,5.9385,10.2383h-6.3164a10.0187,10.0187,0,0,0-4.2881-6.5244,15.4707,15.4707,0,0,0-8.8027-2.291q-7.2231,0-11.207,4.5742-3.9889,4.57-3.9766,12.8857,0,7.8545,4.1416,12.5928a15.3076,15.3076,0,0,0,20.5371,1.4746,11.8026,11.8026,0,0,0,3.9844-8.6582h6.2607A16.7351,16.7351,0,0,1,413.0156,409.32Z" transform="translate(-201.25 -364.25)" style="fill:#fff"/><polygon points="146.361 34.479 164.163 34.479 155.357 11.807 146.361 34.479" style="fill:#fff"/></svg>