<?xml version="1.0" encoding="utf-8"?>
<!-- Generator: Adobe Illustrator 19.2.0, SVG Export Plug-In . SVG Version: 6.00 Build 0)  -->
<svg version="1.1" id="Layer_1" xmlns="http://www.w3.org/2000/svg" xmlns:xlink="http://www.w3.org/1999/xlink" x="0px" y="0px"
	 viewBox="0 0 288 146.7" style="enable-background:new 0 0 288 146.7;" xml:space="preserve">
<style type="text/css">
	.st0{fill:#FFFFFF;}
	.st1{fill:#7A7A7A;}
</style>
<g>
	<path class="st0" d="M3.2,105.1l0.9-1c0.7,0.6,1.5,1,2.5,1c0.9,0,1.4-0.4,1.4-1l0,0c0-0.5-0.2-0.9-1.7-1.2
		c-1.6-0.4-2.6-0.9-2.6-2.4l0,0c0-1.4,1.1-2.2,2.6-2.2c1.1,0,2,0.4,2.9,1l-0.7,1c-0.7-0.5-1.4-0.7-2.1-0.7S5,99.9,5,100.4l0,0
		c0,0.6,0.4,0.9,1.9,1.2c1.6,0.4,2.5,1,2.5,2.2l0,0c0,1.5-1.1,2.4-2.7,2.4C5.2,106.3,4.1,105.9,3.2,105.1z"/>
	<path class="st0" d="M10.3,103.3L10.3,103.3c0-1.7,1.2-3.1,2.9-3.1c1.9,0,2.9,1.5,2.9,3.1c0,0.1,0,0.2,0,0.4h-4.3
		c0.1,1,0.9,1.5,1.7,1.5c0.6,0,1.1-0.2,1.6-0.7l0.7,0.7c-0.5,0.6-1.4,1.1-2.4,1.1C11.5,106.3,10.3,105.1,10.3,103.3z M14.7,102.8
		c-0.1-0.9-0.6-1.5-1.5-1.5c-0.9,0-1.4,0.6-1.5,1.5H14.7z"/>
	<path class="st0" d="M17.3,100.4h1.4v1c0.4-0.6,1-1.1,2-1.1c1.4,0,2.7,1.1,2.7,3l0,0c0,2-1.4,3-2.7,3c-1,0-1.6-0.5-2-1v2.7h-1.4
		V100.4z M22,103.3L22,103.3c0-1.1-0.7-1.9-1.6-1.9s-1.7,0.7-1.7,1.9l0,0c0,1.1,0.7,1.9,1.7,1.9C21.2,105.2,22,104.4,22,103.3z"/>
	<path class="st0" d="M24.9,104.6v-3.1h-0.7v-1.1h0.7v-1.6h1.4v1.6h1.6v1.1h-1.6v2.9c0,0.5,0.2,0.7,0.7,0.7c0.2,0,0.6-0.1,0.9-0.2
		v1.1c-0.4,0.2-0.7,0.2-1.2,0.2C25.7,106.3,24.9,105.9,24.9,104.6z"/>
	<path class="st0" d="M29.2,104.7h1.5v1.5h-1.5V104.7z"/>
	<path class="st0" d="M35.2,105.2l2.6-2.2c1.1-0.9,1.5-1.4,1.5-2.1c0-0.7-0.5-1.2-1.2-1.2s-1.2,0.4-1.7,1.1l-1-0.7
		c0.7-1,1.5-1.6,2.9-1.6c1.5,0,2.6,0.9,2.6,2.4l0,0c0,1.2-0.6,1.9-2,3l-1.6,1.4H41v1.2h-5.6L35.2,105.2L35.2,105.2z"/>
	<path class="st0" d="M42.1,105.2l2.6-2.2c1.1-0.9,1.5-1.4,1.5-2.1c0-0.7-0.5-1.2-1.2-1.2c-0.7,0-1.2,0.4-1.7,1.1l-1-0.7
		c0.7-1,1.5-1.6,2.9-1.6c1.5,0,2.6,0.9,2.6,2.4l0,0c0,1.2-0.6,1.9-2,3l-1.6,1.4h3.7v1.2h-5.6v-1.1H42.1z"/>
	<path class="st0" d="M48.9,102.2h4.6v1.2h-4.6V102.2z"/>
	<path class="st0" d="M54.6,105.2l2.6-2.2c1.1-0.9,1.5-1.4,1.5-2.1c0-0.7-0.5-1.2-1.2-1.2s-1.2,0.4-1.7,1.1l-1-0.7
		c0.7-1,1.5-1.6,2.9-1.6c1.5,0,2.6,0.9,2.6,2.4l0,0c0,1.2-0.6,1.9-2,3l-1.6,1.4h3.7v1.2h-5.6v-1.1H54.6z"/>
	<path class="st0" d="M65.3,104.4h-3.8l-0.2-1l4.3-5.1h1.1v5h1.1v1.1h-1.1v1.7h-1.4C65.3,106.2,65.3,104.4,65.3,104.4z M65.3,103.3
		v-3.1l-2.5,3.1H65.3z"/>
	<path class="st0" d="M68.6,107.3c0.6-0.1,1-0.5,1-1H69v-1.5h1.5v1.2c0,1.2-0.6,1.7-1.7,1.9L68.6,107.3z"/>
	<path class="st0" d="M75.1,105.2l2.6-2.2c1.1-0.9,1.5-1.4,1.5-2.1c0-0.7-0.5-1.2-1.2-1.2c-0.7,0-1.2,0.4-1.7,1.1l-1-0.7
		c0.7-1,1.5-1.6,2.9-1.6c1.5,0,2.6,0.9,2.6,2.4l0,0c0,1.2-0.6,1.9-2,3l-1.6,1.4h3.7v1.2h-5.6L75.1,105.2L75.1,105.2z"/>
	<path class="st0" d="M81.9,102.3L81.9,102.3c0-2.2,1.4-4,3.3-4s3.3,1.7,3.3,4l0,0c0,2.2-1.4,4-3.3,4S81.9,104.6,81.9,102.3z
		 M87.2,102.3L87.2,102.3c0-1.5-0.7-2.9-2-2.9c-1.2,0-2,1.2-2,2.7l0,0c0,1.5,0.7,2.7,2,2.7C86.5,105.1,87.2,103.8,87.2,102.3z"/>
	<path class="st0" d="M91.2,99.7l-1.4,0.4L89.6,99l2-0.6h1v7.8h-1.4L91.2,99.7L91.2,99.7z"/>
	<path class="st0" d="M95.2,105.6c-0.6-0.6-1-1.4-1-3l0,0c0-2.4,1.1-4.2,3.3-4.2c1,0,1.7,0.4,2.4,0.9l-0.7,1c-0.5-0.4-1-0.6-1.7-0.6
		c-1.4,0-1.9,1.4-1.9,2.5c0.5-0.5,1-0.7,1.9-0.7c1.5,0,2.7,0.9,2.7,2.5l0,0c0,1.5-1.2,2.6-2.9,2.6C96.4,106.3,95.7,106.1,95.2,105.6
		z M98.9,103.7L98.9,103.7c0-0.7-0.6-1.4-1.6-1.4s-1.6,0.6-1.6,1.4l0,0c0,0.7,0.6,1.4,1.6,1.4S98.9,104.6,98.9,103.7z"/>
	<path class="st0" d="M108.8,97.4h1.1v10.3h-1.1V97.4z"/>
	<path class="st0" d="M118.5,102.3L118.5,102.3c0-2.2,1.6-4,4-4c1.4,0,2.2,0.5,3,1.2l-0.9,1c-0.6-0.6-1.2-1-2.1-1
		c-1.5,0-2.6,1.2-2.6,2.7l0,0c0,1.5,1.1,2.7,2.6,2.7c1,0,1.6-0.4,2.2-1l0.9,0.9c-0.9,0.9-1.7,1.4-3.1,1.4
		C120.1,106.3,118.5,104.6,118.5,102.3z"/>
	<path class="st0" d="M126.3,103.3L126.3,103.3c0-1.7,1.4-3.1,3.1-3.1c1.7,0,3.1,1.4,3.1,3l0,0c0,1.6-1.4,3-3.1,3
		C127.7,106.3,126.3,104.9,126.3,103.3z M131.3,103.3L131.3,103.3c0-1-0.7-1.9-1.7-1.9c-1.1,0-1.7,0.9-1.7,1.9l0,0
		c0,1,0.7,1.9,1.7,1.9S131.3,104.3,131.3,103.3z"/>
	<path class="st0" d="M134,98.1h1.4v8.1H134V98.1z"/>
	<path class="st0" d="M137.1,104.1v-3.7h1.4v3.3c0,0.9,0.5,1.4,1.2,1.4s1.4-0.5,1.4-1.5v-3.3h1.4v5.8h-1.4v-0.9
		c-0.4,0.5-0.9,1-1.9,1C137.9,106.3,137.1,105.4,137.1,104.1z"/>
	<path class="st0" d="M143.9,100.4h1.4v0.9c0.4-0.5,0.9-1,1.7-1c0.9,0,1.5,0.4,1.7,1c0.5-0.6,1.1-1,2-1c1.2,0,2,0.9,2,2.2v3.7h-1.4
		v-3.3c0-0.9-0.4-1.5-1.2-1.5c-0.7,0-1.2,0.5-1.2,1.5v3.3h-1.4v-3.3c0-0.9-0.5-1.4-1.2-1.4s-1.2,0.5-1.2,1.5v3.3h-1.4L143.9,100.4
		L143.9,100.4z"/>
	<path class="st0" d="M155.8,105.3v0.9h-1.4v-8.1h1.4v3.2c0.4-0.6,1-1.1,2-1.1c1.4,0,2.7,1.1,2.7,3l0,0c0,2-1.4,3-2.7,3
		C156.8,106.3,156.2,105.8,155.8,105.3z M159.2,103.3L159.2,103.3c0-1.1-0.7-1.9-1.6-1.9c-0.9,0-1.7,0.7-1.7,1.9l0,0
		c0,1.1,0.7,1.9,1.7,1.9C158.5,105.2,159.2,104.4,159.2,103.3z"/>
	<path class="st0" d="M161.8,104.1v-3.7h1.4v3.3c0,0.9,0.5,1.4,1.2,1.4s1.4-0.5,1.4-1.5v-3.3h1.4v5.8h-1.4v-0.9
		c-0.4,0.5-0.9,1-1.9,1C162.5,106.3,161.8,105.4,161.8,104.1z"/>
	<path class="st0" d="M168.3,105.4l0.6-0.9c0.6,0.5,1.4,0.7,1.9,0.7c0.6,0,0.9-0.2,0.9-0.6l0,0c0-0.5-0.6-0.6-1.4-0.9
		c-0.9-0.2-1.9-0.6-1.9-1.7l0,0c0-1.1,0.9-1.7,2.1-1.7c0.7,0,1.5,0.2,2.1,0.6l-0.5,1c-0.6-0.4-1.1-0.5-1.6-0.5
		c-0.5,0-0.9,0.2-0.9,0.6l0,0c0,0.4,0.6,0.6,1.4,0.9c0.9,0.2,1.9,0.6,1.9,1.7l0,0c0,1.2-1,1.9-2.1,1.9
		C169.9,106.3,169,106.1,168.3,105.4z"/>
	<path class="st0" d="M173.8,107.3c0.6-0.1,1-0.5,1-1h-0.6v-1.5h1.5v1.2c0,1.2-0.6,1.7-1.7,1.9L173.8,107.3z"/>
	<path class="st0" d="M180.4,102.3L180.4,102.3c0-2.2,1.7-4,4.1-4s4.1,1.9,4.1,4l0,0c0,2.2-1.7,4-4.1,4S180.4,104.6,180.4,102.3z
		 M187.1,102.3L187.1,102.3c0-1.5-1.1-2.7-2.6-2.7c-1.5,0-2.6,1.2-2.6,2.7l0,0c0,1.5,1.1,2.7,2.6,2.7
		C186,105.1,187.1,103.8,187.1,102.3z"/>
	<path class="st0" d="M190.1,98.5h1.4v3.2h3.7v-3.2h1.4v7.7h-1.4V103h-3.7v3.2h-1.4V98.5z"/>
	<path class="st0" d="M205.5,97.4h1.1v10.3h-1.1V97.4z"/>
	<path class="st0" d="M215.3,100.4h1.4v0.9c0.4-0.5,0.9-1,1.9-1c1.4,0,2.1,0.9,2.1,2.2v3.7h-1.4v-3.3c0-0.9-0.5-1.5-1.2-1.5
		s-1.4,0.5-1.4,1.5v3.3h-1.4L215.3,100.4L215.3,100.4z"/>
	<path class="st0" d="M221.9,104.6L221.9,104.6c0-1.2,1-1.9,2.4-1.9c0.6,0,1.1,0.1,1.6,0.2v-0.1c0-0.9-0.5-1.2-1.5-1.2
		c-0.6,0-1.1,0.1-1.6,0.4l-0.4-1c0.6-0.2,1.2-0.5,2.2-0.5c0.9,0,1.5,0.2,2,0.6c0.4,0.4,0.6,1,0.6,1.9v3.5h-1.4v-0.7
		c-0.4,0.5-1,0.9-1.9,0.9C222.7,106.3,221.9,105.7,221.9,104.6z M225.8,104.1v-0.4c-0.4-0.1-0.7-0.2-1.4-0.2c-0.9,0-1.4,0.4-1.4,1
		l0,0c0,0.6,0.5,0.9,1.1,0.9C225.1,105.3,225.8,104.8,225.8,104.1z"/>
	<path class="st0" d="M228.3,103.3L228.3,103.3c0-1.7,1.2-3.1,3-3.1c1.1,0,1.7,0.4,2.4,1l-0.9,0.9c-0.4-0.4-0.9-0.7-1.5-0.7
		c-1,0-1.7,0.9-1.7,1.9l0,0c0,1,0.7,1.9,1.7,1.9c0.6,0,1.1-0.2,1.5-0.7l0.7,0.7c-0.6,0.6-1.2,1.1-2.4,1.1
		C229.7,106.3,228.3,104.9,228.3,103.3z"/>
	<path class="st0" d="M234.6,104.6L234.6,104.6c0-1.2,1-1.9,2.4-1.9c0.6,0,1.1,0.1,1.6,0.2v-0.1c0-0.9-0.5-1.2-1.5-1.2
		c-0.6,0-1.1,0.1-1.6,0.4l-0.4-1c0.6-0.2,1.2-0.5,2.2-0.5c0.9,0,1.5,0.2,2,0.6c0.4,0.4,0.6,1,0.6,1.9v3.5h-1.4v-0.7
		c-0.4,0.5-1,0.9-1.9,0.9C235.6,106.3,234.6,105.7,234.6,104.6z M238.6,104.1v-0.4c-0.4-0.1-0.7-0.2-1.4-0.2c-0.9,0-1.4,0.4-1.4,1
		l0,0c0,0.6,0.5,0.9,1.1,0.9C238,105.3,238.6,104.8,238.6,104.1z"/>
	<path class="st0" d="M241.2,103.3L241.2,103.3c0-1.7,1.2-3.1,3-3.1c1.1,0,1.7,0.4,2.4,1l-0.9,0.9c-0.4-0.4-0.9-0.7-1.5-0.7
		c-1,0-1.7,0.9-1.7,1.9l0,0c0,1,0.7,1.9,1.7,1.9c0.6,0,1.1-0.2,1.5-0.7l0.7,0.7c-0.6,0.6-1.2,1.1-2.4,1.1
		C242.5,106.3,241.2,104.9,241.2,103.3z"/>
	<path class="st0" d="M247.8,100.4h1.4v0.9c0.4-0.5,0.9-1,1.9-1c1.4,0,2.1,0.9,2.1,2.2v3.7h-1.4v-3.3c0-0.9-0.5-1.5-1.2-1.5
		c-0.7,0-1.4,0.5-1.4,1.5v3.3h-1.4L247.8,100.4L247.8,100.4z"/>
	<path class="st0" d="M254.4,103.3L254.4,103.3c0-1.7,1.2-3.1,2.9-3.1c1.9,0,2.9,1.5,2.9,3.1c0,0.1,0,0.2,0,0.4h-4.3
		c0.1,1,0.9,1.5,1.7,1.5c0.6,0,1.1-0.2,1.6-0.7l0.7,0.7c-0.5,0.6-1.4,1.1-2.4,1.1C255.6,106.3,254.4,105.1,254.4,103.3z
		 M258.7,102.8c-0.1-0.9-0.6-1.5-1.5-1.5c-0.9,0-1.4,0.6-1.5,1.5H258.7z"/>
	<path class="st0" d="M261.6,104.6v-3.1h-0.7v-1.1h0.7v-1.6h1.4v1.6h1.6v1.1h-1.6v2.9c0,0.5,0.2,0.7,0.7,0.7c0.2,0,0.6-0.1,0.9-0.2
		v1.1c-0.4,0.2-0.7,0.2-1.2,0.2C262.3,106.3,261.6,105.9,261.6,104.6z"/>
	<path class="st0" d="M265.8,104.7h1.5v1.5h-1.5V104.7z"/>
	<path class="st0" d="M268.3,103.3L268.3,103.3c0-1.7,1.4-3.1,3.1-3.1c1.7,0,3.1,1.4,3.1,3l0,0c0,1.6-1.4,3-3.1,3
		C269.6,106.3,268.3,104.9,268.3,103.3z M273.2,103.3L273.2,103.3c0-1-0.7-1.9-1.7-1.9c-1.1,0-1.7,0.9-1.7,1.9l0,0
		c0,1,0.7,1.9,1.7,1.9C272.5,105.2,273.2,104.3,273.2,103.3z"/>
	<path class="st0" d="M276,100.4h1.4v1.4c0.4-0.9,1-1.5,2.1-1.4v1.4h-0.1c-1.1,0-2,0.7-2,2.4v2.2H276L276,100.4L276,100.4z"/>
	<path class="st0" d="M280.3,107.3l0.5-1c0.6,0.4,1.2,0.6,2.1,0.6c1.2,0,1.9-0.6,1.9-1.7v-0.5c-0.5,0.6-1.1,1.1-2.1,1.1
		c-1.4,0-2.6-1-2.6-2.7l0,0c0-1.7,1.2-2.7,2.6-2.7c1,0,1.6,0.5,2,1v-0.9h1.4v4.6c0,1-0.2,1.7-0.7,2.2c-0.5,0.5-1.4,0.7-2.4,0.7
		C281.9,108,281,107.8,280.3,107.3z M284.8,103L284.8,103c0-1-0.7-1.6-1.7-1.6c-0.9,0-1.6,0.6-1.6,1.6l0,0c0,1,0.7,1.6,1.6,1.6
		C283.9,104.6,284.8,104,284.8,103z"/>
</g>
<g>
	<g>
		<path class="st0" d="M107.3,50.8V29.6h3l6.8,10.7c1.6,2.5,2.9,4.7,3.8,6.9h0.1c-0.2-2.9-0.4-5.5-0.4-8.7v-8.9h2.6v21.2h-2.7
			l-6.7-10.8c-1.5-2.4-2.9-4.8-4-7.1h-0.1c0.1,2.7,0.2,5.2,0.2,8.7v9.1L107.3,50.8L107.3,50.8z"/>
		<path class="st0" d="M136.4,50.8l-0.2-1.9H136c-0.9,1.2-2.5,2.2-4.7,2.2c-3.1,0-4.7-2.2-4.7-4.3c0-3.7,3.2-5.7,9.2-5.7v-0.4
			c0-1.2-0.4-3.5-3.5-3.5c-1.4,0-2.9,0.5-4,1.1l-0.6-1.9c1.2-0.9,3.1-1.4,5-1.4c4.7,0,5.8,3.2,5.8,6.2v5.7c0,1.4,0.1,2.6,0.2,3.6
			L136.4,50.8L136.4,50.8z M136,43.2c-3-0.1-6.5,0.5-6.5,3.5c0,1.7,1.2,2.6,2.6,2.6c2,0,3.2-1.2,3.7-2.6c0.1-0.2,0.1-0.6,0.1-0.9
			L136,43.2L136,43.2z"/>
		<path class="st0" d="M146.4,31.2v4.3h4v2.1h-4v8.2c0,1.9,0.5,3,2.1,3c0.7,0,1.2-0.1,1.6-0.2l0.1,2.1c-0.5,0.2-1.4,0.4-2.5,0.4
			c-1.2,0-2.4-0.4-3-1.1c-0.7-0.9-1.1-2.2-1.1-4v-8.3h-2.4v-2.1h2.4V32L146.4,31.2z"/>
		<path class="st0" d="M156.5,31.4c0,1-0.6,1.7-1.7,1.7c-1,0-1.6-0.7-1.6-1.7c0-1,0.7-1.7,1.7-1.7C155.8,29.6,156.5,30.4,156.5,31.4
			z M153.5,50.8V35.7h2.7V51h-2.7V50.8z"/>
		<path class="st0" d="M174.6,43.2c0,5.6-3.8,8.1-7.6,8.1c-4.1,0-7.3-3-7.3-7.8c0-5.1,3.3-8.1,7.6-8.1
			C171.6,35.3,174.6,38.4,174.6,43.2z M162.5,43.3c0,3.3,1.9,5.8,4.6,5.8c2.6,0,4.6-2.5,4.6-6c0-2.6-1.2-5.8-4.6-5.8
			C163.9,37.4,162.5,40.4,162.5,43.3z"/>
		<path class="st0" d="M178.1,39.8c0-1.6,0-2.9-0.1-4.1h2.5l0.1,2.5h0.1c0.7-1.5,2.5-2.9,5.1-2.9c2.1,0,5.3,1.2,5.3,6.5v9.1h-2.7V42
			c0-2.5-0.9-4.5-3.5-4.5c-1.9,0-3.2,1.2-3.7,2.9c-0.1,0.4-0.2,0.9-0.2,1.2v9.2h-2.7L178.1,39.8L178.1,39.8z"/>
		<path class="st0" d="M204,50.8l-0.2-1.9h-0.1c-0.9,1.2-2.5,2.2-4.7,2.2c-3.1,0-4.7-2.2-4.7-4.3c0-3.7,3.2-5.7,9.2-5.7v-0.4
			c0-1.2-0.4-3.5-3.5-3.5c-1.4,0-2.9,0.5-4,1.1l-0.6-1.9c1.2-0.9,3.1-1.4,5-1.4c4.7,0,5.8,3.2,5.8,6.2v5.7c0,1.4,0.1,2.6,0.2,3.6
			L204,50.8L204,50.8z M203.6,43.2c-3-0.1-6.5,0.5-6.5,3.5c0,1.7,1.2,2.6,2.6,2.6c2,0,3.2-1.2,3.7-2.6c0.1-0.2,0.1-0.6,0.1-0.9
			L203.6,43.2L203.6,43.2z"/>
		<path class="st0" d="M210.7,28.5h2.7v22.3h-2.7V28.5z"/>
		<path class="st0" d="M122.2,79.5c-1,0.5-3,1-5.6,1c-6,0-10.4-3.7-10.4-10.7c0-6.7,4.5-11.2,11-11.2c2.6,0,4.3,0.6,5.1,1l-0.6,2.2
			c-1-0.5-2.5-0.9-4.2-0.9c-5,0-8.3,3.2-8.3,8.8c0,5.2,3,8.6,8.2,8.6c1.6,0,3.3-0.4,4.5-0.9L122.2,79.5z"/>
		<path class="st0" d="M139,72.6c0,5.6-3.8,8.1-7.6,8.1c-4.1,0-7.3-3-7.3-7.8c0-5.1,3.3-8.1,7.6-8.1C136,64.6,139,67.8,139,72.6z
			 M126.9,72.7c0,3.3,1.9,5.8,4.6,5.8c2.6,0,4.6-2.5,4.6-6c0-2.6-1.2-5.8-4.6-5.8C128.3,66.7,126.9,69.8,126.9,72.7z"/>
		<path class="st0" d="M142.4,69.1c0-1.6,0-2.9-0.1-4.1h2.5l0.1,2.5h0.1c0.7-1.5,2.5-2.9,5.1-2.9c2.1,0,5.3,1.2,5.3,6.5v9.1h-2.7
			v-8.8c0-2.5-0.9-4.5-3.5-4.5c-1.9,0-3.2,1.2-3.7,2.9c-0.1,0.4-0.2,0.9-0.2,1.2v9.2h-2.9V69.1L142.4,69.1z"/>
		<path class="st0" d="M160.2,80.3V67.1h-2.1V65h2.1v-0.7c0-2.1,0.5-4.1,1.7-5.3c1-1,2.5-1.4,3.7-1.4c1,0,1.9,0.2,2.4,0.5l-0.4,2.1
			c-0.4-0.2-1-0.4-1.7-0.4c-2.4,0-3,2.1-3,4.5v0.9h3.7v2.1h-3.7v13.2C162.9,80.3,160.2,80.3,160.2,80.3z"/>
		<path class="st0" d="M170.2,73.2c0.1,3.7,2.5,5.3,5.2,5.3c2,0,3.2-0.4,4.2-0.7l0.5,2c-1,0.5-2.6,1-5.1,1c-4.7,0-7.4-3.1-7.4-7.7
			s2.7-8.2,7.2-8.2c5,0,6.3,4.3,6.3,7.2c0,0.6-0.1,1-0.1,1.2L170.2,73.2L170.2,73.2z M178.3,71.2c0-1.7-0.7-4.5-3.8-4.5
			c-2.9,0-4,2.6-4.2,4.5H178.3z"/>
		<path class="st0" d="M184.5,69.8c0-1.7,0-3.3-0.1-4.7h2.5l0.1,3h0.1c0.7-2,2.4-3.3,4.2-3.3c0.4,0,0.5,0,0.7,0.1v2.5
			c-0.2-0.1-0.6-0.1-1-0.1c-2,0-3.3,1.5-3.7,3.6c-0.1,0.4-0.1,0.9-0.1,1.2v8.1h-2.7V69.8L184.5,69.8z"/>
		<path class="st0" d="M196,73.2c0.1,3.7,2.5,5.3,5.2,5.3c2,0,3.2-0.4,4.2-0.7l0.5,2c-1,0.5-2.6,1-5.1,1c-4.7,0-7.4-3.1-7.4-7.7
			s2.7-8.2,7.2-8.2c5,0,6.3,4.3,6.3,7.2c0,0.6-0.1,1-0.1,1.2L196,73.2L196,73.2z M204.1,71.2c0-1.7-0.7-4.5-3.8-4.5
			c-2.9,0-4,2.6-4.2,4.5H204.1z"/>
		<path class="st0" d="M210.2,69.1c0-1.6,0-2.9-0.1-4.1h2.5l0.1,2.5h0.1c0.7-1.5,2.5-2.9,5.1-2.9c2.1,0,5.3,1.2,5.3,6.5v9.1h-2.7
			v-8.8c0-2.5-0.9-4.5-3.5-4.5c-1.9,0-3.2,1.2-3.7,2.9c-0.1,0.4-0.2,0.9-0.2,1.2v9.2h-2.7L210.2,69.1L210.2,69.1z"/>
		<path class="st0" d="M238.5,79.6c-0.7,0.4-2.4,0.9-4.3,0.9c-4.6,0-7.6-3.1-7.6-7.8c0-4.7,3.2-8.1,8.2-8.1c1.6,0,3.1,0.4,3.8,0.7
			l-0.6,2.1c-0.6-0.4-1.7-0.7-3.2-0.7c-3.5,0-5.3,2.6-5.3,5.7c0,3.5,2.2,5.7,5.3,5.7c1.6,0,2.6-0.4,3.3-0.7L238.5,79.6z"/>
		<path class="st0" d="M243.2,73.2c0.1,3.7,2.5,5.3,5.2,5.3c2,0,3.2-0.4,4.2-0.7l0.5,2c-1,0.5-2.6,1-5.1,1c-4.7,0-7.4-3.1-7.4-7.7
			s2.7-8.2,7.2-8.2c5,0,6.3,4.3,6.3,7.2c0,0.6-0.1,1-0.1,1.2L243.2,73.2L243.2,73.2z M251.3,71.2c0-1.7-0.7-4.5-3.8-4.5
			c-2.9,0-4,2.6-4.2,4.5H251.3z"/>
	</g>
</g>
<g>
	<rect x="1.6" y="29" class="st1" width="95" height="51.6"/>
	<path class="st0" d="M1.7,80.5c33.4-37.8,80.2-49,94.8-51.5H1.6L1.7,80.5z"/>
</g>
<g>
	<g>
		<path class="st0" d="M1.5,21.3V2h3.2l10,14c0.2,0.2,0.4,0.6,0.6,0.9c0.1,0.2,0.2,0.5,0.4,0.7V2h2.7v19.4h-3.1L5.2,7.1
			C5.1,6.8,5,6.6,4.8,6.4C4.7,6.2,4.6,5.9,4.5,5.7v15.6H1.5L1.5,21.3z"/>
		<path class="st0" d="M58.9,21.3L66.9,2h3.2l7.9,19.4H75l-1.5-3.8h-10l-1.5,3.8H58.9z M64.5,15h8.1l-4-10.2L64.5,15z"/>
		<path class="st0" d="M93.8,14.1h2.9c-0.1,2.4-1,4.2-2.7,5.6c-1.6,1.4-3.8,2.1-6.5,2.1c-3,0-5.3-0.9-7.1-2.7
			c-1.7-1.9-2.6-4.5-2.6-7.7c0-3,0.9-5.5,2.7-7.2c1.7-1.7,4.2-2.6,7.2-2.6c2.5,0,4.5,0.6,6,1.7c1.5,1.1,2.5,2.7,2.7,4.6h-2.9
			c-0.2-1.2-0.9-2.2-2-3c-1-0.7-2.4-1-4-1c-2.2,0-3.8,0.7-5.1,2.1c-1.2,1.4-1.7,3.3-1.7,5.8c0,2.4,0.6,4.2,1.9,5.7
			c1.2,1.5,2.9,2.1,5,2.1c1.7,0,3.2-0.5,4.3-1.5C93.1,17.1,93.7,15.7,93.8,14.1z"/>
	</g>
	<path class="st0" d="M57.8,5.3c-0.5-0.7-1.1-1.5-1.9-2.1c-1.5-1.1-3.5-1.7-6-1.7c-1.9,0-3.8,0.4-5.2,1c-4.5,1.6-8.1,3.2-11.2,5.1
		L31.3,2h-3.2l-7.9,19.4h1.7h1.2l0,0l0,0c0.9-1.7,4.7-8.4,14.6-13.4c-2.9,3-5.2,7.4-4.8,13.4h2.4C34.5,9.2,46.5,4.4,46.5,4.4
		c1.1-0.5,2.2-0.6,3.2-0.6c1.6,0,3,0.4,4,1c1,0.6,1.6,1.6,2,3h2.9C58.6,6.8,58.3,6.1,57.8,5.3z M26.4,13.1l3.2-8.4l1.6,4.2
		C29.4,10.4,27.8,11.8,26.4,13.1z"/>
	<g>
		<path class="st0" d="M56,14.1c-0.1,1.6-0.6,3-1.7,3.8s-2.6,1.5-4.3,1.5c-2.1,0-3.7-0.7-5-2.1c-1.2-1.5-1.9-3.3-1.9-5.7
			c0-0.7,0-1.4,0.1-2.1c-1.6,1.1-2.6,2.9-2.9,4.7c0.4,1.9,1.1,3.5,2.2,4.7c1.7,1.9,4.1,2.7,7.1,2.7c2.6,0,4.7-0.7,6.5-2.1
			c1.6-1.4,2.5-3.2,2.6-5.6C58.8,14.1,56,14.1,56,14.1z"/>
	</g>
</g>
</svg>
