<?xml version="1.0" encoding="utf-8"?>
<!-- Generator: Adobe Illustrator 19.2.0, SVG Export Plug-In . SVG Version: 6.00 Build 0)  -->
<svg version="1.1" id="Layer_1" xmlns="http://www.w3.org/2000/svg" xmlns:xlink="http://www.w3.org/1999/xlink" x="0px" y="0px"
	 viewBox="0 0 288 126" style="enable-background:new 0 0 288 126;" xml:space="preserve">
<style type="text/css">
	.st0{fill:#FFFFFF;}
</style>
<path class="st0" d="M395.2-7.5v141h-502.5v-141H395.2z M57.5,10.8h-7.8v44.3c-0.3-0.7-0.7-1.4-1.1-2.1c-0.5-0.7-1-1.6-1.7-2.4
	L18.6,10.8H9.5v54.5h7.8V21.1c0.3,0.7,0.7,1.5,1,2.1c0.4,0.7,0.7,1.3,1.2,2l29,40.3h9V10.8z M203.5,10.8h-9.1L172,65.4h8.5l4.2-10.7
	H213l4.2,10.7h9L203.5,10.8z M210.2,47.5l-11.2-29l-11.5,29H210.2z M278.5,45.2h-7.9c-0.3,4.6-2,8.2-5.2,11
	c-3.1,2.8-7.2,4.2-12.1,4.2c-5.8,0-10.5-2.1-14-6.1c-3.5-4-5.3-9.3-5.3-16.1c0-7.1,1.7-12.5,5-16.4c3.4-3.8,8.1-5.8,14.3-5.8
	c4.6,0,8.3,0.9,11.2,2.9c2.9,2,4.8,4.7,5.5,8.3h8c-0.7-5.5-3.2-9.9-7.6-13.1c-4.4-3.2-10-4.8-16.8-4.8c-8.7,0-15.5,2.5-20.5,7.6
	c-5,5-7.6,11.8-7.6,20.4c0,9.2,2.4,16.5,7.3,21.8c4.9,5.2,11.6,7.8,20.1,7.8c7.4,0,13.4-2,18.1-5.9
	C275.6,57.1,278.1,51.8,278.5,45.2z M171.2,27.3c-0.4-2.8-1.1-5.2-2.4-7.4c-1.3-2.2-3-4.2-5.2-5.8c-4.4-3.2-10-4.8-16.8-4.8
	c-5.4,0-10.7,1.2-14.9,2.7c-12.8,4.7-22.9,9.2-31.6,14.5l-6.5-15.7h-9.1L62.2,65.4h5h3.5c2.5-5,13.4-23.8,41.6-37.9
	c-7.9,8.6-14.7,20.9-13.8,38h6.6c-2-34.4,32.1-47.6,32.1-47.6c3-1.3,6.4-1.9,9.2-1.8c4.6,0.1,8.3,1,11.2,2.9c2.9,2,4.7,4.7,5.5,8.3
	H171.2z M93.8,30.7l-4.7-12l-9.2,23.7C83.7,38.5,88.3,34.6,93.8,30.7z M171.6,45.2h-8.1c-0.2,4.6-1.9,8.2-5,11
	c-3.2,2.8-7.2,4.2-12.1,4.2c-5.8,0-10.5-2.1-14-6.1c-3.5-4-5.3-9.3-5.3-16.1c0-2.1,0.2-4,0.5-5.8c-4.5,3.1-7.5,8.2-8,13.3
	c1,5.3,3.2,9.8,6.4,13.4c4.9,5.2,11.5,7.8,20.1,7.8c7.4,0,13.4-2,18.1-5.9C168.8,57.1,171.3,51.8,171.6,45.2z M56.2,83.4h-1.4V94
	h1.1v-9.5l7.4,9.5h1.4V83.4h-1v9.5L56.2,83.4z M73.1,89.8c-0.2,0.1-0.5,0.2-0.8,0.3c-0.4,0.1-1,0.2-1.9,0.4
	c-1.1,0.2-1.9,0.4-2.1,0.6c-0.3,0.2-0.5,0.5-0.5,0.9s0.2,0.7,0.6,1c0.4,0.3,0.8,0.4,1.5,0.4c0.9,0,1.8-0.2,2.3-0.7
	c0.6-0.5,0.9-1,0.9-1.8v-0.1V89.8z M74.2,94.1c0.1,0,0.2,0,0.4,0c0.2,0,0.3,0,0.5-0.1v-0.9c-0.1,0-0.2,0.1-0.2,0.1s-0.1,0-0.2,0
	c-0.2,0-0.3,0-0.4-0.1c-0.1-0.1-0.1-0.3-0.1-0.7v-3.1v-0.5c0-0.6,0-0.9-0.1-1.2c-0.1-0.2-0.2-0.5-0.4-0.7c-0.3-0.4-0.7-0.7-1.1-0.7
	c-0.5-0.1-1-0.2-1.8-0.2c-1.2,0-2.1,0.2-2.7,0.7c-0.7,0.5-0.9,1.1-1,2.1h1c0-0.7,0.3-1.1,0.7-1.4c0.5-0.3,1.1-0.5,2.1-0.5
	c0.7,0,1.2,0.2,1.6,0.4c0.4,0.2,0.6,0.5,0.6,0.9c0,0.6-0.6,0.9-1.9,1.1c-0.4,0-0.7,0.1-0.8,0.1c-0.8,0.2-1.5,0.3-1.9,0.4
	c-0.4,0.1-0.7,0.2-0.8,0.4c-0.3,0.2-0.6,0.5-0.7,0.7c-0.1,0.3-0.2,0.6-0.2,0.9c0,0.7,0.2,1.4,0.7,1.8c0.5,0.5,1.2,0.7,2.1,0.7
	c0.7,0,1.4-0.1,2.1-0.4c0.5-0.2,0.9-0.6,1.4-1c0,0.5,0.1,0.7,0.3,0.9C73.7,94,73.9,94.1,74.2,94.1z M79.8,86.1h-1.8v-2.3h-1v2.3
	h-1.3v0.8H77v5c0,0.7,0.2,1.3,0.4,1.6c0.3,0.3,0.7,0.5,1.2,0.5c0.2,0,0.4,0,0.6,0c0.2,0,0.4,0,0.7-0.1v-0.8
	c-0.2,0.1-0.4,0.1-0.5,0.1c-0.1,0-0.3,0-0.4,0c-0.4,0-0.7-0.1-0.7-0.2c-0.1-0.1-0.2-0.5-0.2-1v-5h1.8V86.1z M81.1,86.3v7.8h1v-7.8
	H81.1z M82.2,83.4h-1v1.2h1V83.4z M85.7,87.8c-0.6,0.6-0.8,1.3-0.8,2.3c0,0.9,0.3,1.8,0.8,2.3c0.6,0.6,1.3,0.8,2.2,0.8
	s1.7-0.3,2.2-0.8c0.6-0.6,0.8-1.3,0.8-2.3c0-0.9-0.3-1.8-0.8-2.3C89.6,87.3,88.9,87,88,87S86.3,87.3,85.7,87.8z M83.8,90.2
	c0,1.2,0.4,2.2,1.1,3.1c0.7,0.7,1.8,1.1,3,1.1s2.2-0.4,3-1.1c0.7-0.8,1.1-1.9,1.1-3.1c0-1.2-0.4-2.2-1.1-3c-0.7-0.7-1.8-1.1-3-1.1
	s-2.2,0.4-3,1.1C84.2,87.9,83.8,89,83.8,90.2z M100.2,89.7v4.4h1v-5c0-1-0.3-1.8-0.7-2.2c-0.5-0.5-1.2-0.7-2.2-0.7
	c-0.7,0-1.3,0.1-1.9,0.4c-0.6,0.3-1,0.7-1.4,1.2v-1.4h-1v7.8v0.1h1v-4.5c0-0.7,0.3-1.4,0.8-1.9c0.7-0.5,1.3-0.7,2.2-0.7
	c0.7,0,1.4,0.2,1.7,0.6C100,88,100.2,88.7,100.2,89.7z M109.4,92.9c0,0.5,0.1,0.7,0.3,0.9c0.2,0.2,0.4,0.3,0.7,0.3
	c0.1,0,0.2,0,0.4,0c0.2,0,0.3,0,0.5-0.1v-0.9c-0.1,0-0.1,0.1-0.1,0.1c0,0-0.1,0-0.2,0c-0.2,0-0.3,0-0.4-0.1
	c-0.1-0.1-0.1-0.3-0.1-0.7v-3.1v-0.5c0-0.6,0-0.9-0.1-1.2c-0.1-0.2-0.2-0.5-0.4-0.7c-0.3-0.4-0.7-0.7-1.1-0.7
	c-0.5-0.1-1-0.2-1.8-0.2c-1.2,0-2.1,0.2-2.7,0.7c-0.7,0.5-0.9,1.1-1,2.1h1c0-0.7,0.3-1.1,0.7-1.4s1.1-0.5,2.1-0.5
	c0.7,0,1.2,0.2,1.6,0.4c0.4,0.2,0.6,0.5,0.6,0.9c0,0.6-0.6,0.9-1.9,1.1c-0.4,0-0.7,0.1-0.8,0.1c-0.8,0.2-1.5,0.3-1.9,0.4
	c-0.4,0.1-0.7,0.2-0.8,0.4c-0.3,0.2-0.6,0.5-0.7,0.7c-0.1,0.3-0.2,0.6-0.2,0.9c0,0.7,0.3,1.3,0.7,1.8c0.5,0.5,1.2,0.7,2.1,0.7
	c0.7,0,1.4-0.2,2-0.4C108.5,93.7,109,93.4,109.4,92.9z M106.2,93.4c0.9,0,1.8-0.2,2.3-0.7c0.6-0.5,0.9-1,0.9-1.8v-0.1v-1
	c-0.2,0.1-0.5,0.2-0.8,0.3c-0.4,0.1-1,0.2-1.9,0.4c-1.1,0.2-1.9,0.4-2.1,0.6s-0.5,0.5-0.5,0.9s0.2,0.7,0.6,1
	C105.1,93.3,105.5,93.4,106.2,93.4z M114,83.4h-1V94h1V83.4z M123.2,89.7h4.9l-2.4-5.4L123.2,89.7z M128.5,90.8l1.5,3.3h1.1
	l-4.9-10.6H125l-5,10.6h1.1l1.5-3.3H128.5z M138.2,93.6c0.7-0.4,1-1,1-1.9c0-0.6-0.2-1-0.6-1.4c-0.4-0.3-1-0.6-1.9-0.7l-2.1-0.3
	c-0.7-0.2-1.1-0.3-1.4-0.5c-0.3-0.2-0.4-0.4-0.4-0.7c0-0.4,0.2-0.7,0.6-0.9c0.4-0.3,0.9-0.4,1.7-0.4c0.8,0,1.4,0.1,1.9,0.4
	c0.4,0.3,0.7,0.7,0.7,1.2h1c0-0.8-0.3-1.4-0.9-1.9c-0.7-0.5-1.5-0.7-2.6-0.7c-1,0-1.9,0.3-2.5,0.7c-0.7,0.4-0.9,0.9-0.9,1.7
	c0,0.6,0.2,1,0.6,1.4c0.5,0.3,1,0.6,2,0.7l2.2,0.4c0.6,0.1,0.9,0.2,1.1,0.4c0.3,0.2,0.4,0.4,0.4,0.7c0,0.6-0.2,0.8-0.7,1.1
	c-0.5,0.3-1.2,0.4-2.1,0.4c-0.8,0-1.6-0.2-2-0.5c-0.4-0.3-0.7-0.7-0.7-1.3h-1c0,0.9,0.4,1.6,1,2c0.7,0.5,1.5,0.7,2.6,0.7
	C136.6,94.3,137.6,94.1,138.2,93.6z M146.4,93.6c0.7-0.4,1-1,1-1.9c0-0.6-0.2-1-0.6-1.4c-0.4-0.3-1-0.6-1.9-0.7l-2.1-0.3
	c-0.7-0.2-1.1-0.3-1.4-0.5s-0.4-0.4-0.4-0.7c0-0.4,0.2-0.7,0.6-0.9c0.4-0.3,0.9-0.4,1.7-0.4c0.8,0,1.4,0.1,1.9,0.4
	c0.4,0.3,0.7,0.7,0.7,1.2h1c0-0.8-0.3-1.4-0.9-1.9c-0.7-0.5-1.5-0.7-2.6-0.7c-1,0-1.9,0.3-2.5,0.7c-0.7,0.4-0.9,0.9-0.9,1.7
	c0,0.6,0.2,1,0.6,1.4c0.5,0.3,1,0.6,2,0.7l2.2,0.4c0.6,0.1,0.9,0.2,1.1,0.4c0.3,0.2,0.4,0.4,0.4,0.7c0,0.6-0.2,0.8-0.7,1.1
	c-0.4,0.3-1.1,0.4-2,0.4c-0.8,0-1.5-0.2-2-0.5c-0.4-0.3-0.7-0.7-0.7-1.3h-1c0.1,0.9,0.5,1.6,0.9,2c0.7,0.5,1.5,0.7,2.6,0.7
	C144.8,94.3,145.8,94.1,146.4,93.6z M148.6,90.2c0,1.2,0.4,2.2,1.1,3.1c0.7,0.7,1.8,1.1,3,1.1s2.2-0.4,3-1.1
	c0.7-0.8,1.1-1.9,1.1-3.1c0-1.2-0.4-2.2-1.1-3c-0.7-0.7-1.8-1.1-3-1.1s-2.2,0.4-3,1.1C149,87.9,148.6,89,148.6,90.2z M150.4,87.8
	c-0.6,0.6-0.8,1.3-0.8,2.3c0,0.9,0.3,1.8,0.8,2.3c0.6,0.6,1.3,0.8,2.2,0.8s1.7-0.3,2.2-0.8c0.6-0.6,0.8-1.3,0.8-2.3
	c0-0.9-0.3-1.8-0.8-2.3c-0.6-0.6-1.3-0.8-2.2-0.8S151,87.3,150.4,87.8z M158.2,90.1c0,1.3,0.4,2.3,1.1,3.1s1.8,1.1,3,1.1
	c1,0,1.9-0.3,2.6-0.8c0.7-0.6,1.1-1.3,1.2-2.2h-1c-0.2,0.7-0.5,1.2-1,1.5c-0.6,0.4-1.1,0.6-1.9,0.6c-0.9,0-1.7-0.3-2.2-0.8
	c-0.6-0.6-0.8-1.4-0.8-2.3c0-0.9,0.3-1.8,0.8-2.3c0.6-0.6,1.3-0.8,2.2-0.8c0.7,0,1.3,0.2,1.8,0.5c0.5,0.3,0.8,0.7,1,1.4h1
	c-0.1-0.8-0.6-1.5-1.2-2.1c-0.7-0.5-1.5-0.7-2.5-0.7c-1.2,0-2.2,0.4-3,1.1S158.2,88.9,158.2,90.1z M167.7,94.1h1v-7.8h-1V94.1z
	 M168.8,84.6v-1.2h-1v1.2H168.8z M177.1,89.8c-0.2,0.1-0.5,0.2-0.8,0.3c-0.4,0.1-1,0.2-1.9,0.4c-1.1,0.2-1.9,0.4-2.1,0.6
	s-0.5,0.5-0.5,0.9s0.2,0.7,0.6,1c0.4,0.3,0.8,0.4,1.5,0.4c0.9,0,1.8-0.2,2.3-0.7c0.6-0.5,0.9-1,0.9-1.8v-0.1V89.8z M171.1,88.8h1
	c0-0.7,0.3-1.1,0.7-1.4s1.1-0.5,2.1-0.5c0.7,0,1.2,0.2,1.6,0.4c0.4,0.2,0.6,0.5,0.6,0.9c0,0.6-0.6,0.9-1.9,1.1
	c-0.4,0-0.7,0.1-0.8,0.1c-0.8,0.2-1.5,0.3-1.9,0.4c-0.4,0.1-0.7,0.2-0.8,0.4c-0.3,0.2-0.6,0.5-0.7,0.7c-0.1,0.3-0.2,0.6-0.2,0.9
	c0,0.7,0.2,1.4,0.7,1.8c0.5,0.5,1.2,0.7,2.1,0.7c0.7,0,1.4-0.2,2-0.4c0.5-0.2,0.9-0.6,1.4-1c0,0.5,0.1,0.7,0.3,0.9
	c0.2,0.2,0.4,0.3,0.7,0.3c0.1,0,0.2,0,0.4,0c0.2,0,0.3,0,0.5-0.1v-0.9c-0.1,0-0.1,0.1-0.1,0.1s-0.1,0-0.2,0c-0.2,0-0.3,0-0.4-0.1
	c-0.1-0.1-0.1-0.3-0.1-0.7v-3.1v-0.5c0-0.6,0-0.9-0.1-1.2c-0.1-0.2-0.2-0.5-0.4-0.7c-0.3-0.4-0.7-0.6-1.1-0.7
	c-0.5-0.1-1-0.2-1.8-0.2c-1.2,0-2.1,0.2-2.7,0.7C171.5,87.2,171.2,87.8,171.1,88.8z M183.8,86.1H182v-2.3h-1v2.3h-1.3v0.8h1.3v5
	c0,0.7,0.2,1.3,0.4,1.6c0.3,0.3,0.7,0.5,1.2,0.5c0.2,0,0.4,0,0.6,0c0.2,0,0.4,0,0.7-0.1v-0.8c-0.2,0.1-0.4,0.1-0.5,0.1
	c-0.1,0-0.3,0-0.4,0c-0.4,0-0.7-0.1-0.7-0.2c-0.1-0.1-0.2-0.5-0.2-1v-5h1.8V86.1z M185,94.1h1v-7.8h-1V94.1z M186,83.4h-1v1.2h1
	V83.4z M189.7,92.5c0.6,0.6,1.3,0.8,2.2,0.8c0.9,0,1.7-0.3,2.2-0.8c0.6-0.6,0.8-1.3,0.8-2.3c0-0.9-0.3-1.8-0.8-2.3
	c-0.6-0.6-1.3-0.8-2.2-0.8c-0.9,0-1.7,0.3-2.2,0.8c-0.6,0.6-0.8,1.3-0.8,2.3C188.8,91.1,189.1,92,189.7,92.5z M194.9,93.3
	c0.7-0.8,1.1-1.9,1.1-3.1c0-1.2-0.4-2.2-1.1-3c-0.7-0.7-1.8-1.1-3-1.1c-1.2,0-2.2,0.4-3,1.1c-0.7,0.7-1.1,1.8-1.1,3
	c0,1.2,0.4,2.2,1.1,3.1c0.7,0.7,1.8,1.1,3,1.1C193.1,94.4,194.2,94,194.9,93.3z M203.6,87.7c0.3,0.4,0.5,1,0.5,2.1v4.4h1v-5
	c0-1-0.3-1.8-0.7-2.2c-0.5-0.5-1.2-0.7-2.2-0.7c-0.7,0-1.3,0.1-1.9,0.4c-0.6,0.3-1,0.7-1.4,1.2v-1.4h-1v7.8v0.1h1v-4.5
	c0-0.7,0.3-1.4,0.8-1.9c0.7-0.5,1.3-0.7,2.2-0.7C202.8,87.1,203.2,87.3,203.6,87.7z M212.5,87.1v7h1.1v-7h1.8v-0.8h-1.8v-0.7
	c0-0.5,0.1-0.8,0.2-0.9c0.2-0.1,0.4-0.2,0.7-0.2c0.1,0,0.3,0,0.4,0c0.1,0,0.3,0,0.5,0.1v-0.9c-0.3,0-0.5-0.1-0.7-0.1
	c-0.2-0.1-0.4-0.1-0.6-0.1c-0.7,0-1,0.2-1.3,0.5c-0.3,0.3-0.4,0.8-0.4,1.8v0.7h-1.3v0.8H212.5z M217.9,92.5c0.6,0.6,1.3,0.8,2.2,0.8
	s1.7-0.3,2.2-0.8c0.6-0.6,0.8-1.3,0.8-2.3c0-0.9-0.3-1.8-0.8-2.3c-0.6-0.6-1.3-0.8-2.2-0.8s-1.7,0.3-2.2,0.8
	c-0.6,0.6-0.8,1.3-0.8,2.3C217,91.1,217.3,92,217.9,92.5z M223.1,93.3c0.7-0.8,1.1-1.9,1.1-3.1c0-1.2-0.4-2.2-1.1-3
	c-0.7-0.7-1.8-1.1-3-1.1s-2.2,0.4-3,1.1c-0.7,0.7-1.1,1.8-1.1,3c0,1.2,0.4,2.2,1.1,3.1c0.7,0.7,1.8,1.1,3,1.1S222.4,94,223.1,93.3z
	 M230.5,87.4v-1c-0.2-0.1-0.4-0.2-0.6-0.2c-0.1-0.1-0.3-0.1-0.5-0.1c-0.6,0-1,0.1-1.4,0.4c-0.4,0.3-0.7,0.7-0.9,1.1v-1.3h-1v7.8h1
	v-4.9c0.2-0.7,0.6-1.1,0.9-1.5c0.4-0.3,0.8-0.5,1.5-0.5c0.2,0,0.3,0,0.5,0C230.1,87.3,230.3,87.3,230.5,87.4z M27.7,106.2
	c0,1.8,0.5,3.1,1.5,4.1c0.9,1,2.2,1.5,3.9,1.5c1.4,0,2.6-0.3,3.5-1.1c0.9-0.8,1.5-1.9,1.8-3.2h-1.1c-0.3,0.9-0.7,1.8-1.5,2.3
	c-0.7,0.6-1.6,0.8-2.7,0.8c-1.3,0-2.4-0.4-3.2-1.2c-0.8-0.8-1.2-2-1.2-3.4c0-1.4,0.4-2.5,1.2-3.4c0.7-0.8,1.9-1.2,3.3-1.2
	c1,0,1.9,0.3,2.5,0.7c0.7,0.5,1.1,1.2,1.3,2.1v0.1h1.2c-0.2-1.2-0.7-2.1-1.6-2.8c-0.8-0.7-2-1-3.4-1c-1.8,0-3.1,0.5-4.1,1.5
	C28.2,103.1,27.7,104.4,27.7,106.2z M41.4,105.2c-0.6,0.6-0.8,1.3-0.8,2.3c0,0.9,0.3,1.8,0.8,2.3c0.6,0.6,1.3,0.8,2.2,0.8
	c0.9,0,1.7-0.3,2.2-0.8c0.6-0.6,0.8-1.3,0.8-2.3c0-0.9-0.3-1.8-0.8-2.3c-0.6-0.6-1.3-0.8-2.2-0.8C42.7,104.4,41.9,104.7,41.4,105.2z
	 M39.5,107.6c0,1.2,0.4,2.2,1.1,3.1c0.7,0.7,1.8,1.1,3,1.1s2.2-0.4,3-1.1c0.7-0.8,1.1-1.9,1.1-3.1c0-1.2-0.4-2.2-1.1-3
	s-1.8-1.1-3-1.1s-2.2,0.4-3,1.1S39.5,106.3,39.5,107.6z M49.6,111.5h1v-10.6h-1V111.5z M52.8,111.5h1v-10.6h-1V111.5z M56.8,106.9
	h6.1c-0.1-0.7-0.4-1.4-0.9-1.9c-0.6-0.5-1.2-0.7-2.1-0.7c-0.8,0-1.6,0.3-2.1,0.7C57.1,105.5,56.9,106.2,56.8,106.9z M63.6,109.1
	h-1.1c-0.2,0.6-0.6,1-1,1.3c-0.5,0.3-1,0.5-1.7,0.5c-0.8,0-1.6-0.2-2.1-0.7c-0.6-0.6-0.8-1.3-0.9-2.2H64v-0.3c0-1.3-0.4-2.3-1.1-3.1
	c-0.7-0.7-1.8-1.1-3-1.1c-1.2,0-2.2,0.4-3,1.1s-1.1,1.8-1.1,3c0,1.3,0.4,2.3,1.1,3.1s1.8,1.1,3,1.1c1,0,1.9-0.3,2.5-0.7
	C63,110.5,63.4,109.9,63.6,109.1 M63.6,109.1L63.6,109.1l0.1-0.2C63.7,109,63.6,109.1,63.6,109.1 M65.3,107.5c0,1.2,0.4,2.2,1.1,3
	c0.7,0.7,1.8,1.1,3,1.1c0.7,0,1.3-0.1,1.8-0.4c0.6-0.3,0.9-0.7,1.4-1.2v0.8c0,0.9-0.3,1.5-0.7,1.9c-0.6,0.4-1.3,0.6-2.4,0.6
	c-0.7,0-1.4-0.2-1.8-0.4c-0.5-0.2-0.7-0.6-0.7-1h-1c0,0.7,0.4,1.3,1,1.7c0.7,0.5,1.5,0.7,2.5,0.7c0.7,0,1.3,0,1.9-0.2
	c0.5-0.1,0.9-0.4,1.3-0.7c0.4-0.3,0.7-0.6,0.7-0.9c0.1-0.4,0.2-0.9,0.2-1.6h0.1v-7.2h-1v1.3c-0.5-0.6-0.9-0.9-1.4-1.2
	c-0.6-0.3-1.1-0.4-1.8-0.4c-1.2,0-2.2,0.4-3,1.1C65.6,105.2,65.3,106.2,65.3,107.5z M67.1,105.3c-0.6,0.6-0.8,1.3-0.8,2.2
	c0,0.9,0.3,1.7,0.8,2.2c0.6,0.6,1.3,0.8,2.2,0.8c0.9,0,1.7-0.3,2.2-0.8c0.6-0.6,0.8-1.3,0.8-2.2c0-0.9-0.3-1.7-0.8-2.2
	c-0.6-0.6-1.3-0.8-2.2-0.8C68.4,104.5,67.7,104.8,67.1,105.3z M83.1,109.1L83.1,109.1l0.1-0.2C83.2,109,83.2,109.1,83.1,109.1
	 M76.3,106.9h6.1c-0.1-0.7-0.4-1.4-0.9-1.9c-0.6-0.5-1.2-0.7-2.1-0.7c-0.8,0-1.6,0.3-2.1,0.7C76.7,105.5,76.4,106.2,76.3,106.9z
	 M83.1,109.1h-1.1c-0.2,0.6-0.6,1-1,1.3c-0.5,0.3-1,0.5-1.7,0.5c-0.8,0-1.6-0.2-2.1-0.7c-0.6-0.6-0.8-1.3-0.9-2.2h7.2v-0.3
	c0-1.3-0.4-2.3-1.1-3.1s-1.8-1.1-3-1.1c-1.2,0-2.2,0.4-3,1.1c-0.7,0.7-1.1,1.8-1.1,3c0,1.3,0.4,2.3,1.1,3.1c0.7,0.7,1.8,1.1,3,1.1
	c1,0,1.9-0.3,2.5-0.7C82.5,110.5,82.9,109.9,83.1,109.1 M94.5,101.7l-2.4,5.4h4.9L94.5,101.7z M89,111.5h1.1l1.5-3.3h5.8l1.5,3.3
	h1.1l-4.9-10.6h-1.2L89,111.5z M100.8,107.6c0,1.2,0.4,2.2,1.1,3c0.7,0.7,1.8,1.1,3,1.1c0.7,0,1.3-0.1,1.8-0.4
	c0.5-0.3,0.9-0.7,1.3-1.2v1.4h1v-10.6H108v4.1c-0.5-0.5-0.9-0.8-1.4-1.1c-0.6-0.3-1.1-0.4-1.8-0.4c-1.2,0-2.2,0.4-3,1.1
	S100.8,106.3,100.8,107.6z M102.6,105.2c-0.6,0.6-0.8,1.3-0.8,2.2c0,0.9,0.3,1.7,0.8,2.2c0.6,0.6,1.3,0.8,2.2,0.8s1.7-0.3,2.2-0.8
	c0.6-0.5,0.8-1.2,0.8-2.1c0-0.9-0.3-1.7-0.8-2.3c-0.6-0.6-1.3-0.8-2.2-0.8S103.2,104.7,102.6,105.2z M111.2,111.7h1v-4.5
	c0-0.7,0.3-1.4,0.8-1.9c0.7-0.5,1.3-0.7,2.2-0.7c0.7,0,1.4,0.2,1.7,0.6c0.3,0.4,0.5,1,0.5,2.1v4.4h0.9v-4.5c0-0.7,0.3-1.4,0.8-1.9
	c0.7-0.5,1.3-0.7,2.2-0.7c0.8,0,1.4,0.2,1.7,0.6c0.3,0.4,0.5,1,0.5,2.1v4.4h1v-5c0-1-0.3-1.8-0.7-2.2c-0.5-0.5-1.2-0.7-2.2-0.7
	c-0.7,0-1.3,0.1-1.9,0.4c-0.6,0.3-1,0.7-1.4,1.2c-0.2-0.6-0.6-0.9-1-1.2c-0.5-0.3-1.1-0.4-1.9-0.4c-0.7,0-1.3,0.1-1.9,0.4
	c-0.6,0.3-1,0.7-1.4,1.2v-1.4h-1v7.8V111.7z M126.8,111.5h1v-7.8h-1V111.5z M127.8,102v-1.2h-1v1.2H127.8z M129.4,109
	c0.1,0.9,0.4,1.6,1,2c0.7,0.5,1.5,0.7,2.6,0.7c1.3,0,2.2-0.2,2.9-0.7c0.7-0.4,1-1,1-1.9c0-0.6-0.2-1-0.6-1.4c-0.4-0.3-1-0.6-1.9-0.7
	l-2.1-0.3c-0.7-0.2-1.1-0.3-1.4-0.5c-0.3-0.2-0.4-0.4-0.4-0.7c0-0.4,0.2-0.7,0.6-0.9c0.4-0.3,0.9-0.4,1.7-0.4c0.8,0,1.4,0.1,1.9,0.4
	c0.4,0.3,0.7,0.7,0.7,1.2h1c0-0.8-0.3-1.4-0.9-1.9c-0.7-0.5-1.5-0.7-2.6-0.7c-1,0-1.9,0.3-2.5,0.7c-0.7,0.4-0.9,0.9-0.9,1.7
	c0,0.6,0.2,1,0.6,1.4c0.5,0.3,1,0.6,2,0.7l2.2,0.4c0.6,0.1,0.8,0.2,1.1,0.4c0.3,0.2,0.4,0.4,0.4,0.7c0,0.6-0.2,0.8-0.7,1.1
	c-0.5,0.3-1.2,0.4-2.1,0.4c-0.8,0-1.5-0.2-2-0.5c-0.4-0.3-0.7-0.7-0.7-1.3H129.4z M137.8,109c0,0.9,0.4,1.6,1,2
	c0.7,0.5,1.5,0.7,2.6,0.7c1.3,0,2.2-0.2,2.9-0.7c0.7-0.4,1-1,1-1.9c0-0.6-0.2-1-0.6-1.4c-0.4-0.3-1-0.6-1.9-0.7l-2.1-0.3
	c-0.7-0.2-1.1-0.3-1.4-0.5c-0.3-0.2-0.4-0.4-0.4-0.7c0-0.4,0.2-0.7,0.6-0.9c0.4-0.3,0.9-0.4,1.7-0.4c0.8,0,1.4,0.1,1.9,0.4
	c0.4,0.3,0.7,0.7,0.7,1.2h1c0-0.8-0.3-1.4-0.9-1.9c-0.7-0.5-1.5-0.7-2.6-0.7c-1,0-1.9,0.3-2.5,0.7c-0.7,0.4-0.9,0.9-0.9,1.7
	c0,0.6,0.2,1,0.6,1.4c0.5,0.3,1,0.6,2,0.7l2.2,0.4c0.6,0.1,0.9,0.2,1.1,0.4c0.3,0.2,0.4,0.4,0.4,0.7c0,0.6-0.2,0.8-0.7,1.1
	c-0.5,0.3-1.2,0.4-2.1,0.4c-0.8,0-1.6-0.2-2-0.5c-0.4-0.3-0.7-0.7-0.7-1.3H137.8z M147.9,102v-1.2h-1v1.2H147.9z M146.9,111.5h1
	v-7.8h-1V111.5z M151.6,105.2c-0.6,0.6-0.8,1.3-0.8,2.3c0,0.9,0.3,1.8,0.8,2.3c0.6,0.6,1.3,0.8,2.2,0.8c0.9,0,1.7-0.3,2.2-0.8
	c0.6-0.6,0.8-1.3,0.8-2.3c0-0.9-0.3-1.8-0.8-2.3c-0.6-0.6-1.3-0.8-2.2-0.8C152.9,104.4,152.1,104.7,151.6,105.2z M149.7,107.6
	c0,1.2,0.4,2.2,1.1,3.1c0.7,0.7,1.8,1.1,3,1.1s2.2-0.4,3-1.1c0.7-0.8,1.1-1.9,1.1-3.1c0-1.2-0.4-2.2-1.1-3s-1.8-1.1-3-1.1
	s-2.2,0.4-3,1.1C150.1,105.3,149.7,106.3,149.7,107.6z M159.7,111.6h1v-4.5c0-0.7,0.3-1.4,0.8-1.9c0.7-0.5,1.3-0.7,2.2-0.7
	c0.8,0,1.3,0.2,1.7,0.6c0.3,0.4,0.5,1,0.5,2.1v4.4h1v-5c0-1-0.3-1.8-0.7-2.2c-0.5-0.5-1.2-0.7-2.2-0.7c-0.7,0-1.3,0.1-1.9,0.4
	c-0.6,0.3-1,0.7-1.4,1.2v-1.4h-1V111.6L159.7,111.6z M173.7,106.2c0,1.8,0.5,3.1,1.5,4.1c0.9,1,2.2,1.5,3.9,1.5
	c1.4,0,2.6-0.4,3.5-1.1c0.9-0.8,1.5-1.9,1.8-3.2h-1.1c-0.3,0.9-0.7,1.8-1.5,2.3c-0.7,0.6-1.6,0.8-2.7,0.8c-1.3,0-2.4-0.4-3.2-1.2
	c-0.8-0.8-1.2-2-1.2-3.4c0-1.4,0.4-2.5,1.2-3.4c0.7-0.8,1.9-1.2,3.3-1.2c1,0,1.9,0.3,2.5,0.7c0.7,0.5,1.1,1.2,1.3,2.1v0.1h1.2
	c-0.2-1.2-0.7-2.1-1.6-2.8c-0.8-0.7-2-1-3.4-1c-1.8,0-3.1,0.5-4.1,1.5C174.2,103.1,173.7,104.4,173.7,106.2z M187.3,105.2
	c-0.6,0.6-0.8,1.3-0.8,2.3c0,0.9,0.3,1.8,0.8,2.3c0.6,0.6,1.3,0.8,2.2,0.8s1.7-0.3,2.2-0.8c0.6-0.6,0.8-1.3,0.8-2.3
	c0-0.9-0.3-1.8-0.8-2.3c-0.6-0.6-1.3-0.8-2.2-0.8S187.9,104.7,187.3,105.2z M185.4,107.6c0,1.2,0.5,2.2,1.1,3.1
	c0.7,0.7,1.8,1.1,3,1.1s2.2-0.4,3-1.1c0.7-0.8,1.1-1.9,1.1-3.1c0-1.2-0.4-2.2-1.1-3c-0.7-0.7-1.8-1.1-3-1.1s-2.2,0.4-3,1.1
	S185.4,106.3,185.4,107.6z M195.5,108.6c0,1,0.3,1.8,0.7,2.2c0.5,0.5,1.2,0.7,2.2,0.7c0.7,0,1.3-0.1,1.9-0.4c0.6-0.3,1-0.7,1.4-1.2
	v1.5h1v-7.8h-1v4.4c0,0.7-0.3,1.4-0.8,1.9c-0.7,0.5-1.3,0.7-2.2,0.7c-0.7,0-1.3-0.2-1.7-0.6c-0.3-0.4-0.5-1-0.5-2.1v-4.4h-1V108.6z
	 M204.9,111.6h1v-4.5c0-0.7,0.3-1.4,0.8-1.9c0.7-0.5,1.3-0.7,2.2-0.7c0.8,0,1.3,0.2,1.7,0.6c0.3,0.4,0.5,1,0.5,2.1v4.4h1v-5
	c0-1-0.3-1.8-0.7-2.2c-0.5-0.5-1.2-0.7-2.2-0.7c-0.7,0-1.3,0.1-1.9,0.4c-0.6,0.3-1,0.7-1.4,1.2v-1.4h-1V111.6L204.9,111.6z
	 M213.7,109c0,0.9,0.4,1.6,1,2c0.7,0.5,1.5,0.7,2.6,0.7c1.3,0,2.2-0.3,2.9-0.7c0.7-0.4,1-1,1-1.9c0-0.6-0.2-1-0.6-1.4
	c-0.4-0.3-1-0.6-1.9-0.7l-2.1-0.3c-0.7-0.2-1.1-0.3-1.4-0.5c-0.3-0.2-0.4-0.4-0.4-0.7c0-0.4,0.2-0.7,0.6-0.9
	c0.4-0.3,0.9-0.4,1.7-0.4c0.8,0,1.4,0.1,1.9,0.4c0.4,0.3,0.7,0.7,0.7,1.2h1c0-0.8-0.3-1.4-0.9-1.9c-0.7-0.5-1.5-0.7-2.6-0.7
	c-1,0-1.9,0.3-2.5,0.7c-0.7,0.4-0.9,0.9-0.9,1.7c0,0.6,0.2,1,0.6,1.4c0.5,0.3,1,0.6,2,0.7l2.2,0.4c0.6,0.1,0.9,0.2,1.1,0.4
	c0.3,0.2,0.4,0.4,0.4,0.7c0,0.6-0.2,0.8-0.7,1.1c-0.5,0.3-1.2,0.4-2.1,0.4c-0.8,0-1.5-0.2-2-0.5c-0.4-0.3-0.7-0.7-0.7-1.3H213.7z
	 M230.2,109.1L230.2,109.1l0.1-0.2C230.2,109,230.2,109.1,230.2,109.1 M223.3,106.9h6.1c-0.1-0.7-0.4-1.4-0.9-1.9
	c-0.6-0.5-1.2-0.7-2.1-0.7c-0.8,0-1.6,0.3-2.1,0.7C223.7,105.5,223.4,106.2,223.3,106.9z M230.2,109.1H229c-0.2,0.6-0.6,1-1,1.3
	c-0.5,0.3-1,0.5-1.7,0.5c-0.8,0-1.6-0.2-2.1-0.7c-0.5-0.6-0.7-1.3-0.8-2.2h7.2v-0.3c0-1.3-0.4-2.3-1.1-3.1s-1.8-1.1-3-1.1
	s-2.2,0.4-3,1.1c-0.7,0.7-1.1,1.8-1.1,3c0,1.3,0.4,2.3,1.1,3.1c0.7,0.7,1.8,1.1,3,1.1c1,0,1.9-0.3,2.5-0.7
	C229.5,110.5,229.9,109.9,230.2,109.1 M232.3,111.5h1v-10.6h-1V111.5z M236.7,102v-1.2h-1v1.2H236.7z M235.6,111.5h1v-7.8h-1V111.5z
	 M238.8,111.6h1v-4.5c0-0.7,0.3-1.4,0.8-1.9c0.7-0.5,1.3-0.7,2.2-0.7c0.8,0,1.3,0.2,1.7,0.6c0.3,0.4,0.5,1,0.5,2.1v4.4h1v-5
	c0-1-0.3-1.8-0.7-2.2c-0.5-0.5-1.2-0.7-2.2-0.7c-0.7,0-1.3,0.1-1.9,0.4c-0.6,0.3-1,0.7-1.4,1.2v-1.4h-1V111.6L238.8,111.6z
	 M249.7,105.3c-0.6,0.6-0.8,1.3-0.8,2.2c0,0.9,0.3,1.7,0.8,2.2c0.6,0.6,1.3,0.8,2.2,0.8c0.9,0,1.7-0.3,2.2-0.8
	c0.6-0.6,0.8-1.3,0.8-2.2c0-0.9-0.3-1.7-0.8-2.2c-0.6-0.6-1.3-0.8-2.2-0.8C251,104.5,250.3,104.8,249.7,105.3z M248,107.5
	c0,1.2,0.4,2.2,1.1,3c0.7,0.7,1.8,1.1,3,1.1c0.7,0,1.3-0.1,1.8-0.4c0.6-0.3,0.9-0.7,1.4-1.2v0.8c0,0.9-0.3,1.5-0.7,1.9
	c-0.6,0.4-1.3,0.6-2.4,0.6c-0.7,0-1.4-0.2-1.8-0.4c-0.5-0.2-0.7-0.6-0.7-1h-1c0,0.7,0.4,1.3,1,1.7c0.7,0.5,1.5,0.7,2.5,0.7
	c0.7,0,1.2,0,1.8-0.2c0.5-0.1,0.9-0.4,1.3-0.7c0.4-0.3,0.7-0.6,0.7-0.9c0.1-0.4,0.2-0.9,0.2-1.6h0.2v-7.2h-1v1.3
	c-0.5-0.6-0.9-0.9-1.4-1.2c-0.6-0.3-1.1-0.4-1.8-0.4c-1.2,0-2.2,0.4-3,1.1C248.3,105.2,248,106.2,248,107.5z"/>
</svg>
