<?xml version="1.0" encoding="utf-8"?>
<!-- Generator: Adobe Illustrator 19.2.0, SVG Export Plug-In . SVG Version: 6.00 Build 0)  -->
<svg version="1.1" id="Layer_1" xmlns="http://www.w3.org/2000/svg" xmlns:xlink="http://www.w3.org/1999/xlink" x="0px" y="0px"
	 viewBox="0 0 612 792" style="enable-background:new 0 0 612 792;" xml:space="preserve">
<style type="text/css">
	.st0{fill:#0081C6;}
</style>
<g>
	<path class="st0" d="M208,412.8v-42.9h7.1l22.2,31.1c0.5,0.7,0.9,1.3,1.3,1.9c0.4,0.6,0.7,1.2,0.9,1.7v-34.7h6.2v42.9h-7
		l-22.7-31.6c-0.3-0.5-0.7-1-0.9-1.5c-0.3-0.5-0.6-1.1-0.8-1.7v34.7H208z"/>
	<path class="st0" d="M335.4,412.8l17.6-42.9h7.1l17.7,42.9h-7l-3.3-8.4h-22.2l-3.3,8.4H335.4z M347.6,398.7h17.8l-8.8-22.7
		L347.6,398.7z"/>
	<path class="st0" d="M412.7,396.9h6.3c-0.3,5.2-2.3,9.4-5.9,12.5c-3.7,3.1-8.4,4.6-14.2,4.6c-6.7,0-11.9-2.1-15.7-6.2
		c-3.8-4.1-5.7-9.8-5.7-17.1c0-6.7,2-12,6-16c4-3.9,9.3-5.9,16.1-5.9c5.4,0,9.8,1.2,13.2,3.7c3.4,2.5,5.4,5.9,5.9,10.2h-6.3
		c-0.6-2.8-2-5-4.3-6.5c-2.3-1.5-5.2-2.3-8.8-2.3c-4.8,0-8.6,1.5-11.2,4.6c-2.7,3-4,7.3-4,12.9c0,5.2,1.4,9.4,4.1,12.6
		c2.8,3.2,6.4,4.7,11,4.7c3.9,0,7.1-1.1,9.6-3.3C411.2,403.3,412.5,400.4,412.7,396.9z"/>
</g>
<g>
	<path class="st0" d="M256,412.8L256,412.8C256,412.7,256,412.8,256,412.8L256,412.8z"/>
	<path class="st0" d="M263.2,394.6l7.3-18.6l3.7,9.5c1.6-1.1,3.2-2.2,5-3.3l-5.1-12.3h-7.1l-17.6,42.9h3.9l-2.4-1
		C251,411.2,254.2,403.6,263.2,394.6z"/>
	<path class="st0" d="M274.8,387.2c1.5-1,3.5-2.3,5-3.3l-0.7-1.7c-1.8,1.1-3.4,2.2-5,3.3L274.8,387.2z"/>
	<path class="st0" d="M261.6,398.7l1.6-4.1c-9,8.9-12.2,16.6-12.4,17.2l2.4,1h2.8c0,0,0,0,0,0l3.3-8.4L261.6,398.7z"/>
</g>
<path class="st0" d="M312.6,374.2c-1.1,0.2-2.2,0.4-3.2,0.8C310.5,374.6,311.6,374.4,312.6,374.2z"/>
<path class="st0" d="M332.9,377.1c-1-1.8-2.4-3.3-4.1-4.6c-3.4-2.5-7.8-3.7-13.2-3.7c-6.8,0-12.1,2-16.1,5.9
	c-2.6,2.6-4.3,5.7-5.2,9.5c4.3-4.4,9.5-7.6,15.2-9.3c1-0.4,2-0.6,3.2-0.8c0.9-0.1,1.7-0.2,2.7-0.2c3.6,0,6.5,0.8,8.8,2.3
	c2.3,1.5,3.7,3.7,4.3,6.5h6.3C334.5,380.7,333.9,378.8,332.9,377.1z"/>
<g>
	<path class="st0" d="M308.1,375.5l-1.6-4.9c-11.1,3.1-20.1,7.3-27.4,11.7l0.7,1.7c-1.6,1-3.5,2.2-5,3.3l-0.7-1.7
		c-4.4,3.1-8,6.2-11,9.1l-1.6,4.1l-2.3,5.6l-3.3,8.4c2-3.9,10.5-18.7,32.6-29.7c-6.2,6.7-11.5,16.4-10.8,29.8h5.2
		C281.4,385.8,307,375.9,308.1,375.5z"/>
</g>
<g>
	<path class="st0" d="M328.8,396.9c-0.2,3.6-1.5,6.5-4,8.7c-2.5,2.2-5.7,3.3-9.6,3.3c-4.6,0-8.2-1.6-11-4.7
		c-2.8-3.2-4.2-7.4-4.2-12.6c0-1.6,0.1-3.1,0.4-4.6c-0.7,0.5-1.3,1-1.9,1.4c-2,2-4,5-4.4,9c0.8,4.2,2.5,7.7,5,10.5
		c3.8,4.1,9,6.2,15.7,6.2c5.8,0,10.5-1.5,14.2-4.6c3.7-3.1,5.6-7.2,5.9-12.5H328.8z"/>
</g>
</svg>
