<svg id="Layer_1" data-name="Layer 1" xmlns="http://www.w3.org/2000/svg" viewBox="0 0 288 126"><title>NACAC_full_KO</title><path d="M294.8874-5.7875V135.25H-4V-5.7875H294.8874ZM58.9532,12.5193H51.1074V56.792a15.9641,15.9641,0,0,0-1.1208-2.1482,28.9164,28.9164,0,0,0-1.6812-2.4285L20.0044,12.5193h-9.06v54.547H18.79V22.7936a15.19,15.19,0,0,0,1.0274,2.1483,13.8218,13.8218,0,0,0,1.2142,1.9614L49.9865,67.16h8.9667v-54.64Zm145.9878,0h-9.06L173.4644,67.16h8.5l4.2031-10.7413h28.301L218.6712,67.16h8.9666Zm6.725,36.7072L200.4577,20.2718,188.9692,49.2265H211.666Zm68.2771-2.3351h-7.9392a14.9775,14.9775,0,0,1-5.2305,11.0215c-3.0823,2.8021-7.192,4.2031-12.1423,4.2031a17.8319,17.8319,0,0,1-14.01-6.0712c-3.5493-4.0163-5.3239-9.34-5.3239-16.0652,0-7.0986,1.6812-12.5159,5.0437-16.4388,3.3625-3.83,8.126-5.791,14.2906-5.791,4.5767,0,8.3128.934,11.2083,2.8954a12.6994,12.6994,0,0,1,5.5107,8.3128h8.0326a18.1021,18.1021,0,0,0-7.5656-13.0763q-6.5849-4.7636-16.8124-4.7636c-8.6864,0-15.5048,2.5219-20.5485,7.5656s-7.5656,11.7687-7.5656,20.3617c0,9.2469,2.4284,16.5322,7.2854,21.7627s11.5819,7.8458,20.0815,7.8458c7.3788,0,13.45-1.9615,18.12-5.8843S279.5695,53.523,279.9431,46.8914Zm-107.3193-17.84a18.612,18.612,0,0,0-2.4284-7.3787,18.15,18.15,0,0,0-5.2305-5.791q-6.5849-4.7636-16.8124-4.7636a44.7657,44.7657,0,0,0-14.851,2.7087c-12.7961,4.67-22.8836,9.1534-31.57,14.4774L95.1933,12.6128h-9.06L63.6233,67.16h8.5c2.5219-5.0437,13.45-23.8176,41.564-37.9213A50.5975,50.5975,0,0,0,99.8634,67.2531h6.6315c-1.9614-34.372,32.13-47.6352,32.13-47.6352a21.9932,21.9932,0,0,1,9.2468-1.7747c4.5767,0.0934,8.3128,1.0275,11.2083,2.8955a13.0423,13.0423,0,0,1,5.5108,8.3128h8.0326ZM95.2867,32.4141l-4.67-12.0489L81.37,44.0894A102.74,102.74,0,0,1,95.2867,32.4141Zm77.8042,14.4774h-8.126a14.81,14.81,0,0,1-5.0437,11.0215,17.6207,17.6207,0,0,1-12.1423,4.2031,17.8319,17.8319,0,0,1-14.01-6.0712c-3.5493-4.0163-5.3239-9.34-5.3239-16.0652a37.2942,37.2942,0,0,1,.467-5.791,19.1477,19.1477,0,0,0-8.0326,13.2631,26.7727,26.7727,0,0,0,6.4448,13.3565c4.8569,5.2306,11.4885,7.8458,20.0815,7.8458,7.3787,0,13.45-1.9615,18.12-5.8843S172.7172,53.523,173.0908,46.8914ZM57.6455,85.0929h-1.401V95.7408h1.1208v-9.527l7.3787,9.527h1.401V85.0929H65.1177V94.62Zm16.9058,6.4448a4.3457,4.3457,0,0,1-.8406.28c-0.3736.0934-1.0275,0.1868-1.868,0.3736a7.2028,7.2028,0,0,0-2.1482.56,1.0306,1.0306,0,0,0-.467.934,1.1718,1.1718,0,0,0,.56,1.0274,2.37,2.37,0,0,0,1.4944.3736,3.6463,3.6463,0,0,0,2.3351-.6538,2.2573,2.2573,0,0,0,.934-1.7746V91.5377Zm1.1208,4.2965h0.3736a0.8422,0.8422,0,0,0,.467-0.0934v-0.934a0.326,0.326,0,0,0-.1868.0934H76.1392a0.4508,0.4508,0,0,1-.3736-0.0934,1.031,1.031,0,0,1-.0934-0.6538V90.6037a4.2153,4.2153,0,0,0-.0934-1.2142,2.34,2.34,0,0,0-.3736-0.6538,1.8589,1.8589,0,0,0-1.1208-.7472,8.5948,8.5948,0,0,0-1.7747-.1868,4.4728,4.4728,0,0,0-2.7087.6538A2.6041,2.6041,0,0,0,68.5736,90.51H69.601a1.5366,1.5366,0,0,1,.7473-1.401,3.9253,3.9253,0,0,1,2.0548-.467,3.6118,3.6118,0,0,1,1.5879.3736,0.9377,0.9377,0,0,1,.56.934c0,0.56-.56.934-1.868,1.1208-0.3736,0-.6538.0934-0.8406,0.0934-0.8406.1868-1.4944,0.28-1.868,0.3736a1.76,1.76,0,0,0-.8406.3736,1.6617,1.6617,0,0,0-.6538.7473,2.7637,2.7637,0,0,0-.1868.934,1.9882,1.9882,0,0,0,.7472,1.7746,2.9647,2.9647,0,0,0,2.1482.6538,5.0258,5.0258,0,0,0,2.0549-.3736,4.4729,4.4729,0,0,0,1.401-1.0274,1.24,1.24,0,0,0,.28.934A0.9194,0.9194,0,0,0,75.6722,95.8342Zm5.6041-8.0326H79.5017V85.4666H78.4742v2.3351H77.1666v0.8406h1.3076V93.686a3.0192,3.0192,0,0,0,.3736,1.5879,1.6136,1.6136,0,0,0,1.2142.467h0.56a1.8227,1.8227,0,0,0,.6538-0.0934V94.8068a1.0156,1.0156,0,0,1-.467.0934H80.4357a1.2069,1.2069,0,0,1-.7473-0.1868,1.9029,1.9029,0,0,1-.1868-1.0274V88.6422h1.7746V87.8016Zm1.3077,0.1868v7.8458h1.0274V87.9884H82.584Zm1.0274-2.8955H82.584v1.2142h1.0274V85.0929Zm3.5493,4.4833a3.1081,3.1081,0,0,0-.8406,2.3351,3.2557,3.2557,0,0,0,.8406,2.3351,3.4092,3.4092,0,0,0,4.4834,0,3.108,3.108,0,0,0,.8406-2.3351,3.2558,3.2558,0,0,0-.8406-2.3351A3.4094,3.4094,0,0,0,87.1606,89.5762Zm-1.868,2.3351a4.4742,4.4742,0,0,0,1.1208,3.0823,4.5457,4.5457,0,0,0,5.9778,0,4.4742,4.4742,0,0,0,1.1208-3.0823A4.1129,4.1129,0,1,0,85.2926,91.9113Zm16.3455-.467v4.39h1.0274V90.7905a2.6418,2.6418,0,0,0-2.9889-2.9889,4.1817,4.1817,0,0,0-1.868.3736,3.4916,3.4916,0,0,0-1.401,1.2143v-1.401H95.38v7.9392h1.0274V91.4443a2.3513,2.3513,0,0,1,.8406-1.868A3.5956,3.5956,0,0,1,99.49,88.829a2.1432,2.1432,0,0,1,1.6813.56A3.4764,3.4764,0,0,1,101.6381,91.4443Zm9.2468,3.1757a1.24,1.24,0,0,0,.28.934,0.9194,0.9194,0,0,0,.7472.28h0.3736a0.8422,0.8422,0,0,0,.467-0.0934v-0.934a0.0916,0.0916,0,0,0-.0934.0934h-0.1868a0.4509,0.4509,0,0,1-.3736-0.0934,1.0315,1.0315,0,0,1-.0934-0.6538V90.6037a4.2135,4.2135,0,0,0-.0934-1.2143,2.3413,2.3413,0,0,0-.3736-0.6538,1.8593,1.8593,0,0,0-1.1208-.7473,8.5988,8.5988,0,0,0-1.7747-.1868,4.4725,4.4725,0,0,0-2.7086.6538,2.6042,2.6042,0,0,0-1.0275,2.0549h1.0275a1.5364,1.5364,0,0,1,.7472-1.401,3.9255,3.9255,0,0,1,2.0549-.467,3.6117,3.6117,0,0,1,1.5878.3736,0.9377,0.9377,0,0,1,.56.934c0,0.56-.56.934-1.868,1.1208-0.3736,0-.6538.0934-0.8406,0.0934-0.8406.1868-1.4944,0.28-1.868,0.3736a1.76,1.76,0,0,0-.8406.3736,1.6612,1.6612,0,0,0-.6538.7472,2.7629,2.7629,0,0,0-.1868.934,2.3915,2.3915,0,0,0,.7472,1.7747,2.9649,2.9649,0,0,0,2.1483.6538,6.1051,6.1051,0,0,0,1.9614-.3736A4.4729,4.4729,0,0,0,110.8849,94.62Zm-3.2691.467a3.6463,3.6463,0,0,0,2.3351-.6538,2.2575,2.2575,0,0,0,.934-1.7746V91.5377a4.3465,4.3465,0,0,1-.8406.28c-0.3736.0934-1.0274,0.1868-1.868,0.3736a7.2033,7.2033,0,0,0-2.1482.56,1.0307,1.0307,0,0,0-.467.934,1.1718,1.1718,0,0,0,.56,1.0274A2.3693,2.3693,0,0,0,107.6158,95.087Zm7.8458-9.9941h-1.0275V95.7408h1.0275V85.0929Zm9.1534,6.3513h4.8569l-2.4285-5.4173Zm5.3239,1.1208,1.4944,3.2691h1.1208l-4.8569-10.6478h-1.2142l-4.95,10.6478h1.1208l1.4944-3.2691h5.791Zm9.7138,2.8021a2.0466,2.0466,0,0,0,1.0275-1.868,1.9009,1.9009,0,0,0-.56-1.401,3.9328,3.9328,0,0,0-1.868-.6538l-2.0549-.28a5.9792,5.9792,0,0,1-1.401-.467,0.758,0.758,0,0,1-.3736-0.7472,1.0273,1.0273,0,0,1,.56-0.934,2.8085,2.8085,0,0,1,1.6813-.3736,3.491,3.491,0,0,1,1.868.3736,1.8264,1.8264,0,0,1,.7472,1.2142h1.0274a2.0744,2.0744,0,0,0-.934-1.868,4.3469,4.3469,0,0,0-2.6153-.6538,5.0246,5.0246,0,0,0-2.5219.6538,1.7787,1.7787,0,0,0-.934,1.6812,1.9007,1.9007,0,0,0,.56,1.401,4.3637,4.3637,0,0,0,1.9614.6538l2.2417,0.3736a2.1973,2.1973,0,0,1,1.1208.3736,0.7581,0.7581,0,0,1,.3736.7473,1.1326,1.1326,0,0,1-.6538,1.1208,4.255,4.255,0,0,1-2.0548.3736,3.559,3.559,0,0,1-1.9615-.467,2.0441,2.0441,0,0,1-.7472-1.3077h-1.0275a2.0978,2.0978,0,0,0,1.0274,1.9615,4.3479,4.3479,0,0,0,2.6153.7472A4.9258,4.9258,0,0,0,139.6528,95.3672Zm8.2194,0a2.0466,2.0466,0,0,0,1.0275-1.868,1.9009,1.9009,0,0,0-.56-1.401,3.9328,3.9328,0,0,0-1.868-.6538l-2.0548-.28a5.9773,5.9773,0,0,1-1.401-.467,0.7581,0.7581,0,0,1-.3736-0.7472,1.0273,1.0273,0,0,1,.56-0.934,2.8084,2.8084,0,0,1,1.6812-.3736,3.491,3.491,0,0,1,1.868.3736,1.826,1.826,0,0,1,.7472,1.2142h1.0275a2.0745,2.0745,0,0,0-.934-1.868,4.3472,4.3472,0,0,0-2.6153-.6538,5.0242,5.0242,0,0,0-2.5218.6538,1.7786,1.7786,0,0,0-.934,1.6812,1.9009,1.9009,0,0,0,.56,1.401,4.3639,4.3639,0,0,0,1.9615.6538l2.2416,0.3736a2.1973,2.1973,0,0,1,1.1208.3736,0.7581,0.7581,0,0,1,.3736.7473,1.1326,1.1326,0,0,1-.6538,1.1208,3.65,3.65,0,0,1-1.9615.3736,3.7959,3.7959,0,0,1-1.9614-.467,2.0444,2.0444,0,0,1-.7473-1.3077h-1.0274a2.7934,2.7934,0,0,0,.934,1.9615,4.3476,4.3476,0,0,0,2.6153.7472A4.9256,4.9256,0,0,0,147.8722,95.3672Zm2.1483-3.4559a4.4742,4.4742,0,0,0,1.1208,3.0823,4.5457,4.5457,0,0,0,5.9778,0,4.4742,4.4742,0,0,0,1.1208-3.0823A4.1129,4.1129,0,1,0,150.02,91.9113Zm1.868-2.3351a3.1079,3.1079,0,0,0-.8406,2.3351,3.2555,3.2555,0,0,0,.8406,2.3351,3.4091,3.4091,0,0,0,4.4833,0,3.108,3.108,0,0,0,.8406-2.3351,3.2558,3.2558,0,0,0-.8406-2.3351A3.4093,3.4093,0,0,0,151.8885,89.5762Zm7.7524,2.2417A4.1652,4.1652,0,0,0,160.7617,94.9a4.0887,4.0887,0,0,0,2.9889,1.1208,4.1752,4.1752,0,0,0,2.6153-.8406,3.3546,3.3546,0,0,0,1.2142-2.2416h-1.0274a2.2044,2.2044,0,0,1-1.0275,1.4944,3.1557,3.1557,0,0,1-1.868.56,3.03,3.03,0,0,1-2.2416-.8406,3.6634,3.6634,0,0,1,0-4.67,3.03,3.03,0,0,1,2.2416-.8406,3.3227,3.3227,0,0,1,1.7747.467,2.3284,2.3284,0,0,1,1.0274,1.401h1.0275a3.1549,3.1549,0,0,0-1.2143-2.0548,4.2505,4.2505,0,0,0-2.5218-.7473A3.8571,3.8571,0,0,0,159.6409,91.8179Zm9.527,4.0163h1.0274V87.9884h-1.0274v7.8458Zm1.0274-9.527V85.0929h-1.0274v1.2142h1.0274Zm8.3128,5.2306a4.3465,4.3465,0,0,1-.8406.28c-0.3736.0934-1.0274,0.1868-1.868,0.3736a7.2028,7.2028,0,0,0-2.1482.56,1.0307,1.0307,0,0,0-.467.934,1.1719,1.1719,0,0,0,.56,1.0274,2.37,2.37,0,0,0,1.4945.3736,3.6464,3.6464,0,0,0,2.3351-.6538,2.2575,2.2575,0,0,0,.934-1.7746V91.5377ZM172.53,90.51h1.0274a1.5364,1.5364,0,0,1,.7472-1.401,3.9255,3.9255,0,0,1,2.0549-.467,3.612,3.612,0,0,1,1.5879.3736,0.9377,0.9377,0,0,1,.56.934c0,0.56-.56.934-1.868,1.1208-0.3736,0-.6538.0934-0.8406,0.0934-0.8406.1868-1.4945,0.28-1.868,0.3736a1.76,1.76,0,0,0-.8406.3736,1.6618,1.6618,0,0,0-.6538.7472,2.7643,2.7643,0,0,0-.1868.934,1.9884,1.9884,0,0,0,.7472,1.7747,2.9647,2.9647,0,0,0,2.1482.6538,6.1057,6.1057,0,0,0,1.9615-.3736,4.4729,4.4729,0,0,0,1.401-1.0274,1.24,1.24,0,0,0,.28.934,0.9194,0.9194,0,0,0,.7472.28h0.3736a0.8423,0.8423,0,0,0,.467-0.0934v-0.934a0.0915,0.0915,0,0,0-.0934.0934H180.096a0.4508,0.4508,0,0,1-.3736-0.0934,1.031,1.031,0,0,1-.0934-0.6538V90.6037a4.216,4.216,0,0,0-.0934-1.2143,2.34,2.34,0,0,0-.3736-0.6538,2.3814,2.3814,0,0,0-1.1208-.7473,8.5993,8.5993,0,0,0-1.7747-.1868,4.4725,4.4725,0,0,0-2.7086.6538A2.6042,2.6042,0,0,0,172.53,90.51Zm12.7027-2.7086h-1.7746V85.4666H182.431v2.3351h-1.3076v0.8406h1.3076V93.686a3.0192,3.0192,0,0,0,.3736,1.5879,1.6136,1.6136,0,0,0,1.2142.467h0.56a1.8227,1.8227,0,0,0,.6538-0.0934V94.8068a1.0156,1.0156,0,0,1-.467.0934h-0.3736a1.2066,1.2066,0,0,1-.7472-0.1868,1.9021,1.9021,0,0,1-.1868-1.0274V88.6422h1.7746V87.8016Zm1.2143,8.0326h1.0274V87.9884h-1.0274v7.8458Zm1.0274-10.7413h-1.0274v1.2142h1.0274V85.0929Zm3.6427,9.1534a3.4091,3.4091,0,0,0,4.4833,0,3.108,3.108,0,0,0,.8406-2.3351,3.2558,3.2558,0,0,0-.8406-2.3351,3.4093,3.4093,0,0,0-4.4833,0,3.1079,3.1079,0,0,0-.8406,2.3351A3.2555,3.2555,0,0,0,191.1175,94.2464Zm5.2305,0.7473a4.4742,4.4742,0,0,0,1.1208-3.0823,4.1129,4.1129,0,1,0-8.2194,0,4.4742,4.4742,0,0,0,1.1208,3.0823A4.5457,4.5457,0,0,0,196.348,94.9936Zm8.6864-5.6041a3.476,3.476,0,0,1,.467,2.0548v4.39h1.0275V90.7905a2.6418,2.6418,0,0,0-2.9889-2.9889,4.1819,4.1819,0,0,0-1.868.3736,3.4916,3.4916,0,0,0-1.401,1.2143v-1.401h-1.0274v7.9392h1.0274V91.4443a2.3513,2.3513,0,0,1,.8406-1.868,3.5955,3.5955,0,0,1,2.2416-.7473A2.1429,2.1429,0,0,1,205.0344,89.3895Zm8.8732-.56v7.0052h1.1208V88.829h1.7747V87.9884h-1.7747V87.2412a1.7323,1.7323,0,0,1,.1868-0.934,1.4472,1.4472,0,0,1,.7472-0.1868h0.3736a1.0158,1.0158,0,0,1,.467.0934V85.28c-0.28,0-.467-0.0934-0.6538-0.0934a1.1844,1.1844,0,0,0-.56-0.0934,1.6937,1.6937,0,0,0-1.3076.467,2.6117,2.6117,0,0,0-.3736,1.7747v0.6538H212.6V88.829h1.3076Zm5.4173,5.4173a3.4091,3.4091,0,0,0,4.4833,0,3.1078,3.1078,0,0,0,.8406-2.3351,3.2556,3.2556,0,0,0-.8406-2.3351,3.4093,3.4093,0,0,0-4.4833,0,3.1081,3.1081,0,0,0-.8406,2.3351A3.2557,3.2557,0,0,0,219.3249,94.2464Zm5.2306,0.7473a4.4742,4.4742,0,0,0,1.1208-3.0823,4.1129,4.1129,0,1,0-8.2194,0,4.4742,4.4742,0,0,0,1.1208,3.0823A4.5457,4.5457,0,0,0,224.5555,94.9936Zm7.3788-5.8844V88.0818a1.328,1.328,0,0,0-.56-0.1868,0.7,0.7,0,0,0-.467-0.0934,2.2512,2.2512,0,0,0-1.401.3736,2.7465,2.7465,0,0,0-.934,1.1208V87.9884h-1.0274v7.8458h1.0274V90.9773a3.42,3.42,0,0,1,.934-1.4944A2.3768,2.3768,0,0,1,231,89.0158h0.467A1.0158,1.0158,0,0,1,231.9343,89.1092ZM29.1578,107.8831a5.4325,5.4325,0,0,0,1.4944,4.11,5.0053,5.0053,0,0,0,3.9229,1.4945,5.0707,5.0707,0,0,0,3.5493-1.1208,5.6722,5.6722,0,0,0,1.7747-3.1757H38.7783a4.4178,4.4178,0,0,1-1.4944,2.3351,4.2616,4.2616,0,0,1-2.7087.8406A4.0867,4.0867,0,0,1,31.4,111.1522a5.2627,5.2627,0,0,1,0-6.725,4.1644,4.1644,0,0,1,3.2691-1.2142,4.2505,4.2505,0,0,1,2.5218.7472,3.436,3.436,0,0,1,1.3077,2.0549v0.0934h1.2142a4.2441,4.2441,0,0,0-1.5879-2.8021,5.3434,5.3434,0,0,0-3.3625-1.0274A5.17,5.17,0,0,0,29.1578,107.8831Zm13.6367-.934a3.108,3.108,0,0,0-.8406,2.3351,3.2558,3.2558,0,0,0,.8406,2.3351,3.4094,3.4094,0,0,0,4.4834,0,3.1081,3.1081,0,0,0,.8406-2.3351,3.2557,3.2557,0,0,0-.8406-2.3351A3.4092,3.4092,0,0,0,42.7945,106.9491Zm-1.868,2.3351a4.4742,4.4742,0,0,0,1.1208,3.0823,4.5456,4.5456,0,0,0,5.9778,0,4.4742,4.4742,0,0,0,1.1208-3.0823A4.113,4.113,0,1,0,40.9265,109.2842Zm10.0875,3.9229h1.0274V102.5592H51.014v10.6479Zm3.2691,0H55.31V102.5592H54.2831v10.6479Zm3.9229-4.5767h6.0712a2.7787,2.7787,0,0,0-.934-1.868,3.0772,3.0772,0,0,0-2.0548-.7472,3.33,3.33,0,0,0-2.1483.7472A2.7791,2.7791,0,0,0,58.2059,108.63Zm6.8519,2.2417h-1.061a2.4157,2.4157,0,0,1-1.0274,1.3076,3.2252,3.2252,0,0,1-1.6812.467,2.89,2.89,0,0,1-2.1483-.7472,3.52,3.52,0,0,1-.934-2.2417h7.192v-0.28a4.165,4.165,0,0,0-1.1208-3.0823,4.1129,4.1129,0,0,0-7.0986,2.9889,4.1653,4.1653,0,0,0,1.1208,3.0823,4.0887,4.0887,0,0,0,2.9889,1.1208A4.2505,4.2505,0,0,0,63.81,112.74a3.7934,3.7934,0,0,0,1.2478-1.868m0,0h0.06v-0.1868c-0.0146.0658-.0418,0.1233-0.06,0.1868m1.6477-1.6813a3.8571,3.8571,0,0,0,4.11,4.11,3.5559,3.5559,0,0,0,1.7747-.3736,4.241,4.241,0,0,0,1.401-1.2142v0.8406a2.1916,2.1916,0,0,1-.7472,1.868,4.2392,4.2392,0,0,1-2.4285.56,4.1932,4.1932,0,0,1-1.7746-.3736,1.24,1.24,0,0,1-.7472-1.0274H67.266a1.86,1.86,0,0,0,1.0275,1.6812,4.2276,4.2276,0,0,0,2.5218.6538,5.7583,5.7583,0,0,0,1.868-.1868,3.45,3.45,0,0,0,1.3077-.6538,1.7657,1.7657,0,0,0,.7472-0.934,6.7043,6.7043,0,0,0,.1868-1.5878h0.0934v-7.192H73.9909v1.3077a5.4217,5.4217,0,0,0-1.401-1.2143,3.7905,3.7905,0,0,0-1.7747-.3736A3.8571,3.8571,0,0,0,66.7056,109.1907Zm1.868-2.1482a3.4091,3.4091,0,1,0,2.2416-.8406A3.03,3.03,0,0,0,68.5736,107.0425Zm16.0054,3.83h0.06v-0.1868c-0.0146.0658-.0418,0.1233-0.06,0.1868M77.727,108.63h6.0712a2.7789,2.7789,0,0,0-.934-1.868,3.0772,3.0772,0,0,0-2.0549-.7472,3.33,3.33,0,0,0-2.1482.7472A2.7789,2.7789,0,0,0,77.727,108.63Zm6.8519,2.2417H83.518a2.4157,2.4157,0,0,1-1.0274,1.3076,3.2252,3.2252,0,0,1-1.6813.467,2.89,2.89,0,0,1-2.1482-.7472,3.52,3.52,0,0,1-.934-2.2417h7.192v-0.28a4.1653,4.1653,0,0,0-1.1208-3.0823A4.1129,4.1129,0,0,0,76.7,109.2842a4.165,4.165,0,0,0,1.1208,3.0823,4.0887,4.0887,0,0,0,2.9888,1.1208,4.2507,4.2507,0,0,0,2.5219-.7473,3.7934,3.7934,0,0,0,1.2478-1.868M95.94,103.4l-2.4284,5.4174h4.8569ZM90.43,113.2071h1.1208l1.4945-3.2691h5.791l1.4944,3.2691h1.1208l-4.8569-10.6479H95.38Zm11.7687-3.9229a3.857,3.857,0,0,0,4.11,4.11,3.5559,3.5559,0,0,0,1.7747-.3736,3.988,3.988,0,0,0,1.3077-1.2142v1.401h1.0274V102.5592h-0.934v4.11a7.3658,7.3658,0,0,0-1.401-1.1208,3.7906,3.7906,0,0,0-1.7747-.3736A3.8571,3.8571,0,0,0,102.1985,109.2842Zm1.868-2.3351a3.1727,3.1727,0,0,0,4.4833,4.4833,2.68,2.68,0,0,0,.8406-2.1482,3.4148,3.4148,0,0,0-.8406-2.3351A3.4091,3.4091,0,0,0,104.0665,106.9491Zm8.593,6.4448h1.0274v-4.4833a2.3513,2.3513,0,0,1,.8406-1.868,3.5955,3.5955,0,0,1,2.2416-.7473,2.143,2.143,0,0,1,1.6812.56,3.476,3.476,0,0,1,.467,2.0548v4.39h0.934v-4.4833a2.3516,2.3516,0,0,1,.8406-1.868,3.5957,3.5957,0,0,1,2.2417-.7472,2.0144,2.0144,0,0,1,1.6812.56,3.4766,3.4766,0,0,1,.467,2.0549v4.39h1.0274v-5.0437a2.6418,2.6418,0,0,0-2.9889-2.9889,4.1813,4.1813,0,0,0-1.868.3736,3.4915,3.4915,0,0,0-1.401,1.2142,2.2087,2.2087,0,0,0-1.0274-1.2142,3.7038,3.7038,0,0,0-1.868-.3736,4.181,4.181,0,0,0-1.868.3736,3.4915,3.4915,0,0,0-1.401,1.2142v-1.401H112.66v8.0326Zm15.5981-.1868h1.0275v-7.8458h-1.0275v7.8458Zm1.0275-9.4337v-1.2142h-1.0275v1.2142h1.0275Zm1.5879,6.9118a2.29,2.29,0,0,0,1.0274,1.9614,4.3476,4.3476,0,0,0,2.6153.7472,4.9256,4.9256,0,0,0,2.8954-.6538,2.0465,2.0465,0,0,0,1.0275-1.868,1.9009,1.9009,0,0,0-.56-1.401,3.9322,3.9322,0,0,0-1.868-.6538l-2.0548-.28a5.9746,5.9746,0,0,1-1.401-.467,0.758,0.758,0,0,1-.3736-0.7472,1.0273,1.0273,0,0,1,.56-0.934,2.8084,2.8084,0,0,1,1.6812-.3736,3.491,3.491,0,0,1,1.868.3736,1.826,1.826,0,0,1,.7472,1.2142h1.0275a2.0746,2.0746,0,0,0-.934-1.868,4.3472,4.3472,0,0,0-2.6153-.6538,5.0248,5.0248,0,0,0-2.5218.6538,1.7787,1.7787,0,0,0-.934,1.6813,1.9011,1.9011,0,0,0,.56,1.401,4.364,4.364,0,0,0,1.9615.6538l2.2416,0.3736a2.6008,2.6008,0,0,1,1.1208.3736,0.758,0.758,0,0,1,.3736.7472,1.1327,1.1327,0,0,1-.6538,1.1208,4.256,4.256,0,0,1-2.0549.3736,3.7955,3.7955,0,0,1-1.9615-.467,2.0446,2.0446,0,0,1-.7472-1.3076H130.873Zm8.4062,0a2.0976,2.0976,0,0,0,1.0274,1.9614,4.3476,4.3476,0,0,0,2.6153.7472,4.9256,4.9256,0,0,0,2.8954-.6538,2.0465,2.0465,0,0,0,1.0275-1.868,1.9009,1.9009,0,0,0-.56-1.401,3.9322,3.9322,0,0,0-1.868-.6538l-2.0548-.28a5.9746,5.9746,0,0,1-1.401-.467,0.758,0.758,0,0,1-.3736-0.7472,1.0273,1.0273,0,0,1,.56-0.934,2.8084,2.8084,0,0,1,1.6812-.3736,3.491,3.491,0,0,1,1.868.3736,1.826,1.826,0,0,1,.7472,1.2142h1.0275a2.0746,2.0746,0,0,0-.934-1.868,4.3472,4.3472,0,0,0-2.6153-.6538,5.0248,5.0248,0,0,0-2.5218.6538,1.7787,1.7787,0,0,0-.934,1.6813,1.9011,1.9011,0,0,0,.56,1.401,4.364,4.364,0,0,0,1.9615.6538l2.2416,0.3736a2.1966,2.1966,0,0,1,1.1208.3736,0.758,0.758,0,0,1,.3736.7472,1.1327,1.1327,0,0,1-.6538,1.1208,4.256,4.256,0,0,1-2.0549.3736,3.5585,3.5585,0,0,1-1.9615-.467,2.0446,2.0446,0,0,1-.7472-1.3076h-1.0274Zm10.0874-6.9118v-1.2142h-1.0274v1.2142h1.0274Zm-1.0274,9.4337h1.0274v-7.8458h-1.0274v7.8458Zm4.67-6.258a3.108,3.108,0,0,0-.8406,2.3351,3.2558,3.2558,0,0,0,.8406,2.3351,3.4093,3.4093,0,0,0,4.4833,0,3.1079,3.1079,0,0,0,.8406-2.3351,3.2555,3.2555,0,0,0-.8406-2.3351A3.4091,3.4091,0,0,0,153.0093,106.9491Zm-1.868,2.3351a4.4742,4.4742,0,0,0,1.1208,3.0823,4.5456,4.5456,0,0,0,5.9778,0,4.4742,4.4742,0,0,0,1.1208-3.0823A4.1129,4.1129,0,1,0,151.1413,109.2842Zm9.994,4.0163h1.0275v-4.4833a2.3515,2.3515,0,0,1,.8406-1.868,3.5957,3.5957,0,0,1,2.2417-.7472,2.1429,2.1429,0,0,1,1.6812.56,3.4766,3.4766,0,0,1,.467,2.0549v4.39h1.0275v-5.0437a2.6419,2.6419,0,0,0-2.9889-2.9889,4.181,4.181,0,0,0-1.868.3736,3.4907,3.4907,0,0,0-1.401,1.2142v-1.401h-1.0275V113.3Zm14.01-5.4173a5.4323,5.4323,0,0,0,1.4945,4.11,5.0052,5.0052,0,0,0,3.9229,1.4945,5.5626,5.5626,0,0,0,3.5493-1.1208,5.6721,5.6721,0,0,0,1.7746-3.1757h-1.1208a4.4183,4.4183,0,0,1-1.4945,2.3351,4.2616,4.2616,0,0,1-2.7086.8406,4.0867,4.0867,0,0,1-3.1757-1.2142,5.2629,5.2629,0,0,1,0-6.725,4.1644,4.1644,0,0,1,3.2691-1.2142,4.2508,4.2508,0,0,1,2.5219.7472,3.4357,3.4357,0,0,1,1.3076,2.0549v0.0934H185.7a4.2443,4.2443,0,0,0-1.5879-2.8021,5.3436,5.3436,0,0,0-3.3625-1.0274A5.17,5.17,0,0,0,175.1456,107.8831Zm13.6368-.934a3.1078,3.1078,0,0,0-.8406,2.3351,3.2556,3.2556,0,0,0,.8406,2.3351,3.4093,3.4093,0,0,0,4.4833,0,3.1081,3.1081,0,0,0,.8406-2.3351,3.2557,3.2557,0,0,0-.8406-2.3351A3.4091,3.4091,0,0,0,188.7824,106.9491Zm-1.9615,2.3351a4.9667,4.9667,0,0,0,1.1208,3.0823,4.5456,4.5456,0,0,0,5.9778,0,4.4742,4.4742,0,0,0,1.1208-3.0823A4.1129,4.1129,0,1,0,186.8209,109.2842Zm10.0874,1.0274a2.6419,2.6419,0,0,0,2.9889,2.9889,4.181,4.181,0,0,0,1.868-.3736,3.49,3.49,0,0,0,1.401-1.2142v1.4945h1.0275v-7.8458h-1.0275v4.39a2.3515,2.3515,0,0,1-.8406,1.868,3.5957,3.5957,0,0,1-2.2417.7472,2.2833,2.2833,0,0,1-1.6812-.56,3.4764,3.4764,0,0,1-.467-2.0548v-4.39h-1.0275v4.95ZM206.342,113.3h1.0274v-4.4833a2.3514,2.3514,0,0,1,.8406-1.868,3.5956,3.5956,0,0,1,2.2416-.7472,2.1431,2.1431,0,0,1,1.6813.56,3.4766,3.4766,0,0,1,.467,2.0549v4.39h1.0274v-5.0437a2.6418,2.6418,0,0,0-2.9889-2.9889,4.1813,4.1813,0,0,0-1.868.3736,3.4915,3.4915,0,0,0-1.401,1.2142v-1.401H206.342V113.3Zm8.78-2.6153a2.0976,2.0976,0,0,0,1.0274,1.9614,4.3476,4.3476,0,0,0,2.6153.7472,5.7615,5.7615,0,0,0,2.8954-.6538,2.0465,2.0465,0,0,0,1.0275-1.868,1.9009,1.9009,0,0,0-.56-1.401,3.9322,3.9322,0,0,0-1.868-.6538l-2.0548-.28a5.9746,5.9746,0,0,1-1.401-.467,0.758,0.758,0,0,1-.3736-0.7472,1.0273,1.0273,0,0,1,.56-0.934,2.8084,2.8084,0,0,1,1.6812-.3736,3.491,3.491,0,0,1,1.868.3736,1.826,1.826,0,0,1,.7472,1.2142h1.0275a2.0746,2.0746,0,0,0-.934-1.868,4.3472,4.3472,0,0,0-2.6153-.6538,5.0248,5.0248,0,0,0-2.5218.6538,1.7787,1.7787,0,0,0-.934,1.6813,1.9011,1.9011,0,0,0,.56,1.401,4.364,4.364,0,0,0,1.9615.6538l2.2416,0.3736a2.1966,2.1966,0,0,1,1.1208.3736,0.758,0.758,0,0,1,.3736.7472,1.1327,1.1327,0,0,1-.6538,1.1208,4.256,4.256,0,0,1-2.0549.3736,3.7955,3.7955,0,0,1-1.9615-.467,2.0446,2.0446,0,0,1-.7472-1.3076h-1.0274Zm16.4724,0.1868h0.06v-0.1868c-0.0146.0658-.0418,0.1233-0.06,0.1868m-6.8519-2.2417h6.0712a2.7791,2.7791,0,0,0-.934-1.868,3.0775,3.0775,0,0,0-2.0549-.7472,3.33,3.33,0,0,0-2.1482.7472A2.7787,2.7787,0,0,0,224.7423,108.63Zm6.8519,2.2417H230.44a2.4157,2.4157,0,0,1-1.0274,1.3076,3.2252,3.2252,0,0,1-1.6812.467,2.89,2.89,0,0,1-2.1483-.7472,4.0442,4.0442,0,0,1-.8406-2.2417h7.192v-0.28a4.1653,4.1653,0,0,0-1.1208-3.0823,4.1129,4.1129,0,0,0-7.0986,2.9889,4.1652,4.1652,0,0,0,1.1208,3.0823,4.0889,4.0889,0,0,0,2.9889,1.1208,4.2508,4.2508,0,0,0,2.5219-.7473,3.7934,3.7934,0,0,0,1.2478-1.868m2.1147,2.3351h1.0275V102.5592h-1.0275v10.6479Zm4.39-9.4337v-1.2142h-1.0274v1.2142h1.0274Zm-1.0274,9.4337h1.0274v-7.8458h-1.0274v7.8458Zm3.1756,0.0934h1.0275v-4.4833a2.3515,2.3515,0,0,1,.8406-1.868,3.5957,3.5957,0,0,1,2.2417-.7472,2.1431,2.1431,0,0,1,1.6812.56,3.4766,3.4766,0,0,1,.467,2.0549v4.39h1.0274v-5.0437a2.6418,2.6418,0,0,0-2.9888-2.9889,4.181,4.181,0,0,0-1.868.3736,3.4907,3.4907,0,0,0-1.401,1.2142v-1.401h-1.0275V113.3Zm10.9281-6.258a3.4091,3.4091,0,1,0,2.2417-.8406A3.03,3.03,0,0,0,251.1752,107.0425ZM249.4,109.1907a3.8571,3.8571,0,0,0,4.11,4.11,3.5558,3.5558,0,0,0,1.7746-.3736,4.24,4.24,0,0,0,1.401-1.2142v0.8406a2.1916,2.1916,0,0,1-.7472,1.868,4.2389,4.2389,0,0,1-2.4284.56,4.1937,4.1937,0,0,1-1.7747-.3736,1.24,1.24,0,0,1-.7472-1.0274h-1.0274a1.86,1.86,0,0,0,1.0274,1.6812,4.2279,4.2279,0,0,0,2.5219.6538,5.4592,5.4592,0,0,0,1.7747-.1868,3.4491,3.4491,0,0,0,1.3076-.6538,1.7657,1.7657,0,0,0,.7472-0.934,6.7043,6.7043,0,0,0,.1868-1.5878h0.1868v-7.192h-1.0275v1.3077a5.4217,5.4217,0,0,0-1.401-1.2143,3.79,3.79,0,0,0-1.7746-.3736A3.8571,3.8571,0,0,0,249.4,109.1907Z" style="fill:#fff"/></svg>