<svg id="Layer_1" data-name="Layer 1" xmlns="http://www.w3.org/2000/svg" viewBox="0 0 60 60"><title>icon-phone</title><path d="M37.59,12.42H22.41a2.14,2.14,0,0,0-2.14,2.14V45.44a2.14,2.14,0,0,0,2.14,2.14H37.59a2.14,2.14,0,0,0,2.14-2.14V14.56A2.14,2.14,0,0,0,37.59,12.42ZM27,14.88h6v1.71H27V14.88Zm3,30a1.55,1.55,0,1,1,1.55-1.55A1.55,1.55,0,0,1,30,44.91Zm7.43-4.49H22.57V19.26H37.43V40.42Z"/><path d="M30,0A30,30,0,1,0,60,30,30,30,0,0,0,30,0ZM40.58,45.44a3,3,0,0,1-3,3H22.41a3,3,0,0,1-3-3V14.56a3,3,0,0,1,3-3H37.59a3,3,0,0,1,3,3V45.44Z"/></svg>