<svg id="Layer_1" data-name="Layer 1" xmlns="http://www.w3.org/2000/svg" viewBox="0 0 60 60"><title>icon-phone-tap</title><path d="M30,0A30,30,0,1,0,60,30,30,30,0,0,0,30,0Zm7.59,48.43H22.41a3,3,0,0,1-3-3V14.56a3,3,0,0,1,3-3H37.59a3,3,0,0,1,3,3V27.5a2.62,2.62,0,0,0-.72,1.07l-0.12,0h0v-14a2.14,2.14,0,0,0-2.14-2.14H22.41a2.14,2.14,0,0,0-2.14,2.14V45.44a2.14,2.14,0,0,0,2.14,2.14H37.59a2.13,2.13,0,0,0,2-1.5l0.8,0.28A3,3,0,0,1,37.59,48.43Zm-7.86-27A4.32,4.32,0,0,0,29.09,30L34,36.4l1.13,1.47a3.26,3.26,0,0,0-.72-0.08,2.9,2.9,0,0,0-1.8.62,2.83,2.83,0,0,0-1.1,2h-8.9V19.26H37.43V29l-0.15.1a2.9,2.9,0,0,0-.66.7L34,26.33A4.28,4.28,0,0,0,34,25.77,4.33,4.33,0,0,0,29.72,21.44Zm1.83,21.91A1.55,1.55,0,1,1,30,41.81,1.55,1.55,0,0,1,31.55,43.36ZM27,16.59V14.88h6v1.71H27ZM53,39.72l-8,6.1A1.63,1.63,0,0,1,43.4,46l-9.19-3.19a2.23,2.23,0,0,1-1.49-2.2,1.85,1.85,0,0,1,.11-0.51h0v0a1.54,1.54,0,0,1,.11-0.24h0l0.06-.1h0a1.54,1.54,0,0,1,.33-0.36,1.72,1.72,0,0,1,.44-0.24h0l0.15,0h0a1.61,1.61,0,0,1,.34-0.06h0a2.05,2.05,0,0,1,.77.11l3.62,1.26L35,35.62,30,29.17a2.09,2.09,0,0,1-.46-1.46,1.63,1.63,0,0,1,.64-1.24,1.59,1.59,0,0,1,1.39-.27,2.28,2.28,0,0,1,1.32.88l5.49,7.18L38.79,34l-0.92-1.21a2.1,2.1,0,0,1-.46-1.46,1.63,1.63,0,0,1,.64-1.24,1.59,1.59,0,0,1,1.39-.27l0.28,0.09h0a2.24,2.24,0,0,1,.85.58h0a2.67,2.67,0,0,1,.19.21l0.87,1.13L42,31.53l-0.62-.81A1.83,1.83,0,0,1,41,29.45a1.42,1.42,0,0,1,.56-1.09,1.4,1.4,0,0,1,1.21-.26,1.94,1.94,0,0,1,1.14.75l0.59,0.77,0.36-.27a1.57,1.57,0,0,1-.34-1.09A1.22,1.22,0,0,1,45,27.34a1.19,1.19,0,0,1,1-.2,1.72,1.72,0,0,1,1,.66l2.09,2.73a14.27,14.27,0,0,1,1.6,2.65l2.52,5.42a1,1,0,0,1,.08.63A0.81,0.81,0,0,1,53,39.72Z"/></svg>