<svg data-name="Layer 1" xmlns="http://www.w3.org/2000/svg" viewBox="0 0 60 60"><title>icon-users</title><path d="M0 30a30 30 0 1 1 30 30A30 30 0 0 1 0 30zm23.08 11.36h2.31c0-3.58-.14-4.1 2-4.6 3.32-.77 6.46-1.49 7.6-4a4.81 4.81 0 0 0-.36-4.4C32.3 23.9 31.71 20.08 33 17.88c1.55-2.58 6.25-2.59 7.81 0 1.33 2.24.73 6-1.64 10.42a4.79 4.79 0 0 0-.39 4.41c1.14 2.52 4.24 3.23 7.54 4 2.27.52 2.12 1 2.12 4.62h2.3V39.9c0-2.91-.23-4.59-3.67-5.38-3.89-.9-7.72-1.7-5.88-5.1 5.46-10.08 1.56-15.79-4.31-15.79s-9.76 5.5-4.31 15.79c1.79 3.38-1.91 4.18-5.88 5.1s-3.61 3.03-3.61 6.84zm-13.86 0h2.3c0-3.32-.32-2.4 3.16-3.42 1.76-.51 3.31-1.25 4-2.79a4.15 4.15 0 0 0-.28-3.81c-1.65-3.12-2.11-5.84-1.23-7.3a3.1 3.1 0 0 1 4.88 0c1.62 2.71-1.38 6.9-1.77 8.63h2.42c.76-1.73 2.09-3.83 2.09-6.76 0-3.48-2.27-5.37-5.19-5.37-4.32 0-7.32 4.13-3.23 11.85 1.35 2.61-1.42 3.17-4.37 3.85-2.58.6-2.75 1.86-2.75 4-.04.38-.03.76-.03 1.12z"/></svg>