<svg data-name="Layer 1" xmlns="http://www.w3.org/2000/svg" viewBox="0 0 60 60"><title>icon-phone</title><path d="M37.59 12.42H22.41a2.14 2.14 0 0 0-2.14 2.14v30.88a2.14 2.14 0 0 0 2.14 2.14h15.18a2.14 2.14 0 0 0 2.14-2.14V14.56a2.14 2.14 0 0 0-2.14-2.14zM27 14.88h6v1.71h-6v-1.71zm3 30a1.55 1.55 0 1 1 1.55-1.55A1.55 1.55 0 0 1 30 44.91zm7.43-4.49H22.57V19.26h14.86v21.16z"/><path d="M30 0a30 30 0 1 0 30 30A30 30 0 0 0 30 0zm10.58 45.44a3 3 0 0 1-3 3H22.41a3 3 0 0 1-3-3V14.56a3 3 0 0 1 3-3h15.18a3 3 0 0 1 3 3v30.88z"/></svg>