<svg data-name="Layer 1" xmlns="http://www.w3.org/2000/svg" viewBox="0 0 60 60"><title>icon-phone-tap</title><path d="M30 0a30 30 0 1 0 30 30A30 30 0 0 0 30 0zm7.59 48.43H22.41a3 3 0 0 1-3-3V14.56a3 3 0 0 1 3-3h15.18a3 3 0 0 1 3 3V27.5a2.62 2.62 0 0 0-.72 1.07h-.12v-14a2.14 2.14 0 0 0-2.14-2.14h-15.2a2.14 2.14 0 0 0-2.14 2.14v30.87a2.14 2.14 0 0 0 2.14 2.14h15.18a2.13 2.13 0 0 0 2-1.5l.8.28a3 3 0 0 1-2.8 2.07zm-7.86-27a4.32 4.32 0 0 0-.64 8.57L34 36.4l1.13 1.47a3.26 3.26 0 0 0-.72-.08 2.9 2.9 0 0 0-1.8.62 2.83 2.83 0 0 0-1.1 2h-8.9V19.26h14.82V29l-.15.1a2.9 2.9 0 0 0-.66.7L34 26.33a4.28 4.28 0 0 0 0-.56 4.33 4.33 0 0 0-4.28-4.33zm1.83 21.91A1.55 1.55 0 1 1 30 41.81a1.55 1.55 0 0 1 1.55 1.55zM27 16.59v-1.71h6v1.71h-6zm26 23.13l-8 6.1a1.63 1.63 0 0 1-1.6.18l-9.19-3.19a2.23 2.23 0 0 1-1.49-2.2 1.85 1.85 0 0 1 .11-.51 1.54 1.54 0 0 1 .11-.24l.06-.1a1.54 1.54 0 0 1 .33-.36 1.72 1.72 0 0 1 .44-.24h.15a1.61 1.61 0 0 1 .34-.06 2.05 2.05 0 0 1 .77.11l3.62 1.26L35 35.62l-5-6.45a2.09 2.09 0 0 1-.46-1.46 1.63 1.63 0 0 1 .64-1.24 1.59 1.59 0 0 1 1.39-.27 2.28 2.28 0 0 1 1.32.88l5.49 7.18.41-.26-.92-1.21a2.1 2.1 0 0 1-.46-1.46 1.63 1.63 0 0 1 .64-1.24 1.59 1.59 0 0 1 1.39-.27l.28.09a2.24 2.24 0 0 1 .85.58 2.67 2.67 0 0 1 .19.21l.87 1.13.37-.3-.62-.81a1.83 1.83 0 0 1-.38-1.27 1.42 1.42 0 0 1 .56-1.09 1.4 1.4 0 0 1 1.21-.26 1.94 1.94 0 0 1 1.14.75l.59.77.36-.27a1.57 1.57 0 0 1-.34-1.09 1.22 1.22 0 0 1 .48-.92 1.19 1.19 0 0 1 1-.2 1.72 1.72 0 0 1 1 .66l2.09 2.73a14.27 14.27 0 0 1 1.6 2.65l2.52 5.42a1 1 0 0 1 .08.63.81.81 0 0 1-.29.49z"/></svg>