<svg id="Layer_1" data-name="Layer 1" xmlns="http://www.w3.org/2000/svg" viewBox="0 0 60 60"><title>icon-users</title><path d="M0,30A30,30,0,1,1,30,60,30,30,0,0,1,0,30ZM23.08,41.36h2.31c0-3.58-.14-4.1,2-4.6,3.32-.77,6.46-1.49,7.6-4a4.81,4.81,0,0,0-.36-4.4C32.3,23.9,31.71,20.08,33,17.88c1.55-2.58,6.25-2.59,7.81,0,1.33,2.24.73,6-1.64,10.42a4.79,4.79,0,0,0-.39,4.41c1.14,2.52,4.24,3.23,7.54,4,2.27,0.52,2.12,1,2.12,4.62h2.3c0-.51,0-1,0-1.43,0-2.91-.23-4.59-3.67-5.38-3.89-.9-7.72-1.7-5.88-5.1,5.46-10.08,1.56-15.79-4.31-15.79s-9.76,5.5-4.31,15.79c1.79,3.38-1.91,4.18-5.88,5.1S23.08,37.55,23.08,41.36Zm-13.86,0h2.3c0-3.32-.32-2.4,3.16-3.42,1.76-.51,3.31-1.25,4-2.79a4.15,4.15,0,0,0-.28-3.81c-1.65-3.12-2.11-5.84-1.23-7.3a3.1,3.1,0,0,1,4.88,0c1.62,2.71-1.38,6.9-1.77,8.63h2.42c0.76-1.73,2.09-3.83,2.09-6.76,0-3.48-2.27-5.37-5.19-5.37-4.32,0-7.32,4.13-3.23,11.85C17.72,35,14.95,35.56,12,36.24c-2.58.6-2.75,1.86-2.75,4C9.21,40.62,9.22,41,9.22,41.36Z"/></svg>