<?xml version="1.0" encoding="utf-8"?>
<!-- Generator: Adobe Illustrator 19.2.0, SVG Export Plug-In . SVG Version: 6.00 Build 0)  -->
<svg version="1.1" id="Layer_1" xmlns="http://www.w3.org/2000/svg" xmlns:xlink="http://www.w3.org/1999/xlink" x="0px" y="0px"
	 viewBox="0 0 24 24" style="enable-background:new 0 0 24 24;" xml:space="preserve">
<style type="text/css">
	.st0{fill:none;stroke:#FFFFFF;stroke-linejoin:round;stroke-miterlimit:10;}
	.st1{fill:#FFFFFF;}
</style>
<g>
	<path class="st0" d="M14,9.5h2v4l4-4h3.5v-9h-15v4 M6,16.2v2.2l-3.9,1.4c-1,0.3-1.6,1.2-1.6,2.2v1.5h15V22c0-1-0.6-1.9-1.6-2.2
		L10,18.4v-2.3"/>
	<ellipse class="st0" cx="7.9" cy="12.1" rx="3.9" ry="4.7"/>
	<path class="st0" d="M11.8,11.6h-0.4c-1.3,0.3-2.2-0.2-2.9-1.5c-0.4,0.9-1.8,1.5-3,1.5c-0.6,0-1-0.1-1.5-0.4"/>
	<path class="st1" d="M20,5h-1v1h1V5z M17,5h-1v1h1V5z M14,5h-1v1h1V5z"/>
</g>
</svg>
