<svg id="Layer_1" xmlns="http://www.w3.org/2000/svg" viewBox="0 0 24 24"><style>.st0{fill:none;stroke:#fff;stroke-linejoin:round;stroke-miterlimit:10}.st1{fill:#fff}</style><path class="st0" d="M14 9.5h2v4l4-4h3.5v-9h-15v4M6 16.2v2.2l-3.9 1.4C1.1 20.1.5 21 .5 22v1.5h15V22c0-1-.6-1.9-1.6-2.2L10 18.4v-2.3"/><ellipse class="st0" cx="7.9" cy="12.1" rx="3.9" ry="4.7"/><path class="st0" d="M11.8 11.6h-.4c-1.3.3-2.2-.2-2.9-1.5-.4.9-1.8 1.5-3 1.5-.6 0-1-.1-1.5-.4"/><path class="st1" d="M20 5h-1v1h1V5zm-3 0h-1v1h1V5zm-3 0h-1v1h1V5z"/></svg>