<svg xmlns="http://www.w3.org/2000/svg" xmlns:xlink="http://www.w3.org/1999/xlink" version="1.1" id="Layer_1" x="0px" y="0px" viewBox="0 0 220 119" enable-background="new 0 0 220 119" xml:space="preserve">
  <g>
    <path fill="#95C93F" d="M214.8 82.3c0 0-35.4-52.4-88.6-56l6.2 9.2c0 0 24.9 9.7 41.5 38.6 0 0-8-26.7-24.3-35.4 0 0 23.1 9 38.1 20.9S214.8 82.3 214.8 82.3z"/>
    <polygon fill="#F6DB3E" points="101.3 13.5 115 27.8 105.8 39.4 122.3 34.3 131.4 52.7 132.5 30.9 151.2 19.7 131.1 20.1 131.4 0 118.9 18.4 "/>
    <path fill="#0884C7" d="M16 42.9c-0.1-0.2-0.2-0.5-0.4-0.7 -0.2-0.3-0.3-0.5-0.5-0.8L5.8 28.3h-3v18h2.6V31.7c0.1 0.3 0.2 0.5 0.3 0.7 0.1 0.2 0.3 0.4 0.4 0.6l9.5 13.3h2.9v-18H16V42.9z"/>
    <path fill="#0884C7" d="M63.7 28.3l-7.4 18h2.8l1.4-3.5h9.3l1.4 3.5h2.9l-7.4-18H63.7zM61.5 40.4l3.8-9.5 3.7 9.5H61.5z"/>
    <path fill="#0884C7" d="M88.8 39.7c-0.1 1.5-0.6 2.7-1.6 3.6 -1.1 0.9-2.4 1.4-4 1.4 -1.9 0-3.4-0.6-4.6-2 -1.1-1.3-1.7-3.1-1.7-5.3 0-2.4 0.5-4.2 1.7-5.4 1.1-1.3 2.7-1.9 4.7-1.9 1.5 0 2.7 0.3 3.7 1 1 0.6 1.6 1.6 1.8 2.7h2.6c-0.2-1.8-1.1-3.2-2.5-4.3 -1.4-1.1-3.3-1.6-5.6-1.6 -2.9 0-5.1 0.8-6.8 2.5C74.9 32 74 34.2 74 37c0 3.1 0.8 5.5 2.4 7.2s3.8 2.6 6.6 2.6c2.4 0 4.4-0.6 6-1.9 1.5-1.3 2.4-3.1 2.5-5.3C91.5 39.7 88.8 39.7 88.8 39.7z"/>
    <path fill="#0884C7" d="M46.7 30.1c-0.5 0.1-0.9 0.2-1.3 0.3C45.9 30.3 46.3 30.2 46.7 30.1z"/>
    <path fill="#0884C7" d="M44.9 30.7L44.9 30.7c0.2-0.1 0.4-0.2 0.6-0.3 0.4-0.2 0.8-0.3 1.3-0.3 0.4 0 0.7-0.1 1.1-0.1 1.5 0 2.7 0.3 3.7 1s1.6 1.6 1.8 2.7h2.6c-0.1-0.8-0.4-1.6-0.8-2.4 -0.4-0.8-1-1.4-1.7-1.9 -1.4-1.1-3.3-1.6-5.6-1.6 -1.9 0-3.4 0.3-4.8 1 -4.2 1.3-7.7 2.9-10.6 4.6l0 0h0l-2.1-5.2h-3l-7.4 18h1.6 0 1.1l0.1-0.3c1.1-2 4.8-7.8 13.5-12.2 -2.6 2.8-4.8 6.9-4.5 12.5h2.2C33.6 35 44.4 30.8 44.9 30.7zM30.9 35.6l-0.3-0.7c-1.9 1.3-3.3 2.6-4.6 3.8l0 0 3.1-7.8 1.6 4c0 0 0 0 0 0L30.9 35.6c0.6-0.5 1.5-1 2.1-1.4v0C32.3 34.7 31.5 35.2 30.9 35.6z"/>
    <path fill="#0884C7" d="M53.6 39.7c-0.1 1.5-0.6 2.7-1.7 3.7 -1.1 0.9-2.4 1.4-4 1.4 -1.9 0-3.4-0.7-4.6-2 -1.2-1.3-1.8-3.1-1.8-5.3 0-0.7 0-1.3 0.2-1.9 -0.3 0.2-0.5 0.4-0.8 0.6 -0.8 0.8-1.7 2.1-1.9 3.8 0.3 1.8 1.1 3.2 2.1 4.4 1.6 1.7 3.8 2.6 6.6 2.6 2.4 0 4.4-0.6 6-1.9 1.6-1.3 2.4-3 2.5-5.3L53.6 39.7 53.6 39.7z"/>
    <path fill="#20386D" d="M17.7 82.1L6.2 66.5v15.6H1.1V58.2h5.2l11.1 15v-15h5.1v23.9H17.7z"/>
    <path fill="#20386D" d="M37.6 82.1v-1.8c-1.2 1.4-3.2 2.2-5.5 2.2 -2.8 0-6-1.9-6-5.7 0-4.1 3.3-5.6 6-5.6 2.3 0 4.3 0.8 5.5 2.1V71c0-1.8-1.5-2.9-3.8-2.9 -1.9 0-3.6 0.7-5.1 2l-1.7-3c2.1-1.9 4.8-2.7 7.6-2.7 3.9 0 7.6 1.6 7.6 6.6v11.2H37.6zM37.6 77.9v-2.2c-0.8-1-2.2-1.5-3.7-1.5 -1.8 0-3.3 0.9-3.3 2.6 0 1.6 1.5 2.5 3.3 2.5C35.4 79.4 36.9 78.9 37.6 77.9z"/>
    <path fill="#20386D" d="M47.6 77.8v-9h-2.9v-4h2.9V60h4.6v4.7h3.5v4h-3.5v7.8c0 1.1 0.6 1.9 1.6 1.9 0.7 0 1.3-0.3 1.6-0.5l1 3.4c-0.7 0.6-1.9 1.1-3.8 1.1C49.3 82.5 47.6 80.9 47.6 77.8z"/>
    <path fill="#20386D" d="M60.3 60.2c0-1.5 1.3-2.7 2.7-2.7 1.5 0 2.7 1.2 2.7 2.7 0 1.5-1.2 2.7-2.7 2.7C61.6 62.9 60.3 61.7 60.3 60.2zM60.8 82.1V64.8h4.6v17.3H60.8z"/>
    <path fill="#20386D" d="M69.8 73.4c0-4.9 3.4-9.1 9.1-9.1 5.7 0 9.2 4.2 9.2 9.1 0 4.9-3.4 9.1-9.2 9.1C73.2 82.5 69.8 78.3 69.8 73.4zM83.4 73.4c0-2.7-1.6-5-4.4-5 -2.8 0-4.4 2.3-4.4 5 0 2.7 1.6 5.1 4.4 5.1C81.8 78.5 83.4 76.1 83.4 73.4z"/>
    <path fill="#20386D" d="M104.2 82.1V71.6c0-2.4-1.3-3.2-3.2-3.2 -1.8 0-3.2 1-3.9 2v11.7h-4.6V64.8H97V67c1.1-1.3 3.2-2.7 6.1-2.7 3.8 0 5.6 2.2 5.6 5.5v12.2H104.2z"/>
    <path fill="#20386D" d="M123.7 82.1v-1.8c-1.2 1.4-3.2 2.2-5.5 2.2 -2.8 0-6-1.9-6-5.7 0-4.1 3.3-5.6 6-5.6 2.3 0 4.3 0.8 5.5 2.1V71c0-1.8-1.5-2.9-3.8-2.9 -1.9 0-3.6 0.7-5.1 2l-1.7-3c2.1-1.9 4.8-2.7 7.6-2.7 3.9 0 7.6 1.6 7.6 6.6v11.2H123.7zM123.7 77.9v-2.2c-0.8-1-2.2-1.5-3.7-1.5 -1.8 0-3.3 0.9-3.3 2.6 0 1.6 1.5 2.5 3.3 2.5C121.5 79.4 122.9 78.9 123.7 77.9z"/>
    <path fill="#20386D" d="M133.7 82.1V58.2h4.6v23.9H133.7z"/>
    <path fill="#20386D" d="M0 100c0-7.4 5.6-12.4 12.7-12.4 5.3 0 8.3 2.9 10 5.8l-4.4 2.2c-1-1.9-3.2-3.5-5.6-3.5 -4.3 0-7.5 3.3-7.5 7.9s3.2 7.9 7.5 7.9c2.5 0 4.6-1.5 5.6-3.5l4.4 2.1c-1.7 3-4.7 5.9-10 5.9C5.6 112.4 0 107.4 0 100z"/>
    <path fill="#20386D" d="M24.6 103.3c0-4.9 3.4-9.1 9.1-9.1 5.7 0 9.2 4.2 9.2 9.1 0 4.9-3.4 9.1-9.2 9.1C28 112.4 24.6 108.2 24.6 103.3zM38.2 103.3c0-2.7-1.6-5-4.4-5s-4.4 2.3-4.4 5c0 2.7 1.6 5.1 4.4 5.1S38.2 106 38.2 103.3z"/>
    <path fill="#20386D" d="M47.3 112V88h4.6V112H47.3z"/>
    <path fill="#20386D" d="M57.4 112V88h4.6V112H57.4z"/>
    <path fill="#20386D" d="M66.3 103.3c0-5 3.7-9.1 9-9.1 5.2 0 8.7 3.9 8.7 9.5v1H71.1c0.3 2.2 2 4 5 4 1.5 0 3.5-0.6 4.6-1.7l2 2.9c-1.7 1.6-4.4 2.4-7.1 2.4C70.3 112.4 66.3 108.9 66.3 103.3zM75.3 97.8c-2.8 0-4.1 2.1-4.3 3.8h8.5C79.5 100 78.3 97.8 75.3 97.8z"/>
    <path fill="#20386D" d="M87.9 116.4l2-3.3c1.4 1.5 3.2 2.2 5.4 2.2 2.2 0 4.8-1 4.8-4.4v-1.8c-1.4 1.7-3.2 2.7-5.3 2.7 -4.3 0-7.6-3-7.6-8.8 0-5.7 3.3-8.8 7.6-8.8 2.1 0 3.9 0.9 5.3 2.7v-2.2h4.6v16.1c0 6.6-5.1 8.2-9.4 8.2C92.4 119 90.1 118.3 87.9 116.4zM100.2 105.8v-5.6c-0.8-1.1-2.4-2-3.9-2 -2.6 0-4.4 1.8-4.4 4.8 0 3 1.8 4.8 4.4 4.8C97.8 107.8 99.4 106.9 100.2 105.8z"/>
    <path fill="#20386D" d="M108.2 103.3c0-5 3.7-9.1 9-9.1 5.2 0 8.7 3.9 8.7 9.5v1h-12.9c0.3 2.2 2 4 5 4 1.5 0 3.5-0.6 4.6-1.7l2 2.9c-1.7 1.6-4.4 2.4-7.1 2.4C112.1 112.4 108.2 108.9 108.2 103.3zM117.1 97.8c-2.8 0-4.1 2.1-4.3 3.8h8.5C121.3 100 120.1 97.8 117.1 97.8z"/>
    <path fill="#20386D" d="M141.4 112V88h16.9v4.5h-11.8v5.1h11.6v4.5h-11.6v9.9H141.4z"/>
    <path fill="#20386D" d="M172.2 112v-1.8c-1.2 1.4-3.2 2.2-5.5 2.2 -2.8 0-6-1.9-6-5.7 0-4.1 3.3-5.6 6-5.6 2.3 0 4.3 0.8 5.5 2.1v-2.3c0-1.8-1.5-2.9-3.8-2.9 -1.9 0-3.6 0.7-5.1 2l-1.7-3c2.1-1.9 4.8-2.7 7.6-2.7 3.9 0 7.6 1.6 7.6 6.6V112H172.2zM172.2 107.8v-2.2c-0.8-1-2.2-1.5-3.7-1.5 -1.8 0-3.3 0.9-3.3 2.6 0 1.6 1.5 2.5 3.3 2.5C170 109.3 171.4 108.8 172.2 107.8z"/>
    <path fill="#20386D" d="M181.8 90.1c0-1.5 1.3-2.7 2.7-2.7 1.5 0 2.7 1.2 2.7 2.7s-1.2 2.7-2.7 2.7C183.1 92.8 181.8 91.6 181.8 90.1zM182.3 112V94.6h4.6V112H182.3z"/>
    <path fill="#20386D" d="M192.3 112V94.6h4.6V97c1.2-1.5 3.4-2.8 5.5-2.8v4.4c-0.3-0.1-0.8-0.1-1.3-0.1 -1.5 0-3.5 0.9-4.3 2V112H192.3z"/>
    <path fill="#20386D" d="M204.8 109.7l2-3.2c1.3 1.2 3.8 2.4 6 2.4 2 0 2.9-0.8 2.9-1.9 0-2.9-10.3-0.5-10.3-7.4 0-2.9 2.5-5.5 7.1-5.5 2.9 0 5.3 1 7 2.4l-1.8 3.1c-1-1.1-3-2-5.1-2 -1.7 0-2.7 0.8-2.7 1.7 0 2.6 10.3 0.4 10.3 7.4 0 3.2-2.7 5.6-7.5 5.6C209.5 112.4 206.6 111.4 204.8 109.7z"/>
  </g>
</svg>
