<?xml version="1.0" encoding="utf-8"?>
<!-- Generator: Adobe Illustrator 19.2.1, SVG Export Plug-In . SVG Version: 6.00 Build 0)  -->
<!DOCTYPE svg PUBLIC "-//W3C//DTD SVG 1.1//EN" "http://www.w3.org/Graphics/SVG/1.1/DTD/svg11.dtd">
<svg version="1.1" id="Layer_2" xmlns="http://www.w3.org/2000/svg" xmlns:xlink="http://www.w3.org/1999/xlink" x="0px" y="0px"
	 viewBox="0 0 73 73" enable-background="new 0 0 73 73" xml:space="preserve">
<g>
	<circle fill="#54B3E1" cx="36.5" cy="36.4" r="36"/>
	<g transform="translate(0,-952.36216)">
		<path fill="#FFFFFF" d="M42.1,966.3L42.1,966.3C42.1,966.3,42.1,966.3,42.1,966.3l-18.5,1.3c-0.2,0-0.4,0.2-0.4,0.4l-0.9,28.5
			c0,0,0,0,0,0.1l2.2,15.8c0,0.2,0.2,0.4,0.4,0.3c0.1,0,0.1,0,0.2-0.1l0.9-0.6c0.1,0,0.1-0.1,0.1-0.1l1.7-3.2l1.1,2.8v1.5
			c0,0.2,0.2,0.4,0.4,0.4c0,0,0.1,0,0.1,0l2.6-0.7c0.2,0,0.3-0.2,0.3-0.4l0.2-3.3c0-0.1,0-0.2-0.1-0.3l-2-2l0.3-1.4l19.5-2.2
			c0.2,0,0.4-0.2,0.3-0.4c0-0.1,0-0.1-0.1-0.2l-0.8-1.1v-2.6c0,0,0,0,0,0l-0.1-3.1l0.9-4.5c0-0.2,0-0.3-0.2-0.4l-0.6-0.4v-0.6
			c0-0.1,0-0.2-0.1-0.2l-1.7-2.2l-3.9-13.7c0,0,0,0,0,0l-1.5-4.2l-0.1-2.8C42.5,966.5,42.3,966.3,42.1,966.3z"/>
	</g>
</g>
</svg>
