<?xml version="1.0" encoding="utf-8"?>
<!-- Generator: Adobe Illustrator 19.2.1, SVG Export Plug-In . SVG Version: 6.00 Build 0)  -->
<!DOCTYPE svg PUBLIC "-//W3C//DTD SVG 1.1//EN" "http://www.w3.org/Graphics/SVG/1.1/DTD/svg11.dtd">
<svg version="1.1" id="Layer_2" xmlns="http://www.w3.org/2000/svg" xmlns:xlink="http://www.w3.org/1999/xlink" x="0px" y="0px"
	 viewBox="0 0 73 73" enable-background="new 0 0 73 73" xml:space="preserve">
<g>
	<circle fill="#54B3E1" cx="36.5" cy="36.5" r="36"/>
	<path fill="#FFFFFF" stroke="#FFFFFF" stroke-miterlimit="10" d="M14.9,28.7c0,0-0.1,0-0.1,0l-1.9,0.5c-0.1,0-0.2,0.1-0.2,0.3
		l0.4,1.5c0,0.2,0.3,0.4,0.5,0.4l4.5,0.7c0.7,0.1,1.2,0.8,1.1,1.5l-0.1,0.5c-0.1,0.7-0.7,1.2-1.3,1.3l-2.8,0.4
		c-0.3,0-0.6,0.3-0.8,0.5l-1.8,2.7c-0.1,0.2-0.2,0.7-0.1,0.9l1,3.1c0.1,0.2,0.3,0.4,0.5,0.5l1.3,0.2c0.7,0.1,1.2,0.7,1.2,1.4v2.1
		c0,0.1,0.1,0.2,0.2,0.2l4.8,0c0.4,0,0.7,0.2,0.9,0.5c0.2,0.3,0.2,0.7,0.1,1l-0.7,1.9c-0.2,0.5-0.7,1.1-1.2,1.4l-3,1.8
		c-0.4,0.2-1,0.5-1.4,0.7l-2.7,1.4l7.6-2.9c0.3-0.1,0.8-0.4,1.1-0.7l4.5-4.2c0,0,0.1-0.1,0.1-0.1c0,0,0-0.1-0.1-0.1l-0.2-0.2
		c-0.3-0.2-0.4-0.6-0.4-0.9c0-0.4,0.1-0.7,0.4-0.9l4-3.9c0.1-0.1,0.4-0.3,0.7-0.3c0.2,0,0.4,0.1,0.5,0.3c0.2,0.3,0.1,0.7,0.1,0.8
		l-0.9,2.9l2.2-1.5c0.2-0.1,0.4-0.5,0.4-0.8l0-0.6c0-0.6,0.5-1.1,1.1-1.1c0.1,0,0.2,0,0.4,0.1L49,46.4c0.1,0,0.2,0,0.3,0
		c0.2,0,0.5-0.1,0.7-0.1l0.9-0.5c0.2-0.1,0.5-0.2,0.8-0.2c0.4,0,0.8,0.1,1.1,0.3l3.8,3c0.3,0.3,0.9,0.7,1.2,0.9l2.8,2.2l-0.1-2.6
		c0-0.1-0.1-0.2-0.2-0.2h-0.9c-0.5,0-1.3-0.3-1.7-0.6l-6.5-5.1c-0.1-0.1-0.4-0.1-0.5,0L49,44.9c-0.2,0.2-0.6,0.3-0.9,0.3
		c-0.4,0-0.7-0.1-1-0.4l-1.6-1.6c-0.1-0.1-0.4-0.2-0.6-0.2c-0.1,0-0.1,0-0.1,0l-0.9,0.2c-0.1,0-0.2,0-0.3,0l0,0
		c-0.6,0-1.1-0.4-1.2-1l-4.6-22.1c0-0.2-0.3-0.4-0.5-0.5l-12.2-2.8c0,0-0.1,0-0.2,0c-0.3,0-0.6,0.1-0.8,0.2l-8,5
		c-0.1,0.1-0.2,0.3-0.1,0.4l1.1,2.5c0.1,0.3,0.5,0.6,0.7,0.7l0.7,0.3c0.5,0.3,1,0.9,1.1,1.5l0.2,1c0.1,0.4,0,0.7-0.3,1
		c-0.2,0.3-0.5,0.4-0.9,0.5L17.6,30c-0.6,0-1.3-0.3-1.7-0.7l-0.3-0.4C15.4,28.8,15.1,28.7,14.9,28.7z"/>
</g>
</svg>
