<?xml version="1.0" encoding="utf-8"?>
<!-- Generator: Adobe Illustrator 19.2.1, SVG Export Plug-In . SVG Version: 6.00 Build 0)  -->
<!DOCTYPE svg PUBLIC "-//W3C//DTD SVG 1.1//EN" "http://www.w3.org/Graphics/SVG/1.1/DTD/svg11.dtd">
<svg version="1.1" id="Layer_2" xmlns="http://www.w3.org/2000/svg" xmlns:xlink="http://www.w3.org/1999/xlink" x="0px" y="0px"
	 viewBox="0 0 73 73" enable-background="new 0 0 73 73" xml:space="preserve">
<g>
	<circle fill="#54B3E1" cx="36.5" cy="36.5" r="36"/>
	<path fill="#FFFFFF" d="M52.7,17.9c0-0.7-0.6-1.3-1.3-1.3l-25.7,0.1c-0.4,0-0.7,0.1-0.9,0.4c-0.2,0.3-0.3,0.6-0.3,1l0.4,4.2
		c0,0.2-0.1,0.4-0.3,0.5l-0.4,0.3c-0.1,0.1-0.3,0-0.4-0.1l-0.1-0.2c-0.3-0.3-0.8-0.5-1.2-0.5c-0.2,0-0.4,0-0.6,0.1l-0.1,0
		c-0.6,0.2-1,0.9-1,1.6l0.4,7.6c0,0.5,0.3,1.2,0.6,1.6l1.7,2.1c0.1,0.1,0,0.2,0,0.3l-1.5,1.5c-0.4,0.4-0.7,1.1-0.8,1.6l-0.1,1.4
		c0,0.3-0.2,0.8-0.4,1c-0.3,0.4-0.5,1.1-0.5,1.6l0,0.5c0,0.7,0.5,1.3,1.1,1.4c0.1,0,0.2,0.2,0.2,0.3l0,0.3c0,0.1-0.1,0.1-0.1,0.1
		l-0.6,0c-0.7,0-1.3,0.5-1.4,1.2c-0.1,0.6,0.4,1.3,1,1.5l20.1,7.9c0.4,0.2,1.1,0.3,1.6,0.3l10.4-0.2c0.3,0,0.7-0.1,0.9-0.4
		c0.2-0.3,0.4-0.6,0.4-0.9L52.7,17.9z"/>
</g>
</svg>
