<?xml version="1.0" encoding="utf-8"?>
<!-- Generator: Adobe Illustrator 19.2.1, SVG Export Plug-In . SVG Version: 6.00 Build 0)  -->
<!DOCTYPE svg PUBLIC "-//W3C//DTD SVG 1.1//EN" "http://www.w3.org/Graphics/SVG/1.1/DTD/svg11.dtd">
<svg version="1.1" id="Layer_2" xmlns="http://www.w3.org/2000/svg" xmlns:xlink="http://www.w3.org/1999/xlink" x="0px" y="0px"
	 viewBox="0 0 73 73" enable-background="new 0 0 73 73" xml:space="preserve">
<g>
	<circle fill="#54B3E1" cx="36.5" cy="36.5" r="36"/>
	<path fill="#FFFFFF" d="M54.7,26c0.2-0.3,0.2-0.7,0.1-0.9c-0.2-0.3-0.5-0.4-0.8-0.4h-3.1l1.1-1.4c0.3-0.4,0.5-1,0.5-1.5l0-0.5
		c0-0.3-0.1-0.6-0.3-0.8c-0.2-0.2-0.5-0.4-0.8-0.4L19.2,20c-0.3,0-0.6,0.1-0.8,0.4c-0.2,0.2-0.3,0.6-0.2,0.9l1.9,7.8
		c0.1,0.3,0.1,0.8,0.1,1.1l-1.4,16.6c0,0.3,0.1,0.6,0.3,0.9c0.2,0.2,0.5,0.4,0.8,0.4l1.7,0.1c0.1,0,0.1,0.1,0.1,0.1l-0.1,3.5
		c0,0.3,0.1,0.6,0.3,0.8c0.2,0.2,0.5,0.3,0.8,0.4L43.4,53h0c0.3,0,0.6-0.1,0.8-0.4c0.2-0.2,0.3-0.5,0.3-0.8L44.3,47
		c0-0.3,0.1-0.7,0.2-1l2.2-4.7c0.1-0.2,0.4-0.6,0.6-0.7l1.3-0.9c0.4-0.3,0.8-0.9,0.8-1.4l0.1-2c0-0.1,0.2-0.4,0.3-0.4l1-0.4
		c0.5-0.2,1-0.7,1.1-1.2l0.4-1.2c0.1-0.5,0.1-1.1,0-1.6L52,30.8c-0.1-0.2,0-0.5,0.1-0.7L54.7,26z"/>
</g>
</svg>
