<?xml version="1.0" encoding="utf-8"?>
<!-- Generator: Adobe Illustrator 19.2.1, SVG Export Plug-In . SVG Version: 6.00 Build 0)  -->
<!DOCTYPE svg PUBLIC "-//W3C//DTD SVG 1.1//EN" "http://www.w3.org/Graphics/SVG/1.1/DTD/svg11.dtd">
<svg version="1.1" id="Layer_2" xmlns="http://www.w3.org/2000/svg" xmlns:xlink="http://www.w3.org/1999/xlink" x="0px" y="0px"
	 viewBox="0 0 73 73" enable-background="new 0 0 73 73" xml:space="preserve">
<g>
	<circle fill="#54B3E1" cx="36.5" cy="36.5" r="36"/>
	<path fill="#FFFFFF" d="M38.3,16c-1,4.3-2,8.8-3,13.1c3.9,6,8.4,12.3,12.6,18.5c0.6,0.9,1.5,1.9,1.8,2.7c0.2,0.7,0,1.6,0.1,2.2
		c0.1,0.5,0.5,0.7,0.8,1.2c-0.1,1.5-1.6,1.6-1.7,3.2c-0.3,0-0.3,0.4-0.6,0.5c0.2,0.6,0,0.7-0.3,1.1c0,0.7,0.7,0.7,0.7,1.4
		c-0.3,0.4-1.1,0.3-1.3,0.8c-2.8-0.3-5.6-0.5-8.4-0.8c0.1-0.8-0.5-0.9-0.6-1.6c1.5-1.5-0.5-2.9-1.3-3.9c-0.3-0.2-0.8,0-1.1-0.2
		c-0.1-0.5,0.3-0.4,0.3-0.9c-0.7-1-1.4-0.6-2.3-1.2c-0.8-0.6-1.3-1.9-2.1-2.3c-0.2-0.1-0.4,0-0.7-0.1c-0.9-0.3-1.7-0.9-2.5-1.4
		c-0.3-1.1,0.4-3-0.6-3.5c0.5-1.8-1.7-2.2-1.3-3.9c-0.5-0.8-1.2-1.5-1.1-2.9c0.3-0.3,0.5,0.1,0.8,0.1c0.5-1.2-0.4-1.7-1.2-1.9
		c-0.2-1-0.8-2.9,0.1-3.5c0.7,0.1,0.5,1.1,1,1.3c0.1-0.3-0.1-1,0-1.6c0.2-0.3,0.5,0.2,0.6-0.1c0-0.6-1.2-0.1-1.2-0.8
		c-0.7,1.1-1.5-0.3-2.1-0.7c0-0.5,0.6-0.3,0.7-0.7c-0.2-0.9-0.8-1.4-1.1-2.2c0.4-0.8-0.4-1.2-0.5-1.8c-0.2-1.2,0.8-2.1,0.3-3.3
		c1.1-1.3-1.1-1.6-0.6-3.3c0.7-0.7,1.2-1.5,1.8-2.3c0-0.3,0.1-0.5,0.1-0.8c1-0.6,0.8-2.5,1.2-3.8C30,13.5,34.2,14.7,38.3,16z"/>
</g>
</svg>
