<?xml version="1.0" encoding="utf-8"?>
<!-- Generator: Adobe Illustrator 19.2.1, SVG Export Plug-In . SVG Version: 6.00 Build 0)  -->
<!DOCTYPE svg PUBLIC "-//W3C//DTD SVG 1.1//EN" "http://www.w3.org/Graphics/SVG/1.1/DTD/svg11.dtd">
<svg version="1.1" id="Layer_2" xmlns="http://www.w3.org/2000/svg" xmlns:xlink="http://www.w3.org/1999/xlink" x="0px" y="0px"
	 viewBox="0 0 73 73" enable-background="new 0 0 73 73" xml:space="preserve">
<g>
	<circle fill="#54B3E1" cx="36.5" cy="36.5" r="36"/>
	<g transform="translate(0,-952.36216)">
		<path fill="#FFFFFF" d="M52.7,968.5C52.6,968.5,52.6,968.5,52.7,968.5l-36.3,7.8c-0.2,0-0.3,0.2-0.3,0.4l2.9,14.8l0.1,11.4
			l-1.9,2.6c-0.1,0.1-0.1,0.3,0,0.4l2.5,3.1c0.1,0.1,0.3,0.2,0.5,0.1l7.1-4.7c0,0,0,0,0.1,0l7.2-7.4l0.8,1c0.1,0.1,0.3,0.2,0.4,0.1
			l3.9-2.3l7.7-1.4c0,0,0.1,0,0.1,0l9.2-4.7c0.1-0.1,0.2-0.2,0.2-0.4L55.5,978c0,0,0,0,0,0l-2.5-9.2
			C52.9,968.6,52.8,968.5,52.7,968.5z"/>
	</g>
</g>
</svg>
