<?xml version="1.0" encoding="utf-8"?>
<!-- Generator: Adobe Illustrator 19.2.1, SVG Export Plug-In . SVG Version: 6.00 Build 0)  -->
<!DOCTYPE svg PUBLIC "-//W3C//DTD SVG 1.1//EN" "http://www.w3.org/Graphics/SVG/1.1/DTD/svg11.dtd">
<svg version="1.1" id="Layer_2" xmlns="http://www.w3.org/2000/svg" xmlns:xlink="http://www.w3.org/1999/xlink" x="0px" y="0px"
	 viewBox="0 0 73 73" enable-background="new 0 0 73 73" xml:space="preserve">
<g>
	<circle fill="#54B3E1" cx="36.5" cy="36.5" r="36"/>
	<g transform="translate(0,-952.36216)">
		<path fill="#FFFFFF" d="M27.3,965c-0.1,0-0.2,0-0.3,0.1l-6,4.8c-0.1,0.1-0.2,0.3-0.1,0.4l5.6,16.1l6.2,25.5c0,0.2,0.2,0.3,0.4,0.3
			l8.7,0.5c0,0,0.1,0,0.1,0l9.8-2.3c0.2,0,0.4-0.3,0.3-0.5c0,0,0,0,0,0L49,997.9c-0.1-0.2-0.3-0.3-0.5-0.3c0,0,0,0,0,0l-2.2,0.8
			l-5.6-3.5l-2.6-7.5c0,0,0-0.1,0-0.1l-3.5-5.7c0-0.1-0.1-0.1-0.2-0.1l-3.6-2l-3.2-5.5l2-5.8c0-0.1,0-0.1,0-0.2l-0.2-1.9
			c0-0.2-0.1-0.3-0.3-0.3l-1.7-0.6C27.4,965,27.3,965,27.3,965z"/>
	</g>
</g>
</svg>
