<?xml version="1.0" encoding="utf-8"?>
<!-- Generator: Adobe Illustrator 19.2.1, SVG Export Plug-In . SVG Version: 6.00 Build 0)  -->
<!DOCTYPE svg PUBLIC "-//W3C//DTD SVG 1.1//EN" "http://www.w3.org/Graphics/SVG/1.1/DTD/svg11.dtd">
<svg version="1.1" id="Layer_2" xmlns="http://www.w3.org/2000/svg" xmlns:xlink="http://www.w3.org/1999/xlink" x="0px" y="0px"
	 viewBox="0 0 73 73" enable-background="new 0 0 73 73" xml:space="preserve">
<g>
	<circle fill="#54B3E1" cx="36.5" cy="36.5" r="36"/>
	<g>
		<g>
			<path fill="#FFFFFF" d="M14,18h14.3c0.4,0,0.7,0.3,0.9,0.6l0.3,0.8c0.2,0.4,0.5,0.6,0.9,0.6H45c0.5,0,0.9,0.4,0.9,0.9
				c0,0.7,0.2,1.4,0.7,1.4c0.9,0.1,1.3-0.3,1.2-1.4c-0.1-1.1-0.1-1.9,0.8-1.6c0.9,0.3,1,0.9,1.8,0.5c0.8-0.4,3,7.9,3.4,9.2
				c0.1,0.1,0.1,0.3,0.2,0.3c0.6,0.7,3.1,4,2.9,4.8c-0.3,0.9-0.1,3.7,1.7,6.1c1.8,2.4,1.5,7.2,1.2,8.7c-0.3,1.3-0.9,2.3-1.1,2.7
				c-0.1,0.1-0.1,0.2-0.1,0.2l-0.4,1.3c-0.1,0.2-0.1,0.4,0.1,0.6c0.2,0.4,0.3,1.2-1.3,1.2c-2.4,0.1-2.9,0.1-3.4-1.1
				s-3.1-3.6-3.7-3.6s-1.2-3.4-2.1-3.6c-0.9-0.3-1.2-0.2-1-1.1c0.2-0.8-1.4-1.9-1.8-2.2c-0.1-0.1-0.1-0.1-0.2-0.1
				c-0.5-0.5-3.3-3.5-2.7-6.3c0.8-3,1.7-6.9,0.1-7.5s-2-0.7-3.5-2.5c-1.5-1.7-2.6-3.2-4.4-3c-1.7,0.3-3.3,1.3-3.3,1.3
				s-4,2.6-4.5,1.1c-0.6-1.6-1.6-3.2-3.2-3.6c-1.3-0.3-6.8-0.5-8.9-0.6c-0.5,0-0.8-0.4-0.9-0.8c-0.1-0.6-0.2-1.5-0.5-2.3
				C12.9,18.6,13.3,18,14,18z"/>
		</g>
	</g>
</g>
</svg>
