<?xml version="1.0" encoding="utf-8"?>
<!-- Generator: Adobe Illustrator 19.2.1, SVG Export Plug-In . SVG Version: 6.00 Build 0)  -->
<!DOCTYPE svg PUBLIC "-//W3C//DTD SVG 1.1//EN" "http://www.w3.org/Graphics/SVG/1.1/DTD/svg11.dtd">
<svg version="1.1" id="Layer_2" xmlns="http://www.w3.org/2000/svg" xmlns:xlink="http://www.w3.org/1999/xlink" x="0px" y="0px"
	 viewBox="0 0 73 73" enable-background="new 0 0 73 73" xml:space="preserve">
<g>
	<circle fill="#54B3E1" cx="36.5" cy="36.5" r="36"/>
	<path fill="#FFFFFF" d="M54,41.5L53.3,41c-0.2-0.1-0.4-0.5-0.4-0.7L52.9,39c0-0.6-0.5-1.3-1.1-1.5L50.8,37
		c-0.2-0.1-0.4-0.3-0.4-0.5L50,33.3c-0.1-0.5-0.4-1.2-0.8-1.6l-6.4-5.9c-0.2-0.2-0.6-0.7-0.8-1l-2.2-4c-0.3-0.5-0.9-1-1.5-1.1
		l-0.8-0.2c-0.2,0-0.6-0.3-0.8-0.5l-0.2-0.2c-0.1-0.1-0.1-0.4,0-0.6l0.8-1.5c0.2-0.4,0.2-0.7,0-1c-0.2-0.3-0.5-0.5-0.9-0.5
		l-16.8,0.1c-0.4,0-0.7,0.2-0.9,0.4c-0.2,0.3-0.3,0.6-0.3,1l3.1,19.6c0.1,0.5,0.4,1.2,0.8,1.6l1.1,1.2c0.1,0.1,0.1,0.4,0.1,0.5
		l-1.7,3.4c-0.3,0.5-0.3,1.3,0,1.8l0.5,1c0.1,0.2,0.1,0.6,0.1,0.9l-0.8,2.3c-0.2,0.5-0.1,1.3,0.1,1.8l1.4,2.8c0.3,0.5,0.9,1,1.5,1
		l18.4,1.1c0.2,0,0.4,0.2,0.4,0.3l0.2,0.5c0.2,0.6,0.9,1.1,1.5,1.1l0.1,0c0.4,0,0.7-0.2,0.9-0.4c0.2-0.3,0.3-0.6,0.3-1l-0.3-2.4
		c0-0.1,0.1-0.3,0.2-0.4l0.2-0.1c0.1,0,0.2-0.1,0.4-0.1c0.2,0,0.4,0,0.5,0.1l1.6,0.8c0.2,0.1,0.4,0.1,0.6,0.1c0.5,0,1-0.4,1.1-0.9
		l2-7.4c0.1-0.3,0.3-0.8,0.5-1.1l1.1-1.6C54.8,42.7,54.6,41.9,54,41.5z"/>
</g>
</svg>
