<?xml version="1.0" encoding="utf-8"?>
<!-- Generator: Adobe Illustrator 19.2.1, SVG Export Plug-In . SVG Version: 6.00 Build 0)  -->
<!DOCTYPE svg PUBLIC "-//W3C//DTD SVG 1.1//EN" "http://www.w3.org/Graphics/SVG/1.1/DTD/svg11.dtd">
<svg version="1.1" id="Layer_2" xmlns="http://www.w3.org/2000/svg" xmlns:xlink="http://www.w3.org/1999/xlink" x="0px" y="0px"
	 viewBox="0 0 73 73" enable-background="new 0 0 73 73" xml:space="preserve">
<g>
	<circle fill="#54B3E1" cx="36.5" cy="36.5" r="36"/>
	<g>
		<path fill="#FFFFFF" d="M31.6,27.2c0-0.1-0.1-0.2-0.1-0.2c-0.2-0.1-0.3-0.3-0.1-0.5c0,0,0.1-0.1,0.1-0.1c-0.2,0-0.3-0.1-0.5-0.1
			l-0.1,0.1c0,0,0,0,0,0c-0.2,0-0.6-0.2-0.6-0.5c0.1-0.1,0.1-0.2,0.1-0.3c-0.1-0.1-0.2-0.2-0.3-0.4c0,0-0.6-0.5-0.5-0.9
			c-0.2-0.2-0.3-0.4-0.5-0.6c-0.1-0.1-0.2-0.1-0.3-0.1c-0.2,0.1-0.4,0.2-0.5,0.3c-0.3,0.2-0.4,0.6-0.7,0.8c-0.2,0.2-0.4,0.2-0.6,0.2
			c-0.3,0-0.6,0-1,0c0,0-0.1,0-0.2,0.1c0.1,0.1,0.1,0.1,0.1,0.1c0.3,0.2,0.4,0.4,0.4,0.7c0,0.1,0.1,0.3,0.2,0.4
			c0.1,0.2,0.3,0.3,0.3,0.5c0.1,0.2,0.3,0.3,0.4,0.5c0,0.1,0,0.2,0.1,0.2c0,0.1,0.1,0.3,0.1,0.4c0,0.1,0.2,0.2,0.2,0.1
			c0.3,0,0.6-0.1,0.9-0.2c0,0,0.2-0.1,0.3-0.1c0.1,0,0.2,0,0.2,0c0.1,0.2,0.3,0.1,0.4,0.1c0.2,0.1,0.6,0.3,0.7,0.4
			c0.2,0.2,0.3,0.2,0.5,0.1c0.3-0.2,0.4-0.2,0.7,0c0,0,0.1,0,0.1,0c0.2-0.2,0.4-0.3,0.6-0.5C31.9,27.8,31.5,27.7,31.6,27.2z"/>
		<path fill="#FFFFFF" d="M20.2,21.5c0.1-0.2,0.1-0.4,0.1-0.6c0-0.1-0.1-0.3-0.2-0.4c-0.1-0.2-0.2-0.5-0.6-0.5
			c-0.1,0-0.1-0.1-0.2-0.1c-0.1,0-0.1-0.1-0.2-0.1c-0.3,0.2-0.5,0-0.8,0c-0.1,0-0.1,0.1-0.2,0.2c0,0,0,0.1,0,0.1
			C18,20.1,17.9,20,17.7,20c-0.1,0-0.3,0-0.4,0.1c-0.3,0.2-0.6,0.5-1,0.5c-0.1,0-0.4,0.2-0.4,0.3c-0.1,0.3-0.2,0.5-0.5,0.7
			c-0.1,0.1,0,0.7,0,0.7c0-0.3,0,0,0,0c0,0,0,0,0,0c0,0,0,0,0,0c0,0,0.2,0.4,0.6,0.5c0.2,0,0.6,0.1,0.7,0.3c0.2,0.3,0.5,0.5,0.9,0.5
			c0.1,0,0.3,0.1,0.4,0.1c0.3-0.1,0.5,0,0.7,0.1c0.1,0,0.2,0,0.2,0c0.2-0.1,0.4-0.3,0.6-0.5c0.1-0.1,0.4-0.1,0.4-0.4
			c0.2,0,0.2-0.1,0.1-0.3c0-0.2,0-0.4,0-0.7C20,21.9,20.1,21.7,20.2,21.5z"/>
		<path fill="#FFFFFF" d="M10.9,23.7c0.2-0.3,0.4-0.5,0.8-0.7c0.2-0.1,0.3-0.2,0.4-0.4c0.1-0.3,0.4-0.4,0.6-0.2
			c0.1,0.1,0.1,0.1,0,0.3c-0.2,0.2-0.3,0.4-0.2,0.7c0,0.1,0,0.2-0.1,0.3c0,0-0.1,0-0.1,0c-0.7,0.1-0.8,0.6-1,1.1
			c-0.5-0.1-0.6-0.6-0.4-0.9C10.9,23.9,10.9,23.8,10.9,23.7C11,23.8,10.9,23.8,10.9,23.7z"/>
		<path fill="#FFFFFF" d="M48.9,33.3c-0.4-0.1-0.6-0.4-1-0.3c0,0-0.1,0-0.1,0c-0.1-0.2-0.2-0.3-0.5-0.4c-0.2-0.1-0.4-0.3-0.6-0.5
			c-0.1-0.2-0.3-0.2-0.4-0.2c-0.1,0-0.1,0-0.2,0c-0.2,0-0.4-0.1-0.5,0c-0.4,0.1-0.7,0.3-1.1,0.5c-0.2,0.1-0.4,0.1-0.5-0.1
			c-0.1-0.1-0.1-0.2-0.2-0.3c-0.1-0.1-0.2-0.3-0.3-0.4c-0.2-0.2-0.4-0.3-0.6-0.5c0,0-0.1,0-0.2,0c-0.1,0-0.2,0-0.3,0.1
			c0,0,0,0.1-0.1,0.1c-0.2,0-0.2,0.2-0.3,0.4c-0.1,0.2-0.2,0.4-0.2,0.7c0,0.3,0.2,0.6,0.5,0.9c0.1,0.1,0.2,0.2,0.3,0.3
			c0.3,0.1,0.6,0.2,0.8,0.3c-0.2-0.1-0.4-0.2-0.6-0.3c0.2,0.1,0.4,0.2,0.6,0.3c0,0,0,0,0,0c0.1,0.1,0.2,0,0.3-0.1
			c0.1,0,0.2-0.1,0.3,0c0.1,0,0.2,0.1,0.2,0.2c0.1,0.4,0.1,0.7,0.2,1.1c0,0.2,0,0.3,0,0.5c0.1,0.3,0.3,0.3,0.4,0.4
			c0.5,0.1,1.1,0,1.6-0.3c0.2-0.1,0.4-0.3,0.8-0.2c0.2,0.1,0.5,0.1,0.6-0.2c0,0,0.1,0,0.1,0c0.4,0,0.7-0.3,0.9-0.6
			c0.1-0.1,0.1-0.4,0.2-0.6C49.2,33.6,49.1,33.3,48.9,33.3z"/>
		<path fill="#FFFFFF" d="M41.1,29.3c-0.4,0-0.8,0.2-1.2,0.1c-0.3-0.1-0.4,0-0.6-0.3c0-0.1-0.1-0.1-0.2-0.2C39.1,29,39,29,39,29.1
			c0,0.2-0.1,0.2-0.2,0.1c-0.2,0-0.4,0-0.5-0.1c-0.3,0-0.6-0.1-0.9-0.1c-0.1,0-0.3,0-0.3,0c-0.2-0.2-0.5,0-0.7-0.2
			c0,0-0.1,0-0.1,0.1c0,0,0.1,0,0.1,0.1c0,0,0,0,0,0l0,0v0c0.1,0,0,0,0,0c0,0.1,0,0.3-0.1,0.4c-0.3,0.2-0.4,0.5-0.5,0.8
			c0.1,0,0.2,0.1,0.3,0.1c0.2,0,0.5,0,0.7,0c0.6,0.1,1.2-0.2,1.8-0.1c0,0,0.5,0.2,0.5,0.2c0.2,0.1,0.3,0.1,0.5,0.2
			c0.2,0.1,0.4,0.2,0.6,0.2c0.5-0.1,1-0.3,1.4-0.7c0.2-0.2,0.3-0.4,0.4-0.6C41.5,29.4,41.3,29.3,41.1,29.3z"/>
		<path fill="#FFFFFF" d="M40.5,32.7C40.5,32.7,40.5,32.6,40.5,32.7c0,0-0.6-0.5-0.6-0.5c0,0,0,0,0,0c-0.4,0-0.8-0.1-1.2-0.1
			c-0.1,0-0.3,0.1-0.4,0.3c-0.1,0.2,0,0.4,0.3,0.5c0.3,0.1,0.4,0.3,0.4,0.5c0,0.3,0,0.6,0.3,0.8c0.4-0.1,0.8,0,1.1-0.3
			c0.2-0.1,0.3-0.3,0.4-0.5c0,0,0,0,0,0c0,0,0,0,0,0C40.9,33.2,40.8,32.8,40.5,32.7z"/>
		<path fill="#FFFFFF" d="M43.5,36c0,0,0-0.1,0-0.2c0.1-0.1,0.1-0.2,0-0.3c-0.2-0.3-0.3-0.2-0.6-0.1c-0.2,0.1-0.5,0.3-0.7,0.4
			C42.1,36,42,36.1,42,36.2c-0.1,0.1,0.2,0.4,0.3,0.4c0.3,0,0.9-0.1,0.9-0.1c0,0,0.2-0.1,0.2,0c0.1,0.1,0.2,0,0.3-0.1
			C43.6,36.2,43.5,36.1,43.5,36z M43,36.3c0.1,0,0.1,0.1,0.2,0.1C43.1,36.4,43,36.3,43,36.3z"/>
		<path fill="#FFFFFF" d="M62.2,46.2c-0.1-0.1-0.3-0.1-0.4-0.2c-0.4-0.1-0.7-0.3-0.9-0.7c0,0,0-0.1-0.1-0.1c-0.3,0-0.3-0.2-0.3-0.5
			c0-0.1,0-0.2,0-0.2c0-0.3-0.2-0.5-0.5-0.5c-0.2,0-0.4,0.1-0.6,0.1c0,0,0,0,0-0.1c0-0.3,0-0.7,0-1c0-0.1,0-0.2,0-0.3
			c-0.2-0.2-0.3-0.4-0.6-0.6c-0.5-0.4-1.1-0.9-1.7-1.2c-0.4-0.2-0.8-0.4-1.3-0.6c-0.4-0.2-0.8-0.3-1.1-0.4c-0.1,0-0.3,0-0.4,0
			c-0.1,0-0.1,0-0.2,0c-0.3-0.2-0.6-0.4-0.8-0.5c-0.2-0.1-0.4-0.2-0.5-0.3c-0.1-0.1-0.1-0.2-0.3-0.3c-0.3-0.1-0.6-0.2-0.9-0.3
			c-0.2-0.1-0.4,0-0.5,0.2c-0.3,0.5-0.1,1,0.1,1.5c0.1,0.3,0.4,0.5,0.6,0.8c0.1,0.1,0,0.5,0,0.6c-0.2,0.1-0.3,0.3-0.4,0.4
			c-0.2,0.2-0.3,0.5-0.4,0.8c0,0-0.1,0.1-0.1,0.1c-0.3,0-0.5,0.2-0.6,0.4c-0.2,0.3-0.6,0.5-0.6,1c0,0.1,0,0.1,0,0.2
			c0.1,0.2,0.2,0.4,0.2,0.6c0,0.2,0.1,0.2,0.2,0.2c0.3,0.1,0.3,0.3,0.4,0.5c0.1,0.4,0.2,0.8,0.3,1.2c0.1,0,0.2,0,0.3,0
			c0,0,0,0-0.1,0c0.1,0.3,0.1,0.7,0.3,0.9c0.2,0.3,0.2,0.7,0.2,1c0,0.6-0.2,1.2-0.3,1.7c0,0.1,0.1,0.2,0.1,0.3
			c0.1,0.1,0.1,0.2,0.2,0.4c0.1,0.3,0.2,0.5,0.4,0.5c0.2,0.1,0.5,0.1,0.7,0.2c0,0,0,0,0,0c0.1,0.1,0.3,0.2,0.4,0.3
			c0.2,0.1,0.4,0.2,0.5,0.4c0.1,0.1,0.1,0.1,0.1,0.2c-0.1-0.3-0.1-0.3,0,0c0,0,0,0,0,0c0,0,0.1,0,0.2-0.1c0.3-0.1,0.3-0.5,0.6-0.6
			c0,0,0-0.1,0.1-0.2c0-0.1,0-0.2,0.1-0.3c0.2-0.2,0.4-0.4,0.2-0.7c0,0,0,0,0,0c0.3-0.2,0.4-0.7,0.9-0.7c0.1,0,0.1-0.1,0.2-0.1
			c0.2-0.2,0.4-0.4,0.7-0.5c0.1,0,0.2-0.1,0.3-0.2c0.2-0.2,0.4-0.3,0.6-0.5c0.1-0.1,0.3-0.1,0.4-0.1c0.2,0.1,0.5,0.2,0.7,0
			c0.1-0.1,1.2-0.5,1.5-0.7c0.2-0.1,0.4-0.2,0.6-0.3c0.4-0.3,0.7-0.6,1-0.9c0.3-0.2,0.6-0.5,0.6-0.9C62.3,46.3,62.2,46.2,62.2,46.2z
			"/>
	</g>
</g>
</svg>
