<?xml version="1.0" encoding="utf-8"?>
<!-- Generator: Adobe Illustrator 19.2.1, SVG Export Plug-In . SVG Version: 6.00 Build 0)  -->
<!DOCTYPE svg PUBLIC "-//W3C//DTD SVG 1.1//EN" "http://www.w3.org/Graphics/SVG/1.1/DTD/svg11.dtd">
<svg version="1.1" id="Layer_2" xmlns="http://www.w3.org/2000/svg" xmlns:xlink="http://www.w3.org/1999/xlink" x="0px" y="0px"
	 viewBox="0 0 73 73" enable-background="new 0 0 73 73" xml:space="preserve">
<g>
	<circle fill="#54B3E1" cx="36.5" cy="36.5" r="36"/>
	<path fill="#FFFFFF" d="M50.8,43.8L50.8,43.8l-0.2-0.2l-0.1-0.1l-0.1-0.1l-0.1,0l-0.1,0l0,0l0,0l0,0l0,0l0,0l0-0.1l0,0l0,0l0,0l0,0
		l0,0l0,0l0,0l0-0.1l-0.2-0.3l0-0.1l0,0l-0.2-0.1l-0.1,0l0,0l0,0l-0.1,0.1l0,0l0,0l-0.1,0l0,0l-0.1,0l0,0l0,0l0,0l0,0l0,0l0,0l0,0
		l0,0l0,0l0,0l0,0l0,0l0,0l-0.1,0l0,0l0,0l0,0.1l0,0l0,0.1l0,0l0,0l0,0l0,0l0,0.1l0,0l0,0l0,0l0,0l0,0l0.1,0l0,0l0,0l0,0l0,0l0,0
		l-0.1,0l0,0l0,0l-0.1,0l-0.1-0.1l-0.1,0l-0.5,0l-0.1,0l-0.2,0.1l0,0l-0.1,0l-0.1,0l0,0l-0.1,0l0,0l0,0l0,0l0,0l0,0l0-0.1l0,0l0,0
		l-0.1,0l-0.2,0l0,0l0,0l0,0l0,0l0,0l-0.1,0l-0.1,0l-0.4,0.1l0,0l-0.1,0l-0.1,0l-0.1,0l-0.1,0l-0.1,0l0,0l-0.1-0.1l-0.1,0h0l0,0l0,0
		l0,0l0,0l-0.1,0l-0.1,0l-0.1,0l0,0l0,0l0,0l0,0.2L44.9,44l0,0l0,0l-0.1,0l-0.1,0l0,0l0,0l0,0l0,0l0,0l-0.1,0l-0.1,0l-0.1,0l0,0l0,0
		l0,0l0,0l-0.6-0.1l-0.2,0l-0.1,0l0,0l-0.1,0.1l0,0l-0.1,0l0,0l-0.3,0.3l0,0l0,0l0,0l0,0v0l0,0l0.1,0.1l0,0l0,0l-0.1,0l0,0l0,0
		l-0.1-0.2l0,0l0,0l-0.2-0.1l0,0l0,0l-0.1-0.1l0,0l0,0l-0.1,0l0,0l0,0l0-0.1l0,0l0-0.1l0,0l0,0l0-0.1l0-0.1l0,0l0,0l0,0l-0.1,0l0,0
		l0,0l0-0.1l0,0l0,0l-0.1-0.1l0,0l0,0l0,0l0,0l0,0l0,0l0,0l0,0l0,0l0,0l0,0l0-0.1l-0.1-0.1l0,0l0-0.1l0,0l0,0l0,0l0,0l0,0l0,0l0,0
		l0,0l0,0l0,0l-0.1-0.1l0,0l-0.1-0.1l0,0l-0.1-0.1L41,41.8l-0.1-0.1l-0.1,0l-0.1,0l0,0l0,0l0,0l-0.1,0.1l0,0l0,0l-0.1,0l0,0l0,0
		l0-0.1l0,0l0,0l-0.1,0l-0.2-0.1l-0.1,0l0-0.1l0-0.1l-0.1-0.2l0-0.1l0-0.1l0,0l0,0l0,0l0,0l0,0l0,0l0.1,0l0,0l0,0l0,0l0,0l0-0.2l0,0
		l0,0l0-0.1l0,0l-0.1-0.2l0-0.1l-0.1-0.2l0,0l0-0.1l0-0.1l0,0l-0.2,0l0,0l0,0l0,0l0-0.1l0,0l0,0l0-0.1l0,0l0,0l0,0l0-0.1l0,0l0-0.1
		L39,39.1l-0.1-0.1l-0.1-0.1l-0.1-0.1l0,0l0,0l0-0.1l0,0l0,0l0,0l-0.1-0.1l0,0l0,0l0,0l0-0.1l0,0l0-0.1l0-0.2l0-0.1l0,0l0,0
		l-0.1-0.1l0,0l0-0.1l0,0l0,0l0,0l0,0l0,0l0-0.1l0,0l0,0l0-0.1l0,0l0,0l0,0l0,0L38.1,37l0,0l0,0l0,0l0-0.1l0-0.1l0,0l0-0.1l0,0l0,0
		l0,0l0,0l0,0l0,0l0,0l-0.2-0.1l-0.1,0l0,0l0-0.1l0,0l0,0L37.5,36l-0.2-0.1l-0.1,0l-0.1,0l0,0l0,0l0,0l0,0l0,0l0,0l0,0l0,0l0,0l0,0
		l0,0l0,0l0,0l-0.1,0l0,0l0,0l0,0l0,0l0,0.1l0,0l0,0l0,0l0,0l-0.1,0.1l0,0l0,0l0,0l0,0l0,0l0,0l-0.2,0.1l-0.1,0.1l0,0l0,0l-0.1,0
		l0,0l0,0l0,0l0,0l0,0l0,0l0,0.1l0,0l0,0l0,0l-0.1,0.1l0,0l0,0l-0.1,0l-0.1,0l-0.1,0l0,0l0,0l0,0l-0.2-0.1l0,0l0,0l0,0l0,0l0,0
		L35,36.8l0,0l-0.2,0l-0.1,0l-0.1,0l0,0l0,0l0.1-0.1l0,0l0,0l0,0l0,0l0-0.1l0,0l0,0l0,0l0.1-0.1l0.1-0.1l0,0l0,0l0,0l0,0l0,0l0-0.1
		l0,0l0-0.1l0,0l0,0l-0.1-0.1l0,0l0,0l0-0.1l0-0.1l0,0l0,0l0,0l0,0l0,0l0,0l0,0l0-0.1l0.1-0.1l0-0.1l0,0l0,0l0,0l0,0l0,0l0.2,0l0,0
		l0,0l0,0l0.1-0.1l0,0l0,0l0-0.1l-0.1-0.2l0,0l0,0l0,0l0,0l0,0l0,0l0-0.1l0,0l0,0l0,0l0,0l-0.1,0l-0.1,0l0,0l0,0l0,0l0,0l0,0l0-0.1
		l0,0l0,0l0,0l0,0l0.1-0.1l0,0l0,0l0,0l0,0l0,0l0,0l-0.2-0.2l0,0l0,0l0,0l0,0l0,0l0,0l0,0l0.2,0l0,0l0,0l0,0l0,0l0,0l0,0l0-0.1
		l0-0.1l0,0l0,0l0-0.1l0,0l0,0l0,0l0,0l0,0l0-0.1l0,0l0,0l0-0.1l0,0l0,0l0.1-0.1l0,0l0,0l0,0l0-0.1l0-0.1l0-0.1l0-0.1l0.1-0.2l0,0
		l0,0l0,0l0,0l0,0l0,0l0,0l-0.1-0.1l0,0l0,0l0,0l0,0l0,0l0,0l0.1-0.1l0,0l0,0l0,0l0,0l0,0l0,0l0,0l0,0l0,0l0,0l0,0l0-0.1l0,0l0,0
		l0,0l0,0l0,0l0,0l0,0l0-0.1l0-0.1l0-0.1l0,0l0,0l0,0l0,0l0,0l0,0l0,0l-0.3,0.1l0,0L35,29.4l-0.1,0l0,0l0,0l0,0l-0.1,0l0,0l0,0
		l-0.1,0l-0.1,0l-0.1,0l-0.1,0l-0.1,0l-0.1-0.1l-0.1,0l0,0l0,0l0,0l0,0l0,0l0.1-0.1l0,0l0,0l0-0.1l0,0L34,28.7l0,0l0,0l0,0l0,0l0,0
		l-0.1,0.1L33.7,29l0,0l0,0l0,0l0,0l0,0l0,0l0-0.2l0,0l0,0l0,0l0,0l0,0l-0.1,0l-0.1,0l0,0l-0.1-0.1l-0.1,0l-0.1-0.1l0,0l0,0l0-0.1
		l0-0.1l0-0.1l0-0.1l0,0l0,0l0,0l0,0l0,0l0,0l-0.1-0.1l0,0l0,0l-0.1-0.2l0,0l0,0l-0.1,0l-0.1,0l0,0l0,0l0,0l0,0l0-0.1l0,0l-0.4-0.5
		l-0.1-0.2L31.5,26L31.5,26l-0.1-0.1l0,0l0-0.1l0,0l0,0l0,0l0,0l0,0l0-0.1l0,0l0,0l0,0l0,0l0-0.1l-0.1-0.1l0,0l0,0L30.4,25l-0.2,0
		l-0.1,0l0,0l0,0l0-0.1l0-0.1l-0.1-0.1l-0.2-0.2l0,0l-0.4-0.2L29.1,24L29,24l0,0l0,0l0,0l0,0l0,0l0,0l0,0l0.2,0l0,0l0,0l0,0l0,0l0,0
		l0,0l0,0l-0.1,0l0,0l0,0l0-0.1l0-0.1l0,0L29,23.2l0,0l0,0l0,0l0,0l0.1-0.1l0,0l0,0l0,0l0-0.1l0,0l0-0.1l0-0.1l-0.1-0.2l0-0.1l0-0.2
		l0,0l0,0l0-0.1l0,0L28.8,22l0,0l0,0l0,0l0-0.1l0,0l-0.1-0.1l0,0l0,0l-0.1-0.3l0,0l0-0.1l0,0l-0.1-0.1l0,0l-0.1-0.1l0-0.1l-0.1,0
		l0,0l0,0l0-0.1l-0.1-0.2l-0.1-0.1l-0.1-0.2l-0.1-0.1l0-0.1l0,0c0-2.3,0-4.7,0-7c-1.6,0-3.1,0-4.7,0c0,6,0,11.9,0.1,17.9l-0.1,0.2
		l0,0.1l0,0.1l0.2,0.3l0.2,0.3l0.1,0.1l0.1,0.3l0.1,0.2l0,0.1l0,0.1L23.3,33l-0.1,0.2l0,0.1l0.2,0.3c0,0.1,0.1,0.2,0.1,0.3l0,0.2
		l0.1,0.4l0.3,0.3l0,0.1l0,0.1l0.3,0.1l0,0l0.1,0.1l0.3,0.2l0.2,0l0.1,0.1l0.1,0.1l0.1,0.1l0.1,0.3l0.2,0.3l0,0.1l0,0.1l0,0.1
		l-0.1,0.1l-0.1,0.2l0,0l-0.1,0.2l0,0.1l0,0.1l-0.2,0.3l-0.1,0.2l-0.2,0.2l-0.1,0.1l0,0.1l0,0.3l0,0.1l-0.1,0.1l-0.1,0.4l-0.1,0.3
		l-0.5,0.8l0,0.1l0,0.1l0,0.1l0,0.1l0,0l0,0l0,0.1l-0.1,0.3l0,0.1l-0.1,0.2l-0.3,0.4l-0.1,0.1L23.2,42l-0.3,0.2l-0.1,0.1l-0.1,0.1
		l-0.1,0.3L22.6,43l-0.1,0.1l0,0.3l0,0.1l-0.1,0.1l-0.1,0.1l-0.1,0l-0.1,0l0,0l0,0.1l0,0l0,0l0,0l0,0.2l0,0.1L22,44.4l0,0.2l0,0.1
		l0.1,0.1l0,0.1l0,0.1l0,0.1l0,0.1l0,0.1l0.1,0.1l0.2,0.1l0-0.1l0-0.1l0,0l0.1,0l0.1,0l0,0.1l0,0.1l0,0l0.1,0l0.1,0l0.1,0l0.1,0
		l0.1,0l0,0.1l0,0.1l0,0.1l0,0.1l0,0l0.1,0.1l0.1,0.1l0.1,0.1l0,0.1l0,0l0,0l0,0l0,0.1l0,0.1l0,0.1l0,0.1l-0.1,0l-0.1,0l-0.1,0
		l0,0.1l0,0.1l0.1,0.2l0,0.1l0,0.1l0,0.1l0,0l0,0.1l0,0.3l-0.1,0.2l0,0.2L23.1,48L23,48.1l-0.1,0.1l-0.1,0.1l0,0.1c0,0,0,0,0,0
		l0,0.1c0,3.8,0,7.6,0,11.4c9.4,0,18.7,0,28.1,0c0-5.4,0-10.7,0-16.1L50.8,43.8z"/>
</g>
</svg>
