<?xml version="1.0" encoding="utf-8"?>
<!-- Generator: Adobe Illustrator 19.2.1, SVG Export Plug-In . SVG Version: 6.00 Build 0)  -->
<!DOCTYPE svg PUBLIC "-//W3C//DTD SVG 1.1//EN" "http://www.w3.org/Graphics/SVG/1.1/DTD/svg11.dtd">
<svg version="1.1" id="Layer_2" xmlns="http://www.w3.org/2000/svg" xmlns:xlink="http://www.w3.org/1999/xlink" x="0px" y="0px"
	 viewBox="0 0 73 73" enable-background="new 0 0 73 73" xml:space="preserve">
<g>
	<circle fill="#54B3E1" cx="36.5" cy="36.5" r="36"/>
	<path fill="#FFFFFF" d="M49.6,43.9L48.9,42c-0.1-0.2-0.1-0.7,0-1l0.3-0.7c0.2-0.5,0.4-1.3,0.4-1.9L49.1,21c0-0.6-0.3-1.4-0.5-1.9
		l-1.8-3c-0.1-0.2-0.2-0.7-0.1-1l0.3-1c0.1-0.4,0-0.8-0.2-1.2c-0.2-0.3-0.6-0.5-1.1-0.5l-16.2,0.4c-0.5,0-0.9,0.2-1,0.6
		c-0.2,0.4-0.1,0.8,0.1,1.2l2.3,3.3c0.1,0.1,0,0.2,0,0.3l-4.5,3.5c-0.5,0.4-0.9,1.2-0.9,1.9l0.2,2.6c0,0.3-0.1,0.7-0.3,0.9
		c-0.1,0.1-3.3,3.5-1.4,8.9c1.6,4.5,6.6,8.2,6.8,8.4c0.1,0.1,0.2,0.4,0.2,0.5l-1.1,3.5c-0.2,0.7,0.1,1.6,0.6,2.1l4.6,3.5
		c0.2,0.2,0.5,0.6,0.6,0.9l1.1,4.8c0.1,0.6,0.6,1,1.1,1c0.3,0,0.6-0.1,0.8-0.3l1-0.9c0.1-0.1,0.3-0.2,0.6-0.2c0.1,0,0.1,0,0.2,0
		l1.9,0.6c0.5,0.2,1,0,1.3-0.3c0.2-0.3,0.4-0.6,0.3-1l-0.1-1.3c0-0.1,0.1-0.3,0.2-0.3l1.5-0.4c0.7-0.2,1.3-0.8,1.5-1.5l2.7-9.1
		C49.9,45.3,49.9,44.4,49.6,43.9z"/>
</g>
</svg>
