<?xml version="1.0" encoding="utf-8"?>
<!-- Generator: Adobe Illustrator 19.2.1, SVG Export Plug-In . SVG Version: 6.00 Build 0)  -->
<!DOCTYPE svg PUBLIC "-//W3C//DTD SVG 1.1//EN" "http://www.w3.org/Graphics/SVG/1.1/DTD/svg11.dtd">
<svg version="1.1" id="Layer_2" xmlns="http://www.w3.org/2000/svg" xmlns:xlink="http://www.w3.org/1999/xlink" x="0px" y="0px"
	 viewBox="0 0 73 73" enable-background="new 0 0 73 73" xml:space="preserve">
<g>
	<circle fill="#54B3E1" cx="36.5" cy="36.5" r="36"/>
	<path fill="#FFFFFF" d="M50.2,45.9C50.1,45.9,50.1,45.8,50.2,45.9c0-0.1,0-0.2,0-0.2l0.4-0.3c0.5-0.4,0.9-1.2,0.9-1.9l-0.6-28.9
		c0-0.8-0.7-1.5-1.5-1.5l-14.9,0.2c-0.5,0-1.3,0.2-1.8,0.4l-2.4,1.1c-0.1,0-0.3,0.1-0.5,0.1c-0.2,0-0.3,0-0.4-0.1l-1.5-0.6
		c-0.5-0.2-1-0.1-1.3,0.2c-0.2,0.2-0.3,0.6-0.3,0.9l0.4,32.5c0,0.3-0.2,0.8-0.3,1.1l-3.3,4.7c-0.3,0.4-0.6,1.2-0.7,1.7l-0.6,3
		c-0.1,0.4,0,0.7,0.2,1c0.2,0.2,0.5,0.4,0.8,0.4c0.1,0,0.3,0,0.4-0.1l3.9-1.3c0.2-0.1,0.8-0.1,1,0.1l1.6,0.7
		c0.2,0.1,0.5,0.2,0.7,0.2c0.5,0,1-0.2,1.3-0.5l0.9-0.8c0.1-0.1,0.4-0.2,0.7-0.2c0,0,0.1,0,0.1,0l1.3,0.2c0.1,0,0.2,0,0.3,0
		c0.7,0,1.3-0.4,1.6-1l0.4-0.9c0-0.1,0.2-0.1,0.2-0.1l2.8,0.9c0.2,0,0.3,0.1,0.5,0.1c0.6,0,1.2-0.3,1.5-0.9l0.4-0.8
		c0.2-0.3,0.6-0.8,0.9-1.1l2.2-2.1c0.5-0.5,0.8-1.3,0.6-2l-0.1-0.5l0.1,0c0.3,0.1,0.7,0.1,0.9,0.1c0.4,0,0.7,0,1-0.1l2.7-0.8
		c0.4-0.1,0.7-0.4,0.8-0.8c0.1-0.4,0-0.8-0.3-1.1L50.2,45.9z"/>
</g>
</svg>
