<?xml version="1.0" encoding="utf-8"?>
<!-- Generator: Adobe Illustrator 19.2.1, SVG Export Plug-In . SVG Version: 6.00 Build 0)  -->
<!DOCTYPE svg PUBLIC "-//W3C//DTD SVG 1.1//EN" "http://www.w3.org/Graphics/SVG/1.1/DTD/svg11.dtd">
<svg version="1.1" id="Layer_2" xmlns="http://www.w3.org/2000/svg" xmlns:xlink="http://www.w3.org/1999/xlink" x="0px" y="0px"
	 viewBox="0 0 73 73" enable-background="new 0 0 73 73" xml:space="preserve">
<g>
	<circle fill="#54B3E1" cx="36.5" cy="36.5" r="36"/>
	<path fill="#FFFFFF" d="M58.5,35.3l0-0.1l0-0.1l0-0.1l-0.1,0l-0.1,0l-0.2-0.2L58,34.7l-0.6-0.4l-0.1,0l-0.1,0L57.1,34l-0.2-0.1
		l-0.1-0.2l0-0.5v0.1l-0.1-0.3l-0.2-0.2l-0.6-0.4l-0.2-0.2L55.6,32l-0.1-0.1l-0.2-0.1l-0.1-0.1l0.1-0.2l0.1-0.2l0-0.1L55.3,31
		l-0.2-0.3l-0.1-0.1L55,30.2l-0.1-0.1L54.7,30l-0.2,0l-0.3-0.1L53,29.7l-0.3-0.1l-0.2-0.1l-0.1-0.1l-0.2-0.5l0-0.2l0-0.4l0-0.2
		L52.1,28l-0.2-0.2l-0.1-0.2l0-0.2l0-0.4l0-0.1l0-0.1l0-0.3l-0.1-0.3l0-0.7l0.1-0.3l0.4-0.5l0.1-0.3l0-0.3l-0.2-0.2l-0.6-0.2
		l-0.1-0.1l-0.1-0.1l0-0.3l0-0.1l0-0.1l-0.1-0.2l0-0.1l0-0.1l0-0.1l0-0.1l0,0c-12.2,0-24.3,0-36.5,0l0,0l0,0.1l0,0.1l0,0.1l0,0.1
		l0,0.1l0,0.1l0,0.1l0,0.1l0,0.1l0.1,0.1l0.1,0.1l0.1,0.1l0,0l0,0.1l0,0.5l0,0.2l0,0l0,0l0,0l0,0l-0.1,0l0,0l0,0l0,0.1l0.1,0.1
		l0.1,0l0,0l0,0l0,0l-0.1,0.1l0,0l0,0.1l0,0.1l0,0l0.1,0l0.1,0l0.1,0l0.2,0h0l0.1,0l0,0l0,0l0,0l0,0l0,0.1l0.1,0.4l0,0.1l0,0.1
		l0,0.1l0,0.1l-0.1,0.4l0,0.1l0,0.1l-0.2,0.2l0,0l0,0.1l0,0.1l0,0l0,0l0,0l0,0.1l0,0.1l0,0l0,0l0,0l0,0l0,0.2l0,0.1l0,0.1L15,27.5
		l0,0l0,0.1l0,0.3l0,0.1l0,0l0,0l0,0l0,0l0,0.1l0,0.1l0,0.1l0,0l0,0l-0.1,0l0,0l0,0l0,0l0,0l0,0l0,0.1l0,0l0,0l-0.1,0.2L14.4,29
		l0,0.1l0,0.1l0,0.1l0,0.1l0.1,0.2l0.1,0.1l0.1,0.1l0.4,0.3L15,30l0.1,0.1l0,0l0,0l0,0L15,30.3l0,0l0,0l0,0l0,0l0.1,0.1l0,0l0,0l0,0
		l0,0.1l0,0.1l0,0.1l0,0.1l0,0.1l0,0.1l0,0l0,0.1l0,0.3l0.3,0.1l0.2,0.1l0.1,0.1l0.1,0.4L16,32.4l0,0.4l0.2,0.3l0,0.1l0.1,0.1
		l0.1,0.1l0,0.2l0,0.2l0,0.2l-0.1,0.2l0,0.2l0.1,0.2l0.1,0.1l0.2,0.2l0.1,0.1l0.1,0.2l0,0.2l0,0.2l0,0.2l0.2,0.3l0.3,0.2l0.2,0.2
		l0.1,0.4l0,0.1l-0.1,0.2l0,0.1l0,0.1l0.1,0.2l0,0.1l0.4,0.4l0.1,0.2l0,0.2l-0.1,0.2l0,0.2l0,0.1l0,0.1l0,0L18,38.8l0,0.1l0,0.1
		l0,0.4l0,0.2l0.1,0.2l0.1,0.1l0,0.1l0,0.2l0,0.2l0.1,0.1l0.1,0l0.1-0.1l0.1,0l0.1,0l0.1,0.1l0.1,0.1l0,0l0,0l0,0.1l0,0.1l0,0.1
		l0,0.1l0.1,0.1L19,41l0.1,0l0,0l0,0.1l-0.1,0.4l0,0.1L19,42.2l0.1,0.1l0.3,0.1l0.1,0l0.1,0.1l-0.1,0.2l-0.1,0.2l-0.1,0l-0.1,0.4
		l0,0.1l0.1,0.1l0.3,0.1l0.1,0.1l-0.2,0.1l0,0.1l0,0.3l0,0.1l-0.1,0.3l0,0.1v0.1l0,0l0,0l0,0l0,0l0,0.1l0,0l0,0l0,0.1l0,0.1l0.1,0.1
		l0.1,0.1l0,0.1l0,0.1l0,0.2l0,0.1l0.1,0.2l0,0.2l0,0.2l-0.1,0.2l0,0.2l0,0.1l0.1,0.1l0,0.1l-0.1,0.2l-0.1,0.1l0,0.1l0,0.1l0,0.1
		l0,0.1l0,0.1l0,0.1l0.1,0.1l0.4,0.2l0.1,0.1l0.1,0.2l0,0.2l0,0.1l0,0c9.2-0.1,18.4-0.1,27.6-0.2l0.1,0.1l0,0l0.1,0.1l0,0.1l0,0.1
		l0,0.1l0,0.1l0,0.1l0.1,0l0.1,0l0.2,0.1l0,0l0,0.1l0,0.1l0,0l0,0l0.1,0l0,0l0,0l0,0.1l0,0l0.1,0l0.1,0.1l0.1,0l0,0.1l0,0.1l0,0.1
		l0,0.1l0.1,0.1l0.2,0.3l0.1,0.1l0.2,0.1l0.1,0.1l0.4-0.1l0.1-0.1l0-0.1l0-0.2v-0.2l0-0.3l0-0.2l-0.1-0.1L50,49.3l0-0.1l0-0.1
		l0.1-0.1l0-0.1l0.1-0.2l0.3-0.2l0.3-0.1l0.2-0.1l0.3,0l0.3-0.1l0.2-0.2l0.2-0.3l0.1-0.4l0-0.2l0-0.4l0-0.1l0.1-0.1l0.1-0.2l0.7-0.8
		l0.1-0.3l0-0.4l0-0.4L53,44.2l-0.2-0.3l-0.3-0.3l-0.1,0l-0.1-0.1l-0.1-0.2l0-0.2l0-0.2l0.1-0.4l0.1-0.4l0.1-0.4l0.2-0.3l0.3-0.2
		l2-0.2l0.3-0.1l0.1-0.1l0.3-0.3l0.1-0.1l0.7-0.1l0.3-0.1l0.1-0.1l0.1-0.1l0.1-0.1l0.3-0.2l0.1-0.1l0-0.1l0-0.1l0-0.2l0-0.1l0,0l0,0
		l0.1-0.2l0-0.2l0.1-0.2l0.1-0.2l0.1-0.1l0.1-0.1L58,38l0.1,0l0.1-0.1l0.1-0.2l0.1-0.4l0.1-0.6l0.1-0.3l0-0.4l0-0.1l-0.2-0.4
		L58.5,35.3z"/>
</g>
</svg>
