<?xml version="1.0" encoding="utf-8"?>
<!-- Generator: Adobe Illustrator 19.2.1, SVG Export Plug-In . SVG Version: 6.00 Build 0)  -->
<!DOCTYPE svg PUBLIC "-//W3C//DTD SVG 1.1//EN" "http://www.w3.org/Graphics/SVG/1.1/DTD/svg11.dtd">
<svg version="1.1" id="Layer_2" xmlns="http://www.w3.org/2000/svg" xmlns:xlink="http://www.w3.org/1999/xlink" x="0px" y="0px"
	 viewBox="0 0 73 73" enable-background="new 0 0 73 73" xml:space="preserve">
<g>
	<circle fill="#54B3E1" cx="36.5" cy="36.5" r="36"/>
	<path fill="#FFFFFF" d="M60,32.3c0-0.6-0.4-1.4-0.8-1.8L57.7,29c-0.1-0.1-0.2-0.4-0.1-0.5l0.4-0.9c0.2-0.4,0.2-0.8,0-1.2
		c-0.2-0.4-0.5-0.6-0.9-0.7l-0.7-0.2c-0.3-0.1-0.8-0.4-1-0.5c-0.4-0.4-1.2-0.7-1.8-0.7c-0.1,0-11.4,0.1-18,0.1
		c-6.6,0-20.3-0.4-20.4-0.4l0,0c-0.8,0-1.5,0.6-1.5,1.4l-0.9,21.9c0,0.4,0.1,0.8,0.4,1.1c0.3,0.3,0.6,0.5,1,0.5L35.3,49
		c0.3,0,0.8,0,1.2,0c0.2,0,0.3,0,0.4,0l22-0.1c0.4,0,0.8-0.2,1.1-0.4c0.3-0.3,0.4-0.7,0.4-1.1L60,32.3z"/>
</g>
</svg>
