<?xml version="1.0" encoding="utf-8"?>
<!-- Generator: Adobe Illustrator 19.2.1, SVG Export Plug-In . SVG Version: 6.00 Build 0)  -->
<!DOCTYPE svg PUBLIC "-//W3C//DTD SVG 1.1//EN" "http://www.w3.org/Graphics/SVG/1.1/DTD/svg11.dtd">
<svg version="1.1" id="Layer_2" xmlns="http://www.w3.org/2000/svg" xmlns:xlink="http://www.w3.org/1999/xlink" x="0px" y="0px"
	 viewBox="0 0 73 73" enable-background="new 0 0 73 73" xml:space="preserve">
<g>
	<circle fill="#54B3E1" cx="36.5" cy="36.5" r="36"/>
	<g transform="translate(0,-952.36216)">
		<path fill="#FFFFFF" d="M45.1,975.3c0,0-0.1,0-0.1,0l-3.6,0.9c-0.2,0-0.3,0.2-0.3,0.4v1.9l-2.4,1.2c-0.1,0-0.2,0.1-0.2,0.2l-1,2.1
			l-2.6,1.8c-0.1,0.1-0.1,0.1-0.2,0.2l-0.6,1.9l-2.2,0.2c-0.1,0-0.1,0-0.2,0.1l-1.9,1.2l-1.9-0.2c-0.1,0-0.2,0-0.3,0.1l-1,0.9
			l-2.6-0.7c-0.1,0-0.2,0-0.3,0l-3.7,1.6c-0.1,0-0.1,0.1-0.2,0.2l-0.9,1.3c-0.1,0.1-0.1,0.3-0.1,0.4l0.5,1.3l-2,1
			c-0.2,0.1-0.3,0.3-0.3,0.5l0.2,2l-0.4,0.2l-2.8-0.7c-0.2,0-0.3,0-0.5,0.2l-1.2,1.5c-0.1,0.1-0.1,0.2-0.1,0.3l0.2,2.6l-1.7,1.7
			c-0.2,0.2-0.2,0.5,0,0.6c0.1,0.1,0.2,0.1,0.3,0.1l9.3,0.1c0.2,0,0.4-0.1,0.4-0.4l0.5-2.5l31.1-2.2c0.1,0,0.1,0,0.2-0.1l4.6-2.6
			c0.1,0,0.1-0.1,0.2-0.1l1.5-2.2l3.3-3.6c0.1-0.1,0.1-0.2,0.1-0.3l0.1-1.2c0-0.1,0-0.3-0.1-0.4l-3.6-3.4l-1.6-3.1c0,0,0-0.1,0-0.1
			l-2.1-2.6c-0.1-0.2-0.4-0.2-0.6-0.1l-1.7,1l-1.9-0.3c0,0-0.1,0-0.1,0l-1.9,0.2l-0.4-0.6c-0.1-0.1-0.2-0.2-0.4-0.2h-1.7l-0.7-2.1
			C45.5,975.5,45.3,975.3,45.1,975.3z"/>
	</g>
</g>
</svg>
