<?xml version="1.0" encoding="utf-8"?>
<!-- Generator: Adobe Illustrator 19.2.1, SVG Export Plug-In . SVG Version: 6.00 Build 0)  -->
<!DOCTYPE svg PUBLIC "-//W3C//DTD SVG 1.1//EN" "http://www.w3.org/Graphics/SVG/1.1/DTD/svg11.dtd">
<svg version="1.1" id="Layer_2" xmlns="http://www.w3.org/2000/svg" xmlns:xlink="http://www.w3.org/1999/xlink" x="0px" y="0px"
	 viewBox="0 0 73 73" enable-background="new 0 0 73 73" xml:space="preserve">
<g>
	<circle fill="#54B3E1" cx="36.5" cy="36.5" r="36"/>
	<g transform="translate(0,-952.36216)">
		<path fill="#FFFFFF" d="M37.2,970.7l-11,0.2c0,0,0,0,0,0l-9.5,0.2c0,0-0.1,0-0.1,0l-0.7,0.3c-0.1,0.1-0.2,0.2-0.2,0.3l0.4,7.6
			c0,0,0,0.1,0,0.1l1.1,2.3l0.9,3c0,0,0,0,0,0.1l1.3,2.3l0.6,3.7l-1.5,2.6c0,0.1-0.1,0.2,0,0.3l0.4,1.6l-1,4.5c0,0,0,0.1,0,0.1
			l0.2,1.7c0,0.2,0.2,0.3,0.4,0.3c0,0,0,0,0,0l4.6-0.7l4.6,1.9c0,0,0.1,0,0.1,0l3.3,0.1l1.9,0.6c0.1,0,0.2,0,0.3,0l2-0.9
			c0.2-0.1,0.2-0.3,0.2-0.5c0-0.1-0.1-0.2-0.2-0.2l-2.2-0.5l-0.3-0.7h3.1l1,2.2c0.1,0.1,0.2,0.2,0.3,0.2l1.4,0.1l-0.4,1
			c-0.1,0.2,0,0.4,0.2,0.5l4.7,2.1c0.1,0.1,0.3,0,0.4-0.1l1.4-1.2l1.4-0.7l0.1,1.1c0,0.2,0.2,0.3,0.4,0.3c0.1,0,0.2,0,0.2-0.1
			l1.9-1.7c0.1-0.1,0.1-0.2,0.1-0.3v-1.1h0.7l0.6,1.1c0.1,0.1,0.2,0.2,0.3,0.2H52l1.9,1.4c0.1,0,0.1,0.1,0.2,0.1h1.3
			c0.1,0,0.1,0,0.2-0.1l1.7-1.2c0.2-0.1,0.2-0.3,0.1-0.5c0,0,0,0,0,0l-1.7-1.7c-0.1-0.1-0.1-0.1-0.2-0.1l-3.1-0.4l-0.4-1.1l1.1-0.7
			c0.1,0,0.1-0.1,0.1-0.1l0.8-1.8c0-0.1,0-0.2,0-0.3l-0.7-2.1c-0.1-0.2-0.3-0.3-0.4-0.2c-0.1,0-0.1,0.1-0.2,0.1l-1.2,1.8l-0.8-0.3
			l1.3-1.2c0.1-0.1,0.1-0.3,0.1-0.4l-1.9-3.7v-3.9c0-0.2-0.2-0.3-0.3-0.3c0,0,0,0-0.1,0l-3.9,0.6l-10.1-0.2l0.2-3.5l3.1-6.2
			c0,0,0,0,0-0.1l0.5-1.7c0-0.1,0-0.2-0.1-0.3l-1-1.3l-0.8-2.2v-2.2C37.6,970.9,37.4,970.7,37.2,970.7
			C37.2,970.7,37.2,970.7,37.2,970.7z"/>
	</g>
</g>
</svg>
