<?xml version="1.0" encoding="utf-8"?>
<!-- Generator: Adobe Illustrator 19.2.1, SVG Export Plug-In . SVG Version: 6.00 Build 0)  -->
<!DOCTYPE svg PUBLIC "-//W3C//DTD SVG 1.1//EN" "http://www.w3.org/Graphics/SVG/1.1/DTD/svg11.dtd">
<svg version="1.1" id="Layer_2" xmlns="http://www.w3.org/2000/svg" xmlns:xlink="http://www.w3.org/1999/xlink" x="0px" y="0px"
	 viewBox="0 0 73 73" enable-background="new 0 0 73 73" xml:space="preserve">
<g>
	<circle fill="#54B3E1" cx="36.5" cy="36.5" r="36"/>
	<path fill="#FFFFFF" d="M52.7,39.9l-0.9-2c-0.3-0.7-1-1.1-1.7-1.1c0,0-0.1-0.1-0.1-0.2l-0.6-3.2c-0.1-0.8-0.8-1.4-1.6-1.5l-1-0.2
		c-0.1,0-0.3-0.2-0.3-0.3l-0.5-13.8c0-0.7-0.4-1.5-1-1.9l-2.6-2c-0.3-0.3-0.8-0.4-1.3-0.4c-0.3,0-0.7,0.1-0.9,0.2l-2,1.1
		c-0.2,0.1-0.6,0.2-0.8,0.2c-0.1,0-0.1,0-0.2,0c-0.1,0-0.4-0.3-0.4-0.5l-0.2-0.6c-0.2-0.7-1-1.3-1.8-1.3h-0.3c-0.7,0-1.5,0.4-1.9,1
		l-4.6,7.1c-0.3,0.5-0.6,1.4-0.5,2l0.1,1.8c0,0.4-0.1,1-0.2,1.4l-1,3.4c-0.1,0.3-0.4,0.9-0.6,1.2l-5.2,5.7c-0.4,0.5-0.7,1.3-0.7,2
		L20.6,56c0,0.6,0.3,1.4,0.7,1.9l0.1,0.1c0.2,0.3,0.4,0.8,0.5,1c0.1,0.7,0.7,1.3,1.4,1.5l0.2,0.1c0.2,0,0.3,0.1,0.5,0.1c0,0,0,0,0,0
		c0.7,0,1.3-0.4,1.6-0.9l3.5-6.7c0-0.1,0.2-0.2,0.3-0.1l0.5,0.2c0.2,0.1,0.5,0.1,0.9,0.1c0.5,0,0.9-0.1,1.3-0.3l3.7-2
		c0.6-0.3,1.1-1,1.3-1.7l0.6-2.8c0-0.2,0.3-0.5,0.5-0.5c0,0,0,0,0.1,0c0.2,0,0.4,0.1,0.5,0.2l1.9,2.1c0.3,0.4,0.8,0.6,1.3,0.6
		c0.3,0,0.7-0.1,0.9-0.3l9.6-6.6C52.8,41.6,53.1,40.7,52.7,39.9z"/>
</g>
</svg>
