<?xml version="1.0" encoding="utf-8"?>
<!-- Generator: Adobe Illustrator 19.2.1, SVG Export Plug-In . SVG Version: 6.00 Build 0)  -->
<!DOCTYPE svg PUBLIC "-//W3C//DTD SVG 1.1//EN" "http://www.w3.org/Graphics/SVG/1.1/DTD/svg11.dtd">
<svg version="1.1" id="Layer_2" xmlns="http://www.w3.org/2000/svg" xmlns:xlink="http://www.w3.org/1999/xlink" x="0px" y="0px"
	 viewBox="0 0 73 73" enable-background="new 0 0 73 73" xml:space="preserve">
<g>
	<circle fill="#54B3E1" cx="36.5" cy="36.5" r="36"/>
	<path fill="#FFFFFF" d="M61.5,41.6c-0.2-0.3-0.6-0.5-1.1-0.5l-5.5,0c-0.1,0-0.2-0.1-0.2-0.2l-1.1-16.2c-0.1-0.8-0.8-1.5-1.6-1.5
		l-38.8-0.3c-0.8,0-1.6,0.7-1.6,1.5L11.3,30c0,0.5,0.1,0.8,0.3,0.9c0.2,0.2,0.4,0.3,0.7,0.3c0.3,0,0.6-0.1,0.8-0.4l2.9-2.7
		c0.1-0.1,0.3-0.2,0.5-0.2c0.1,0,0.2,0,0.2,0l0.2,0.1c0.2,0.1,0.4,0.1,0.7,0.1c0.6,0,1.1-0.2,1.5-0.6l1.1-1.1
		c0.1-0.1,0.3-0.2,0.5-0.2c0.1,0,0.1,0,0.2,0l1.9,0.7c0.4,0.1,0.7,0.2,1,0.2c0.4,0,0.8-0.1,1.1-0.2l0.9-0.3c0.1,0,0.2,0,0.3,0
		c0.2,0,0.4,0.1,0.5,0.1l3.6,2.6c0.4,0.3,1.2,0.7,1.7,0.9l0.9,0.3c0.1,0,0.2,0.2,0.2,0.3l-0.1,0.4c-0.1,0.8,0.3,1.6,1,2l5.4,2.8
		c0,0,0,0,0,0c0,0,0,0,0,0L36,40.4c-0.4,0.6-0.6,1.5-0.3,2.1c0.2,0.6,0.8,1,1.4,1c0.2,0,0.3,0,0.5-0.1l0.9-0.3c0,0,0.1,0,0.2,0
		c0.2,0,0.5,0.1,0.6,0.2l2.2,2.1c0.4,0.4,1.1,0.8,1.6,1.1l2.9,1.4c0.5,0.3,1.1,0.2,1.4-0.2c0.1-0.2,0.3-0.5,0.1-1l-2.2-7.9
		c-0.1-0.4-0.1-1-0.1-1.4l0.7-5c0-0.3,0.3-0.8,0.5-1.1l1.5-1.5l-0.4,0.7c-0.3,0.5-0.6,1.3-0.7,1.9l-0.6,5.1c-0.1,0.6,0,1.4,0.2,1.9
		l1.4,4.8c0.2,0.7,0.9,1.2,1.6,1.2c0.1,0,0.2,0,0.3,0l0.4-0.1c0.1,0,0.1,0,0.1,0.1l0.6,3.6c0.1,0.7,0.7,1.3,1.5,1.3
		c0.1,0,0.2,0,0.3,0l5.8-1.3c0.7-0.2,1.4-0.8,1.6-1.4l1.6-4.5C61.8,42.4,61.7,41.9,61.5,41.6z"/>
</g>
</svg>
