<?xml version="1.0" encoding="utf-8"?>
<!-- Generator: Adobe Illustrator 19.2.1, SVG Export Plug-In . SVG Version: 6.00 Build 0)  -->
<!DOCTYPE svg PUBLIC "-//W3C//DTD SVG 1.1//EN" "http://www.w3.org/Graphics/SVG/1.1/DTD/svg11.dtd">
<svg version="1.1" id="Layer_2" xmlns="http://www.w3.org/2000/svg" xmlns:xlink="http://www.w3.org/1999/xlink" x="0px" y="0px"
	 viewBox="0 0 73 73" enable-background="new 0 0 73 73" xml:space="preserve">
<g>
	<circle fill="#54B3E1" cx="36.5" cy="36.5" r="36"/>
	<g>
		<path fill="#FFFFFF" d="M61.7,41.6l-0.2-1.7c-0.1-0.5-0.3-1.3-0.7-1.8L60.2,37c-0.3-0.5-1-1-1.5-1.2l-0.3-0.1
			c-0.2-0.1-0.5-0.1-0.7-0.1c-0.6,0-0.8,0.4-0.8,0.5c-0.1,0.3,0,0.5,0.1,0.7c0.1,0.1,0.2,0.2,0.4,0.2c0.1,0,0.4,0.1,0.8,0.3
			c0.3,0.1,0.5,0.5,0.6,0.8l0.1,0.6c0.1,0.9,0.5,1,0.7,1c0,0,0,0.1,0,0.1l0.1,0.5c0,0.3-0.2,0.6-0.4,0.7l-1.1,0.4
			c-0.4,0.2-1,0.5-1.3,0.7c-0.1,0-0.1,0.1-0.2,0.1c-0.3-0.2-0.9-0.4-1.2-0.4l-0.9-0.2c-0.4-0.1-0.9-0.4-1-0.6
			c-0.1-0.2-0.2-0.4-0.2-0.5c0.1-0.4-0.2-1.2-0.3-1.4l0-0.1c-0.3-0.7-0.6-1-1-1h0c-0.1,0-0.3-0.2-0.6-0.4l-0.1-0.1
			c-0.2-0.2-0.2-0.5-0.1-0.7l0.1-0.1c0.4-0.6,0.3-1.4-0.1-1.9l-1.8-2c-0.4-0.5-1.1-0.8-1.7-0.8c-0.4,0-0.7-0.2-0.8-0.3
			c-0.1-0.1-0.1-0.3,0-0.5c0.2-0.3,0.3-0.9,0.2-1.3c0-0.1,0.1-0.3,0.4-0.5l0.8-0.6c0.3-0.3,0.6-0.6,0.6-1c0-0.1,0-0.3,0-0.4
			c0,0,0.1-0.1,0.2-0.1l1.6-0.6c0.6-0.2,1.1-0.8,1.2-1.4c0-0.3,0-0.6-0.2-0.8c-0.2-0.2-0.5-0.3-0.8-0.2c0,0-0.1,0-0.2,0
			c-0.2,0-0.4-0.1-0.5-0.1c-0.2-0.1-0.4-0.5-0.5-0.9L49.3,22c-0.1-0.7-0.8-1.2-1.5-1.2l-0.7,0c-0.6,0-1.3,0.4-1.7,0.7
			c-0.2,0.2-0.6,0.4-0.9,0.4c-0.6,0-1.2,0.5-1.2,1c0,0.1-0.1,0.2-0.1,0.2h0c-0.4,0-0.9,0.2-1.1,0.6c-0.1,0.1-0.4,0.2-0.7,0.2
			c0,0,0,0-0.1,0l-25.5-1.1c-0.7,0-1.4,0.5-1.5,1.1l-3,11.3c-0.1,0.4,0,0.7,0.2,1c0.2,0.3,0.5,0.4,0.9,0.5l7.8,0.4
			c0.2,0,0.3,0,0.4,0.1c0.1,0.4,0.4,0.7,0.8,0.8c0.1,0,0.1,0,0.2,0c0.4,0,0.8-0.3,0.8-0.7c0.1,0,0.2-0.1,0.4-0.1l17.4,0.4
			c0.2,0,0.4,0.2,0.4,0.4v0.6c0,0.7,0.3,1.2,0.7,1.3c0,0.1,0.1,0.2,0.1,0.4l0,0.3c0,0.7,0.4,1.4,0.9,1.6c0.3,0.1,0.6,0.5,0.7,0.8
			c0.1,0.5,0.5,1,0.9,1.1c0,0.1,0.1,0.2,0.2,0.5l0.1,1.2c0.1,0.6,0.6,1.1,1.2,1.1c0.1,0,0.2,0,0.3,0l1-0.2c0.7-0.2,1.2-0.6,1.1-1.1
			c0-0.1,0-0.3,0.1-0.4c0-0.1,0.3-0.2,0.6-0.2c0.5,0,1.2-0.5,1.5-1l0.3-0.5c0.2-0.3,0.4-0.4,0.5-0.4c0.1,0,0.2,0.2,0.2,0.5l0,1.3
			c0,0.4-0.3,0.9-0.5,1.1l-0.5,0.4c-0.3,0.3-0.9,0.7-1.3,0.9l-0.8,0.4c-0.3,0.1-0.6,0.3-0.5,0.7c0,0.2,0.2,0.4,0.5,0.4
			c0.1,0,0.2,0,0.4-0.1l0.7-0.2c0.5-0.1,1.2-0.5,1.7-0.8l1-0.7c0.3-0.2,0.9-0.4,1.3-0.5l0.2,0c0.6,0,1.4-0.4,1.8-0.8l0.4-0.4
			c0.3-0.3,0.8-0.6,1.2-0.6l3.4-0.5c0.2,0,0.4,0,0.5,0c0,0.1,0,0.4-0.1,0.6c-0.3,1-0.2,1.3,0,1.4l0.1,0.1h0.2c0.3,0,0.5-0.2,0.8-1
			l0.1-0.2c0.2-0.5,0.4-1.2,0.4-1.7C61.8,42.9,61.8,42.1,61.7,41.6z"/>
		<path fill="#FFFFFF" d="M54,48.9c-0.1,0-0.1,0-0.2,0.1c-0.1,0.1-0.3,0.3-0.3,0.4c0,0,0,0,0,0c-0.1,0-0.2-0.1-0.3-0.2
			C53.2,49.2,53,49,53,48.7c-0.1-0.3-0.4-0.7-0.6-0.8c-0.1,0-0.2-0.1-0.3-0.1c-0.3,0-0.7,0.2-1,0.4L51,48.4
			c-0.4,0.3-0.9,0.9-1.2,1.3c-0.2,0.3-0.4,0.5-0.5,0.5c-0.1,0-0.3-0.1-0.4,0c-0.1,0-0.2,0.1-0.2,0.2c-0.1,0.2,0,0.4,0.1,0.5
			c0.1,0.2,0.4,0.4,0.6,0.5c0.1,0,0.1,0,0.2,0c0.2,0,0.4-0.1,0.5-0.2c0.1-0.1,0.4-0.2,0.9-0.3l0,0c0.5-0.1,1.2-0.2,1.7-0.2l0.8,0
			c0.6,0,1.1-0.4,1.1-0.9C54.4,49.2,54.2,48.9,54,48.9z"/>
		<path fill="#FFFFFF" d="M60.5,49.9c-0.3-0.5-0.4-0.5-0.6-0.5c-0.1,0-0.1,0-0.2,0.1c-0.1,0.1-0.1,0.2-0.1,0.3c0,0.2,0,0.5-0.1,0.7
			c0,0.1-0.4,0.3-0.9,0.4c-0.2,0-0.4,0-0.7,0c-0.3,0-0.5,0-0.7-0.1c-0.1,0-0.2,0-0.2,0c-0.2,0-0.3,0.1-0.3,0.2
			c-0.1,0.2,0.1,0.4,0.3,0.5c0.4,0.3,1,0.5,1.4,0.6c0.4,0.1,1.1,0.1,1.5,0.1h0c0.5,0,1-0.2,1.1-0.5c0.1-0.3-0.2-0.9-0.4-1.3
			L60.5,49.9z M60.1,52L60.1,52L60.1,52L60.1,52z"/>
	</g>
</g>
</svg>
