<?xml version="1.0" encoding="utf-8"?>
<!-- Generator: Adobe Illustrator 19.2.1, SVG Export Plug-In . SVG Version: 6.00 Build 0)  -->
<!DOCTYPE svg PUBLIC "-//W3C//DTD SVG 1.1//EN" "http://www.w3.org/Graphics/SVG/1.1/DTD/svg11.dtd">
<svg version="1.1" id="Layer_2" xmlns="http://www.w3.org/2000/svg" xmlns:xlink="http://www.w3.org/1999/xlink" x="0px" y="0px"
	 viewBox="0 0 73 73" enable-background="new 0 0 73 73" xml:space="preserve">
<g>
	<circle fill="#54B3E1" cx="36.5" cy="36.5" r="36"/>
	<g>
		<g>
			<path fill="#FFFFFF" d="M59.2,47.3c-0.3-0.6-1.8-3.7-2.1-5.2c-0.3-1.6-1.8-2.6-2.4-2.4c-0.6,0.2-2.4,3.2-3.6,3.3
				c-1.2,0.1-2.4-1-2.3-2.3c0.1-1,1.3-1.4,1.9-1.6c0.2-0.1,0.3-0.2,0.3-0.4c0.1-0.5,0.2-1.5,0.6-1.8c0.6-0.5,0.8-2.1,0.1-3.2
				c-0.8-1.1,0.3-2.1,0.3-2.1s0.9-1.2-1.2-1.8c-2.1-0.6-4.3-1.7-4.9-2.4c-0.5-0.8-2.2,0-2.2,0s-1.9,0.7-1.5,1.4s1.5,2.3,0.3,2
				c-1-0.2-1.4,1.2-1.5,1.7c0,0.1,0,0.1,0,0.2c0.1,0.5,0.4,2.6-0.4,2.8c-0.7,0.2-1.8-0.5-2.2-2c-0.1-0.4-0.7-0.5-0.9-0.1
				c-0.9,2.2-1,3.4-0.9,3.7c0,0.1,0,0.2-0.1,0.3c-0.4,0.6-1.7,2.8-1.6,3.8c0.2,1.2-0.6,2.9,0.1,4c0.7,1,4.1,8,0.2,12.7
				c-0.3,0.3,0,0.8,0.4,0.8l9.9-0.4c0.3,0,0.5,0.2,0.5,0.5c0,0.3,0.2,0.5,0.5,0.5h6.7c0.2,0,0.4-0.2,0.4-0.3l1.2-5
				c0.3-1.1,1.1-4.4,2.3-4.1c1.2,0.3,1.2,1.5,1.6,1c0.4-0.4,0.4-2.6,0.4-3.1C59.3,47.4,59.2,47.3,59.2,47.3z"/>
			<path fill="#FFFFFF" d="M38.5,25.4c1.7-0.1,1.2-1.2,2.7-1.1c1.5,0.1,1.7,1.5,2.9,0.9c1.2-0.5,1.9-0.8,3.8-0.5
				c1.8,0.3,0.7-2.1,0.5-2.3v-0.1L47.9,21c-0.1-0.3-0.4-0.4-0.6-0.3c-0.9,0.3-2.6,0.9-3.2-0.2c-0.8-1.5-2-3-2.7-2.2
				s-0.7,2.1-2.4,2.1c-1.8-0.1-2.8,0-3.5,0.8c-0.7,0.8-2.1,1.1-3,0.7c-0.9-0.4-0.9,1.2-2.3-0.9s-1.6-2.6-2.7-2.5
				c-1,0.1-3.3-0.5-1.6-1.7c1.8-1.2,4.3-2.9,2.3-2.7c-2,0.2-4.9,1.1-5.6,2.4s-2.3,2.4-4.6,2.8c-2.2,0.4-7.1,2.7-2.3,4.3
				c4.2,1.4,6.8,2.2,7.3,2.3c0.1,0,0.2,0,0.2,0c0.8-0.2,5.1-1.1,4.3,1.1c-0.9,2.4-2.1,3.5-0.8,3.6c1.2,0.2,0.5,2.7,2.2,1.6
				c0.1-0.1,0.2-0.2,0.2-0.3c0.3-0.9,1.6-5.1,2.8-4.7c1.5,0.5,2,0.8,3-0.3C36,25.8,36.8,25.5,38.5,25.4z"/>
		</g>
	</g>
</g>
</svg>
