<?xml version="1.0" encoding="utf-8"?>
<!-- Generator: Adobe Illustrator 19.2.1, SVG Export Plug-In . SVG Version: 6.00 Build 0)  -->
<!DOCTYPE svg PUBLIC "-//W3C//DTD SVG 1.1//EN" "http://www.w3.org/Graphics/SVG/1.1/DTD/svg11.dtd">
<svg version="1.1" id="Layer_2" xmlns="http://www.w3.org/2000/svg" xmlns:xlink="http://www.w3.org/1999/xlink" x="0px" y="0px"
	 viewBox="0 0 73 73" enable-background="new 0 0 73 73" xml:space="preserve">
<g>
	<circle fill="#54B3E1" cx="36.5" cy="36.5" r="36"/>
	<g transform="translate(0,-952.36216)">
		<path fill="#FFFFFF" d="M39.1,971.2l-22,1.1c-0.2,0-0.3,0.2-0.3,0.4c0,0,0,0,0,0l0.2,1.6c0,0.1,0,0.1,0.1,0.2l2.4,2.9
			c0,0,0.1,0.1,0.1,0.1l1.3,0.8l-0.5,2c0,0.1,0,0.2,0,0.3l2,2.9l0.3,8.1v11.5c0,0.2,0.1,0.3,0.3,0.3c0,0,0,0,0,0l26.6-1.2l0.2,1.9
			l-0.8,1.1c0,0-0.1,0.1-0.1,0.1l-0.2,1.1c0,0.2,0.1,0.4,0.3,0.4c0,0,0.1,0,0.1,0l3.5-0.3c0.1,0,0.3-0.1,0.3-0.3l0.9-3.9l2.3-1.3
			c0.1-0.1,0.2-0.2,0.2-0.3v-2c0-0.1-0.1-0.2-0.1-0.3l-2.2-1.5l-0.4-1.7l-0.6-2.8c0-0.1-0.1-0.2-0.2-0.2l-4.1-1.5l-0.9-1.8l1.6-4.5
			c0.1-0.2,0-0.4-0.2-0.4c0,0-0.1,0-0.1,0l-3.4-0.1l0.2-1.3c0-0.1,0-0.2-0.1-0.3l-3.7-3.1l-1.2-3v-2.1c0-0.1,0-0.1,0-0.2l-1.3-2.2
			C39.4,971.2,39.3,971.2,39.1,971.2C39.1,971.2,39.1,971.2,39.1,971.2z"/>
	</g>
</g>
</svg>
