<?xml version="1.0" encoding="utf-8"?>
<!-- Generator: Adobe Illustrator 19.2.1, SVG Export Plug-In . SVG Version: 6.00 Build 0)  -->
<!DOCTYPE svg PUBLIC "-//W3C//DTD SVG 1.1//EN" "http://www.w3.org/Graphics/SVG/1.1/DTD/svg11.dtd">
<svg version="1.1" id="Layer_2" xmlns="http://www.w3.org/2000/svg" xmlns:xlink="http://www.w3.org/1999/xlink" x="0px" y="0px"
	 viewBox="0 0 73 73" enable-background="new 0 0 73 73" xml:space="preserve">
<g>
	<circle fill="#54B3E1" cx="36.5" cy="36.5" r="36"/>
	<path fill="#FFFFFF" d="M56.4,47.4l-1.3-18.4c-0.1-0.7-0.7-1.3-1.4-1.3l-17,0.1h-0.2c-0.4,0-0.9,0-1.3,0l-20.3-0.6h0
		c-0.4,0-0.7,0.2-1,0.4c-0.2,0.3-0.3,0.6-0.3,1l0.9,6.4c0.1,0.6,0.5,1.3,0.9,1.6l3.2,2.9c0.2,0.1,0.3,0.5,0.2,0.7l-0.7,4.5
		c-0.1,0.4,0,0.7,0.3,1c0.3,0.3,0.7,0.4,1.1,0.4l0.7-0.1c0.2,0,0.4,0.1,0.4,0.2l2.7,5.3c0.3,0.6,0.9,1,1.6,1c0,0,0.1,0,0.1,0
		l4.8-0.4c0.7-0.1,1.3-0.6,1.4-1.3l0.1-0.6c0-0.1,0.2-0.2,0.3-0.2l23.7-0.9c0.4,0,0.7-0.2,1-0.5C56.4,48.1,56.5,47.7,56.4,47.4z"/>
</g>
</svg>
