<?xml version="1.0" encoding="utf-8"?>
<!-- Generator: Adobe Illustrator 19.2.1, SVG Export Plug-In . SVG Version: 6.00 Build 0)  -->
<!DOCTYPE svg PUBLIC "-//W3C//DTD SVG 1.1//EN" "http://www.w3.org/Graphics/SVG/1.1/DTD/svg11.dtd">
<svg version="1.1" id="Layer_2" xmlns="http://www.w3.org/2000/svg" xmlns:xlink="http://www.w3.org/1999/xlink" x="0px" y="0px"
	 viewBox="0 0 73 73" enable-background="new 0 0 73 73" xml:space="preserve">
<g>
	<circle fill="#54B3E1" cx="36.5" cy="36.5" r="36"/>
	<path fill="#FFFFFF" d="M59.7,45.4l-2.2-3.6c-0.2-0.4-0.5-1-0.6-1.4l-2.7-9.8c-0.2-0.6-0.7-1.3-1.3-1.7l-2-1.3
		c-0.5-0.3-1.4-0.6-2-0.5l-3,0.1h0c-0.4,0-0.9-0.2-1.2-0.3l-1.1-0.7c-0.5-0.3-1.4-0.5-2-0.6l-26.4-0.4h0c-0.8,0-1.5,0.7-1.6,1.5
		l-0.5,12.1c0,0.4,0.1,0.8,0.4,1.1c0.3,0.3,0.7,0.5,1.1,0.5l8.6,0.3c0.1,0,0.2,0.1,0.2,0.2v5.3c0,0.8,0.7,1.5,1.5,1.5l33.8-0.6
		c0.5,0,0.9-0.2,1.1-0.6C60,46.2,59.9,45.8,59.7,45.4z"/>
</g>
</svg>
