<?xml version="1.0" encoding="utf-8"?>
<!-- Generator: Adobe Illustrator 19.2.1, SVG Export Plug-In . SVG Version: 6.00 Build 0)  -->
<!DOCTYPE svg PUBLIC "-//W3C//DTD SVG 1.1//EN" "http://www.w3.org/Graphics/SVG/1.1/DTD/svg11.dtd">
<svg version="1.1" id="Layer_2" xmlns="http://www.w3.org/2000/svg" xmlns:xlink="http://www.w3.org/1999/xlink" x="0px" y="0px"
	 viewBox="0 0 73 73" enable-background="new 0 0 73 73" xml:space="preserve">
<g>
	<circle fill="#54B3E1" cx="36.5" cy="36.5" r="36"/>
	<path fill="#FFFFFF" d="M44.5,27.4c0-0.2,0.3-0.3,0.4-0.3l0.1,0c0.7,0,1.5-0.6,1.8-1.3l2.2-5c0.3-0.8,0-1.7-0.7-2.2l-10.2-6.4
		c-0.3-0.2-0.7-0.3-1.1-0.3c-0.4,0-0.8,0.1-1.2,0.3l-1.5,1c-0.5,0.4-1.1,1.1-1.2,1.8l-0.1,0.5c-0.1,0.3-0.4,0.8-0.6,1l-2.1,1.8
		c-0.6,0.5-0.8,1.5-0.4,2.2l0.7,1.3c0.1,0.1,0,0.4-0.1,0.5l-1.1,1.1c-0.5,0.5-0.8,1.4-0.8,2l0.3,3c0.1,0.7,0.6,1.5,1.2,1.9l1.3,0.7
		c0.3,0.2,0.8,0.6,1.1,0.9l3,3.9c0,0,0,0,0,0.1c0,0,0,0,0,0.1L27,41.5c-0.5,0.3-1.1,1-1.3,1.6L24,47.9c-0.3,0.7-0.1,1.6,0.4,2.2
		l4,4.6c0.4,0.5,1.2,0.9,1.9,1l2.8,0.4l-1,2.8c-0.3,0.8,0.1,1.7,0.9,2c0.2,0.1,0.4,0.1,0.6,0.1c0.6,0,1.2-0.3,1.5-0.7l6-7.3
		c0.3-0.4,0.8-1.1,1.1-1.5l3.9-6.5c0.3-0.5,0.6-1.3,0.7-1.9l1.6-10.9c0.1-0.8-0.4-1.7-1.2-1.9l-2.8-0.9c-0.1,0-0.2-0.1-0.1-0.2
		L44.5,27.4z"/>
</g>
</svg>
