<?xml version="1.0" encoding="utf-8"?>
<!-- Generator: Adobe Illustrator 19.2.1, SVG Export Plug-In . SVG Version: 6.00 Build 0)  -->
<!DOCTYPE svg PUBLIC "-//W3C//DTD SVG 1.1//EN" "http://www.w3.org/Graphics/SVG/1.1/DTD/svg11.dtd">
<svg version="1.1" id="Layer_2" xmlns="http://www.w3.org/2000/svg" xmlns:xlink="http://www.w3.org/1999/xlink" x="0px" y="0px"
	 viewBox="0 0 73 73" enable-background="new 0 0 73 73" xml:space="preserve">
<g>
	<circle fill="#54B3E1" cx="36.5" cy="36.5" r="36"/>
	<path fill="#FFFFFF" d="M46.7,52.2c2.5,0.7,2.6,0.9,1.4,3.2c-0.2,0.4-0.3,1-0.5,1.5c-2.3-0.9-3.9,0.6-5.5,1.8
		c-0.5,0.4-1.1,0.9-1.7,0.9c-4.4,0-8.8-0.3-13.2-0.2c-3.1,0-3.6-2.7-2.5-5.1c0.4-0.8,0.3-1.8,0.6-2.6c1-3.7,0.3-7.9,3-11.1
		c0.3-0.4,0.4-1,0.6-1.6c0.4-1.1,1-2.1,1.3-3.3c0.3-1.1,0.2-2.2,0.5-3.3c0.2-0.7,0.7-1.6,1.3-2c1.1-0.7,2.4-1,3.6-1.5
		c1.1-0.5,2.1-3,1.4-3.9c-1-1.2-0.1-2.2,0-3.3c0.1-0.7,0.2-1.3,0.4-2c0.2-0.9,0.5-1.8,0.9-2.6c0.4-0.9,0.8-1.8,1.4-3
		c0.6-0.3,1.5-1.3,2.8-0.3c0.3,0.2,1-0.1,1.6-0.3c0.1,1.3,0.2,2.6,0.2,4c0.5,9.5,0.9,19,1.4,28.5c0.1,1,0.7,2.1,1.4,3
		C48.2,50.5,48.2,51.3,46.7,52.2z"/>
</g>
</svg>
