<?xml version="1.0" encoding="utf-8"?>
<!-- Generator: Adobe Illustrator 19.2.1, SVG Export Plug-In . SVG Version: 6.00 Build 0)  -->
<!DOCTYPE svg PUBLIC "-//W3C//DTD SVG 1.1//EN" "http://www.w3.org/Graphics/SVG/1.1/DTD/svg11.dtd">
<svg version="1.1" id="Layer_2" xmlns="http://www.w3.org/2000/svg" xmlns:xlink="http://www.w3.org/1999/xlink" x="0px" y="0px"
	 viewBox="0 0 73 73" enable-background="new 0 0 73 73" xml:space="preserve">
<g>
	<circle fill="#54B3E1" cx="36.5" cy="36.5" r="36"/>
	<path fill="#FFFFFF" d="M54.7,17.8c0-0.6-0.4-1.1-1-1.1c-0.2,0-0.3,0-0.5,0.1l-4.5,1.9c-0.4,0.2-1,0.5-1.3,0.7l-3.2,2.2
		c-0.1,0.1-0.3,0.1-0.5,0.1c-0.1,0-0.2,0-0.2,0l-0.7-0.2c-0.2-0.1-0.4-0.1-0.7-0.1c-0.4,0-0.8,0.1-1.1,0.2l-2.5,1.3c0,0-0.1,0-0.2,0
		c-0.1,0-0.3-0.1-0.3-0.1L37,22c-0.4-0.4-1.1-0.6-1.5-0.5c0,0,0,0-0.1,0c-0.2,0-0.5-0.1-0.7-0.2l-3.4-1.6c-0.4-0.2-1.1-0.4-1.6-0.4
		l-9.6,0.2c-0.7,0-1.3,0.6-1.3,1.3l-0.8,26.1c0,0.7,0.5,1.3,1.1,1.4l1.9,0.4c0.2,0.1,0.6,0.3,0.7,0.5l1,1.7c0.3,0.5,0.9,0.9,1.4,1.1
		l6.3,1.9c0.3,0.1,0.6,0.1,0.7,0.1c0.4,0,0.7-0.1,1-0.2l2.5-0.9c0,0,0,0,0.1,0c0.1,0,0.2,0.1,0.3,0.1l1.6,2.3
		c0.3,0.5,0.9,0.8,1.5,0.8c0.1,0,0.1,0,0.2,0l0.9-0.1c0.6-0.1,1.2-0.5,1.4-1.1l0.6-1.7c0.1-0.3,0.4-0.9,0.6-1.2l0.9-1.5
		c0.2,0.3,0.5,0.5,0.8,0.5c0.3,0,0.5-0.1,0.7-0.4c0.2-0.3,0.5-0.9,0.6-1.3L45,48c0.1-0.2,0.3-0.6,0.5-0.7l6-4.1
		c0.4-0.3,0.9-0.9,1-1.4l2.3-9.3c0.1-0.4,0.2-1.1,0.2-1.5L54.7,17.8z"/>
</g>
</svg>
