<?xml version="1.0" encoding="utf-8"?>
<!-- Generator: Adobe Illustrator 19.2.1, SVG Export Plug-In . SVG Version: 6.00 Build 0)  -->
<!DOCTYPE svg PUBLIC "-//W3C//DTD SVG 1.1//EN" "http://www.w3.org/Graphics/SVG/1.1/DTD/svg11.dtd">
<svg version="1.1" id="Layer_2" xmlns="http://www.w3.org/2000/svg" xmlns:xlink="http://www.w3.org/1999/xlink" x="0px" y="0px"
	 viewBox="0 0 73 73" enable-background="new 0 0 73 73" xml:space="preserve">
<g>
	<circle fill="#54B3E1" cx="36.5" cy="36.5" r="36"/>
	<path fill="#FFFFFF" d="M57.5,26.9c0.2-0.6,0-1.4-0.4-1.9l-1.6-1.8c-0.4-0.4-1.1-0.8-1.7-0.8l-9.2,0.2c-0.5,0-1.2,0.1-1.6,0.2
		l-8.5,2.4c-0.3,0.1-0.9,0.2-1.3,0.1l-2.7-0.1c-0.5,0-1.2,0.1-1.7,0.2l-0.5,0.2c-0.2,0.1-0.7,0.1-1,0l-0.7-0.3
		c-0.2-0.1-0.5-0.4-0.6-0.6l-0.7-2c-0.2-0.6-0.9-1.1-1.5-1.2l-0.1,0c-0.3,0-0.5-0.2-0.6-0.2c-0.2-0.3-0.7-0.5-1.2-0.5
		c-0.2,0-0.3,0-0.5,0.1l-1.1,0.3c-0.6,0.2-1.2,0.8-1.2,1.5l-1.6,15.2c0,0.4-0.2,1-0.3,1.3l-1.8,5.5c-0.2,0.5-0.1,1.3,0.1,1.8
		l0.1,0.2c0.1,0.3,0.3,0.9,0.3,1.2l0.2,2.6c0.1,0.7,0.7,1.3,1.4,1.3l36.9,0.4h0c0.7,0,1.4-0.6,1.4-1.3l0.3-13.9c0-0.6-0.4-1.4-1-1.7
		l-0.4-0.2c-0.1,0-0.2-0.2-0.1-0.3L57.5,26.9z"/>
</g>
</svg>
