<svg xmlns="http://www.w3.org/2000/svg" xmlns:xlink="http://www.w3.org/1999/xlink" version="1.1" id="Layer_1" x="0px" y="0px" viewBox="0 0 60 60" enable-background="new 0 0 60 60" xml:space="preserve">
  <path fill="#67aee7" d="M30 0C13.4 0 0 13.4 0 30s13.4 30 30 30 30-13.4 30-30S46.6 0 30 0zM48.8 37.1c-0.1 0.1-0.1 0-0.2 0.1 -0.1 0-0.1 0-0.2 0 -0.1 0.1-0.1 0.2-0.2 0.3 -0.1 0.1-0.3 0.1-0.5 0.2 -0.2 0.1-0.3 0.3-0.5 0.4 -0.1 0-0.1 0.1-0.2 0.1 -0.1 0.1-0.1 0.1-0.2 0.2 -0.1 0.1-0.3 0.1-0.4 0.3 -0.1 0.1 0 0.2 0 0.4 0 0.2-0.1 0.2-0.3 0.3 -0.2 0.1-0.4 0.2-0.6 0.3 -0.2 0-0.3 0-0.5 0.1 -0.1 0.1-0.2 0.2-0.4 0.3 -0.1 0.1-0.2 0-0.3-0.1 -0.1 0-0.1-0.1-0.2-0.1 -0.5-0.2-1-0.1-1.4 0.2 -0.1 0.1-0.2 0.2-0.3 0.3 0 0.1-0.1 0.1-0.1 0.2 -0.1 0.2-0.1 0.2-0.3 0.2 -1.3 0.1-2.6 0.1-3.9 0.1 -2.4 0-4.8 0.1-7.1 0.1 -2.4 0-4.7 0-7.1 0 -2.5-0.1-5.1 0-7.6-0.1 -1.3 0-2.6-0.1-3.8-0.1 -0.3 0-0.7 0-1 0 -0.1 0-0.4 0-0.4 0 -0.1-0.1 0-0.5 0-0.6 0-0.6 0-1.3 0.1-1.9 0.1-2.4 0.1-4.8 0.2-7.2 0.1-2.2 0.1-4.4 0.2-6.7 0-0.6 0-1.3 0.1-1.9 0-0.2 0-0.3 0-0.5 0-0.1 0-0.4 0-0.5 0.1-0.2 0.7-0.3 0.9-0.4 0.2-0.1 0.4-0.2 0.7-0.3 0.2-0.1 0.5-0.2 0.7-0.4 0.1-0.1 0.1-0.4 0.3-0.5 0.2-0.1 0.3 0 0.3 0.1 0 0 0 0 0 0 0.1 0.2 0.7-0.3 0.8-0.4 0.4-0.2 0.8-0.4 1.2-0.6 0 0.5 0 1.1 0 1.6 0 0.2 0 0.3 0 0.5 0 0.2 0 0.2 0.2 0.2 0.3 0 0.5 0 0.8 0 1.2 0 2.3 0 3.5 0.1 2.3 0.1 4.6 0.1 7 0.1 2.3 0 4.6 0 7-0.1 1.1 0 2.2 0 3.2 0 1.2 0 2.3-0.1 3.5-0.1 0.6 0 1.1 0 1.7 0 0.3 0 0.6 0 0.9 0 0.1 0 0.3-0.1 0.4 0 0.1 0.1 0 0.1 0.1 0.2 0 0 0.2 0.2 0.2 0.2 0.1 0 0.1 0 0.1 0 0.1 0 0.2 0.3 0.2 0.4 0 0.1 0 0.1 0 0.2 0-0.1 0.1 0.2 0 0.1 0.1 0.1 0.1 0 0.1 0 0 0 0.2 0 0.1 0 0.1 0 0.1-0.2 0.3 0 0 0 0-0.1 0.1-0.1 0.1 0 0 0.1 0.1 0.1 0.1 0.1 0.1 0 0.1 0 0 0 0.2 0 0.2 0 0 0 0 0.1 0 0.1 0 0.1 0.1 0.1 0.1 0.1 0.1 0 0.1-0.1 0.1 0 0.1 0.1-0.1 0.1-0.1 0.2 -0.2 0.3 0.2 0.1 0.3 0.3 0 0.1 0 0.2 0 0.2 0 0 0 0.1 0 0.1 0 0-0.1 0.1-0.1 0 0 0 0 0 0 0.1 0 0 0.1 0.1 0.1 0.2 0 0-0.1 0 0 0.1 0 0 0 0 0 0.1 0 0.1 0 0.2 0 0.3 0 0.1 0 0.1 0 0.2 0 0-0.1 0-0.1 0.1 -0.2 0 0.2 0.3 0.2 0.4 0.1 0.2 0 0.2 0.1 0.3 0 0.1 0.2 0.1 0.1 0.2 0.2-0.1 0.1 0.1 0.1 0.1 0.1 0.1 0.1 0.1 0.2 0.1 0.1 0 0.2 0 0.2 0 0 0 0 0.1 0 0.1 0 0 0.1 0 0.1 0.1 0 0-0.1 0.1 0 0.1 0 0 0.1 0 0.2 0 0.1 0 0.2 0.1 0.3 0.1 0 0 0-0.1 0.1-0.1 0.1 0 0.1 0 0.1 0.1 0.1 0.1 0 0.1 0.2 0.1 0.1 0 0.2-0.1 0.2 0 0 0-0.1 0.1 0 0.2 0 0.1 0.1 0 0.1 0.1 0.1 0.1 0.3 0.3 0.1 0.4 -0.1 0-0.2 0-0.2 0 0 0 0 0.1-0.1 0.1 0 0-0.1 0.1-0.2 0.1 0 0 0 0.1 0 0.1 0 0.1-0.1 0.1-0.2 0.1C48 27.3 48 27.4 48 27.5c-0.1 0.1-0.1 0.2-0.1 0.3 0 0 0 0 0 0.1 0 0 0 0.1-0.1 0.1 0 0.1 0 0.1-0.1 0.2 -0.1 0.2-0.2 0.3-0.4 0.5 -0.1 0.1-0.3 0.2-0.3 0.3 0 0 0.2-0.1 0.1 0 -0.1 0.1-0.2 0.1-0.3 0.2 -0.1 0.1-0.1 0.2-0.1 0.2 -0.1 0.1-0.3 0.1-0.4 0.2 -0.1 0-0.2 0.1-0.2 0.2 -0.1 0.1 0 0.1 0.1 0.2 0.1 0.2 0.2 0.3 0.3 0.5 0 0 0 0.1 0 0.1 0 0.1 0.1 0.1 0.1 0.1 0 0.1 0.1 0.2-0.1 0.2 0 0-0.1-0.1-0.2 0 -0.1 0.1 0 0.1 0 0.1 0 0 0.1 0.1 0 0.1 0 0-0.1 0.1-0.1 0.1 -0.1 0.1-0.1 0.1-0.2 0.2 0 0 0 0.1-0.1 0.1 -0.1 0-0.1-0.1-0.2 0 0 0-0.2 0.2-0.2 0.2 0 0.1 0.1 0.1 0.1 0.2 0 0.1-0.1 0.2-0.1 0.3 0 0.1 0.1 0.1 0.2 0.1 0 0.1-0.1 0.1-0.1 0.2 0 0.1 0.2 0.3 0 0.3 0 0.1 0.1 0.1 0.1 0.2 0 0 0 0.1 0 0.1 0.1 0.2 0.2 0.1 0.3 0 0.2 0 0.3 0 0.5 0.2 0.1 0.2 0.1 0.4 0.1 0.6 0 0.2 0 0.4 0.1 0.5 0.1 0.1 0.3 0 0.4 0 0.2 0 0.3 0.2 0.3 0.4 0.1 0.3 0.1 0.3 0.4 0.4 0.2 0.1 0.2 0.3 0.3 0.5 0.1 0.2 0.3 0.2 0.5 0.3 0.1 0.1 0.1 0.1 0.1 0.2 0.1 0.1 0.1 0.1 0.2 0.2C49.2 37 48.9 37.1 48.8 37.1z"/>
</svg>