<?xml version="1.0" encoding="utf-8"?>
<!-- Generator: Adobe Illustrator 19.2.1, SVG Export Plug-In . SVG Version: 6.00 Build 0)  -->
<!DOCTYPE svg PUBLIC "-//W3C//DTD SVG 1.1//EN" "http://www.w3.org/Graphics/SVG/1.1/DTD/svg11.dtd">
<svg version="1.1" id="Layer_2" xmlns="http://www.w3.org/2000/svg" xmlns:xlink="http://www.w3.org/1999/xlink" x="0px" y="0px"
	 viewBox="0 0 73 73" enable-background="new 0 0 73 73" xml:space="preserve">
<g>
	<circle fill="#54B3E1" cx="36.5" cy="36.5" r="36"/>
	<path fill="#FFFFFF" d="M59,43.7l-2.9-3.1c-0.1-0.1-0.3-0.5-0.2-0.7l0.2-2.7c0-0.2,0.2-0.7,0.3-0.9l2.2-2.9
		c0.4-0.5,0.3-1.2-0.2-1.7L57,30.4c-0.2-0.2-0.4-0.5-0.5-0.8l-0.4-1.5c-0.1-0.5-0.6-1-1.1-1.1c-0.1,0-0.4-0.2-0.5-0.4l0,0
		c-0.2-0.5-0.8-0.9-1.4-0.9l-32.1-0.2c-0.1,0-0.1-0.1-0.1-0.1v-1.1c0-0.5-0.4-0.9-0.9-0.9c-0.2,0-0.3,0-0.5,0.1l-4.4,2.3
		c-0.5,0.3-0.8,0.9-0.9,1.4l-0.7,21.1c0,0.3,0.1,0.6,0.3,0.8c0.2,0.2,0.5,0.4,0.8,0.4l35.4,0.2h0c0.5,0,1.1-0.3,1.5-0.6l0.2-0.2
		c0.2-0.2,0.6-0.4,0.9-0.5l2.6-0.9c0.4-0.1,0.9-0.4,1.3-0.6l2.1-1.5c0.3-0.2,0.4-0.5,0.5-0.8C59.3,44.2,59.2,43.9,59,43.7z"/>
</g>
</svg>
