<?xml version="1.0" encoding="utf-8"?>
<!-- Generator: Adobe Illustrator 19.2.1, SVG Export Plug-In . SVG Version: 6.00 Build 0)  -->
<!DOCTYPE svg PUBLIC "-//W3C//DTD SVG 1.1//EN" "http://www.w3.org/Graphics/SVG/1.1/DTD/svg11.dtd">
<svg version="1.1" id="Layer_2" xmlns="http://www.w3.org/2000/svg" xmlns:xlink="http://www.w3.org/1999/xlink" x="0px" y="0px"
	 viewBox="0 0 73 73" enable-background="new 0 0 73 73" xml:space="preserve">
<g>
	<circle fill="#54B3E1" cx="36.5" cy="36.5" r="36"/>
	<g transform="translate(0,-952.36216)">
		<path fill="#FFFFFF" d="M33.3,967c0,0-0.1,0-0.1,0l-14.9,4.1c-0.2,0.1-0.3,0.3-0.3,0.5l4.2,15.4l2.1,11.2l1.2,12.3
			c0,0.2,0.2,0.4,0.4,0.3c0,0,0.1,0,0.1,0l7.9-2.6c0,0,0.1,0,0.1-0.1l6.9-5.2c0,0,0.1-0.1,0.1-0.1l2.7-4.4h3.8c0.1,0,0.1,0,0.2,0
			l7.2-3.6c0.2-0.1,0.3-0.3,0.2-0.5c0,0,0,0,0,0l-7.2-11.9c0,0,0,0,0,0c0,0-2.3-2.9-4.7-5.9c-1.2-1.5-2.3-3-3.2-4.1
			c-0.4-0.6-0.8-1.1-1.1-1.4c-0.1-0.2-0.2-0.3-0.3-0.4c0,0-0.1-0.1-0.1-0.1c0,0,0-0.1,0,0c0-0.2-0.1-0.2-0.2-0.3
			c-0.1-0.1-0.1-0.1-0.2-0.2c-0.1-0.1-0.3-0.3-0.6-0.4c-0.4-0.3-1-0.7-1.6-1.1c-1.2-0.7-2.3-1.4-2.3-1.4C33.4,967,33.3,967,33.3,967
			L33.3,967z"/>
	</g>
</g>
</svg>
