<?xml version="1.0" encoding="utf-8"?>
<!-- Generator: Adobe Illustrator 19.2.1, SVG Export Plug-In . SVG Version: 6.00 Build 0)  -->
<!DOCTYPE svg PUBLIC "-//W3C//DTD SVG 1.1//EN" "http://www.w3.org/Graphics/SVG/1.1/DTD/svg11.dtd">
<svg version="1.1" id="Layer_2" xmlns="http://www.w3.org/2000/svg" xmlns:xlink="http://www.w3.org/1999/xlink" x="0px" y="0px"
	 viewBox="0 0 73 73" enable-background="new 0 0 73 73" xml:space="preserve">
<g>
	<circle fill="#54B3E1" cx="36.5" cy="36.5" r="36"/>
	<path fill="#FFFFFF" d="M58.5,49.4l-0.6-1.2c-0.1-0.2-0.1-0.5,0-0.7l0.5-1.6c0.1-0.4,0.1-1,0-1.4l-0.7-1.9c0.2,0,0.3-0.1,0.4-0.2
		c0.2-0.2,0.3-0.5,0.3-0.8l-0.5-13.3c0-0.5-0.4-1-0.9-1.1l-0.3-0.1c-0.2-0.1-0.4-0.3-0.5-0.4L55.8,26c-0.1-0.1-0.1-0.4,0-0.5
		l0.8-1.2c0.2-0.3,0.2-0.6,0.1-0.8c-0.1-0.2-0.4-0.4-0.7-0.4l-39.5-0.5c-0.5,0-1,0.4-1,1l-1.1,21.7c0,0.3,0.1,0.5,0.3,0.7
		c0.2,0.2,0.4,0.3,0.7,0.3l30.6,0.5c0.2,0,0.6,0.1,0.8,0.2L48,48c0.3,0.2,0.8,0.3,1.2,0.3c0.1,0,0.1,0,0.2,0l3.7-0.4
		c0.2,0,0.6,0.1,0.8,0.2l1.1,0.6c0.3,0.1,0.7,0.4,1,0.5l1.7,1c0.2,0.1,0.3,0.1,0.4,0.1c0.2,0,0.4-0.1,0.5-0.3
		C58.7,49.9,58.7,49.7,58.5,49.4z"/>
</g>
</svg>
