<?xml version="1.0" encoding="utf-8"?>
<!-- Generator: Adobe Illustrator 19.2.1, SVG Export Plug-In . SVG Version: 6.00 Build 0)  -->
<!DOCTYPE svg PUBLIC "-//W3C//DTD SVG 1.1//EN" "http://www.w3.org/Graphics/SVG/1.1/DTD/svg11.dtd">
<svg version="1.1" id="Layer_2" xmlns="http://www.w3.org/2000/svg" xmlns:xlink="http://www.w3.org/1999/xlink" x="0px" y="0px"
	 viewBox="0 0 73 73" enable-background="new 0 0 73 73" xml:space="preserve">
<g>
	<circle fill="#54B3E1" cx="36.5" cy="36.5" r="36"/>
	<path fill="#FFFFFF" d="M57.5,32.9l-8.9-8.8c-0.4-0.4-1.1-0.7-1.7-0.7l-8.1,0.1l0-0.1c0.2-0.6,0-1.4-0.4-1.9l-0.7-0.8
		c-0.3-0.3-0.7-0.5-1.1-0.5c-0.3,0-0.6,0.1-0.8,0.3l-0.2,0.1c0,0,0,0,0,0s0,0,0,0l-0.2-0.3c-0.3-0.6-1-1-1.7-1h-8.1
		c-0.5,0-1.2,0.1-1.6,0.2l-5.6,1.1c-0.6,0.1-1.2,0.6-1.5,1.1L15.4,24c-0.4,0.6-0.2,1.5,0.3,1.9l2.3,1.9c0.3,0.2,0.7,0.4,1.1,0.4
		c0.3,0,0.6-0.1,0.8-0.2l0.3-0.2c0.1,0,0.2,0,0.2,0.1l7.2,11.6c0.3,0.4,0.7,1,1.1,1.3l2.4,2c0.2,0.2,0.4,0.6,0.4,0.8l0.3,2.7
		c0.1,0.5,0.3,1.2,0.5,1.6l2,3.9c0.3,0.5,0.9,1,1.4,1.2l1,0.3c0.2,0.1,0.4,0.1,0.6,0.1c0.5,0,1-0.2,1.3-0.5l3-2.6
		c0.3-0.2,0.4-0.6,0.5-1c0-0.4-0.1-0.7-0.4-1c0,0,0,0,0,0l10-7c0.4-0.3,0.9-0.9,1.1-1.3l1.5-3c0.1-0.3,0.5-0.7,0.7-0.9l2.3-1.6
		c0.3-0.2,0.5-0.6,0.5-0.9C57.9,33.6,57.7,33.2,57.5,32.9z"/>
</g>
</svg>
