<?xml version="1.0" encoding="utf-8"?>
<!-- Generator: Adobe Illustrator 19.2.1, SVG Export Plug-In . SVG Version: 6.00 Build 0)  -->
<!DOCTYPE svg PUBLIC "-//W3C//DTD SVG 1.1//EN" "http://www.w3.org/Graphics/SVG/1.1/DTD/svg11.dtd">
<svg version="1.1" id="Layer_2" xmlns="http://www.w3.org/2000/svg" xmlns:xlink="http://www.w3.org/1999/xlink" x="0px" y="0px"
	 viewBox="0 0 73 73" enable-background="new 0 0 73 73" xml:space="preserve">
<g>
	<circle fill="#54B3E1" cx="36.5" cy="36.5" r="36"/>
	<path fill="#FFFFFF" d="M63.1,29.9c-0.2-0.2-0.4-0.3-0.7-0.3H24.3c-0.3,0-0.5,0.1-0.7,0.3c-0.2,0.2-0.3,0.5-0.2,0.8l0,0.4
		c0,0,0,0,0,0c0,0,0,0,0,0h-7.7c-0.5,0-1,0.3-1.2,0.8l-4.6,9.9c-0.1,0.3-0.1,0.6,0,0.8c0.1,0.2,0.4,0.4,0.7,0.4l35.4,0.5h0
		c0.4,0,1-0.2,1.3-0.6l1.3-1.4c0.3-0.4,0.4-1,0.2-1.4l-0.2-0.4c0-0.1,0-0.2,0.1-0.2l1.3-0.7c0.1,0,0.2-0.1,0.4-0.1
		c0.1,0,0.2,0,0.2,0l0.4,0.2c0.1,0.1,0.3,0.1,0.5,0.1c0.3,0,0.7-0.1,0.9-0.3l4.4-3.2c0.2-0.1,0.5-0.2,0.7-0.2l0.6,0H58
		c0.4,0,0.9-0.1,1.2-0.3l3.1-1.9c0.4-0.2,0.7-0.7,0.8-1.2l0.2-1.2C63.4,30.4,63.3,30.1,63.1,29.9z"/>
</g>
</svg>
