<?xml version="1.0" encoding="utf-8"?>
<!-- Generator: Adobe Illustrator 19.2.1, SVG Export Plug-In . SVG Version: 6.00 Build 0)  -->
<!DOCTYPE svg PUBLIC "-//W3C//DTD SVG 1.1//EN" "http://www.w3.org/Graphics/SVG/1.1/DTD/svg11.dtd">
<svg version="1.1" id="Layer_2" xmlns="http://www.w3.org/2000/svg" xmlns:xlink="http://www.w3.org/1999/xlink" x="0px" y="0px"
	 viewBox="0 0 73 73" enable-background="new 0 0 73 73" xml:space="preserve">
<g>
	<circle fill="#54B3E1" cx="36.5" cy="36.5" r="36"/>
	<path fill="#FFFFFF" d="M59.2,36.1l-1.5-2.3c-0.2-0.3-0.3-0.8-0.3-1.1v-4c0-0.7-0.5-1.4-1.2-1.7L53.7,26c-0.5-0.2-1.3-0.3-1.8-0.3
		l-6.4,0.2h-0.1c-0.4,0-1-0.1-1.3-0.2l-6.5-2c-0.1,0-0.3-0.3-0.3-0.4v-7.1c0-0.8-0.6-1.5-1.4-1.5l-8.6-0.2h0c-0.8,0-1.4,0.6-1.5,1.4
		l-0.6,16.4c0,0.1-0.1,0.2-0.2,0.2H14.5c-0.7,0-0.9,0.4-1,0.6c-0.1,0.2-0.2,0.6,0.3,1.1l4.5,4.5c0.2,0.2,0.6,0.8,0.7,1.1l1.1,2.8
		c0.2,0.6,0.8,1.2,1.3,1.4l3.1,1.6c0.2,0.1,0.4,0.2,0.7,0.2c0.5,0,1-0.3,1.3-0.8l0.8-1.4c0.1-0.2,0.4-0.4,0.6-0.4l1.5-0.1h0
		c0.3,0,0.8,0.1,1,0.3l2.2,1.4c0.3,0.2,0.7,0.6,0.8,0.9l5.4,10.1c0.3,0.5,1,1.1,1.6,1.2l5.2,1.3c0.1,0,0.2,0,0.3,0
		c0.3,0,0.7-0.1,0.9-0.4c0.2-0.3,0.3-0.6,0.2-1l-0.7-3c-0.1-0.3,0-0.8,0.1-1l1.8-3.6c0.1-0.3,0.5-0.7,0.8-0.8l8.8-5.2
		c0.5-0.3,1-1,1.2-1.6l0.7-3.8C59.7,37.4,59.5,36.6,59.2,36.1z"/>
</g>
</svg>
