<?xml version="1.0" encoding="utf-8"?>
<!-- Generator: Adobe Illustrator 19.2.1, SVG Export Plug-In . SVG Version: 6.00 Build 0)  -->
<!DOCTYPE svg PUBLIC "-//W3C//DTD SVG 1.1//EN" "http://www.w3.org/Graphics/SVG/1.1/DTD/svg11.dtd">
<svg version="1.1" id="Layer_2" xmlns="http://www.w3.org/2000/svg" xmlns:xlink="http://www.w3.org/1999/xlink" x="0px" y="0px"
	 viewBox="0 0 73 73" enable-background="new 0 0 73 73" xml:space="preserve">
<g>
	<circle fill="#54B3E1" cx="36.5" cy="36.5" r="36"/>
	<g transform="translate(0,-952.36216)">
		<path fill="#FFFFFF" d="M26.2,966.3c-0.2,0-0.3,0.1-0.4,0.3l-7.2,39.5c0,0.2,0.1,0.4,0.3,0.4c0,0,0,0,0,0l30.8,4.8
			c0.2,0,0.4-0.1,0.4-0.3c0,0,0,0,0,0l4.3-31c0-0.2-0.1-0.4-0.3-0.4c0,0,0,0,0,0l-11.6-1.2l1.4-7.8c0-0.2-0.1-0.4-0.3-0.4
			L26.2,966.3C26.2,966.3,26.2,966.3,26.2,966.3z"/>
	</g>
</g>
</svg>
