<?xml version="1.0" encoding="utf-8"?>
<!-- Generator: Adobe Illustrator 19.2.1, SVG Export Plug-In . SVG Version: 6.00 Build 0)  -->
<!DOCTYPE svg PUBLIC "-//W3C//DTD SVG 1.1//EN" "http://www.w3.org/Graphics/SVG/1.1/DTD/svg11.dtd">
<svg version="1.1" id="Layer_2" xmlns="http://www.w3.org/2000/svg" xmlns:xlink="http://www.w3.org/1999/xlink" x="0px" y="0px"
	 viewBox="0 0 73 73" enable-background="new 0 0 73 73" xml:space="preserve">
<g>
	<circle fill="#54B3E1" cx="36.5" cy="36.5" r="36"/>
	<g transform="translate(0,-952.36216)">
		<path fill="#FFFFFF" d="M46.7,964.9c0,0-0.1,0-0.1,0l-22.4,5.9c-0.2,0-0.3,0.2-0.3,0.4l0.4,5c0,0,0,0.1,0,0.1l2.4,8.5l-1.4,4
			c0,0.1,0,0.2,0,0.3l3.3,5.4l-0.3,2.5c0,0.2,0.1,0.3,0.2,0.4l3.6,2.1l2.5,12.9c0,0.2,0.2,0.4,0.5,0.3l9.5-1.7
			c0.2,0,0.3-0.2,0.3-0.4l-0.1-6.4c0-0.1,0-0.1,0-0.2l-0.8-1.7l1.1-18.8c0-0.1,0-0.1,0-0.2l-1.2-2.4l2.4-1.1c0.1,0,0.1-0.1,0.1-0.1
			l2.8-3.7c0.1-0.1,0.1-0.2,0.1-0.3l-0.2-3.4c0,0,0-0.1,0-0.1l-1.1-2.5l-0.6-4.6C47.1,965.1,46.9,964.9,46.7,964.9z"/>
	</g>
</g>
</svg>
