<?xml version="1.0" encoding="utf-8"?>
<!-- Generator: Adobe Illustrator 19.2.1, SVG Export Plug-In . SVG Version: 6.00 Build 0)  -->
<!DOCTYPE svg PUBLIC "-//W3C//DTD SVG 1.1//EN" "http://www.w3.org/Graphics/SVG/1.1/DTD/svg11.dtd">
<svg version="1.1" id="Layer_2" xmlns="http://www.w3.org/2000/svg" xmlns:xlink="http://www.w3.org/1999/xlink" x="0px" y="0px"
	 viewBox="0 0 73 73" enable-background="new 0 0 73 73" xml:space="preserve">
<g>
	<circle fill="#54B3E1" cx="36.5" cy="36.5" r="36"/>
	<g>
		<path fill="#FFFFFF" d="M59.2,43.1c-0.2-0.5-0.7-0.9-1.2-1L57.1,42c-0.1,0-0.3-0.1-0.3-0.2l-0.5-2.2c0-0.1,0-0.1,0.1-0.1l0.1,0
			c0.6-0.1,1-0.7,0.9-1.3l-0.1-2.8c0-0.5-0.3-1.1-0.7-1.4l-3.1-2.6c-0.3-0.3-0.9-0.5-1.4-0.5H51l1-2.6c0.2-0.5,0-1.2-0.3-1.5l-3-2.9
			c-0.2-0.2-0.4-0.3-0.7-0.3c-0.3,0-0.7,0.2-0.8,0.5l-0.2,0.4c0,0,0,0-0.1,0l-2-1.6c-0.2-0.2-0.4-0.2-0.7-0.2
			c-0.4,0-0.7,0.2-0.9,0.5l-2.4,3.7C40.7,27,40.6,27,40.6,27c-0.1-0.1-0.3-0.1-0.5-0.1c-0.4,0-0.8,0.2-1,0.6l-1.2,2.5
			c0,0.1-0.2,0.1-0.2,0.1l-1.3-0.5c-0.1,0-0.2-0.1-0.4-0.1c-0.5,0-0.9,0.3-1.1,0.7l-3.5,7c-0.1,0.2-0.3,0.4-0.5,0.4L25,39.1
			c-0.1,0-0.2,0-0.3,0c-0.2,0-0.4,0-0.6-0.1l-2.9-1.2c-0.2-0.1-0.4-0.1-0.6-0.1c-0.3,0-0.7,0.1-0.9,0.2l-9.2,5.7
			C10,44,10,44.3,10.1,44.5c0,0.1,0.2,0.5,0.7,0.5l24,1.3c0.3,0,0.8,0,1.1,0l23-0.2c0.3,0,0.6-0.1,0.8-0.4c0.2-0.2,0.2-0.6,0.1-0.9
			L59.2,43.1z"/>
		<path fill="#FFFFFF" d="M62.8,33.9c-0.1-0.2-0.4-0.4-0.7-0.4c0,0-0.1,0-0.1,0l-0.9,0.1c-0.5,0.1-1,0.5-1.2,1l-1.8,4.9
			c-0.1,0.3-0.1,0.6,0.1,0.9c0.2,0.2,0.4,0.4,0.7,0.4l0.1,0c0,0,0.1,0,0.1,0c0.5,0,1-0.3,1.3-0.8l2.4-5.4C63,34.4,63,34.1,62.8,33.9
			z"/>
	</g>
</g>
</svg>
