<?xml version="1.0" encoding="utf-8"?>
<!-- Generator: Adobe Illustrator 19.2.1, SVG Export Plug-In . SVG Version: 6.00 Build 0)  -->
<!DOCTYPE svg PUBLIC "-//W3C//DTD SVG 1.1//EN" "http://www.w3.org/Graphics/SVG/1.1/DTD/svg11.dtd">
<svg version="1.1" id="Layer_2" xmlns="http://www.w3.org/2000/svg" xmlns:xlink="http://www.w3.org/1999/xlink" x="0px" y="0px"
	 viewBox="0 0 73 73" enable-background="new 0 0 73 73" xml:space="preserve">
<g>
	<circle fill="#54B3E1" cx="36.5" cy="36.5" r="36"/>
	<path fill="#FFFFFF" d="M59.9,29.1L57,26.6c-0.3-0.3-0.8-0.4-1.2-0.4c-0.4,0-0.8,0.1-1.1,0.4l-1.1,0.8c-0.1,0.1-0.5,0.2-0.8,0.2
		c-0.1,0-0.2,0-0.2,0l-1.7-0.4c-0.2,0-0.3-0.1-0.5-0.1c-0.6,0-1.2,0.2-1.7,0.5l-4.6,3.6l0.1-3.9c0-0.4-0.2-0.8-0.5-1.2
		c-0.3-0.3-0.7-0.5-1.1-0.5l-8.1-0.1c0,0-0.1,0-0.1,0c0,0,0-0.1,0-0.1l0.1-9.2c0-0.3,0-0.7-0.3-0.9c-0.1-0.1-0.3-0.2-0.6-0.2
		c-0.6,0-0.8,0.6-0.9,0.8l-3.3,10c-0.1,0.4-0.5,0.9-0.7,1.1l-2.3,2.2c-0.2,0.2-0.7,0.4-1,0.4l-0.2,0c-0.8,0-1.6,0.4-2,1.1l-1.9,3.4
		c-0.1,0.1-0.2,0.2-0.4,0.2c0,0-0.1,0-0.1,0L20.1,34c-0.1,0-0.3-0.1-0.5-0.1c-0.7,0-1.4,0.5-1.6,1.2l-0.9,3.1
		c-0.1,0.4-0.4,1-0.7,1.3l-3.6,4.2c-0.5,0.6-0.6,1.6-0.1,2.3l8.4,11.2c0.3,0.5,0.9,0.7,1.6,0.7c0.2,0,0.4,0,0.7-0.1l11.8-4.6
		c0.6-0.2,1.3-0.9,1.6-1.4l5.6-10.3c0,0,0,0,0,0c0,0,0,0,0,0l1.4,1c0.3,0.2,0.6,0.3,0.9,0.3c0.6,0,1.1-0.3,1.3-0.8l2.2-3.8
		c0,0,0,0,0,0c0.3,0.2,0.6,0.3,0.9,0.3c0.5,0,1-0.2,1.3-0.6l2.8-3.1c0.4-0.4,0.8-1.2,1-1.8l0.6-1.9l3.1,2.5c0.3,0.2,0.6,0.3,0.9,0.3
		c0.6,0,1.1-0.4,1.2-1l0.4-1.4C60.7,30.6,60.4,29.6,59.9,29.1z"/>
</g>
</svg>
