<?xml version="1.0" encoding="utf-8"?>
<!-- Generator: Adobe Illustrator 19.2.1, SVG Export Plug-In . SVG Version: 6.00 Build 0)  -->
<!DOCTYPE svg PUBLIC "-//W3C//DTD SVG 1.1//EN" "http://www.w3.org/Graphics/SVG/1.1/DTD/svg11.dtd">
<svg version="1.1" id="Layer_2" xmlns="http://www.w3.org/2000/svg" xmlns:xlink="http://www.w3.org/1999/xlink" x="0px" y="0px"
	 viewBox="0 0 73 73" enable-background="new 0 0 73 73" xml:space="preserve">
<g>
	<circle fill="#54B3E1" cx="36.5" cy="36.5" r="36"/>
	<path fill="#FFFFFF" d="M55.2,30.2C55,30,54.8,30,54.5,30c-0.5,0-0.9,0.2-1.2,0.6l-4.9,7c0,0.1-0.1,0.1-0.2,0.1c0,0-0.1,0-0.1,0
		l-0.2-0.1c0,0,0,0,0,0s0,0,0,0l1.8-2.6c0.3-0.4,0.5-1.2,0.5-1.7l-0.1-1.5c0-0.6-0.5-1.3-1.1-1.5c-0.1-0.1-0.4-0.3-0.4-0.5l-0.4-1.9
		c-0.1-0.6-0.6-1.2-1.2-1.5L44.4,25c-0.4-0.2-1-0.4-1.5-0.5l-7-2c-0.3-0.1-0.7-0.4-0.8-0.6l-0.4-0.5c-0.3-0.4-0.9-0.9-1.4-1.1
		l-2-0.9c-0.1-0.1-0.3-0.3-0.3-0.5l0-0.7c0-0.6-0.2-1.3-0.8-1.5c-0.2-0.1-0.4-0.2-0.7-0.2c-0.3,0-0.6,0.1-0.9,0.2l-3.5,1.4
		c-0.3,0.1-0.9,0.3-1.3,0.3l-2,0.2c-0.7,0.1-1.3,0.7-1.3,1.4l-0.1,3.7c0,0.3-0.2,0.7-0.4,0.9l-2.5,2.5c-0.5,0.5-0.6,1.3-0.2,1.9
		l0.3,0.5c0.1,0.2,0.2,0.7,0.2,0.9l-0.8,4.8c-0.1,0.6,0.2,1.4,0.7,1.8l7.5,6.2c0.2,0.2,0.4,0.6,0.5,0.8l1.4,8c0.1,0.6,0.5,1.2,1,1.6
		l0.7,0.5c0.3,0.2,0.6,0.6,0.8,0.9l0.3,0.4c0.3,0.5,1,0.9,1.6,0.9h0l16.8,0c0.4,0,0.7-0.2,1-0.4c0.2-0.3,0.3-0.6,0.3-1L49,50
		c0-0.3,0-0.9,0-1.3l0.8-4.7c0.1-0.3,0.2-0.9,0.4-1.2L55.7,32C56.1,31.3,55.8,30.5,55.2,30.2z"/>
</g>
</svg>
